<?xml version="1.0" encoding="UTF-8" standalone="no"?>
<!DOCTYPE svg PUBLIC "-//W3C//DTD SVG 1.1//EN" "http://www.w3.org/Graphics/SVG/1.1/DTD/svg11.dtd">
<svg width="100%" height="100%" viewBox="0 0 1500 1000" version="1.1" xmlns="http://www.w3.org/2000/svg" xmlns:xlink="http://www.w3.org/1999/xlink" xml:space="preserve" xmlns:serif="http://www.serif.com/" style="fill-rule:evenodd;clip-rule:evenodd;stroke-linejoin:round;stroke-miterlimit:2;">
    <g transform="matrix(0.425038,0,0,0.425038,-113.613,23.2842)">
        <g transform="matrix(0.966667,0,0,0.966667,67.7283,262.932)">
            <circle cx="1708.6" cy="594.3" r="8.5" style="fill:rgb(177,171,222);"/>
            <ellipse cx="1649.6" cy="504.9" rx="32.4" ry="16.2" style="fill:rgb(177,171,222);"/>
            <ellipse cx="1569.3" cy="347.5" rx="243.6" ry="101.8" style="fill:rgb(177,171,222);"/>
            <circle cx="1494.3" cy="347.5" r="23.5" style="fill:white;"/>
            <circle cx="1569.3" cy="347.5" r="23.5" style="fill:white;"/>
            <circle cx="1644.2" cy="347.5" r="23.5" style="fill:white;"/>
        </g>
        <g transform="matrix(0.966667,0,0,0.966667,67.7283,262.932)">
            <g>
                <path d="M1832.5,693.1L1785.9,672.3C1785.9,672.3 1790.4,687.6 1790.5,708.9C1805.2,707.3 1819.5,702.3 1832.7,695.6L1832.5,693.1Z" style="fill:rgb(237,126,148);fill-rule:nonzero;"/>
                <path d="M1790.5,708.9C1790.6,726.2 1787.8,747.6 1777.4,768C1754.3,813.5 1837.6,772.6 1837.6,772.6L1832.7,695.6C1819.5,702.2 1805.2,707.3 1790.5,708.9Z" style="fill:rgb(255,150,169);fill-rule:nonzero;"/>
                <path d="M1778.2,605.2C1778.2,605.2 1774,610.5 1768.5,618.4C1770.1,619.5 1771.8,620.5 1773.2,621.8C1789.4,631.1 1810.2,631.1 1823,646.1C1828.8,654.2 1825.3,665.8 1819.5,671.6C1810.5,682.7 1797.3,688.8 1783.2,692.2C1821.4,695.3 1873.9,690.2 1873.9,690.2C1873.9,690.2 1947.9,585.9 1778.2,605.2Z" style="fill:rgb(237,126,148);fill-rule:nonzero;"/>
                <path d="M1819.5,671.5C1825.3,665.7 1828.8,654.1 1823,646C1810.3,631 1789.4,631 1773.2,621.7C1771.9,620.4 1770.2,619.4 1768.5,618.3C1757.6,634.1 1741.7,660.6 1744.2,677.3C1745.6,686.2 1762.2,690.3 1783.2,692C1797.3,688.7 1810.5,682.6 1819.5,671.5Z" style="fill:rgb(255,150,169);fill-rule:nonzero;"/>
                <path d="M1858.4,631.4C1858.4,631.4 1813.7,642.2 1762.7,607.5C1711.8,572.8 1757.3,510.3 1829.8,551.9C1902.3,593.6 1896.2,639.9 1896.2,639.9C1896.2,639.9 1974.1,649.9 1972.6,731.7C1971.1,813.5 1834.5,816.6 1834.5,816.6C1834.5,816.6 1805.2,717.8 1852.2,650.7C1852.2,650.7 1885.4,651.5 1876.1,631.4C1866.9,611.3 1858.4,631.4 1858.4,631.4Z" style="fill:rgb(50,38,102);fill-rule:nonzero;"/>
                <path d="M1503.5,890.2C1489.9,870.3 1478.9,849.1 1469.7,827.1C1463.6,830 1457.1,831.9 1450.6,832.2C1463,857.3 1479.4,881.2 1501.2,900.6C1501.2,900.6 1633.9,894.4 1695.6,853.5C1708.4,845 1724.3,840.4 1741.4,838.3C1740.6,829 1739.9,819.7 1739.6,810.3C1667.9,852.1 1588,886.8 1503.5,890.2Z" style="fill:rgb(255,204,70);fill-rule:nonzero;"/>
                <path d="M1895.8,840.5C1890.4,845.9 1885.3,851.5 1880.3,857.4C1886.4,859.3 1889.9,860.6 1889.9,860.6C1889.9,860.6 1964.1,981 2077.5,1018.8C2077.5,1018.8 2102,1008.1 2133.5,989.7C2130.1,987 2127,984.1 2124,980.9C2108.8,988.8 2092.8,995.3 2076.3,1000.2C2005.8,962 1937.5,909.9 1895.8,840.5Z" style="fill:rgb(255,204,70);fill-rule:nonzero;"/>
                <path d="M2068.3,946.2L1915.5,777.2L1872.5,763.9C1845.8,780.1 1814,788.4 1783.6,784.9C1765.4,782 1744.1,772.1 1731.4,755.6L1708.8,759.4L1531.3,829.6C1531.3,829.6 1520.9,813.9 1507.7,790.2C1505.5,794.3 1502.9,798.3 1500.1,802.2C1492.4,811.6 1481.8,821.4 1469.8,827.1C1479,849.1 1490,870.2 1503.6,890.2C1588.1,886.7 1667.9,852 1739.7,810.3C1740.1,819.7 1740.8,829 1741.5,838.3C1793.4,832 1856.7,849.7 1880.4,857.3C1885.4,851.4 1890.6,845.8 1895.9,840.4C1937.6,909.8 2005.8,961.9 2076.4,1000.1C2092.9,995.2 2108.8,988.7 2124.1,980.8C2111.3,967.2 2102.7,949.9 2101.7,931.6C2089.9,938.1 2078.5,943.3 2068.3,946.2Z" style="fill:rgb(255,221,133);fill-rule:nonzero;"/>
                <path d="M2307.8,818.5C2319.4,828.9 2320.5,846.3 2314.7,856.7C2304.3,879.8 2271.9,872.9 2253.4,859C2222.8,908 2179.7,950.9 2128.5,978.5C2131.8,981.4 2135.3,984 2139,986.4C2181.8,960.9 2234.9,922.2 2257.3,877.5C2257.3,877.5 2292.8,896.8 2318.3,878.3C2343.8,859.8 2318.3,827.4 2318.3,827.4C2318.3,827.4 2343,811.2 2368.4,810.4C2374.5,810.2 2377.5,807.5 2377.2,804.1C2353.6,803.6 2329,808.4 2307.8,818.5Z" style="fill:rgb(237,126,148);fill-rule:nonzero;"/>
                <path d="M2259.2,818.5C2263.8,824.3 2280,823.1 2283.5,832.4C2287,839.3 2284.7,848.6 2281.2,855.5C2283.5,852 2287,849.7 2288.1,846.2C2292.7,833.5 2281.2,820.7 2289.3,808C2290.5,806.3 2291.9,804.8 2293.3,803.5C2286.8,806.3 2279.9,809.6 2272.7,813.4C2250.1,825.5 2234.9,761.8 2209,776.7C2232.2,778.2 2245.2,802.3 2259.2,818.5Z" style="fill:rgb(237,126,148);fill-rule:nonzero;"/>
                <path d="M2377.2,804.1C2376.4,794.5 2349.4,779.6 2293.3,803.6C2291.8,805 2290.5,806.4 2289.3,808.1C2281.2,820.8 2292.8,833.6 2288.1,846.3C2286.9,849.8 2283.5,852.1 2281.2,855.6C2284.7,848.7 2287,839.4 2283.5,832.5C2280,823.2 2263.8,824.4 2259.2,818.6C2245.2,802.5 2232.2,778.3 2209,776.9C2208.4,777.3 2207.7,777.7 2207.1,778.1C2180.1,797.4 2227.9,811.3 2227.9,811.3C2227.9,811.3 2198.6,832.1 2210.2,853C2210.2,853 2152.3,904.3 2101.7,931.9C2101.7,932.4 2101.8,932.8 2101.8,933.3C2105.2,950.8 2115.1,966.9 2128.5,978.7C2179.7,951.1 2222.8,908.1 2253.4,859.2C2271.9,873.1 2304.3,880 2314.7,856.9C2320.5,846.5 2319.3,829.1 2307.8,818.7C2329,808.4 2353.6,803.6 2377.2,804.1Z" style="fill:rgb(255,150,169);fill-rule:nonzero;"/>
                <path d="M2101.8,933.1C2103.5,955.1 2115.9,975.5 2133.5,989.6C2135.3,988.5 2137.1,987.5 2139,986.4C2120.3,974.6 2106.1,954.9 2101.8,933.1Z" style="fill:rgb(237,126,148);fill-rule:nonzero;"/>
                <path d="M1448.3,827.6C1449,829.2 1449.8,830.7 1450.6,832.3C1470.1,831.4 1488.5,816.5 1500.1,802.3C1503,798.4 1505.5,794.4 1507.7,790.3C1507.6,790.2 1507.6,790 1507.5,789.9C1494,810.3 1472,823.6 1448.3,827.6Z" style="fill:rgb(237,126,148);fill-rule:nonzero;"/>
                <path d="M1386.6,636.8C1384.3,620.6 1392.4,605.6 1402.8,594C1386.3,594.9 1363.9,588.5 1355.4,573.7C1334.2,588.3 1394.7,597.4 1394.7,597.4C1394.7,597.4 1356.1,625.1 1372.3,647.9C1388.5,670.7 1412.4,666.9 1412.4,666.9C1412.4,666.9 1412.4,751.6 1448.3,827.6C1454.9,826.5 1461.4,824.6 1467.6,822.1C1446.3,768.9 1435.5,711.3 1426,655.3C1410.9,657.6 1390.1,654.2 1386.6,636.8Z" style="fill:rgb(237,126,148);fill-rule:nonzero;"/>
                <path d="M1414.4,628.7C1413.2,632.2 1414.4,636.8 1415.6,640.3C1414.4,625.3 1430.6,609.1 1445.7,613.7C1449.3,594 1469.5,586.1 1488.7,584.6C1475.2,583.4 1457,588.8 1446.5,597.5C1439,603.7 1430.2,596.7 1419.4,587.8C1425.4,600.3 1421.7,614.1 1414.4,628.7Z" style="fill:rgb(237,126,148);fill-rule:nonzero;"/>
                <path d="M1454.9,656.9C1454.9,656.9 1484.2,638.4 1471.9,619.9C1459.6,601.4 1508.2,617.6 1505.8,597.5C1504.9,589.4 1497.8,585.4 1488.6,584.6C1469.4,586.1 1449.2,594 1445.6,613.7C1430.6,609.1 1414.4,625.3 1415.5,640.3C1414.3,636.8 1413.2,632.2 1414.3,628.7C1421.6,614.2 1425.3,600.3 1419.2,587.8C1404.5,575.6 1386.2,559.9 1363,569.7C1359.7,571.1 1357.2,572.4 1355.3,573.7C1363.8,588.5 1386.2,594.9 1402.7,594C1392.3,605.6 1384.2,620.6 1386.5,636.8C1390,654.2 1410.8,657.6 1425.8,655.3C1435.4,711.3 1446.1,768.9 1467.4,822.1C1483.4,815.6 1497.5,804.6 1507.2,789.9C1487.7,754.5 1461.8,701.5 1454.9,656.9Z" style="fill:rgb(255,150,169);fill-rule:nonzero;"/>
                <path d="M1844,777.5C1853.9,774 1863.5,769.4 1872.5,764L1805.5,743.3L1737.3,754.7C1762,784.5 1806.5,788.5 1844,777.5Z" style="fill:rgb(255,150,169);fill-rule:nonzero;"/>
                <path d="M1737.3,754.7L1731.4,755.7C1744.1,772.1 1765.4,782.1 1783.6,785C1803.8,787.3 1824.5,784.4 1844,777.5C1806.5,788.5 1762,784.5 1737.3,754.7Z" style="fill:rgb(237,126,148);fill-rule:nonzero;"/>
                <path d="M1803.7,1414.2C1816.7,1327.4 1822.7,1235.2 1817,1141.4L1730.4,1099.7C1730.4,1099.7 1699.5,1215.7 1670.2,1390.1C1712.9,1407.2 1758.2,1414.8 1803.7,1414.2Z" style="fill:rgb(63,50,122);fill-rule:nonzero;"/>
                <path d="M1670.2,1390.2C1643.4,1550 1618.1,1758.8 1619.2,1972.4C1619.2,1972.4 1756.8,1728.1 1803.7,1414.3C1758.2,1414.8 1712.9,1407.2 1670.2,1390.2Z" style="fill:rgb(237,126,148);fill-rule:nonzero;"/>
                <path d="M1890.1,1262.9C1898.6,1226.5 1899.6,1190.8 1894.6,1155.7C1858.9,1178.1 1817.2,1192.3 1775.3,1195.7C1778.9,1252.9 1787.2,1315.5 1798.4,1379.6C1805.2,1374.9 1811.8,1369.9 1818.3,1364.7C1853,1338.1 1879.6,1305.7 1890.1,1262.9Z" style="fill:rgb(63,50,122);fill-rule:nonzero;"/>
                <path d="M1938.5,1388.9C1927.4,1264.7 1912,1193.8 1898,1153.4C1896.8,1154.2 1895.7,1154.9 1894.5,1155.6C1899.5,1190.7 1898.5,1226.5 1890,1262.8C1879.6,1305.6 1853,1338 1818.2,1364.6C1811.7,1369.8 1805,1374.8 1798.3,1379.5C1800.3,1391 1802.4,1402.5 1804.6,1414.1C1850.1,1413.5 1895.5,1404.6 1938.5,1388.9Z" style="fill:rgb(50,38,102);fill-rule:nonzero;"/>
                <path d="M1864.1,1099.7L1773.4,1141.4C1773.5,1158.8 1774.1,1177 1775.3,1195.7C1818.6,1192.2 1861.6,1177.2 1898.1,1153.4C1879.8,1100.4 1864.1,1099.7 1864.1,1099.7Z" style="fill:rgb(50,38,102);fill-rule:nonzero;"/>
                <path d="M1952.6,1972.3C1953.3,1930.1 1953.7,1890 1953.8,1851.9C1946.9,1854.1 1939.9,1855.7 1932.8,1856.4C1935.5,1884 1938.5,1911.7 1941.8,1939.2C1948.5,1960.4 1952.6,1972.3 1952.6,1972.3Z" style="fill:rgb(50,38,102);fill-rule:nonzero;"/>
                <path d="M1915.9,1856.4C1926.3,1890.9 1935.2,1919.2 1941.7,1939.2C1938.4,1911.6 1935.4,1884 1932.7,1856.4C1927.2,1856.9 1921.5,1857 1915.9,1856.4Z" style="fill:rgb(63,50,122);fill-rule:nonzero;"/>
                <path d="M1953.8,1851.9C1954.6,1646.7 1948.2,1497.5 1938.5,1389C1924.6,1394.1 1910.5,1398.4 1896.2,1402C1910.8,1553.1 1918,1705.3 1932.8,1856.4C1939.8,1855.6 1946.9,1854.1 1953.8,1851.9Z" style="fill:rgb(237,126,148);fill-rule:nonzero;"/>
                <path d="M1896.2,1401.9C1866.2,1409.4 1835.4,1413.7 1804.7,1414.1C1835.7,1578.5 1883.2,1747.9 1916,1856.3C1921.6,1856.9 1927.2,1856.8 1932.8,1856.3C1918,1705.2 1910.7,1553 1896.2,1401.9Z" style="fill:rgb(255,150,169);fill-rule:nonzero;"/>
                <path d="M1814.8,1024.5C1814.8,1047.6 1829.8,1063.8 1843.7,1083.5C1863.4,1112.4 1833.3,1141.4 1807.8,1154.1C1773.4,1171.8 1735.6,1175.3 1699,1168.2C1698.6,1169.3 1698.2,1170.4 1697.9,1171.4C1697.9,1171.4 1811.3,1227 1907.4,1124C1907.4,1124 1884.2,1088.4 1851.8,1063.8C1827.7,1045.5 1853.4,886.4 1906,856.3C1902.5,851.1 1899,845.9 1895.8,840.5C1848.4,887.9 1814.8,956.2 1814.8,1024.5Z" style="fill:rgb(255,204,70);fill-rule:nonzero;"/>
                <path d="M1716.5,898.3C1679.5,911 1620.4,890.2 1627.4,843.9C1627.5,843 1627.7,842.1 1628,841.3C1624.2,844.3 1621.4,847.5 1620.5,850.8C1614.7,870.5 1629.8,897.1 1658.7,912.1C1658.7,912.1 1656.9,927.2 1658.3,945.1C1659.8,941.6 1661.8,938.3 1664.5,935.2C1679.4,919.2 1701.4,913.4 1716.5,898.3Z" style="fill:rgb(255,204,70);fill-rule:nonzero;"/>
                <path d="M1773.2,840.5C1790.6,841.7 1807.9,848.6 1819.5,863.6C1826.4,875.2 1828.8,886.7 1820.7,898.3C1795.2,931.9 1745.5,913.3 1727,882.1C1730.5,897.1 1739.7,911 1752.5,919.1C1777.2,934.8 1808.6,937.9 1835.6,929.4C1845.5,906.5 1858.5,884.9 1873.7,865.6C1848.2,840.6 1806.7,837.4 1773.2,840.5Z" style="fill:rgb(255,204,70);fill-rule:nonzero;"/>
                <path d="M1707.2,783.8L1692.2,816.6C1692.2,816.6 1646.7,826.7 1628,841.4C1627.7,842.2 1627.5,843.1 1627.4,844C1620.5,890.3 1679.5,911.1 1716.5,898.4C1701.5,913.4 1679.5,919.2 1664.4,935.4C1661.8,938.5 1659.8,941.8 1658.2,945.3C1659.6,962.8 1663.9,983 1675.9,994.4C1699.8,1017.1 1720.3,1105.9 1699,1168.2C1735.6,1175.2 1773.4,1171.7 1807.8,1154.1C1833.3,1141.4 1863.4,1112.4 1843.7,1083.5C1829.8,1063.8 1814.8,1047.6 1814.8,1024.5C1814.8,992.1 1822.4,959.7 1835.4,929.5C1808.4,938 1777,934.9 1752.3,919.2C1739.6,911.1 1730.3,897.2 1726.8,882.2C1745.3,913.4 1795.1,932 1820.5,898.4C1828.6,886.8 1826.3,875.3 1819.3,863.7C1807.7,848.7 1790.4,841.7 1773,840.6C1806.5,837.6 1848,840.7 1873.3,865.8C1880.3,856.9 1887.8,848.5 1895.6,840.6C1898.8,846 1902.2,851.3 1905.8,856.4C1906.3,856.1 1906.7,855.9 1907.2,855.6L1936.1,833.6L1707.2,783.8Z" style="fill:rgb(255,221,133);fill-rule:nonzero;"/>
                <path d="M1750,658.4L1782.8,665C1782.8,665 1767.8,678.9 1758.9,677.4C1750,675.8 1750,658.4 1750,658.4Z" style="fill:white;fill-rule:nonzero;"/>
                <path d="M1658,826.5C1658,826.5 1680.9,818.5 1692.1,816.6L1706.3,785.8C1706.3,785.7 1682.7,815.4 1658,826.5Z" style="fill:rgb(255,204,70);fill-rule:nonzero;"/>
            </g>
            <g>
                <path d="M1555.6,941.2C1565.2,946.4 1567.6,959 1562.6,967.8L1572.4,963.7C1570.7,953.6 1565.5,944.5 1555.6,941.2Z" style="fill:rgb(232,70,44);fill-rule:nonzero;"/>
                <path d="M1622,924.2C1618.3,915.6 1608.4,911.5 1599.7,915.2L1544.3,938.7C1535.7,942.4 1531.6,952.3 1535.3,961C1539,969.6 1548.9,973.7 1557.6,970L1562.7,967.8C1567.6,959 1565.3,946.5 1555.7,941.2C1565.6,944.5 1570.8,953.6 1572.5,963.6L1613,946.4C1621.6,942.7 1625.6,932.8 1622,924.2Z" style="fill:rgb(255,91,65);fill-rule:nonzero;"/>
                <path d="M1614,941.6L1558.6,965.1C1550,968.8 1540,964.7 1536.3,956.1C1535.2,953.6 1534.8,950.9 1535,948.4C1533.5,952.3 1533.5,956.8 1535.3,961C1539,969.6 1548.9,973.7 1557.6,970L1613,946.5C1619.1,943.9 1622.9,938.2 1623.3,932C1621.7,936.1 1618.5,939.7 1614,941.6Z" style="fill:rgb(232,70,44);fill-rule:nonzero;"/>
                <path d="M1807.9,923.2C1804.2,914.6 1794.3,910.5 1785.6,914.2L1730.2,937.7C1721.6,941.4 1717.5,951.3 1721.2,960C1724.9,968.7 1734.8,972.7 1743.5,969L1756,963.7C1757.8,954.8 1756,945 1747.7,940.1C1758.5,942.8 1761.8,951.4 1762.7,960.9L1798.9,945.6C1807.5,941.8 1811.5,931.8 1807.9,923.2Z" style="fill:rgb(255,91,65);fill-rule:nonzero;"/>
                <path d="M1747.7,940C1756,945 1757.7,954.7 1756,963.6L1762.8,960.7C1761.8,951.3 1758.5,942.7 1747.7,940Z" style="fill:rgb(232,70,44);fill-rule:nonzero;"/>
                <path d="M1807.9,923.2C1807.6,922.4 1807.1,921.6 1806.7,920.9C1808.7,928.9 1804.7,937.4 1796.9,940.7L1741.5,964.2C1733.7,967.5 1724.8,964.5 1720.5,957.5C1720.7,958.3 1721,959.2 1721.3,960C1725,968.6 1734.9,972.7 1743.6,969L1799,945.5C1807.5,941.8 1811.5,931.8 1807.9,923.2Z" style="fill:rgb(232,70,44);fill-rule:nonzero;"/>
                <path d="M1841.5,1165.7L1522.9,1165.7L1522.9,1122.9L1841.5,1127.5L1841.5,1165.7Z" style="fill:rgb(217,146,135);fill-rule:nonzero;"/>
                <path d="M1830.7,1133.4L1772,1972.3L1664.5,1972.3L1648.9,1079.6L1730.7,1086.5L1830.7,1133.4Z" style="fill:rgb(245,183,173);fill-rule:nonzero;"/>
                <path d="M1695.7,1972.3L1442.9,1972.3L1405.8,1072.5L1695.7,1072.5L1695.7,1972.3Z" style="fill:rgb(255,212,205);fill-rule:nonzero;"/>
                <g>
                    <path d="M1448.4,1064.2C1445.8,1064.2 1443.8,1062.1 1443.8,1059.6L1443.8,999.4C1443.8,997.5 1444.9,995.9 1446.6,995.1L1547.7,951.9C1550,950.9 1552.8,952 1553.8,954.3C1554.8,956.7 1553.7,959.4 1551.4,960.4L1453.1,1002.4L1453.1,1059.5C1453,1062.2 1450.9,1064.2 1448.4,1064.2Z" style="fill:rgb(63,50,122);fill-rule:nonzero;"/>
                </g>
                <g>
                    <path d="M1635.4,1061.3C1632.8,1061.3 1630.8,1059.2 1630.8,1056.7L1630.8,996.5C1630.8,994.6 1631.9,993 1633.6,992.2L1734.7,949C1737,948 1739.8,949.1 1740.8,951.4C1741.8,953.8 1740.7,956.5 1738.4,957.5L1640.1,999.5L1640.1,1056.6C1640,1059.3 1637.9,1061.3 1635.4,1061.3Z" style="fill:rgb(63,50,122);fill-rule:nonzero;"/>
                </g>
                <rect x="1386.6" y="1051.1" width="315.9" height="42.8" style="fill:rgb(245,183,173);"/>
                <path d="M1702.6,1051.1L1841.5,1127.5L1841.5,1165.7L1702.6,1093.9L1702.6,1051.1Z" style="fill:rgb(232,164,153);fill-rule:nonzero;"/>
                <ellipse cx="1553.3" cy="1503.1" rx="75.3" ry="219.3" style="fill:rgb(232,164,153);"/>
                <path d="M1493,1507.6C1493,1386.5 1526.7,1288.3 1568.3,1288.3L1568.6,1288.3C1563.6,1285.3 1558.5,1283.7 1553.2,1283.7C1511.6,1283.7 1477.9,1381.9 1477.9,1503C1477.9,1623.8 1511.4,1721.8 1552.8,1722.3C1518.8,1701.7 1493,1613.4 1493,1507.6Z" style="fill:rgb(217,146,135);fill-rule:nonzero;"/>
            </g>
        </g>
    </g>
    <g transform="matrix(0.41087,0,0,0.41087,-84.8255,135.04)">
        <path d="M3789.8,1983.5L273.9,1983.5C270.2,1983.5 267.3,1981.3 267.3,1978.7C267.3,1976 270.3,1973.9 273.9,1973.9L3789.8,1973.9C3793.5,1973.9 3796.4,1976.1 3796.4,1978.7C3796.4,1981.3 3793.5,1983.5 3789.8,1983.5Z" style="fill:rgb(200,194,237);fill-rule:nonzero;"/>
    </g>
    <g transform="matrix(0.425038,0,0,0.425038,-113.613,23.2842)">
        <g transform="matrix(0.966667,0,0,0.966667,67.7283,262.932)">
            <path d="M573.4,1883.7C591.1,1842.6 607.2,1802.1 621.8,1762.5C598.4,1767 574.8,1755.5 553.3,1743.2C548.5,1795.5 544.3,1842.4 541,1880C551.8,1882.7 562.6,1883.9 573.4,1883.7Z" style="fill:rgb(255,150,169);fill-rule:nonzero;"/>
        </g>
        <g transform="matrix(0.966667,0,0,0.966667,67.7283,262.932)">
            <path d="M573.4,1883.7C562.6,1883.9 551.8,1882.7 541,1880C536,1936.9 533.1,1972.3 533.1,1972.3C547.4,1942.5 560.8,1912.9 573.4,1883.7Z" style="fill:rgb(219,74,135);fill-rule:nonzero;"/>
        </g>
        <g transform="matrix(0.966667,0,0,0.966667,67.7283,262.932)">
            <path d="M635.3,1082.5C610.1,1163.5 575.1,1507.4 553.3,1743.2C574.8,1755.6 598.4,1767.1 621.8,1762.5C756.1,1398.7 765.2,1112.9 765.2,1112.9L635.3,1082.5Z" style="fill:rgb(219,74,135);fill-rule:nonzero;"/>
        </g>
        <g transform="matrix(0.966667,0,0,0.966667,67.7283,262.932)">
            <path d="M765.2,1112.9C768.8,1057.8 635.3,1082.5 635.3,1082.5C635.3,1082.5 559,1095.5 559,1180.3C559,1245 597.5,1514.9 667.4,1758.7C691.7,1767.5 718.8,1765.5 743.6,1756.6C742.8,1573 735.8,1321 705.8,1203.9C705.8,1203.9 761.6,1168 765.2,1112.9Z" style="fill:rgb(229,100,154);fill-rule:nonzero;"/>
        </g>
        <g transform="matrix(0.966667,0,0,0.966667,67.7283,262.932)">
            <path d="M741.8,1972.3C741.8,1972.3 742.7,1934.9 743.2,1876C731.6,1880 719.5,1882.7 707,1883.5C718.1,1914.6 729.7,1944.4 741.8,1972.3Z" style="fill:rgb(229,100,154);fill-rule:nonzero;"/>
        </g>
        <g transform="matrix(0.966667,0,0,0.966667,67.7283,262.932)">
            <path d="M743.6,1756.6C718.8,1765.6 691.8,1767.5 667.4,1758.7C679.7,1801.5 692.9,1843.6 707.1,1883.5C719.5,1882.7 731.6,1880.1 743.3,1876C743.6,1842.3 743.8,1801.5 743.6,1756.6Z" style="fill:rgb(255,150,169);fill-rule:nonzero;"/>
        </g>
        <g transform="matrix(0.966667,0,0,0.966667,67.7283,262.932)">
            <path d="M705.8,681.2L650.8,692.2L651.9,702.5C665.3,707.3 679.5,709.3 693.8,709.9C696.9,690.7 705.8,681.2 705.8,681.2Z" style="fill:rgb(237,126,148);fill-rule:nonzero;"/>
        </g>
        <g transform="matrix(0.966667,0,0,0.966667,67.7283,262.932)">
            <path d="M651.9,702.5L659.5,770.9L701,766.1C692.2,742.3 691.5,723.6 693.7,709.9C679.5,709.4 665.4,707.3 651.9,702.5Z" style="fill:rgb(255,150,169);fill-rule:nonzero;"/>
        </g>
        <g transform="matrix(0.966667,0,0,0.966667,67.7283,262.932)">
            <path d="M681.4,660.8C686.6,646.5 706.9,640.8 720,628.5C714.3,621.9 709.7,617.6 709.7,617.6C560.4,614.5 626.4,700.1 626.4,700.1C626.4,700.1 668.5,699.5 701.7,693.5C685.9,687.6 675.1,677.4 681.4,660.8Z" style="fill:rgb(237,126,148);fill-rule:nonzero;"/>
        </g>
        <g transform="matrix(0.966667,0,0,0.966667,67.7283,262.932)">
            <path d="M741.1,675.7C745.2,660.9 730.7,640.7 720,628.5C706.9,640.8 686.6,646.5 681.4,660.8C675.1,677.4 685.8,687.6 701.7,693.5C721.9,689.9 738.8,684.3 741.1,675.7Z" style="fill:rgb(255,150,169);fill-rule:nonzero;"/>
        </g>
        <g transform="matrix(0.966667,0,0,0.966667,67.7283,262.932)">
            <path d="M645.3,661.6C645.3,661.6 706.6,647.5 737.2,601.9C767.8,556.3 723.1,499 668.1,540.6C613.1,582.2 614.7,623.9 614.7,623.9C614.7,623.9 578.6,634.1 576.2,661.6C573.8,689.1 594.3,705.6 594.3,705.6C594.3,705.6 483.5,753.5 500.8,837.6C518.1,921.7 642.2,914.6 642.2,914.6L660.3,765.3C660.3,765.3 668.2,696.2 651.7,681.2C651.7,681.2 621.8,677.3 626.6,660.8C631.1,644.3 645.3,661.6 645.3,661.6Z" style="fill:rgb(63,50,122);fill-rule:nonzero;"/>
        </g>
        <g transform="matrix(0.966667,0,0,0.966667,67.7283,262.932)">
            <path d="M769.5,1104.7C783.3,1077.4 826,987.9 826,926.4C826,866.6 691.2,930 641.3,955.5C646,989.3 645.6,1024.7 659.4,1055.2C680.6,1101.2 724.2,1110.9 769.5,1104.7Z" style="fill:rgb(255,221,133);fill-rule:nonzero;"/>
        </g>
        <g transform="matrix(0.966667,0,0,0.966667,67.7283,262.932)">
            <path d="M659.4,1055.3C645.6,1024.8 646,989.4 641.3,955.6C630,961.4 623,965.2 623,965.2C623,965.2 648.9,1043.8 635.3,1082.5C635.3,1082.5 673,1137 765.2,1112.9C765.2,1112.9 766.8,1109.9 769.4,1104.7C724.2,1110.9 680.6,1101.2 659.4,1055.3Z" style="fill:rgb(255,164,47);fill-rule:nonzero;"/>
        </g>
        <g transform="matrix(0.966667,0,0,0.966667,67.7283,262.932)">
            <path d="M798.8,761.9L754.5,763.8C714.2,799.9 654.3,816.2 605.7,791.4L553.7,811.2L454.2,965.2L938.2,861.5L798.8,761.9Z" style="fill:rgb(255,221,133);fill-rule:nonzero;"/>
        </g>
        <g transform="matrix(0.966667,0,0,0.966667,67.7283,262.932)">
            <path d="M754.5,763.8L701.1,766.1L659.6,770.9L605.7,791.4C654.2,816.2 714.2,799.9 754.5,763.8Z" style="fill:rgb(255,150,169);fill-rule:nonzero;"/>
        </g>
        <g transform="matrix(0.937957,-0.233933,0.233933,0.937957,-126.385,453.981)">
            <rect x="325.4" y="812.5" width="757.4" height="207.4" style="fill:rgb(177,171,222);"/>
        </g>
        <g transform="matrix(0.966667,0,0,0.966667,67.7283,262.932)">
            <path d="M323.1,1016C318.4,1033.3 321.5,1050.6 335.7,1061.6C353.9,1073.2 373.9,1074.3 392.4,1069.1C393.1,1068.4 393.7,1067.6 394.3,1066.9C414.2,1042.8 395.3,985.2 357.6,1004C357.6,1004 413.1,950.6 395.3,939C392.9,937.5 389.4,937.4 385.2,938.7C354.9,953.7 330.9,982.1 323.1,1016Z" style="fill:rgb(255,150,169);fill-rule:nonzero;"/>
        </g>
        <g transform="matrix(0.966667,0,0,0.966667,67.7283,262.932)">
            <path d="M335.7,1061.5C321.6,1050.5 318.4,1033.2 323.1,1015.9C330.9,982.1 354.9,953.6 385.2,938.6C357.7,946.6 299.2,1007.7 314.7,1053.1C332,1103.8 371.8,1091.7 392.4,1069C373.9,1074.3 353.9,1073.1 335.7,1061.5Z" style="fill:rgb(237,126,148);fill-rule:nonzero;"/>
        </g>
        <g transform="matrix(0.966667,0,0,0.966667,67.7283,262.932)">
            <path d="M1071.1,825.8C1063.2,825.8 1055.4,830.5 1050.7,835.2C1038.1,850.9 1046,872.9 1061.7,885.5C1075.3,895.3 1090,897.1 1104.5,894.8C1112.2,887.3 1117.3,874.9 1117.2,856.2C1117,802.3 1021.9,760 1004.9,773.4C1012.8,801 1048,812.8 1071.1,825.8Z" style="fill:rgb(255,150,169);fill-rule:nonzero;"/>
        </g>
        <g transform="matrix(0.966667,0,0,0.966667,67.7283,262.932)">
            <path d="M1061.7,885.5C1046,872.9 1038.1,850.9 1050.7,835.2C1055.4,830.5 1063.3,825.8 1071.1,825.8C1047.9,812.8 1012.7,801 1004.9,773.4C1004.5,773.7 1004,774.1 1003.7,774.6C990.6,791.3 1060.5,823.7 1060.5,823.7C1018.7,818.2 1019.6,878.8 1046.3,895.1C1063.9,905.9 1089.3,909.6 1104.4,894.9C1090,897.2 1075.3,895.3 1061.7,885.5Z" style="fill:rgb(237,126,148);fill-rule:nonzero;"/>
        </g>
        <g transform="matrix(0.966667,0,0,0.966667,67.7283,262.932)">
            <path d="M586.8,1006.5C586.7,1009 585.6,1010.5 583.4,1011.1L562.1,1016.4C559.8,1017 558.1,1016.1 556.9,1014L497.2,907C495.9,904.9 496.8,903.4 498.7,902.9L523.1,896.8C525.2,896.3 527.2,896.9 528.3,899.1L561,972.3L564.9,982.6L563.5,971.6L557.8,891.8C557.8,889.3 559.2,887.8 561.3,887.3L585.7,881.2C587.7,880.7 589.1,881.6 589,884.1L586.8,1006.5Z" style="fill:white;fill-rule:nonzero;"/>
            <path d="M604.2,920.5C598.4,897.4 606.6,873 635,865.9C663,858.9 682,876.2 687.9,899.5L697.7,938.7C703.5,962 694.9,986.2 666.9,993.2C639.3,1000.1 619.8,982.8 614,959.6L604.2,920.5ZM644,954.4C645.9,962.2 651.6,967.2 659.9,965.1C668.2,963 670.8,955.9 668.8,948.3L657.8,904.5C656,897.2 650.1,891.7 642,893.8C633.8,895.9 631.2,903.6 633,910.8L644,954.4Z" style="fill:white;fill-rule:nonzero;"/>
            <path d="M685.2,860C684.6,857.7 685.3,856.2 687.3,855.7L758.7,837.8C760.5,837.4 762,838.3 762.6,840.6L767.8,861.5C768.4,863.8 767.5,865.3 765.7,865.7L744.9,870.9L767.5,961.1C768.1,963.4 767.2,964.9 765.2,965.4L741.8,971.3C739.8,971.8 738.6,970.8 738,968.5L715.4,878.3L694.3,883.6C692.3,884.1 691,883.2 690.4,880.8L685.2,860Z" style="fill:white;fill-rule:nonzero;"/>
            <path d="M773.4,837.9C772.8,835.6 773.6,834 775.9,833.5L837,818.2C839,817.7 840.2,818.7 840.8,821.1L846,842C846.6,844.3 845.9,845.7 844,846.2L808.8,855L813.5,873.8L840.1,867.1C842.1,866.6 843.6,867.4 844.2,869.9L849.4,890.7C850,893 849.3,894.5 847,895L820.4,901.7L825.2,920.7L861.3,911.7C863.3,911.2 864.6,912.1 865.1,914.4L870.4,935.5C871,937.8 870.3,939.3 868.3,939.7L806.2,955.2C803.9,955.8 802.5,954.9 801.9,952.6L773.4,837.9Z" style="fill:white;fill-rule:nonzero;"/>
            <path d="M882.2,912.6C881.6,910.3 882.9,908.9 884.2,908.6L906.1,903.1C908.7,902.5 909.8,904.6 910,905.6L914.8,924.8C915.5,927.4 913.1,928.6 912.5,928.7L890.7,934.2C890,934.4 887.6,934.4 886.9,931.8L882.2,912.6ZM858.4,816.6C857.8,814.3 858.7,812.7 861,812.1L881.3,807C883.6,806.4 885.1,807.4 885.7,809.7L905.2,887.4C905.8,889.7 904.9,891.2 902.6,891.8L882.3,896.9C879.9,897.5 878.5,896.6 877.9,894.3L858.4,816.6Z" style="fill:white;fill-rule:nonzero;"/>
        </g>
    </g>
    <g transform="matrix(0.425038,0,0,0.425038,-113.613,23.2842)">
        <g transform="matrix(0.966667,0,0,0.966667,67.7283,262.932)">
            <path d="M3349,438.7C3349,438.7 3343.2,484.8 3369.4,497.4C3395.6,510 3390.9,471.7 3390.9,471.7L3349,438.7Z" style="fill:rgb(237,126,148);fill-rule:nonzero;"/>
        </g>
        <g transform="matrix(0.966667,0,0,0.966667,67.7283,262.932)">
            <path d="M2727.7,827.4C2727.5,825.1 2757,810.1 2768,818.8C2779,827.4 2776.9,892.9 2768,895.5C2759.1,898.1 2735,898.1 2727.7,827.4Z" style="fill:rgb(237,126,148);fill-rule:nonzero;"/>
        </g>
        <g transform="matrix(0.966667,0,0,0.966667,67.7283,262.932)">
            <path d="M3149,740.5L3151.5,730.7L3081.6,704.8C3081.6,704.8 3096.9,719.7 3094,746.9C3112.5,748.7 3131.1,746.1 3149,740.5Z" style="fill:rgb(237,126,148);fill-rule:nonzero;"/>
        </g>
        <g transform="matrix(0.966667,0,0,0.966667,67.7283,262.932)">
            <path d="M3134.2,678.1C3127.5,659.3 3101.4,655.4 3084.1,641L3064,671.8L3074.5,677C3074.5,677 3063.5,710.5 3064,718.4C3064.2,721.5 3077.6,724 3093.8,726C3119.6,718.1 3143.4,702.3 3134.2,678.1Z" style="fill:rgb(255,150,169);fill-rule:nonzero;"/>
        </g>
        <g transform="matrix(0.966667,0,0,0.966667,67.7283,262.932)">
            <path d="M3207,672.9L3093.3,626.8L3084,641C3101.3,655.4 3127.4,659.3 3134.1,678.1C3143.3,702.4 3119.5,718.1 3093.7,726C3119.1,729.1 3151.4,730.7 3151.4,730.7L3207,672.9Z" style="fill:rgb(237,126,148);fill-rule:nonzero;"/>
        </g>
        <g transform="matrix(0.966667,0,0,0.966667,67.7283,262.932)">
            <path d="M3158.5,674.2C3158.5,674.2 3060.3,637.3 3026.5,560.3C3026.5,560.3 3151.4,598 3237.9,674.2C3237.9,674.2 3200.2,720.6 3151.5,730.8L3163.3,694.7C3163.3,694.7 3187.7,683.7 3177.4,670.3C3167.2,656.9 3158.5,674.2 3158.5,674.2Z" style="fill:rgb(50,38,102);fill-rule:nonzero;"/>
        </g>
        <g transform="matrix(0.966667,0,0,0.966667,67.7283,262.932)">
            <path d="M2753.8,919.8C2750.9,917.3 2748.3,914.8 2746,912.2C2746,912.2 2773.5,783.3 2685.5,818.7C2641.4,836.4 2660.4,905.4 2711.8,970.1C2732.3,959.8 2748.7,941.2 2753.8,919.8Z" style="fill:rgb(255,150,169);fill-rule:nonzero;"/>
        </g>
        <g transform="matrix(0.966667,0,0,0.966667,67.7283,262.932)">
            <path d="M2769.1,931.2C2763.4,927.5 2758.3,923.7 2753.8,919.8C2748.7,941.1 2732.3,959.8 2711.9,970.1C2717.8,977.5 2724.1,984.9 2730.8,992.1C2749.4,976.3 2763.8,955.1 2769.1,931.2Z" style="fill:rgb(246,222,248);fill-rule:nonzero;"/>
        </g>
        <g transform="matrix(0.966667,0,0,0.966667,67.7283,262.932)">
            <path d="M3363.4,391.7C3292.1,430.8 3397.4,512.8 3421.8,495C3421.8,495 3422.5,497.6 3423.8,502.2C3437.2,499.9 3450.7,495.2 3462.5,488C3450.3,459.7 3434.7,433 3414,409.4C3402.1,395.5 3382.7,389.8 3363.4,391.7Z" style="fill:rgb(255,150,169);fill-rule:nonzero;"/>
        </g>
        <g transform="matrix(0.966667,0,0,0.966667,67.7283,262.932)">
            <path d="M3378.6,385C3372.8,387 3367.8,389.3 3363.4,391.7C3382.8,389.8 3402.1,395.5 3414,409.4C3434.7,433.1 3450.3,459.7 3462.5,488C3466.8,485.3 3470.9,482.3 3474.6,478.9C3450.4,417.6 3418.3,370.9 3378.6,385Z" style="fill:rgb(237,126,148);fill-rule:nonzero;"/>
        </g>
        <g transform="matrix(0.966667,0,0,0.966667,67.7283,262.932)">
            <path d="M3474.5,478.9C3460.7,491.4 3442,499.1 3423.7,502.2C3424.8,506.2 3426.2,511.6 3427.9,518.1C3446.5,513.5 3465.8,506.3 3480.4,494.7C3478.5,489.4 3476.6,484.1 3474.5,478.9Z" style="fill:rgb(246,222,248);fill-rule:nonzero;"/>
        </g>
        <g transform="matrix(0.966667,0,0,0.966667,67.7283,262.932)">
            <path d="M2966,1003.4C2951.9,1030.1 2936.1,1056.8 2920.4,1083.5C2874,1071.7 2824.9,1058.5 2780.6,1037.4C2825.1,1071.2 2877.9,1095.3 2931.4,1096.1C2931.4,1096.1 3002.9,997.9 3010,943.7L3039.6,933.1C3029.2,913.8 3017.7,895.3 3006.8,876.2C2997.5,920.1 2988,962.5 2966,1003.4Z" style="fill:rgb(246,222,248);fill-rule:nonzero;"/>
        </g>
        <g transform="matrix(0.966667,0,0,0.966667,67.7283,262.932)">
            <path d="M3363.6,797.5C3418.6,769.2 3483,745.6 3511.3,685.9C3500.4,625.3 3490.7,561 3468.4,502.8C3456,509.9 3441.8,514.7 3427.9,518.1C3438.2,558.3 3456.9,639.5 3447.6,668.6C3447.6,668.6 3341.9,757.2 3228.4,772.3L3139.6,776.2L3085.4,774.6L2990.3,799.7C2990.3,799.7 2919.6,937.2 2905.4,988.3C2905.4,988.3 2818.2,963.3 2769,931.1C2763.8,955 2749.3,976.2 2730.7,992.1C2745.6,1008.2 2762.4,1023.6 2780.6,1037.4C2824.9,1058.5 2874,1071.7 2920.4,1083.5C2936.1,1056.8 2951.8,1030.1 2966,1003.4C2988,962.5 2997.4,920.1 3006.9,876.1C3017.8,895.2 3029.2,913.8 3039.7,933L3218.9,868.7C3222.2,861 3225,853.1 3226.9,844.6C3275.6,840 3321.2,819.5 3363.6,797.5Z" style="fill:rgb(254,242,254);fill-rule:nonzero;"/>
        </g>
        <g transform="matrix(0.966667,0,0,0.966667,67.7283,262.932)">
            <path d="M2985.4,860.4C2961.5,895.3 2966.5,949.2 2974.3,986.8C2987.4,958 2995.3,928.5 3002.1,898.2L2985.4,860.4Z" style="fill:rgb(246,222,248);fill-rule:nonzero;"/>
        </g>
        <g transform="matrix(0.966667,0,0,0.966667,67.7283,262.932)">
            <path d="M3480.5,494.7C3476.8,497.7 3472.7,500.4 3468.5,502.8C3490.8,561 3500.5,625.3 3511.4,685.9C3483.1,745.6 3418.7,769.2 3363.7,797.5C3321.3,819.5 3275.7,839.9 3227,844.6C3225.1,853.1 3222.3,861 3219,868.7L3238,861.9C3238,861.9 3465.1,791.2 3529.5,696.9C3529.4,696.9 3513,585 3480.5,494.7Z" style="fill:rgb(246,222,248);fill-rule:nonzero;"/>
        </g>
        <g transform="matrix(0.966667,0,0,0.966667,67.7283,262.932)">
            <path d="M3093.9,746.9C3093,755.1 3090.5,764.4 3085.4,774.7L3094.3,818.7L3139.7,776.3L3149,740.5C3131.1,746.1 3112.5,748.7 3093.9,746.9Z" style="fill:rgb(255,150,169);fill-rule:nonzero;"/>
        </g>
        <g transform="matrix(0.966667,0,0,0.966667,67.7283,262.932)">
            <path d="M3082.3,1333.4C3062.5,1275.2 3055.4,1213 3059.4,1151.6L3053,1153.2C3053,1153.2 2819.9,1720 2786.9,1933.7C2786.9,1933.7 2787.9,1932.4 2789.8,1930C2848.7,1830.3 2901.6,1729.2 2958.2,1625.7C3008.5,1529.8 3046.2,1432.4 3082.3,1333.4Z" style="fill:rgb(63,50,122);fill-rule:nonzero;"/>
        </g>
        <g transform="matrix(0.966667,0,0,0.966667,67.7283,262.932)">
            <path d="M3195.5,1117.1L3059.4,1151.6C3055.4,1213 3062.5,1275.2 3082.3,1333.4C3046.2,1432.4 3008.4,1529.8 2958.2,1625.7C2901.6,1729.2 2848.7,1830.3 2789.8,1930C2827.2,1881.5 3219.4,1366 3195.5,1117.1Z" style="fill:rgb(50,38,102);fill-rule:nonzero;"/>
        </g>
        <g transform="matrix(0.966667,0,0,0.966667,67.7283,262.932)">
            <path d="M3195.5,1117.1C3195.5,1117.1 3280.3,1133.9 3249.7,1239.2C3249.7,1239.2 3393.5,1572.4 3401.4,1933.8C3401.4,1933.8 3132.3,1507.9 3112.8,1281.6C3112.8,1281.6 3044.1,1251.2 3053,1153.3L3195.5,1117.1Z" style="fill:rgb(63,50,122);fill-rule:nonzero;"/>
        </g>
        <g transform="matrix(0.966667,0,0,0.966667,67.7283,262.932)">
            <path d="M3168.8,1122.8C3133.8,1147.6 3090.7,1157.5 3052.1,1142.5C3052.6,1146.2 3053,1149.8 3053.1,1153.2C3053.1,1153.2 3147.4,1196.7 3195.6,1117C3195.6,1117 3194,1111.6 3192.1,1102.8C3185.2,1110 3177.6,1116.7 3168.8,1122.8Z" style="fill:rgb(50,38,102);fill-rule:nonzero;"/>
        </g>
        <g transform="matrix(0.966667,0,0,0.966667,67.7283,262.932)">
            <path d="M3195.5,979.8C3214.4,937.1 3240.4,877.2 3247.7,841.7C3240.8,843 3233.9,844 3226.9,844.7C3217.5,887.1 3186,917 3170.3,956.3C3153,1000.3 3178.2,1049 3149.9,1091.5C3126.9,1125.5 3089.8,1136 3051.3,1138.2C3051.6,1139.7 3051.8,1141.1 3052,1142.6C3090.7,1157.6 3133.8,1147.7 3168.7,1122.9C3177.5,1116.8 3185.2,1110.1 3191.9,1102.9C3186.3,1076.8 3177.5,1020.5 3195.5,979.8Z" style="fill:rgb(246,222,248);fill-rule:nonzero;"/>
        </g>
        <g transform="matrix(0.966667,0,0,0.966667,67.7283,262.932)">
            <path d="M3248.9,818.7L2992.8,836C2992.8,836 2961.9,919 2983.9,977.7C3003.6,1030.3 3042.8,1092.3 3051.4,1138.1C3089.9,1135.8 3127,1125.4 3150,1091.4C3178.3,1049 3153.1,1000.3 3170.4,956.2C3186.1,916.9 3217.5,887.1 3227,844.6C3234,843.9 3240.9,842.9 3247.8,841.6C3249.7,831.9 3250.3,824 3248.9,818.7Z" style="fill:rgb(254,242,254);fill-rule:nonzero;"/>
        </g>
        <g transform="matrix(0.966667,0,0,0.966667,67.7283,262.932)">
            <path d="M2804.3,1910.9L2846.6,1972.3L2558.5,1972.3L2804.3,1910.9Z" style="fill:rgb(50,38,102);fill-rule:nonzero;"/>
        </g>
        <g transform="matrix(0.966667,0,0,0.966667,67.7283,262.932)">
            <path d="M3387.3,1910.9L3328.5,1972.3L3606.2,1972.3L3387.3,1910.9Z" style="fill:rgb(50,38,102);fill-rule:nonzero;"/>
        </g>
        <g transform="matrix(0.966667,0,0,0.966667,67.7283,262.932)">
            <path d="M2900.1,1972.3C2895.5,1972.3 2891.5,1969 2890.8,1964.3L2631.5,283.7C2630.7,278.6 2634.2,273.7 2639.4,272.9C2644.5,272.1 2649.4,275.6 2650.2,280.8L2909.5,1961.5C2910.3,1966.6 2906.8,1971.5 2901.6,1972.3L2900.1,1972.3Z" style="fill:rgb(245,183,173);fill-rule:nonzero;"/>
        </g>
        <g transform="matrix(0.954583,-0.15225,0.15225,0.954583,32.4613,674.574)">
            <rect x="2386" y="291.8" width="563.4" height="302.6" style="fill:rgb(177,171,222);"/>
        </g>
        <g transform="matrix(0.966667,0,0,0.966667,67.7283,262.932)">
            <path d="M2753.2,864.1C2752.9,825.7 2733.2,819.3 2733.2,819.3C2733.2,819.3 2758.9,773.9 2745.2,764.1C2745,764 2744.9,763.9 2744.7,763.8C2743.4,786 2730,805.1 2717.7,824.2C2739.1,823.1 2749.2,843.7 2753.2,864.1Z" style="fill:rgb(237,126,148);fill-rule:nonzero;"/>
        </g>
        <g transform="matrix(0.966667,0,0,0.966667,67.7283,262.932)">
            <path d="M2746,912.2C2751.3,892.2 2753.3,876.5 2753.2,864C2749.2,843.6 2739.1,823 2717.7,824.1C2730,805 2743.4,785.9 2744.7,763.7C2730.3,755.7 2679.6,821.5 2679.6,821.5C2679.6,821.5 2724.3,994 2746,912.2Z" style="fill:rgb(255,150,169);fill-rule:nonzero;"/>
        </g>
        <g transform="matrix(0.966667,0,0,0.966667,67.7283,262.932)">
            <path d="M3069.8,786.5L3062.9,849.4L3092.5,823.2L3109.3,853.8L3153.6,781L3109.6,844.1L3094.3,818.7L3070.3,836.5L3069.8,786.5Z" style="fill:rgb(246,222,248);fill-rule:nonzero;"/>
        </g>
        <g transform="matrix(0.966667,0,0,0.966667,67.7283,262.932)">
            <path d="M3112.8,900.2C3111.3,900.2 3109.9,899.1 3109.7,897.5C3109.4,895.8 3110.6,894.2 3112.3,893.9L3185,882.9C3186.7,882.6 3188.3,883.8 3188.6,885.5C3188.9,887.2 3187.7,888.8 3186,889.1L3113.3,900.1C3113.1,900.2 3112.9,900.2 3112.8,900.2Z" style="fill:rgb(246,222,248);fill-rule:nonzero;"/>
        </g>
        <g transform="matrix(0.966667,0,0,0.966667,67.7283,262.932)">
            <path d="M3092.5,823.2L3081.5,833L3086,847.6L3098.9,834.9L3092.5,823.2Z" style="fill:rgb(219,74,135);fill-rule:nonzero;"/>
        </g>
        <g transform="matrix(0.966667,0,0,0.966667,67.7283,262.932)">
            <path d="M3089.7,838.4C3090,836.4 3090.2,835.4 3090.2,835.4C3024.6,953.3 3010.8,1073.4 3010.8,1073.4C3016.3,1104 3076,1146.5 3076,1146.5C3076.1,1146.4 3076.2,1146.3 3076.4,1146.2C3034.2,1048.1 3051.9,935.6 3089.7,838.4Z" style="fill:rgb(229,100,154);fill-rule:nonzero;"/>
        </g>
        <g transform="matrix(0.966667,0,0,0.966667,67.7283,262.932)">
            <path d="M3125.5,1078.8C3066.2,1004.4 3086.1,861 3089.7,838.4C3051.9,935.6 3034.2,1048.1 3076.4,1146.1C3106.1,1122.5 3125.5,1078.8 3125.5,1078.8Z" style="fill:rgb(219,74,135);fill-rule:nonzero;"/>
        </g>
        <g transform="matrix(0.966667,0,0,0.966667,67.7283,262.932)">
            <circle cx="2728.3" cy="975.6" r="5.5" style="fill:rgb(254,242,254);"/>
        </g>
        <g transform="matrix(0.966667,0,0,0.966667,67.7283,262.932)">
            <circle cx="3473" cy="492.3" r="4.3" style="fill:rgb(254,242,254);"/>
        </g>
        <g transform="matrix(0.966667,0,0,0.966667,67.7283,262.932)">
            <path d="M2525.9,537.6C2525.6,540.4 2524.2,542 2521.7,542.4L2497.5,546.4C2494.9,546.8 2493.1,545.7 2491.9,543.2L2435.1,418.4C2433.8,415.9 2434.9,414.3 2437.2,414L2465,409.4C2467.4,409 2469.6,409.8 2470.6,412.5L2500.4,497.1L2503.8,508.9L2503.3,496.5L2504.2,406.9C2504.4,404.1 2506.1,402.6 2508.5,402.2L2536.3,397.6C2538.5,397.2 2540,398.4 2539.7,401.1L2525.9,537.6Z" style="fill:white;fill-rule:nonzero;"/>
            <path d="M2553.2,443.3C2548.9,417 2560.3,390.5 2592.6,385.2C2624.5,380 2644.1,401 2648.5,427.5L2655.8,472.1C2660.2,498.6 2648.3,524.8 2616.4,530.1C2585,535.3 2564.9,514.1 2560.5,487.8L2553.2,443.3ZM2594.5,484.8C2596,493.6 2601.9,499.8 2611.3,498.2C2620.7,496.7 2624.3,489 2622.8,480.2L2614.6,430.3C2613.2,422 2607.2,415.4 2597.9,416.9C2588.6,418.4 2585,426.8 2586.3,435L2594.5,484.8Z" style="fill:white;fill-rule:nonzero;"/>
            <path d="M2649.1,383.3C2648.7,380.7 2649.6,379 2651.8,378.7L2733.1,365.3C2735.1,365 2736.7,366.2 2737.2,368.8L2741.1,392.6C2741.5,395.2 2740.4,396.8 2738.4,397.1L2714.7,401L2731.6,503.7C2732,506.3 2730.9,507.9 2728.7,508.3L2702.1,512.7C2699.9,513.1 2698.6,511.9 2698.1,509.3L2681.2,406.6L2657.2,410.5C2655,410.9 2653.6,409.7 2653.1,407.1L2649.1,383.3Z" style="fill:white;fill-rule:nonzero;"/>
            <path d="M2749.5,366.8C2749.1,364.2 2750.1,362.5 2752.7,362.1L2822.3,350.7C2824.5,350.3 2825.8,351.5 2826.3,354.2L2830.2,378C2830.6,380.6 2829.8,382.2 2827.6,382.5L2787.6,389.1L2791.1,410.5L2821.4,405.5C2823.7,405.1 2825.3,406.2 2825.8,409L2829.7,432.7C2830.1,435.3 2829.2,436.9 2826.7,437.3L2796.4,442.3L2800,464L2841.1,457.2C2843.3,456.8 2844.7,458 2845.1,460.5L2849,484.5C2849.4,487.1 2848.5,488.7 2846.3,489L2775.6,500.6C2773,501 2771.5,499.9 2771.1,497.3L2749.5,366.8Z" style="fill:white;fill-rule:nonzero;"/>
            <path d="M2864.1,460.1C2863.7,457.5 2865.2,456 2866.7,455.8L2891.7,451.7C2894.6,451.2 2895.6,453.7 2895.8,454.8L2899.4,476.7C2899.9,479.7 2897.2,480.8 2896.5,480.9L2871.7,485C2870.9,485.1 2868.2,485 2867.7,482L2864.1,460.1ZM2846.3,350.9C2845.9,348.3 2847,346.6 2849.6,346.2L2872.7,342.4C2875.3,342 2876.9,343.2 2877.4,345.8L2891.9,434.2C2892.3,436.8 2891.2,438.4 2888.6,438.8L2865.5,442.6C2862.8,443 2861.3,441.9 2860.9,439.3L2846.3,350.9Z" style="fill:white;fill-rule:nonzero;"/>
        </g>
    </g>
</svg>
