<?xml version="1.0" encoding="UTF-8" standalone="no"?>
<!DOCTYPE svg PUBLIC "-//W3C//DTD SVG 1.1//EN" "http://www.w3.org/Graphics/SVG/1.1/DTD/svg11.dtd">
<svg width="100%" height="100%" viewBox="0 0 1500 1000" version="1.1" xmlns="http://www.w3.org/2000/svg" xmlns:xlink="http://www.w3.org/1999/xlink" xml:space="preserve" xmlns:serif="http://www.serif.com/" style="fill-rule:evenodd;clip-rule:evenodd;stroke-linejoin:round;stroke-miterlimit:2;">
    <g transform="matrix(1,0,0,1,-1010,-783.05)">
        <g transform="matrix(0.887606,0,0,0.887606,879.136,757.482)">
            <g>
                <g>
                    <path d="M574,1041.6C554.3,1024.1 536.8,1000.7 537.4,974.3C538.1,942.5 565,917 593.8,903.6C627.2,888.1 665.8,883.9 701.7,891.8C656.7,882.4 614.2,861.3 579.5,831.2C563.1,817 548.2,800.4 539.5,780.5C530.8,760.6 528.8,737.1 537.9,717.4C547.9,695.7 570.5,681.2 594.2,677.6C617.9,674 642.3,680.3 663.4,691.7C607.2,656.2 568.2,594.6 560.1,528.5C556.8,501.2 560.8,469 583.8,454C610.9,436.3 646.6,452.2 674.8,468.1C639.7,411.2 618.4,345.9 613.3,279.2C610.7,245.9 615.6,206.2 644.9,190C665.5,178.6 692.2,183.7 711.5,197.2C730.8,210.7 744,231.1 755.2,251.8C837,402.7 837.5,584.1 818.4,754.7C828.9,732.9 840.2,710.2 859.5,695.6C878.8,681 908.9,677.4 926.2,694.4C948.2,716 937.4,752.8 925.1,781.1C940.3,759.4 971.1,751.7 996.1,760.4C1021.1,769.2 1038.9,792.5 1046.2,817.9C1054.7,847.8 1055.5,917.9 1049.4,943.7C1032.4,1016.5 960.8,1096.3 960.8,1096.3C960.8,1096.3 790.7,1096.3 722.4,1095.2C669.8,1094.4 612.8,1076 574,1041.6Z" style="fill:rgb(242,240,255);fill-rule:nonzero;"/>
                    <g>
                        <g>
                            <path d="M938.2,1050C937.9,1050 937.6,1049.9 937.3,1049.6C884.3,995.6 824.3,934.5 791.9,859.9C754.8,774.4 755.8,678.2 756.8,585.1C756.9,576.9 757,568.8 757,560.6C757.7,464.7 753.6,355.2 695.5,269.3C695.1,268.7 695.3,268 695.8,267.6C696.4,267.2 697.1,267.4 697.5,267.9C756,354.4 760.1,464.3 759.4,560.6C759.3,568.7 759.3,576.9 759.2,585.1C758.2,677.9 757.2,773.9 794.1,858.9C826.3,933 886.1,994 939,1047.8C939.5,1048.3 939.5,1049 939,1049.5C938.8,1049.9 938.5,1050 938.2,1050Z" style="fill:white;fill-rule:nonzero;"/>
                        </g>
                        <g>
                            <path d="M778,1011.6C737.8,1011.6 697.6,1006.9 658.6,997.5C657.9,997.3 657.5,996.7 657.7,996C657.9,995.4 658.5,994.9 659.2,995.1C734.1,1013.1 813.4,1013.8 888.5,997C889.2,996.8 889.8,997.3 890,997.9C890.1,998.6 889.7,999.2 889.1,999.3C852.6,1007.5 815.3,1011.6 778,1011.6Z" style="fill:white;fill-rule:nonzero;"/>
                        </g>
                        <g>
                            <path d="M807.5,889.4L807.3,889.4C806.6,889.3 806.2,888.6 806.3,888C815.5,838.9 841.6,794.1 879.6,761.7C880.1,761.3 880.9,761.3 881.3,761.8C881.7,762.3 881.7,763.1 881.2,763.5C843.6,795.5 817.9,839.9 808.7,888.4C808.6,889 808.1,889.4 807.5,889.4Z" style="fill:white;fill-rule:nonzero;"/>
                        </g>
                        <g>
                            <path d="M758.1,678.1C757.7,678.1 757.2,677.9 757,677.4C726.2,615.3 686.5,558.2 639,507.8C638.5,507.3 638.6,506.5 639.1,506.1C639.6,505.6 640.4,505.7 640.8,506.2C688.5,556.8 728.3,614.1 759.2,676.4C759.5,677 759.3,677.7 758.6,678C758.4,678 758.2,678.1 758.1,678.1Z" style="fill:white;fill-rule:nonzero;"/>
                        </g>
                        <g>
                            <path d="M736.6,353.9L736.4,353.9C735.7,353.8 735.3,353.1 735.4,352.5C743.4,312.3 736.4,268.7 716.1,233.1C715.8,232.5 716,231.8 716.6,231.4C717.2,231.1 717.9,231.3 718.3,231.9C738.8,268.1 746,312.2 737.9,353C737.7,353.5 737.2,353.9 736.6,353.9Z" style="fill:white;fill-rule:nonzero;"/>
                        </g>
                    </g>
                </g>
                <g>
                    <path d="M1614.1,1050.4C1630.1,1036.2 1644.2,1017.3 1643.7,995.9C1643.1,970.2 1621.4,949.5 1598,938.6C1570.9,926 1539.7,922.6 1510.6,929C1547,921.4 1581.4,904.3 1609.5,880C1622.8,868.5 1634.8,855.1 1641.9,839C1649,822.9 1650.5,803.8 1643.2,787.9C1635.1,770.3 1616.8,758.6 1597.6,755.6C1578.4,752.7 1558.6,757.8 1541.6,767C1587.1,738.2 1618.7,688.4 1625.2,634.9C1627.9,612.8 1624.6,586.7 1606,574.5C1584.1,560.2 1555.2,573 1532.4,585.9C1560.8,539.9 1578.1,487 1582.2,433C1584.3,406 1580.3,373.9 1556.6,360.8C1539.9,351.6 1518.3,355.7 1502.7,366.6C1487.1,377.5 1476.4,394.1 1467.3,410.8C1401,533 1400.6,679.9 1416.2,818C1407.7,800.3 1398.6,782 1382.9,770.1C1367.2,758.3 1342.9,755.4 1328.9,769.1C1311,786.6 1319.8,816.4 1329.8,839.3C1317.5,821.8 1292.5,815.5 1272.3,822.6C1252.1,829.7 1237.6,848.6 1231.7,869.2C1224.8,893.4 1224.2,950.2 1229.1,971.1C1242.9,1030.1 1300.9,1094.7 1300.9,1094.7C1300.9,1094.7 1438.6,1094.7 1493.9,1093.8C1536.6,1093.1 1582.7,1078.2 1614.1,1050.4Z" style="fill:rgb(242,240,255);fill-rule:nonzero;"/>
                    <g>
                        <g>
                            <path d="M1319.2,1057.2C1319.5,1057.2 1319.7,1057.1 1319.9,1056.9C1362.8,1013.2 1411.4,963.7 1437.6,903.3C1467.6,834.1 1466.8,756.2 1466,680.8C1465.9,674.2 1465.9,667.6 1465.8,661C1465.2,583.3 1468.6,494.7 1515.6,425.1C1515.9,424.6 1515.8,424 1515.3,423.7C1514.9,423.4 1514.2,423.5 1513.9,424C1466.6,494 1463.2,583 1463.8,661C1463.8,667.6 1463.9,674.2 1464,680.8C1464.8,756 1465.6,833.7 1435.7,902.5C1409.7,962.5 1361.2,1011.9 1318.4,1055.5C1318,1055.9 1318,1056.5 1318.4,1056.9C1318.8,1057.1 1319,1057.2 1319.2,1057.2Z" style="fill:white;fill-rule:nonzero;"/>
                        </g>
                        <g>
                            <path d="M1449,1026.1C1481.5,1026.1 1514.1,1022.3 1545.7,1014.7C1546.2,1014.6 1546.6,1014 1546.4,1013.5C1546.3,1013 1545.7,1012.6 1545.2,1012.8C1484.6,1027.4 1420.4,1027.9 1359.5,1014.3C1358.9,1014.2 1358.4,1014.5 1358.3,1015C1358.2,1015.5 1358.5,1016.1 1359,1016.2C1388.5,1022.8 1418.8,1026.1 1449,1026.1Z" style="fill:white;fill-rule:nonzero;"/>
                        </g>
                        <g>
                            <path d="M1425.1,927.1L1425.3,927.1C1425.8,927 1426.2,926.5 1426.1,926C1418.6,886.3 1397.5,849.9 1366.8,823.7C1366.4,823.3 1365.8,823.4 1365.4,823.8C1365,824.2 1365.1,824.8 1365.5,825.2C1395.9,851.1 1416.8,887.1 1424.2,926.4C1424.2,926.8 1424.6,927.1 1425.1,927.1Z" style="fill:white;fill-rule:nonzero;"/>
                        </g>
                        <g>
                            <path d="M1465.1,756C1465.5,756 1465.8,755.8 1466,755.5C1490.9,705.2 1523.1,659 1561.6,618.2C1562,617.8 1562,617.2 1561.6,616.8C1561.2,616.4 1560.6,616.4 1560.2,616.8C1521.6,657.8 1489.3,704.2 1464.3,754.6C1464.1,755.1 1464.3,755.7 1464.7,755.9C1464.8,756 1465,756 1465.1,756Z" style="fill:white;fill-rule:nonzero;"/>
                        </g>
                        <g>
                            <path d="M1482.5,493.6L1482.7,493.6C1483.2,493.5 1483.6,493 1483.5,492.4C1477,459.8 1482.7,424.6 1499.1,395.7C1499.4,395.2 1499.2,394.6 1498.7,394.4C1498.2,394.1 1497.6,394.3 1497.4,394.8C1480.8,424.1 1475,459.8 1481.6,492.8C1481.6,493.3 1482,493.6 1482.5,493.6Z" style="fill:white;fill-rule:nonzero;"/>
                        </g>
                    </g>
                </g>
                <g>
                    <path d="M522.1,1096.3L331.4,1096.3C331.4,1096.3 243.5,1086.6 243.5,1002.8C243.5,919 309.1,950.3 309.1,950.3C309.1,950.3 256.9,913.8 301.6,897C301.6,897 183.8,731 224.1,582C264.3,433 343.8,350.6 406,385.3C532.4,455.8 283.8,715.6 328.5,808.3C328.5,808.3 346.4,742 382.2,755.2C418,768.4 425.4,795.9 409,844.8C409,844.8 441.1,821.4 453.7,868.3C453.7,868.3 490,830 559.8,848.4C629.6,866.8 644.8,1026.3 627.5,1096.4L522.1,1096.4L522.1,1096.3Z" style="fill:rgb(242,240,255);fill-rule:nonzero;"/>
                </g>
            </g>
            <g>
                <g>
                    <path d="M496.8,1078.4C496.6,1078.4 496.5,1078.3 496.3,1078.2C446.8,1037.7 404.6,992.4 371.1,943.6C334.7,890.7 309.3,834.8 295.7,777.7C281.3,717.5 280.9,654.2 294.4,594.6C308.5,532.3 337.5,476.9 378.2,434.5C378.5,434.2 379,434.2 379.3,434.5C379.6,434.8 379.6,435.3 379.3,435.6C298.5,519.9 267,650.8 297.2,777.4C323.2,886.3 394.3,992.7 497.4,1077.1C497.7,1077.4 497.8,1077.8 497.5,1078.1C497.2,1078.4 497,1078.4 496.8,1078.4Z" style="fill:white;fill-rule:nonzero;"/>
                </g>
                <g>
                    <path d="M285.5,665.1C285.2,665.1 284.9,664.9 284.8,664.7C271.4,635.9 263.4,603.9 261.5,572.2C261.5,571.8 261.8,571.4 262.2,571.4C262.6,571.4 263,571.7 263,572.1C264.9,603.6 272.9,635.4 286.2,664C286.4,664.4 286.2,664.8 285.8,665C285.7,665 285.6,665.1 285.5,665.1Z" style="fill:white;fill-rule:nonzero;"/>
                </g>
                <g>
                    <path d="M340.3,893.3C340.3,893.3 340.2,893.3 340.3,893.3C339.8,893.2 339.5,892.9 339.6,892.5C343.2,862.8 351.8,834.1 365.1,807.4C365.3,807 365.7,806.9 366.1,807.1C366.5,807.3 366.6,807.7 366.4,808.1C353.1,834.7 344.6,863.2 341,892.8C341,893 340.7,893.3 340.3,893.3Z" style="fill:white;fill-rule:nonzero;"/>
                </g>
                <g>
                    <path d="M438.7,1026.4C387.6,1023.7 337.2,1014 288.8,997.6C288.4,997.5 288.2,997 288.3,996.7C288.4,996.3 288.9,996.1 289.2,996.2C337.5,1012.6 387.7,1022.2 438.6,1024.9C439,1024.9 439.3,1025.3 439.3,1025.7C439.5,1026.1 439.1,1026.4 438.7,1026.4Z" style="fill:white;fill-rule:nonzero;"/>
                </g>
            </g>
        </g>
        <g transform="matrix(0.887606,0,0,0.887606,879.136,757.482)">
            <path d="M1309.3,315.1L773.3,315.1C759.6,315.1 748.6,326.2 748.6,339.8L748.6,1069.9C748.6,1083.6 759.7,1094.6 773.3,1094.6L1309.3,1094.6C1323,1094.6 1334,1083.5 1334,1069.9L1334,339.8C1334,326.2 1322.9,315.1 1309.3,315.1Z" style="fill:rgb(63,50,122);fill-rule:nonzero;"/>
            <rect x="769.3" y="332.2" width="545" height="742.9" style="fill:rgb(242,240,255);"/>
            <rect x="801" y="376.2" width="477.8" height="79.4" style="fill:rgb(139,119,232);"/>
            <rect x="804.9" y="563.2" width="138.1" height="62" style="fill:rgb(139,119,232);"/>
            <rect x="801" y="760.8" width="329.9" height="73.9" style="fill:rgb(139,119,232);"/>
            <rect x="1047.9" y="932.2" width="170.3" height="64.7" style="fill:rgb(139,119,232);"/>
            <g>
                <g>
                    <path d="M1278.8,669.2L815.7,669.2C813.3,669.2 811.4,667.3 811.4,664.9C811.4,662.5 813.3,660.6 815.7,660.6L1278.8,660.6C1281.2,660.6 1283.1,662.5 1283.1,664.9C1283.1,667.3 1281.2,669.2 1278.8,669.2Z" style="fill:rgb(139,119,232);fill-rule:nonzero;"/>
                </g>
                <g>
                    <path d="M1186.1,707.9L815.7,707.9C813.3,707.9 811.4,706 811.4,703.6C811.4,701.2 813.3,699.3 815.7,699.3L1186.1,699.3C1188.5,699.3 1190.4,701.2 1190.4,703.6C1190.4,706 1188.5,707.9 1186.1,707.9Z" style="fill:rgb(139,119,232);fill-rule:nonzero;"/>
                </g>
            </g>
            <g>
                <g>
                    <path d="M953.8,485.6L804.9,485.6C803.9,485.6 803.1,484.8 803.1,483.8C803.1,482.8 803.9,482 804.9,482L953.8,482C954.8,482 955.6,482.8 955.6,483.8C955.6,484.8 954.8,485.6 953.8,485.6Z" style="fill:rgb(139,119,232);fill-rule:nonzero;"/>
                </g>
                <g>
                    <path d="M908.4,502.7L804.9,502.7C803.9,502.7 803.1,501.9 803.1,500.9C803.1,499.9 803.9,499.1 804.9,499.1L908.4,499.1C909.4,499.1 910.2,499.9 910.2,500.9C910.2,501.9 909.4,502.7 908.4,502.7Z" style="fill:rgb(139,119,232);fill-rule:nonzero;"/>
                </g>
                <g>
                    <path d="M932.8,518L804.9,518C803.9,518 803.1,517.2 803.1,516.2C803.1,515.2 803.9,514.4 804.9,514.4L932.8,514.4C933.8,514.4 934.6,515.2 934.6,516.2C934.6,517.2 933.8,518 932.8,518Z" style="fill:rgb(139,119,232);fill-rule:nonzero;"/>
                </g>
                <g>
                    <path d="M1278.8,566.2L1029.7,566.2C1028.7,566.2 1027.9,565.4 1027.9,564.4C1027.9,563.4 1028.7,562.6 1029.7,562.6L1278.8,562.6C1279.8,562.6 1280.6,563.4 1280.6,564.4C1280.6,565.3 1279.8,566.2 1278.8,566.2Z" style="fill:rgb(139,119,232);fill-rule:nonzero;"/>
                </g>
                <g>
                    <path d="M1165.8,584L1029.8,584C1028.8,584 1028,583.2 1028,582.2C1028,581.2 1028.8,580.4 1029.8,580.4L1165.8,580.4C1166.8,580.4 1167.6,581.2 1167.6,582.2C1167.6,583.2 1166.8,584 1165.8,584Z" style="fill:rgb(139,119,232);fill-rule:nonzero;"/>
                </g>
                <g>
                    <path d="M1214.6,601.8L1029.7,601.8C1028.7,601.8 1027.9,601 1027.9,600C1027.9,599 1028.7,598.2 1029.7,598.2L1214.6,598.2C1215.6,598.2 1216.4,599 1216.4,600C1216.5,601 1215.7,601.8 1214.6,601.8Z" style="fill:rgb(139,119,232);fill-rule:nonzero;"/>
                </g>
                <g>
                    <path d="M1094.1,625.2L1029.7,625.2C1028.7,625.2 1027.9,624.4 1027.9,623.4C1027.9,622.4 1028.7,621.6 1029.7,621.6L1094.1,621.6C1095.1,621.6 1095.9,622.4 1095.9,623.4C1095.9,624.4 1095.1,625.2 1094.1,625.2Z" style="fill:rgb(139,119,232);fill-rule:nonzero;"/>
                </g>
                <g>
                    <path d="M1271.7,763.8L1154.3,763.8C1153.3,763.8 1152.5,763 1152.5,762C1152.5,761 1153.3,760.2 1154.3,760.2L1271.7,760.2C1272.7,760.2 1273.5,761 1273.5,762C1273.5,763 1272.7,763.8 1271.7,763.8Z" style="fill:rgb(139,119,232);fill-rule:nonzero;"/>
                </g>
                <g>
                    <path d="M1218.2,786.2L1154.3,786.2C1153.3,786.2 1152.5,785.4 1152.5,784.4C1152.5,783.4 1153.3,782.6 1154.3,782.6L1218.2,782.6C1219.2,782.6 1220,783.4 1220,784.4C1220,785.4 1219.2,786.2 1218.2,786.2Z" style="fill:rgb(139,119,232);fill-rule:nonzero;"/>
                </g>
                <g>
                    <path d="M1023.2,934L801,934C800,934 799.2,933.2 799.2,932.2C799.2,931.2 800,930.4 801,930.4L1023.2,930.4C1024.2,930.4 1025,931.2 1025,932.2C1025,933.2 1024.2,934 1023.2,934Z" style="fill:rgb(139,119,232);fill-rule:nonzero;"/>
                </g>
                <g>
                    <path d="M1023.2,951.5L801,951.5C800,951.5 799.2,950.7 799.2,949.7C799.2,948.7 800,947.9 801,947.9L1023.2,947.9C1024.2,947.9 1025,948.7 1025,949.7C1025,950.7 1024.2,951.5 1023.2,951.5Z" style="fill:rgb(139,119,232);fill-rule:nonzero;"/>
                </g>
                <g>
                    <path d="M932.8,971.1L801,971.1C800,971.1 799.2,970.3 799.2,969.3C799.2,968.3 800,967.5 801,967.5L932.8,967.5C933.8,967.5 934.6,968.3 934.6,969.3C934.6,970.3 933.8,971.1 932.8,971.1Z" style="fill:rgb(139,119,232);fill-rule:nonzero;"/>
                </g>
                <g>
                    <path d="M985.3,990.7L801,990.7C800,990.7 799.2,989.9 799.2,988.9C799.2,987.9 800,987.1 801,987.1L985.3,987.1C986.3,987.1 987.1,987.9 987.1,988.9C987.2,989.9 986.3,990.7 985.3,990.7Z" style="fill:rgb(139,119,232);fill-rule:nonzero;"/>
                </g>
            </g>
            <circle cx="855.4" cy="414.8" r="28.1" style="fill:rgb(228,224,255);"/>
            <g>
                <path d="M1161.5,399.1L912.4,399.1C911.4,399.1 910.6,398.3 910.6,397.3C910.6,396.3 911.4,395.5 912.4,395.5L1161.5,395.5C1162.5,395.5 1163.3,396.3 1163.3,397.3C1163.3,398.3 1162.5,399.1 1161.5,399.1Z" style="fill:rgb(228,224,255);fill-rule:nonzero;"/>
            </g>
            <g>
                <path d="M1048.4,416.9L912.4,416.9C911.4,416.9 910.6,416.1 910.6,415.1C910.6,414.1 911.4,413.3 912.4,413.3L1048.4,413.3C1049.4,413.3 1050.2,414.1 1050.2,415.1C1050.3,416.1 1049.4,416.9 1048.4,416.9Z" style="fill:rgb(228,224,255);fill-rule:nonzero;"/>
            </g>
            <g>
                <path d="M1097.3,434.8L912.4,434.8C911.4,434.8 910.6,434 910.6,433C910.6,432 911.4,431.2 912.4,431.2L1097.3,431.2C1098.3,431.2 1099.1,432 1099.1,433C1099.1,433.9 1098.3,434.8 1097.3,434.8Z" style="fill:rgb(228,224,255);fill-rule:nonzero;"/>
            </g>
        </g>
        <g transform="matrix(0.887606,0,0,0.887606,879.136,757.482)">
            <rect x="397.8" y="955" width="105.1" height="139.6" style="fill:rgb(139,119,232);"/>
            <rect x="286.6" y="1002.4" width="105.1" height="92.3" style="fill:rgb(99,74,201);"/>
            <rect x="509" y="910.1" width="105.1" height="184.6" style="fill:rgb(99,74,201);"/>
            <rect x="620.2" y="868.8" width="105.1" height="225.8" style="fill:rgb(139,119,232);"/>
        </g>
        <g transform="matrix(0.887606,0,0,0.887606,879.136,757.482)">
            <path d="M581.8,479.7C580.1,486.5 585.6,489.9 592.3,491.8C595.9,491.7 598.8,491.3 600,490.4C602.1,488.9 600.9,484 599,479.1L602.2,476.9L597.1,471.4C591.1,475.3 583.1,475.8 581.8,479.7Z" style="fill:rgb(255,150,169);fill-rule:nonzero;"/>
            <path d="M581.8,479.7C583.1,475.8 591.1,475.3 597.1,471.3L593.3,467.1C593.3,467.1 567.3,467.7 562.4,472.9C557.5,478.1 567.9,490.3 567.9,490.3C567.9,490.3 579,491.7 588.2,491.8L592.2,491.8C585.6,489.8 580.1,486.4 581.8,479.7Z" style="fill:rgb(237,126,148);fill-rule:nonzero;"/>
            <path d="M567.9,490.3L566.9,492.3C570.1,494.6 573.5,496.6 577,497.7C579.9,491.6 582.8,486.9 582.8,486.9C580.4,482.2 567.9,490.3 567.9,490.3Z" style="fill:rgb(237,126,148);fill-rule:nonzero;"/>
            <path d="M580.1,476.3C580.1,476.3 598.1,475.7 620.1,448.5C620.1,448.5 568.8,454.6 548.9,473.5C548.9,473.5 551.6,485.7 567.8,490.3L571.8,481.1C571.8,481.1 568.1,475.9 572.1,472.9C576.1,469.9 580.1,476.3 580.1,476.3Z" style="fill:rgb(63,50,122);fill-rule:nonzero;"/>
            <path d="M647.3,697.8C610.6,707.6 572.8,713.7 534.9,713.7C532.9,699.6 529.2,685.4 527.3,671.3C511.4,687.2 482.2,720.8 513.7,726.4C555.2,733.7 630.2,714.2 630.2,714.2C617.9,771.6 640.5,835.8 648.2,855.1C647.6,851.3 647.3,847.3 647.3,843.4C647.3,794.3 640,746.6 647.3,697.8Z" style="fill:rgb(120,96,220);fill-rule:nonzero;"/>
            <path d="M685.6,680.7C633.5,655.4 536.1,662.9 536.1,662.9C536.1,662.9 532.4,666.2 527.3,671.2C529.2,685.3 532.9,699.5 534.9,713.6C572.8,713.6 610.7,707.5 647.3,697.7C640,746.6 647.3,794.2 647.3,843.1C647.3,847.1 647.6,851 648.2,854.8C649.7,858.5 650.6,860.6 650.6,860.6C679.1,798 685.6,680.7 685.6,680.7Z" style="fill:rgb(139,119,232);fill-rule:nonzero;"/>
            <path d="M499.5,734.4C519.3,714.6 530.2,689.5 536,662.9L476.7,666C476.7,666 470,681.9 461.2,707.6C471.8,719 485.6,727.1 499.5,734.4Z" style="fill:rgb(120,96,220);fill-rule:nonzero;"/>
            <path d="M461.2,707.6C442.6,762 414.3,860.4 418.8,945.8C418.8,945.8 419.4,945.1 420.5,943.7C423.6,864.2 440,785.5 462.7,709.2C462.2,708.7 461.7,708.2 461.2,707.6Z" style="fill:rgb(120,96,220);fill-rule:nonzero;"/>
            <path d="M536,662.9C530.2,689.5 519.3,714.7 499.5,734.4C486.3,727.4 473.2,719.7 462.8,709.2C440.1,785.6 423.6,864.2 420.6,943.7C433.9,927.4 522.1,814.3 536,662.9Z" style="fill:rgb(139,119,232);fill-rule:nonzero;"/>
            <path d="M494.6,594.7L450.6,689.2C450.6,689.2 466.5,715.7 501.1,719.3C501.1,719.3 532.9,687.9 549,624.4C565,560.9 494.6,594.7 494.6,594.7Z" style="fill:rgb(139,119,232);fill-rule:nonzero;"/>
            <path d="M737.3,509.5C738.3,511.3 739.1,513.3 739.6,515.3C740.5,513.9 741.4,512.6 742.3,511.2C742.7,510.6 743,510 743.4,509.5C742.7,507.6 741.8,505.8 740.8,504C740.3,505.1 739.7,506.2 739,507.2C738.4,507.9 737.8,508.7 737.3,509.5Z" style="fill:rgb(218,216,230);fill-rule:nonzero;"/>
            <path d="M728.9,494.3C727.9,495.4 726.8,496.6 725.6,497.9C730.7,500.6 734.7,504.7 737.2,509.5C737.8,508.7 738.3,508 738.9,507.2C739.6,506.1 740.2,505.1 740.7,504C738.1,499.3 734.4,495.6 728.9,494.3Z" style="fill:rgb(242,240,255);fill-rule:nonzero;"/>
            <g>
                <path d="M503.6,672.4C503.2,672.4 502.8,672.3 502.4,672.1L475.3,657.4C474.1,656.8 473.7,655.3 474.3,654.1C474.9,652.9 476.4,652.5 477.6,653.1L504.7,667.8C505.9,668.4 506.3,669.9 505.7,671.1C505.3,671.9 504.5,672.4 503.6,672.4Z" style="fill:rgb(120,96,220);fill-rule:nonzero;"/>
            </g>
            <path d="M501.6,519.3C502.3,520.4 503,521.5 503.6,522.6C517.1,516.2 531,510.5 544.9,505.2C533.8,507.7 519,512 501.6,519.3Z" style="fill:rgb(120,96,220);fill-rule:nonzero;"/>
            <path d="M514.2,546.9C514.7,548.4 515.2,549.8 515.7,551.3C517,550.9 518.3,550.6 519.7,550.3C520.9,548.4 522.4,546.7 524,545.1C520.6,545.4 517.4,546 514.2,546.9Z" style="fill:rgb(139,119,232);fill-rule:nonzero;"/>
            <path d="M725.7,497.9C710.4,514.8 682,543.8 660.5,553C660.5,553 599.7,504.1 567.9,501.7C567.9,501.7 559.5,502 545,505.3C531.1,510.6 517.2,516.3 503.7,522.7C508.1,530.3 511.4,538.6 514.2,546.9C517.4,546.1 520.6,545.4 523.9,545.1C522.3,546.7 520.8,548.4 519.6,550.3C550.1,543 595,543.3 595,543.3C595,543.3 633.6,570.5 654.4,580.5C686.5,563.5 714.6,540.7 737.2,509.6C734.7,504.7 730.8,500.6 725.7,497.9Z" style="fill:rgb(139,119,232);fill-rule:nonzero;"/>
            <path d="M654.5,580.3C656.1,581.1 657.6,581.7 658.9,582.2C658.9,582.2 707.7,562.5 739.6,515.2C739,513.2 738.2,511.3 737.3,509.4C714.7,540.6 686.6,563.3 654.5,580.3Z" style="fill:rgb(120,96,220);fill-rule:nonzero;"/>
            <path d="M568.1,544C581.4,543.2 591.9,543.2 594.5,543.2L601.1,535.1L584,531.6L589.3,527.1L580.1,504.3C576.4,503.1 572.9,502.3 569.6,501.9L568.1,544Z" style="fill:rgb(120,96,220);fill-rule:nonzero;"/>
            <path d="M766.8,477.7C767.5,476.1 767.7,474.8 767.7,474.8L743.6,464.7C743.6,464.7 737.2,473.6 736.6,485.5C736.6,485.5 733.8,488.9 729,494.3C734.4,495.6 738.2,499.4 740.9,504C746,493.7 744.3,481.7 747.6,471.8C752.6,476.8 760.2,480.1 766.8,477.7Z" style="fill:rgb(255,150,169);fill-rule:nonzero;"/>
            <path d="M747.5,471.7C744.2,481.6 745.8,493.6 740.8,503.9C741.8,505.6 742.7,507.5 743.4,509.4C753,493.2 748.4,485.5 748.4,485.5L749.5,476.6C749.5,476.6 754.2,483.6 760.6,482.4C764.1,481.7 765.9,479.5 766.7,477.7C760.2,480.1 752.6,476.8 747.5,471.7Z" style="fill:rgb(237,126,148);fill-rule:nonzero;"/>
            <path d="M559.1,502.6C556,503 552.1,503.7 547.6,504.7L541.9,528.6L550.5,532.8L534.7,538.9L536.1,547.2C545.5,545.8 555.3,544.9 564.1,544.3L559.1,502.6Z" style="fill:rgb(120,96,220);fill-rule:nonzero;"/>
            <path d="M561.1,503.8C554.3,517.2 570.7,529.5 571,517.5C571.2,511.5 574.1,503.9 577.1,497.8C573.5,496.7 570.1,494.7 567,492.4C566,494.1 564.3,497.5 561.1,503.8Z" style="fill:rgb(255,150,169);fill-rule:nonzero;"/>
            <path d="M556.1,503C556.1,503 562.1,535.1 556.1,556.2C550.1,577.3 574,561.1 574,561.1C574,561.1 580.2,544.3 574.8,502.8C574.8,502.8 570.7,501.8 567.6,501.7C564.2,501.5 556.1,503 556.1,503Z" style="fill:rgb(242,240,255);fill-rule:nonzero;"/>
            <path d="M568.1,513.9L564.5,520.7L568.4,524.9L571.3,520.5L568.1,513.9Z" style="fill:rgb(229,100,154);fill-rule:nonzero;"/>
            <path d="M568.2,522L567.9,521.3L559.4,551.2L568.8,550.3C569.8,540.8 569.1,531.7 568.2,522Z" style="fill:rgb(219,74,135);fill-rule:nonzero;"/>
            <path d="M568.2,522C569.1,531.7 569.7,540.8 568.8,550.4L580,549.4L568.2,522Z" style="fill:rgb(229,100,154);fill-rule:nonzero;"/>
            <path d="M341.1,585.6L680,518L699.6,620.6L361.1,684.5L341.1,585.6Z" style="fill:rgb(255,204,70);fill-rule:nonzero;"/>
            <g>
                <g>
                    <path d="M450.6,590.5C449.5,590.5 448.4,589.7 448.2,588.6C447.9,587.3 448.8,586 450.1,585.7L646.7,543.4C648,543.1 649.3,544 649.6,545.3C649.9,546.6 649,547.9 647.7,548.2L451.1,590.5L450.6,590.5Z" style="fill:rgb(254,151,54);fill-rule:nonzero;"/>
                </g>
                <g>
                    <path d="M461.2,614.4C460,614.4 459,613.6 458.8,612.4C458.5,611.1 459.4,609.8 460.7,609.5L560.9,589.5C562.2,589.2 563.5,590.1 563.8,591.4C564.1,592.7 563.2,594 561.9,594.3L461.7,614.3C461.5,614.4 461.3,614.4 461.2,614.4Z" style="fill:rgb(254,151,54);fill-rule:nonzero;"/>
                </g>
                <g>
                    <path d="M463.6,640.2C462.4,640.2 461.4,639.4 461.2,638.2C460.9,636.9 461.8,635.6 463.1,635.3L623.3,603.6C624.6,603.3 625.9,604.2 626.2,605.5C626.5,606.8 625.6,608.1 624.3,608.4L464.1,640.1C463.9,640.2 463.8,640.2 463.6,640.2Z" style="fill:rgb(254,151,54);fill-rule:nonzero;"/>
                </g>
            </g>
            <path d="M418.4,933.9L400.5,955.6L483.6,955.6L418.4,933.9Z" style="fill:rgb(63,50,122);fill-rule:nonzero;"/>
            <path d="M645.1,847.1L627.2,868.8L710.3,868.8L645.1,847.1Z" style="fill:rgb(63,50,122);fill-rule:nonzero;"/>
            <path d="M431,573.1C451.4,551.2 476.7,535.4 503.6,522.6C503,521.5 502.3,520.4 501.6,519.3C478,529.2 449.5,544.7 418.8,568.8C418.8,568.8 444.7,617.2 487.8,646.5C488,644 488.5,641.5 489.4,639.2C466.6,620.5 450.3,595.3 431,573.1Z" style="fill:rgb(120,96,220);fill-rule:nonzero;"/>
            <path d="M513.7,551.2C514.3,551 514.9,550.9 515.5,550.7C515.1,549.4 514.6,548.1 514.2,546.8C500,550.5 487,558.3 475,567C484,562.2 497.5,556 513.7,551.2Z" style="fill:rgb(120,96,220);fill-rule:nonzero;"/>
            <path d="M431,573.1C450.3,595.3 466.5,620.5 489.4,639.2C491.8,632.8 496.5,627.2 502.1,623.2C490.4,612.7 473.3,595.1 462.8,574.1C462.8,574.1 467.2,571.1 475,567C487,558.3 500.1,550.5 514.2,546.9C511.3,538.5 508.1,530.3 503.6,522.7C476.7,535.4 451.5,551.2 431,573.1Z" style="fill:rgb(139,119,232);fill-rule:nonzero;"/>
            <path d="M509.2,652.6C504.7,650.2 500.5,647.5 496.4,644.6C495.7,646.7 495.2,648.9 494.9,651.1C496.3,651.9 497.7,652.8 499.1,653.6C499.1,653.6 500.6,670.6 522,664.8C523.9,664.3 525.6,663.8 527.1,663.2C520.9,662.3 514.9,660.5 509.2,657.5L509.2,652.6Z" style="fill:rgb(237,126,148);fill-rule:nonzero;"/>
            <path d="M541.2,649.9C541.2,649.9 560.1,643.9 552.3,634.5L536.1,639.1C536.1,639.1 525.7,633 514.7,633.6C514.7,633.6 512,631.7 507.9,628.2C502.5,632.4 498.6,638.2 496.5,644.6C500.5,647.5 504.8,650.1 509.3,652.6L509.3,657.5C515,660.5 521.1,662.4 527.2,663.2C543.1,657.4 541.2,649.9 541.2,649.9Z" style="fill:rgb(255,150,169);fill-rule:nonzero;"/>
            <path d="M487.8,646.5C490.1,648.1 492.5,649.6 494.9,651C495.2,648.8 495.7,646.6 496.4,644.5C494,642.8 491.6,641 489.3,639.1C488.5,641.6 488,644 487.8,646.5Z" style="fill:rgb(218,216,230);fill-rule:nonzero;"/>
            <path d="M507.9,628.2C506.2,626.8 504.3,625.1 502.1,623.2C496.5,627.3 491.8,632.9 489.4,639.2C491.7,641.1 494,642.9 496.5,644.6C498.6,638.2 502.4,632.3 507.9,628.2Z" style="fill:rgb(242,240,255);fill-rule:nonzero;"/>
            <path d="M574.8,502.8C574.8,502.8 570.7,501.8 567.6,501.7C566.2,501.6 564,501.9 561.9,502.1L567.7,512.1L574.8,502.8Z" style="fill:rgb(255,150,169);fill-rule:nonzero;"/>
            <circle cx="397.4" cy="617.6" r="28.1" style="fill:rgb(254,151,54);"/>
            <ellipse cx="491.7" cy="644.9" rx="1.4" ry="1.8" style="fill:rgb(242,240,255);"/>
            <g>
                <circle cx="472.1" cy="629.3" r="2.2" style="fill:rgb(86,58,201);"/>
                <circle cx="476.5" cy="633.2" r="2.2" style="fill:rgb(86,58,201);"/>
                <circle cx="481" cy="637" r="2.2" style="fill:rgb(86,58,201);"/>
            </g>
        </g>
        <g transform="matrix(0.887606,0,0,0.887606,879.136,757.482)">
            <path d="M1562.2,632.7L1551.8,630.3C1551.8,630.3 1550.5,634.7 1548.5,640.2C1553.1,639.4 1557.2,637.5 1561.2,635.6L1562.2,632.7Z" style="fill:rgb(237,126,148);fill-rule:nonzero;"/>
            <path d="M1548.4,640.2C1545.9,646.8 1542.3,654.9 1538.4,658.8C1531.2,666 1544.9,669.4 1549,664.3C1553.1,659.2 1557.2,647.1 1557.2,647.1L1561.1,635.5C1557.1,637.5 1553.1,639.4 1548.4,640.2Z" style="fill:rgb(255,150,169);fill-rule:nonzero;"/>
            <path d="M1556.5,626.8C1561.5,618.1 1546.2,621.8 1538.1,617.5C1535.5,622.3 1533,628.6 1534.5,632.7C1535.4,635.3 1538.9,636.1 1543.1,636.1C1549.1,634.6 1554.6,630.7 1556.5,626.8Z" style="fill:rgb(255,150,169);fill-rule:nonzero;"/>
            <path d="M1542.5,610.4C1542.5,610.4 1540.3,613.4 1538.2,617.5C1546.2,621.8 1561.5,618.1 1556.6,626.8C1554.6,630.7 1549.2,634.6 1543.3,636C1551.4,635.9 1562.3,632.6 1562.3,632.6C1562.3,632.6 1576,632.2 1577.7,623.1C1579.2,614.2 1569.3,601.8 1542.5,610.4Z" style="fill:rgb(237,126,148);fill-rule:nonzero;"/>
            <path d="M1563.5,618.6C1563.5,618.6 1547.7,621 1534.7,613.1C1521.7,605.2 1527.1,581.2 1549.1,582.6C1571.1,584 1578.3,604.9 1578.3,604.9C1578.3,604.9 1604.4,600.1 1596.8,629.6C1596.8,629.6 1652.4,629.9 1635.9,674.9C1619.4,719.9 1575.6,706.3 1575.6,706.3L1556,648.5L1565.2,623.8C1565.2,623.8 1574.8,624.1 1572.1,616.9C1569.3,609.7 1563.5,618.6 1563.5,618.6Z" style="fill:rgb(63,50,122);fill-rule:nonzero;"/>
            <path d="M1584.8,782.9C1560,763.8 1527.7,779.6 1527.7,779.6C1527.7,779.6 1535.2,804.5 1547.7,840.8C1561.9,823.1 1574.6,804.5 1589.4,788C1587.9,785.9 1586.4,784.2 1584.8,782.9Z" style="fill:rgb(255,204,70);fill-rule:nonzero;"/>
            <path d="M1589.4,788C1574.7,804.5 1561.9,823.1 1547.7,840.8C1551.9,852.9 1556.7,866.3 1561.9,880.4C1571.3,880.8 1580.9,880.2 1590.3,878.6C1594.1,871.3 1597.2,863.8 1599.7,856.1C1597.9,849.2 1595.9,842.3 1593.6,835.5C1595.9,842.3 1597.9,849.2 1599.7,856.1C1602,848.8 1603.7,841.2 1604.5,833.5C1600.8,814.4 1595.8,797.3 1589.4,788Z" style="fill:rgb(255,164,47);fill-rule:nonzero;"/>
            <path d="M1604.5,833.5C1603.7,841.2 1602,848.7 1599.7,856.1C1601.4,862.6 1602.8,869.2 1604.1,875.7C1606.2,875.2 1608.4,874.6 1610.5,873.9C1609,860.7 1607,846.7 1604.5,833.5Z" style="fill:rgb(255,164,47);fill-rule:nonzero;"/>
            <path d="M1590.3,878.6C1594.9,877.8 1599.5,876.9 1604,875.7C1602.8,869.1 1601.3,862.6 1599.6,856.1C1597.3,863.8 1594.1,871.3 1590.3,878.6Z" style="fill:rgb(255,204,70);fill-rule:nonzero;"/>
            <path d="M1561.9,880.4C1565.1,889.1 1568.5,898 1572.1,907.1C1579,898 1585.2,888.5 1590.3,878.6C1580.9,880.2 1571.3,880.8 1561.9,880.4Z" style="fill:rgb(237,126,148);fill-rule:nonzero;"/>
            <path d="M1608.7,937.1C1655.7,962.1 1659.7,1016.3 1665.3,1067.2C1667.4,1066 1669.3,1064.6 1670.9,1062.9C1666.3,1017.5 1652.8,938.3 1614.9,928.6C1614.9,928.6 1613.8,903.5 1610.5,874C1608.4,874.6 1606.2,875.2 1604.1,875.8C1607.9,896 1609.5,916.5 1608.7,937.1Z" style="fill:rgb(237,126,148);fill-rule:nonzero;"/>
            <path d="M1608.7,937.1C1609.5,916.6 1607.9,896 1604.1,875.8C1599.5,877 1595,877.9 1590.4,878.7C1585.3,888.6 1579,898.2 1572.2,907.2C1594.7,964.9 1623.7,1029.5 1654,1071.4C1658,1070.5 1662,1069.2 1665.5,1067.3C1659.7,1016.2 1655.7,962.1 1608.7,937.1Z" style="fill:rgb(255,150,169);fill-rule:nonzero;"/>
            <path d="M1673.3,1094.6C1673.3,1094.6 1672.9,1081.6 1671,1062.8C1669.4,1064.5 1667.5,1066 1665.4,1067.1C1666.2,1074.5 1667.1,1081.8 1668.1,1089C1669.8,1091 1671.5,1092.9 1673.3,1094.6Z" style="fill:rgb(255,164,47);fill-rule:nonzero;"/>
            <path d="M1668,1089.1C1667,1081.9 1666.1,1074.6 1665.3,1067.2C1661.8,1069.2 1657.8,1070.5 1653.8,1071.3C1658.6,1077.8 1663.3,1083.8 1668,1089.1Z" style="fill:rgb(255,204,70);fill-rule:nonzero;"/>
            <path d="M1574.4,880.4C1632.3,806.8 1577.7,762.5 1577.7,762.5C1565.6,773.6 1539.6,814.9 1510.3,864.9C1530,877 1552.1,881.5 1574.4,880.4Z" style="fill:rgb(255,204,70);fill-rule:nonzero;"/>
            <path d="M1384.9,1091C1395.6,1084 1406.4,1076.8 1416.9,1069.1C1411.4,1066.8 1406.2,1063.8 1401.7,1059.7C1393.6,1074.6 1387.7,1085.6 1384.9,1091Z" style="fill:rgb(255,204,70);fill-rule:nonzero;"/>
            <path d="M1382.9,1094.6C1397.2,1086.5 1409.9,1078.6 1421.2,1070.7C1419.7,1070.2 1418.3,1069.6 1416.8,1069.1C1406.3,1076.8 1395.5,1084.1 1384.8,1091C1383.6,1093.4 1382.9,1094.6 1382.9,1094.6Z" style="fill:rgb(255,164,47);fill-rule:nonzero;"/>
            <path d="M1501.6,931.6C1518.6,923.9 1536.4,914.6 1553.2,903.6C1561.5,895.6 1568.6,887.8 1574.4,880.4C1552.1,881.5 1530,877.1 1510.3,864.9C1471.2,931.8 1426.3,1014 1401.6,1059.8C1406.1,1063.9 1411.2,1066.9 1416.8,1069.2C1463.8,1034.7 1504.4,992 1501.6,931.6Z" style="fill:rgb(255,150,169);fill-rule:nonzero;"/>
            <path d="M1501.6,931.6C1504.3,992 1463.7,1034.8 1416.8,1069.1C1418.2,1069.7 1419.7,1070.3 1421.2,1070.7C1524.2,999.1 1509.2,939.5 1509.2,939.5C1526.9,927 1541.3,915 1553.2,903.6C1536.4,914.6 1518.6,923.8 1501.6,931.6Z" style="fill:rgb(237,126,148);fill-rule:nonzero;"/>
            <path d="M1530.5,673.5C1547.2,678 1558.5,662.5 1567.3,648.5C1557.3,647.2 1551.5,647.2 1551.5,647.2C1540.8,648.3 1533.1,652 1527.5,656.5C1526.2,663.6 1523.1,671.4 1530.5,673.5Z" style="fill:rgb(255,150,169);fill-rule:nonzero;"/>
            <path d="M1496.1,700.9C1492.8,696.8 1490.5,692.2 1490.1,687.4C1489.9,687.8 1489.8,688.2 1489.6,688.6C1483.8,705.8 1507.8,710.2 1507.8,710.2L1514.1,733.2C1516.4,721.8 1520.7,710.7 1524.9,699.6C1516.7,710.5 1504.4,707.8 1496.1,700.9Z" style="fill:rgb(247,198,190);fill-rule:nonzero;"/>
            <path d="M1567.3,648.4C1558.5,662.4 1547.2,677.9 1530.5,673.4C1523.1,671.3 1526.3,663.5 1527.5,656.3C1515.9,665.6 1513.7,678.3 1513.7,678.3C1513.7,678.3 1496.4,671.8 1490.1,687.4C1490.5,692.2 1492.8,696.8 1496.1,700.9C1504.3,707.8 1516.7,710.5 1524.9,699.5C1520.6,710.6 1516.4,721.7 1514.1,733.1L1515.7,739C1515.7,739 1573.1,739 1572.4,720.1C1568.6,716 1563.2,713.6 1557.8,711.8C1564.7,706.3 1571.5,696.7 1567.4,688.5C1563.3,681.6 1555,677.5 1546.8,678.9C1559.2,674.8 1572.9,684.4 1574.3,666.5C1586.7,669.6 1598.1,674.4 1609,680.2C1613,673.4 1617.6,666.8 1623.7,662.3C1600.1,653.9 1580.2,650.1 1567.3,648.4Z" style="fill:rgb(255,212,205);fill-rule:nonzero;"/>
            <path d="M1574.4,666.6C1573,684.4 1559.3,674.8 1546.9,679C1555.1,677.6 1563.4,681.7 1567.5,688.6C1571.6,696.8 1564.8,706.4 1557.9,711.9C1563.3,713.7 1568.6,716.1 1572.5,720.2C1572.5,719.8 1572.5,719.4 1572.4,719.1C1569.3,699 1577.7,674.3 1577.7,674.3C1585,673.3 1596.9,677.2 1608.1,682C1608.4,681.5 1608.7,680.9 1609,680.4C1598.2,674.5 1586.7,669.7 1574.4,666.6Z" style="fill:rgb(247,198,190);fill-rule:nonzero;"/>
            <path d="M1413.5,720.9L1701.8,673.5L1715.2,760.7L1429.3,809.4L1413.5,720.9Z" style="fill:rgb(63,50,122);fill-rule:nonzero;"/>
            <g>
                <g>
                    <path d="M1508.3,729.7C1507.3,729.7 1506.5,729 1506.3,728C1506.1,726.9 1506.8,725.8 1508,725.6L1606.3,708.2C1607.4,708 1608.5,708.7 1608.7,709.9C1608.9,711 1608.2,712.1 1607,712.3L1508.7,729.7L1508.3,729.7Z" style="fill:rgb(242,240,255);fill-rule:nonzero;"/>
                </g>
                <g>
                    <path d="M1510.4,745.9C1509.4,745.9 1508.5,745.2 1508.4,744.2C1508.2,743.1 1509,742 1510.1,741.8L1682.9,711.6C1684,711.4 1685.1,712.2 1685.3,713.3C1685.5,714.4 1684.7,715.5 1683.6,715.7L1510.8,745.9L1510.4,745.9Z" style="fill:rgb(242,240,255);fill-rule:nonzero;"/>
                </g>
                <g>
                    <path d="M1514.3,764.5C1513.3,764.5 1512.5,763.8 1512.3,762.8C1512.1,761.7 1512.8,760.6 1514,760.4L1574.1,749.7C1575.2,749.5 1576.3,750.2 1576.5,751.4C1576.7,752.5 1576,753.6 1574.8,753.8L1514.7,764.5L1514.3,764.5Z" style="fill:rgb(242,240,255);fill-rule:nonzero;"/>
                </g>
            </g>
            <path d="M1608.2,682C1614.9,684.9 1621.3,688 1626.2,690.6C1620.7,687 1615,683.5 1609.1,680.4C1608.8,680.9 1608.5,681.4 1608.2,682Z" style="fill:rgb(237,126,148);fill-rule:nonzero;"/>
            <path d="M1637.2,761.4C1650.8,738.6 1658,704.2 1660.9,688.1C1654.1,713.4 1640.7,736.9 1633.4,762.7C1633.4,764.1 1641.6,777.8 1633.4,783.3C1625.4,786.7 1611.7,785.4 1607.3,776.1C1606.8,777.6 1606.6,778.9 1606.8,779.9C1608,785 1622.4,798.4 1638.9,785.4C1655.4,772.4 1637.2,761.4 1637.2,761.4Z" style="fill:rgb(237,126,148);fill-rule:nonzero;"/>
            <path d="M1633.4,783.3C1641.6,777.8 1633.4,764.1 1633.4,762.7C1640.6,736.9 1654.1,713.4 1660.9,688.1C1661.9,682.7 1662.3,679.3 1662.3,679.3C1648.8,672.2 1635.8,666.7 1623.8,662.4C1617.7,666.9 1613.1,673.6 1609.1,680.3C1615,683.4 1620.6,686.9 1626.2,690.5C1632,693.5 1635.9,695.8 1635.9,695.8C1637.6,719.1 1622.5,748.3 1619.1,755.2C1616.3,760.7 1609.4,770 1607.4,776.1C1611.7,785.4 1625.4,786.7 1633.4,783.3Z" style="fill:rgb(255,150,169);fill-rule:nonzero;"/>
            <path d="M1418.7,742C1416.9,741.9 1415.1,742.6 1413.5,744.2C1403.7,753.8 1402.4,767.3 1405.7,775.5C1408.9,774.9 1412.1,773.8 1415.1,772.3C1426.2,767.4 1427.3,750.5 1418.7,742Z" style="fill:rgb(255,150,169);fill-rule:nonzero;"/>
            <path d="M1418.7,742C1427.4,750.5 1426.2,767.4 1415.2,772.3C1412.2,773.8 1409,774.9 1405.8,775.5C1408.9,783.1 1415.9,786.3 1423.7,778C1437.4,763.4 1428.1,742.4 1418.7,742Z" style="fill:rgb(237,126,148);fill-rule:nonzero;"/>
            <circle cx="1470.8" cy="758.2" r="24.7" style="fill:rgb(242,240,255);"/>
            <path d="M1514.4,675.6C1513.9,677.3 1513.7,678.3 1513.7,678.3C1513.7,678.3 1519.6,679.7 1525,681.7C1525,681.7 1519.1,677.3 1514.4,675.6Z" style="fill:rgb(247,198,190);fill-rule:nonzero;"/>
        </g>
        <g transform="matrix(0.887606,0,0,0.887606,879.136,757.482)">
            <path d="M1807,1099.1L177.8,1099.1C176.6,1099.1 175.6,1098.1 175.6,1096.9C175.6,1095.7 176.6,1094.7 177.8,1094.7L1807,1094.7C1808.2,1094.7 1809.2,1095.7 1809.2,1096.9C1809.3,1098.1 1808.3,1099.1 1807,1099.1Z" style="fill:rgb(200,194,237);fill-rule:nonzero;"/>
        </g>
    </g>
</svg>
