<?xml version="1.0" encoding="UTF-8" standalone="no"?>
<!DOCTYPE svg PUBLIC "-//W3C//DTD SVG 1.1//EN" "http://www.w3.org/Graphics/SVG/1.1/DTD/svg11.dtd">
<svg width="100%" height="100%" viewBox="0 0 1500 1000" version="1.1" xmlns="http://www.w3.org/2000/svg" xmlns:xlink="http://www.w3.org/1999/xlink" xml:space="preserve" xmlns:serif="http://www.serif.com/" style="fill-rule:evenodd;clip-rule:evenodd;stroke-linejoin:round;stroke-miterlimit:2;">
    <g transform="matrix(0.564111,0,0,0.564111,-101.525,-76.2562)">
        <path d="M2473.9,340.4C2473.9,340.4 2155.6,352.2 2141.8,337.4C2128,322.6 2124.1,282.2 2200.9,289.1C2200.9,289.1 2130.9,198.5 2238.3,181.7C2345.7,164.9 2332.9,249.7 2332.9,249.7C2332.9,249.7 2439.3,189.6 2410.7,287.1C2410.7,287.1 2437.3,267.4 2445.2,301.9C2445.3,302 2610.9,333.5 2473.9,340.4Z" style="fill:rgb(214,230,237);fill-rule:nonzero;"/>
    </g>
    <g transform="matrix(0.564111,0,0,0.564111,-101.525,-76.2562)">
        <path d="M822.8,595.2C822.8,595.2 928.4,594.2 913.3,568C898.2,541.9 796.6,550 796.6,550C796.6,550 803.6,507.8 771.5,494.7C739.3,481.6 707.1,492.7 707.1,492.7C707.1,492.7 744.3,378 656.8,373C569.3,368 583.4,468.5 583.4,468.5C583.4,468.5 566.3,423.2 524.1,452.4C481.9,481.6 516.1,535.9 516.1,535.9C516.1,535.9 490,503.7 454.8,524.8C419.6,545.9 427.6,577.1 427.6,577.1C427.6,577.1 323,590.2 354.2,604.3C385.3,618.4 822.8,595.2 822.8,595.2Z" style="fill:rgb(214,230,237);fill-rule:nonzero;"/>
    </g>
    <g transform="matrix(0.564111,0,0,0.564111,-101.525,-76.2562)">
        <path d="M2752,1637.2C2752,1770.6 2273,1878.8 1521.3,1861.8C792,1845.3 267,1731 267,1597.5C267,1464 752.7,1369.1 1482.1,1369.1C2211.5,1369.1 2752,1503.8 2752,1637.2Z" style="fill:rgb(214,230,237);fill-rule:nonzero;"/>
    </g>
    <g transform="matrix(1,0,0,1,-750,-500)">
        <g transform="matrix(0.564111,0,0,0.564111,648.475,423.744)">
            <path d="M2245.2,1579.1C2209.1,1664.3 1890.9,1746.6 1453.8,1746.6C1016.7,1746.6 620.9,1671.1 662.4,1579.1C700.5,1494.8 1016.7,1408.7 1453.8,1411.6C2032.8,1415.4 2282.9,1490 2245.2,1579.1Z" style="fill:rgb(180,206,214);fill-rule:nonzero;"/>
        </g>
        <g transform="matrix(0.564111,0,0,0.564111,648.475,423.744)">
            <path d="M873.5,963.9C873.5,963.9 859.3,1571.4 873.5,1594.5C887.7,1617.6 1714.3,1720.4 1750.6,1709.8C1787,1699.2 2087.6,1513.8 2093.8,1489C2100,1464.2 2093.8,595.9 2093.8,595.9L873.5,963.9Z" style="fill:rgb(204,35,75);fill-rule:nonzero;"/>
        </g>
        <g transform="matrix(0.564111,0,0,0.564111,648.475,423.744)">
            <path d="M872.6,1004.6C945.7,1014.2 1748.1,1119.6 1754.4,1111.5C1761,1103 1754.4,1041.7 1754.4,1041.7L921.1,949.5L873.4,963.9C873.5,963.9 873.1,979 872.6,1004.6Z" style="fill:rgb(175,11,58);fill-rule:nonzero;"/>
        </g>
        <g transform="matrix(0.564111,0,0,0.564111,648.475,423.744)">
            <path d="M1747.9,700.1L1747.9,1710.2C1749,1710.1 1749.9,1709.9 1750.6,1709.7C1787,1699.1 2087.6,1513.7 2093.8,1488.9C2100,1464.1 2093.8,595.8 2093.8,595.8L1747.9,700.1Z" style="fill:rgb(175,11,58);fill-rule:nonzero;"/>
        </g>
        <g transform="matrix(0.564111,0,0,0.564111,648.475,423.744)">
            <path d="M1191.9,448.6C1191.9,448.6 847.8,827.3 838.9,857.5C830,887.7 838.9,979 838.9,979C838.9,979 1737.3,1093.4 1769.3,1082.8C1801.2,1072.2 2129.4,690.8 2132.9,646.4C2136,608.2 2139.1,512.5 2127.6,507.2C2109.7,498.9 1224.7,412.2 1191.9,448.6Z" style="fill:rgb(204,35,75);fill-rule:nonzero;"/>
        </g>
        <g transform="matrix(0.564111,0,0,0.564111,648.475,423.744)">
            <path d="M1237.2,873.7C1237.2,873.7 1325.7,877.1 1315.4,899.9L1265.5,898.2C1265.5,898.2 1265.5,911.4 1253.2,911.4C1247.5,911.4 1252.3,1032.2 1252.3,1032.2C1252.3,1032.2 1272.1,1058.6 1261.7,1068.1C1251.3,1077.5 1250.4,1056.8 1246.6,1041.7C1242.8,1026.6 1242.8,1024.7 1242.8,1024.7L1211.7,902L1206,897.3C1206,897.3 1153.1,930.3 1149.4,941.7C1141.9,964.1 1121.1,1020 1121.1,1020C1121.1,1020 1099.4,1037 1090.9,1033.2C1082.4,1029.4 1093.7,1018.1 1093.7,1018.1L1111.7,1017.4C1111.7,1017.4 1122,929.3 1126.7,921.8C1131.4,914.2 1170.1,881.2 1170.1,881.2L1237.2,873.7Z" style="fill:rgb(175,11,58);fill-rule:nonzero;"/>
        </g>
        <g transform="matrix(0.564111,0,0,0.564111,648.475,423.744)">
            <path d="M2132.9,646.3C2135.9,608.7 2139,515.1 2128.1,507.3C2050.5,603.4 1790.7,924.6 1776.4,933.6C1759.5,944.2 859.3,857.3 859.3,857.3C859.3,857.3 1759.5,951.3 1764.8,954C1769.9,956.5 1769.3,1071.4 1769.2,1082.6C1801.2,1072 2129.3,690.7 2132.9,646.3Z" style="fill:rgb(175,11,58);fill-rule:nonzero;"/>
        </g>
        <g transform="matrix(0.564111,0,0,0.564111,648.475,423.744)">
            <path d="M1760.2,1085.5C1671.9,1085.5 1060.7,1009.2 866.9,984.7C865.7,984.5 864.8,983.4 865,982.2C865.2,981 866.3,980.1 867.5,980.3C1288.8,1033.5 1746.8,1087.9 1768.6,1080.6C1780.3,1076.7 1839.6,1015 1916.1,927C1978.6,855.2 2060.8,756 2104.3,693.4C2105,692.4 2106.4,692.1 2107.4,692.8C2108.4,693.5 2108.7,694.9 2108,695.9C2064.5,758.7 1982.1,858 1919.5,929.9C1857.3,1001.5 1785.3,1079.7 1770,1084.8C1768.4,1085.3 1765.1,1085.5 1760.2,1085.5Z" style="fill:rgb(140,3,49);fill-rule:nonzero;"/>
        </g>
        <g transform="matrix(0.564111,0,0,0.564111,648.475,423.744)">
            <path d="M1447.3,889.4C1447.3,889.4 1751.5,921.3 1768.4,913.3C1785.3,905.3 2008.8,644.6 2003.4,633.9C1998.1,623.3 1773.8,894.9 1748,893.9C1722.2,892.9 1262.8,866.3 1447.3,889.4Z" style="fill:rgb(214,41,91);fill-rule:nonzero;"/>
        </g>
        <g transform="matrix(0.564111,0,0,0.564111,648.475,423.744)">
            <path d="M1103.2,569.2C1103.2,569.2 1184.8,457.5 1211.4,453.9C1238,450.4 1685.9,470.8 1800.3,485.8C1914.7,500.9 1253.1,461 1209.6,473.4C1185.3,480.3 1058.8,633 1066.8,616.2C1074.8,599.3 1103.2,569.2 1103.2,569.2Z" style="fill:rgb(214,41,91);fill-rule:nonzero;"/>
        </g>
        <g transform="matrix(0.564111,0,0,0.564111,648.475,423.744)">
            <path d="M1255.7,638.8C1255.7,638.8 1739,661 1739.9,668.1C1740.8,675.2 1712.4,700.9 1712.4,700.9C1712.4,700.9 1222,674.8 1224.7,669.4C1227.3,664.1 1255.7,638.8 1255.7,638.8Z" style="fill:rgb(112,3,45);fill-rule:nonzero;"/>
        </g>
        <g transform="matrix(0.564111,0,0,0.564111,648.475,423.744)">
            <g>
                <path d="M1090.1,1296.2L1093,1285.2L1096.1,1272.9L1099,1260.8C1102.8,1245.6 1106.2,1233.5 1109.2,1224.5C1112.1,1215 1114.3,1205.2 1115.6,1195.1C1115.8,1192.1 1117.4,1190.4 1120.4,1189.9C1124.7,1188.7 1129.5,1188.4 1134.8,1189.1C1141.7,1190 1148.7,1190.6 1155.6,1190.9L1158.1,1191.2C1160.4,1191.8 1161.5,1193.4 1161.5,1195.9C1161.5,1196.1 1161.3,1197 1161,1198.7C1160.1,1203.9 1157.8,1215 1154.1,1232L1149.9,1251.1L1148.8,1256L1147.7,1260.6C1146.8,1265.6 1146.1,1268.7 1145.6,1269.9L1143.8,1277.1C1142.9,1280.2 1142.2,1282.6 1141.5,1284.5L1136.3,1301.3L1131.6,1318.2C1127.4,1331.6 1123.8,1342.8 1120.7,1351.8C1119.7,1355.2 1117.5,1356.9 1114.2,1356.8L1099.6,1357.4C1093,1357.5 1087.9,1357 1084.2,1356L1075.5,1354.9C1074.2,1354.7 1072.9,1354.5 1071.5,1354.1L1064.8,1353.3C1063.1,1353.1 1061.9,1351.9 1061.1,1349.7C1058.7,1343.9 1056.6,1337.3 1054.9,1329.9C1053.1,1320.1 1050.2,1310.1 1046.4,1299.7L1041.6,1286.7C1041,1284.7 1040.2,1282.4 1039.2,1279.8L1038.3,1276.5L1037.3,1273.7L1028,1245.8L1025.6,1239.1C1024.8,1236.9 1024.1,1234.6 1023.5,1232.2C1022.6,1228.9 1021.3,1224 1019.7,1217.4L1017.6,1209.2L1015.5,1200.5L1012.9,1189.3C1012,1184.8 1013.6,1182.8 1017.7,1183.3L1029.6,1184.3L1032.6,1184.7C1033.4,1184.8 1034.3,1184.7 1035.3,1184.5C1039.3,1184.1 1044,1184.8 1049.4,1186.5L1052.1,1187.4L1054.8,1188C1057.4,1188.5 1059.1,1190.1 1059.7,1192.8L1067.5,1220L1070.8,1230.7L1071.8,1233.7L1072.5,1236.7C1073.1,1238.9 1073.6,1240.5 1073.9,1241.6C1074.2,1242.5 1074.8,1245.3 1075.8,1249.8L1076.7,1253.9L1077.4,1258L1082.8,1282L1084.4,1288.8C1085.3,1292.1 1086.1,1294.4 1086.5,1295.7L1087,1297.3C1087.3,1297.9 1087.9,1298.4 1088.7,1298.8L1090.1,1296.2Z" style="fill:white;fill-rule:nonzero;"/>
                <path d="M1174.1,1295.1C1174.5,1292.1 1174.8,1287.9 1175,1282.2L1175.3,1278.3L1175.3,1274.9C1175.3,1272.4 1175.4,1270.7 1175.6,1269.6C1177.1,1259.5 1179.4,1250.1 1182.7,1241.4C1186,1233.2 1189.2,1226.7 1192.4,1222C1197.8,1214 1204.6,1208.9 1212.9,1206.6C1218.2,1205 1223.8,1204.2 1229.5,1204.2L1232.2,1204.3L1235.4,1204.4L1241.3,1205.4L1246,1206C1247,1206.3 1248,1206.5 1249,1206.6L1251.2,1206.9L1254.7,1207.6L1258.4,1208.9C1265,1211.5 1271.2,1214.6 1277.1,1218.1C1285,1223 1292,1229.1 1298.2,1236.6C1300.8,1239.6 1303.9,1244.9 1307.4,1252.6C1310.9,1260.6 1314,1271 1316.6,1283.7C1318.3,1292.9 1318.8,1301.1 1318.2,1308.3C1318,1310.2 1317.9,1314.3 1317.8,1320.4C1317.9,1323.4 1317.3,1328.5 1315.9,1335.5C1314.1,1342.7 1310.6,1349.9 1305.2,1357.2L1303.9,1359.2L1303.1,1360.2L1302.1,1361.4L1296.6,1367.1L1294.8,1368.7L1292.8,1370.6C1291.1,1372 1289.5,1373.2 1288,1374.2L1283.2,1377.3L1278.7,1380.4C1270.4,1385.7 1263.1,1388.3 1256.8,1388.2L1240.7,1388.6C1227.8,1387.7 1217.4,1383.2 1209.4,1375.2L1205.5,1371.5L1201.6,1367.6C1200.3,1366.4 1198.9,1365 1197.4,1363.4L1195.4,1361.6L1193.9,1359.8C1188.9,1354.2 1184.2,1346 1179.9,1335C1176.4,1325.6 1174.4,1315.9 1173.9,1305.9C1173.6,1304.5 1173.6,1302.8 1174,1300.9L1174.1,1295.4L1174.1,1295.1ZM1277.7,1295.3L1277.5,1292.6C1277.5,1290.8 1277.4,1289.1 1277.1,1287.3L1275.3,1276.7C1272.3,1263.5 1265,1254.2 1253.1,1249C1250.5,1248.3 1248.9,1248 1248.4,1248.1C1245.9,1247.8 1243.3,1247.7 1240.5,1247.9L1237.5,1248.3L1234.5,1249C1228.2,1251.6 1223.3,1255.9 1219.9,1262C1215.1,1271.5 1212.2,1279.8 1211.1,1287.1C1210.7,1290.8 1210.6,1293 1210.8,1293.9C1210.7,1298.5 1211.6,1303.4 1213.3,1308.5C1215.6,1318.1 1220.7,1325.8 1228.4,1331.6C1235.3,1336.5 1241.1,1338.8 1245.9,1338.6C1251.9,1338.3 1256.1,1337.2 1258.6,1335.4C1265.3,1331.3 1270.4,1325.3 1274,1317.5C1276.2,1312.5 1277.5,1305.9 1277.7,1297.9L1277.7,1295.3Z" style="fill:white;fill-rule:nonzero;"/>
                <path d="M1410.9,1327.6C1410.8,1338.3 1410.7,1345.3 1410.9,1348.5L1410.8,1358C1410.8,1361 1410.9,1364.3 1411.2,1367.8C1411.9,1374.4 1412.1,1381.1 1411.7,1387.7C1411.7,1388.4 1411.5,1391.4 1411.1,1396.6C1410.9,1399.4 1409.4,1400.8 1406.6,1400.8L1399.7,1400.7L1392.8,1400.9C1389.3,1401 1385.6,1400.4 1381.7,1399.2L1370.3,1396.2C1367.7,1395.7 1366.4,1393.9 1366.4,1390.7C1366.9,1380.9 1367.1,1375.3 1367.1,1374.1C1367.3,1372.9 1367.4,1370.3 1367.5,1366.2L1368.4,1336.9L1368.4,1334L1368.9,1331.4C1369.1,1330.4 1369.2,1329.4 1369.2,1328.5L1369.2,1326.4L1369.1,1318.2L1368.7,1309.9C1368.7,1306.6 1368.9,1304.5 1369,1303.6L1369.2,1292.5C1369.2,1291.3 1369.1,1285.2 1369,1274.2C1369,1273 1368.9,1272.3 1368.8,1272.1C1368.3,1270.3 1367.4,1269.3 1365.9,1269.1L1363.9,1268.9L1361.9,1268.9C1360.9,1268.8 1359.6,1268.8 1357.9,1268.9C1351.6,1269.5 1345.7,1269.7 1340,1269.3L1339.3,1269.2L1338.3,1269.3C1336,1269 1334.6,1267.8 1334.1,1265.6C1333,1263 1332.4,1260 1332.5,1256.7C1332.5,1254.9 1332.4,1248.4 1332.3,1237.1C1332,1233.9 1331.6,1230.8 1330.9,1227.9L1330.9,1227.6C1330.7,1227.4 1330.7,1227.1 1330.7,1226.8C1329.9,1222.6 1331.7,1220.7 1336,1220.8L1350.4,1222L1356.8,1222.8L1363,1223.8C1366.5,1224.2 1370.7,1224.6 1375.6,1224.8C1378.1,1224.9 1380.6,1225.1 1383.3,1225.2C1386.8,1225.3 1390.2,1225.3 1393.7,1225.2C1395.5,1225.3 1399.6,1225.7 1406.1,1226.5L1411.1,1226.9L1416.3,1227.5L1429.7,1230C1432.2,1230.5 1434.6,1230.8 1437.1,1230.9C1440.2,1231.3 1441.9,1233.2 1442,1236.5L1442.1,1250.8L1441.9,1267.2L1441.6,1269.3C1441.2,1272.3 1439.8,1273.7 1437.3,1273.5C1435.5,1274 1433.3,1274.1 1430.9,1273.8L1417,1272.6L1414.8,1272.3C1413.8,1272 1413,1271.9 1412.3,1272C1410.5,1272.1 1409.6,1273.2 1409.5,1275.1L1409.4,1279.3C1409.8,1287.6 1410.4,1296 1411.3,1304.4C1411.5,1304.6 1411.5,1305.4 1411.5,1306.8L1410.9,1327.6Z" style="fill:white;fill-rule:nonzero;"/>
                <path d="M1548.5,1276L1548.5,1277.6C1548.3,1279.9 1547.1,1281.1 1545,1281.4C1544.2,1281.5 1542.9,1281.4 1541,1281.2C1538.7,1281.3 1534.9,1281.1 1529.6,1280.8L1518.2,1279.6L1512,1279.4L1505.6,1279.4C1503,1279.6 1501.6,1281.3 1501.6,1284.5C1501.4,1287.8 1501.3,1291.3 1501.5,1294.8L1501.4,1299C1501.4,1300.2 1501.5,1301.8 1501.8,1303.6C1501.9,1305.7 1503,1307 1505,1307.4C1505.8,1307.7 1506.6,1307.8 1507.2,1307.7L1521.1,1309.4C1526.7,1310.1 1530.3,1310.6 1532,1311C1538.6,1312.2 1544.9,1313.5 1551,1315C1554,1315.5 1555.6,1317.6 1555.9,1321.2L1557.1,1342C1557.4,1345.2 1557.5,1347.2 1557.5,1347.9C1557.5,1350.4 1556.4,1351.7 1554.2,1352L1550.7,1352.1L1547.5,1352.5C1544.7,1352.7 1542.5,1352.6 1540.8,1352.2L1539.6,1352L1538.6,1351.6L1536.4,1351.3C1532.4,1350.6 1527.9,1350.3 1522.8,1350.4L1515.9,1350.3L1509.2,1350.5L1503,1350.5C1501,1351 1500,1352 1500,1353.6C1499.6,1359.2 1499.4,1362.3 1499.4,1362.8C1499.2,1363.7 1499.1,1365.7 1499.1,1368.8C1499.1,1371.1 1500.5,1372.6 1503.3,1373.3C1508.1,1374.3 1511.7,1374.5 1514.2,1374.1C1517.3,1373.8 1522.6,1374.1 1530.1,1375L1541.5,1376.4L1546.9,1377.3L1552.6,1378C1554.2,1378.2 1555.2,1378.4 1555.6,1378.6C1557.6,1379.4 1558.6,1380.8 1558.8,1383L1558.8,1386.4L1559.2,1394.1L1559.3,1401.8C1559.4,1402.9 1559.3,1406 1558.9,1411L1558.9,1414.2C1558.5,1416.6 1557.4,1417.9 1555.4,1418C1552.1,1418.3 1548,1418.2 1543,1417.8L1538.5,1417.2L1533.8,1416.9L1525.6,1416.7C1522,1416.8 1516.3,1416.3 1508.8,1415.4C1497.9,1413.2 1488,1412.6 1479.1,1413.8C1473.6,1414.4 1469.1,1414.1 1465.5,1413.2C1464.5,1412.7 1463.4,1412.6 1462,1412.8L1458.5,1412.6C1455.2,1412.4 1453.7,1410.6 1453.9,1407.3C1454.1,1403.6 1454.6,1400.3 1455.3,1397.4L1455.6,1374.9C1455.9,1364.5 1456.4,1355.7 1457.2,1348.4C1457.6,1340.9 1458.2,1333.4 1459,1325.9L1461.7,1295L1463.1,1280.4C1463.5,1273 1463.8,1268.2 1463.8,1265.9C1464.2,1262.8 1464.5,1259.4 1464.7,1255.7L1465.8,1246L1466.6,1239C1467,1235 1469,1233.1 1472.6,1233.4L1476.3,1233.9C1477.6,1233.9 1480.4,1234.2 1484.7,1234.7L1488.9,1235.2L1493.1,1236L1500.5,1236.4C1501.8,1236.4 1503.2,1236.5 1504.7,1236.7L1508.2,1237.1C1509.5,1237.1 1513.2,1237.6 1519.3,1238.8C1527.4,1240.9 1533,1242 1536.1,1242.2C1537.1,1242.2 1539.6,1242.5 1543.5,1243.4C1546.1,1243.7 1547.7,1245.2 1548.1,1248C1548.4,1249.8 1548.6,1251.1 1548.5,1252L1548.4,1258.9L1548.1,1262L1548.5,1276Z" style="fill:white;fill-rule:nonzero;"/>
            </g>
            <g>
                <path d="M1582.8,1464.5C1569.3,1464.5 1543.9,1463.1 1494.4,1458.3C1439.5,1453 1366.4,1444.5 1288.4,1434.4C1211.2,1424.4 1138.5,1414.1 1083.7,1405.3C988.6,1390.1 985.4,1385.8 983.4,1383.3C975.9,1373.5 972.5,1306.6 971.7,1268.6C971.2,1244.2 970.3,1162.7 980.8,1140.4C983,1135.7 985.9,1133.3 989.4,1133.1C1001.3,1132.6 1160.5,1150.1 1299.1,1167.1C1381.9,1177.3 1452.2,1186.6 1502.5,1194.1C1597.2,1208.2 1598.9,1212.2 1600.4,1215.8C1604.3,1225.2 1608.7,1288.5 1610,1339C1613.1,1452.8 1602.3,1460.1 1598.7,1462.4C1597.5,1463.3 1595.6,1464.5 1582.8,1464.5ZM990.3,1377.7C992.8,1379.1 1007.1,1384.2 1089.1,1397.2C1143.7,1405.9 1215.3,1416 1290.8,1425.7C1367.1,1435.5 1439,1443.9 1493.2,1449.2C1577.1,1457.4 1591.5,1455.7 1594,1454.9C1594.8,1454.1 1598.8,1448.8 1600.7,1416.9C1601.9,1396.9 1602.1,1369.8 1601.2,1338.6C1599.6,1280.1 1595,1229.1 1592.5,1220C1586.7,1217.1 1547.1,1206.4 1291.3,1175.1C1149.8,1157.8 1003.8,1142 990.3,1142L990.2,1142C989.6,1142.6 987.2,1145.8 985.1,1158.6C980,1188.1 979.7,1243.4 981.1,1285.2C982.9,1338.6 987.1,1372.3 990.3,1377.7Z" style="fill:rgb(216,216,216);fill-rule:nonzero;"/>
            </g>
        </g>
    </g>
    <g transform="matrix(0.564111,0,0,0.564111,-101.525,-76.2562)">
        <g>
            <g>
                <g>
                    <g>
                        <path d="M1152.8,725.3C1152.8,725.3 1157.3,726.1 1158,729.4C1158.7,732.7 1156.9,736.6 1151.7,736.8L1152.8,725.3Z" style="fill:rgb(8,93,119);fill-rule:nonzero;"/>
                    </g>
                </g>
                <g>
                    <g>
                        <path d="M1079.7,724.7C1079.7,724.7 1078.1,742.4 1084.2,750.7C1090.2,759 1096.7,752.5 1106.5,745.3C1116.3,738.1 1150.5,739.8 1150.5,739.8C1150.5,739.8 1153.5,737.5 1154,731.3C1154.5,725.1 1150.3,721.6 1150.3,721.6C1150.3,721.6 1120.9,718.1 1106,704.6C1092.5,692.4 1087.6,699.7 1086.3,701.7C1084.2,704.8 1080.4,715 1079.7,724.7Z" style="fill:rgb(71,155,219);fill-rule:nonzero;"/>
                    </g>
                </g>
                <g transform="matrix(0.9973,0.0729085,-0.0729085,0.9973,55.8718,-77.6411)">
                    <g>
                        <ellipse cx="1091.4" cy="726.5" rx="10.5" ry="26.4" style="fill:rgb(51,51,51);"/>
                    </g>
                </g>
                <g>
                    <g>
                        <path d="M1092.6,717.9C1091.3,717.9 1089.3,721.1 1089,725.2C1088.7,729.4 1089.9,732.1 1091.5,733L1100.5,736.5C1101.2,733.6 1101.6,730.5 1101.9,727.2C1102.2,723.2 1102.1,719.3 1101.7,715.9L1092.6,717.9Z" style="fill:rgb(237,147,0);fill-rule:nonzero;"/>
                    </g>
                </g>
                <g>
                    <g>
                        <path d="M1132.6,737.8C1132.6,737.8 1132.2,743.6 1131.7,748C1131.2,752.6 1130.7,755.7 1132.3,755.9C1135.4,756.3 1137.1,754.9 1139.5,737.5L1132.6,737.8Z" style="fill:rgb(51,51,51);fill-rule:nonzero;"/>
                    </g>
                </g>
                <g>
                    <g>
                        <path d="M1104.2,735.3C1107.6,717.9 1102.2,704.8 1102.1,704.7C1101.9,704.3 1101.4,704.1 1101,704.3C1100.6,704.5 1100.4,705 1100.6,705.4C1100.7,705.6 1107.8,722.5 1100.3,743.5C1100.3,743.6 1097.5,751.5 1093.3,754.1C1097.1,752.8 1101.4,749.1 1106.6,745.3C1116.4,738.1 1150.6,739.8 1150.6,739.8C1150.6,739.8 1152.8,738.1 1153.7,733.8C1150.6,733.4 1120,730.8 1104.2,735.3Z" style="fill:rgb(47,138,194);fill-rule:nonzero;"/>
                    </g>
                </g>
                <g>
                    <g>
                        <path d="M1143.8,739.5L1145.6,739.5C1149.1,730.6 1147.3,723.9 1145.9,720.8C1145.3,720.7 1144.6,720.6 1143.8,720.4C1144.9,722.4 1148,729.6 1143.8,739.5Z" style="fill:rgb(8,93,119);fill-rule:nonzero;"/>
                    </g>
                </g>
                <g>
                    <g>
                        <path d="M1100.6,736.5C1101.2,733.7 1101.7,730.7 1101.9,727.5L1096.1,728.2C1096.6,722 1094.4,719.9 1094.4,719.9C1094.4,719.9 1096.3,724.7 1094.6,729.4C1093.9,731.4 1093,732.2 1092.4,732.4C1092,732.6 1100.6,736.5 1100.6,736.5Z" style="fill:rgb(211,115,1);fill-rule:nonzero;"/>
                    </g>
                </g>
            </g>
            <g>
                <g>
                    <g>
                        <path d="M1135.7,746.2C1134.9,747.4 1137.3,748.9 1137.3,748.9L1136.9,750.7C1135.9,754.7 1133.4,754.8 1132.2,754C1131,753.2 1131.5,751.9 1131.5,751.9C1131.5,751.9 1135,752.4 1134.8,751.4C1134.7,751.1 1134.3,750.8 1133.8,750.6C1134.7,750.4 1135.6,750.2 1135.4,749.3C1135.3,749 1135,748.8 1134.6,748.7C1134.7,748.6 1134.8,748.5 1134.9,748.3C1135,748.1 1135.1,747.8 1135,747.6C1134.9,747.5 1134.9,747.4 1134.8,747.4C1134.7,747.3 1134.6,747.3 1134.5,747.2C1134.6,747.1 1134.6,747.1 1134.7,747C1134.8,746.7 1134.8,746.4 1134.6,746.2C1134.5,746.1 1134.4,746.1 1134.3,746C1133.6,745.7 1132.8,745.6 1132,745.6C1131.7,745.6 1131.3,745.6 1131,745.7C1130.8,745.8 1130.5,745.9 1130.4,746.1C1130.3,746.3 1130.4,746.6 1130.5,746.8L1130.5,746.9C1130.5,746.9 1130.5,747 1130.4,747C1130.3,747.1 1130.2,747.1 1130.1,747.1C1130,747.1 1129.9,747.2 1129.9,747.3L1129.9,747.6C1130,747.8 1130,748 1130.1,748.1C1130.1,748.2 1130.2,748.2 1130.2,748.3C1130.2,748.3 1130.2,748.4 1130.1,748.4C1129.9,748.6 1129.7,748.6 1129.5,748.7C1129.4,748.8 1129.4,749 1129.4,749.1C1129.4,749.2 1129.5,749.4 1129.6,749.5C1129.7,749.6 1129.8,749.7 1129.8,749.8L1129.8,750C1129.7,750.1 1129.6,750.2 1129.5,750.3C1128.7,751.5 1130.7,756.2 1130.7,756.2C1130.7,756.2 1129.7,761.5 1134.2,758.5C1138.4,755.7 1139.2,748.3 1139,747.3C1138.8,746.6 1136.5,745 1135.7,746.2Z" style="fill:rgb(242,116,97);fill-rule:nonzero;"/>
                    </g>
                </g>
            </g>
            <g>
                <g>
                    <g>
                        <path d="M1265.1,888C1265.1,888 1265.5,894 1262.3,895.5C1259.2,897 1260.5,899.3 1260.8,901C1260.9,901.7 1260.6,902.4 1259.8,901.9C1258.5,901 1258.1,899.1 1257.5,897.7C1257.5,897.7 1257.5,897.6 1257.4,897.6L1257.4,897.7C1257.7,899.1 1258.3,900.3 1258.5,901.7C1258.6,902.3 1258.9,904 1257.9,904.2C1257,904.4 1256.4,902.7 1256.1,902.1C1255.8,901.5 1255.6,900.8 1255.4,900.1C1255.2,899.3 1255.1,898.4 1254.9,897.6C1254.7,897.9 1254.7,898.4 1254.8,898.8C1255,900.1 1255.3,901.3 1255.3,902.6C1255.3,903.2 1255.3,904.7 1254.5,904.8C1253.5,905 1253,903.1 1252.9,902.4C1252.5,900.8 1252.4,899.1 1252.2,897.5C1252,897.8 1251.9,898.2 1251.9,898.6C1251.9,899.5 1252.1,900.4 1252,901.2C1252,901.5 1251.9,902.7 1251.4,902.8C1250.2,903.1 1249.6,900.1 1249.4,899.4C1249,897.3 1248.9,895.4 1250.4,893.8L1250.5,893.7C1251.1,893.1 1251.8,892.6 1252.5,892.2C1253.3,891.7 1252.4,891.6 1251.9,891.6C1251,891.5 1249.8,891.2 1250.5,890.1C1251.8,888.1 1258.8,888.4 1260.2,886.4C1261.8,884.4 1265.1,888 1265.1,888Z" style="fill:rgb(242,116,97);fill-rule:nonzero;"/>
                    </g>
                </g>
            </g>
            <g>
                <g>
                    <g>
                        <path d="M1245,1037.6C1245,1037.6 1242.5,1038.1 1242.5,1042.5C1242.5,1046.9 1243.5,1064.5 1251.2,1063.6C1261.5,1062.4 1255.4,1048.6 1250.1,1040.9C1246.3,1035.5 1245,1037.6 1245,1037.6Z" style="fill:rgb(51,51,51);fill-rule:nonzero;"/>
                    </g>
                </g>
                <g>
                    <g>
                        <path d="M1252.4,1044.6C1253.8,1048.7 1256.2,1056.2 1250.3,1055C1243.9,1053.7 1244.5,1039.5 1244.5,1039.5L1244.2,1038C1243.5,1038.5 1242.5,1039.8 1242.5,1042.5C1242.5,1046.9 1243.5,1064.5 1251.2,1063.6C1260,1062.6 1256.8,1052.3 1252.4,1044.6Z" style="fill:rgb(26,26,26);fill-rule:nonzero;"/>
                    </g>
                </g>
                <g>
                    <g>
                        <g>
                            <path d="M1115.5,1018.2L1115,989.7L1108.7,990L1111.7,1017.4L1115.5,1018.2Z" style="fill:rgb(229,88,87);fill-rule:nonzero;"/>
                        </g>
                    </g>
                    <g>
                        <g>
                            <path d="M1115.7,1020.9C1116.8,1021 1117.7,1019.9 1117.3,1018.8C1116.8,1017.2 1115.3,1015.1 1111.3,1013.6C1104.2,1010.9 1092.2,1008.1 1090.2,1010.3C1089,1011.6 1088.2,1013.8 1087.7,1015.7C1087.1,1017.7 1088.6,1019.7 1090.6,1019.7L1115.7,1020.9Z" style="fill:rgb(26,26,26);fill-rule:nonzero;"/>
                        </g>
                    </g>
                    <g>
                        <g>
                            <path d="M1091.2,1015.5C1088.7,1014.7 1088.8,1012.8 1089.4,1011.4C1089.6,1011 1089.9,1010.6 1090.2,1010.3C1092.1,1008.1 1103.8,1010.8 1110.9,1013.5C1119.4,1018.4 1095.2,1016.7 1091.2,1015.5Z" style="fill:rgb(51,51,51);fill-rule:nonzero;"/>
                        </g>
                    </g>
                </g>
                <g>
                    <g>
                        <g>
                            <path d="M1247.8,1039.4L1243.3,1014.2L1237.1,1015.5L1244,1040.3C1244.3,1041.3 1245.3,1041.9 1246.3,1041.7C1247.3,1041.4 1248,1040.4 1247.8,1039.4Z" style="fill:rgb(242,116,97);fill-rule:nonzero;"/>
                        </g>
                    </g>
                </g>
                <g>
                    <g>
                        <path d="M1243.4,868.8C1244.3,872 1244.4,875.5 1243.5,878.7C1240.2,891.1 1231.9,922.5 1231.7,926.6C1231.5,931.8 1248.5,1031.8 1248.5,1031.8L1241,1033.3L1200,896.2C1200,896.2 1125,909.4 1122.9,912.8C1120.8,916.2 1116.8,1007.7 1116.8,1007.7L1109.6,1007.9C1109.6,1007.9 1098,901.3 1101.7,896.7C1105.4,892 1192.8,863.5 1192.8,863.5L1239.1,853.7L1243.4,868.8Z" style="fill:rgb(86,47,94);fill-rule:nonzero;"/>
                    </g>
                </g>
                <g>
                    <g>
                        <path d="M1243.4,868.8L1239,853.8L1192.7,863.6C1192.7,863.6 1105.3,892.1 1101.6,896.8C1097.9,901.5 1109.5,1008 1109.5,1008L1116.7,1007.8C1116.7,1007.8 1120.7,916.3 1122.8,912.9C1124.8,909.7 1191.6,897.8 1199.2,896.4L1196.9,885.4C1196.9,885.4 1196.9,876.6 1210.7,875.5C1224.6,874.4 1231.6,895.9 1227.5,927.6L1246,1032.4L1248.4,1031.9C1248.4,1031.9 1231.3,931.9 1231.6,926.7C1231.8,922.6 1240.1,891.1 1243.4,878.8C1244.4,875.4 1244.3,872 1243.4,868.8Z" style="fill:rgb(72,31,82);fill-rule:nonzero;"/>
                    </g>
                </g>
                <g>
                    <g>
                        <path d="M1196.6,882.2C1196.5,881.7 1196,881.5 1195.6,881.6C1195.1,881.7 1194.8,882.2 1195,882.6L1198.3,896.5C1199.3,896.3 1199.9,896.2 1200,896.2L1196.6,882.2Z" style="fill:rgb(55,20,67);fill-rule:nonzero;"/>
                    </g>
                </g>
            </g>
            <g>
                <g>
                    <path d="M1201.3,739.7C1201.3,739.7 1190.4,741.3 1177.8,744.1C1172.7,745.2 1168.1,747.7 1164.1,751.1C1155.2,758.7 1147.5,784.6 1142.3,784.8C1132.3,785.2 1135.4,765.5 1137.5,757.1L1129.5,756.1C1121.2,771.2 1109.4,830 1150.1,818.7C1155.2,817.3 1159.6,814.2 1167.1,808.3C1167.1,808.3 1177.3,855.7 1182.3,865.5C1182.3,865.5 1218,872.5 1244.9,862C1244.9,862 1247.4,831.8 1250.6,813.7L1258.3,822.8C1262.7,828.4 1265.2,835.3 1265.4,842.5C1265.6,853.5 1264.6,870.4 1258.1,886C1258.1,886 1260.2,889.8 1266.5,891.1C1266.5,891.1 1301.2,843.1 1294.5,815.9C1287.9,788.8 1267,739.1 1201.3,739.7Z" style="fill:rgb(240,189,120);fill-rule:nonzero;"/>
                </g>
            </g>
            <g>
                <g>
                    <path d="M1232.3,787.1C1248.3,835 1217.1,857.1 1200.1,858.8C1185.8,860.3 1177.6,847.1 1175.4,842.8C1178,852.9 1180.6,861.9 1182.4,865.5C1182.4,865.5 1218.1,872.5 1245,862C1245,862 1247.4,832.8 1250.6,814.7C1242.3,804.6 1232.3,787.1 1232.3,787.1Z" style="fill:rgb(233,173,104);fill-rule:nonzero;"/>
                </g>
            </g>
            <g>
                <g>
                    <path d="M1232.9,786C1232.7,785.6 1232.2,785.4 1231.8,785.5C1231.4,785.7 1231.2,786.2 1231.3,786.6C1236.4,799.1 1249.3,814.5 1250.4,815.8C1250.5,815.1 1250.6,814.4 1250.8,813.7C1250.8,813.7 1238,798.5 1232.9,786Z" style="fill:rgb(207,135,63);fill-rule:nonzero;"/>
                </g>
            </g>
            <g>
                <g>
                    <path d="M1170.3,746.8C1168.1,748 1166,749.4 1164.1,751C1155.2,758.6 1147.5,784.5 1142.3,784.7C1132.3,785.1 1135.4,765.4 1137.5,757L1129.5,756C1121.2,771.1 1109.4,829.9 1150.1,818.6C1155.2,817.2 1159.6,814.1 1167,808.2C1163.7,790.7 1158.9,756.5 1170.3,746.8Z" style="fill:rgb(233,173,104);fill-rule:nonzero;"/>
                </g>
            </g>
            <g>
                <g>
                    <path d="M1163.8,761.6C1163.3,761.5 1162.9,761.8 1162.8,762.3C1162.7,763 1159.5,778.7 1165.7,809.6C1166.2,809.2 1166.7,808.8 1167.2,808.4C1161.3,778.4 1164.4,762.8 1164.4,762.7C1164.5,762.1 1164.2,761.7 1163.8,761.6Z" style="fill:rgb(207,135,63);fill-rule:nonzero;"/>
                </g>
            </g>
            <g>
                <g>
                    <g>
                        <path d="M1270.9,885.8L1270.7,885.8C1266.4,885.6 1261.7,882.1 1259.8,880.6C1259.4,880.3 1259.4,879.8 1259.7,879.4C1260,879 1260.5,879 1260.9,879.3C1262.2,880.4 1266.8,883.9 1270.8,884.1C1271.3,884.1 1271.6,884.5 1271.6,885C1271.6,885.4 1271.3,885.8 1270.9,885.8Z" style="fill:rgb(207,135,63);fill-rule:nonzero;"/>
                    </g>
                </g>
            </g>
            <g>
                <g>
                    <g>
                        <path d="M1136.2,765.8C1136,765.8 1135.9,765.8 1135.7,765.7C1131.5,763.8 1126.7,764.2 1126.6,764.2C1126.1,764.2 1125.7,763.9 1125.7,763.4C1125.7,762.9 1126,762.5 1126.5,762.5C1126.7,762.5 1131.8,762.1 1136.4,764.1C1136.8,764.3 1137,764.8 1136.8,765.2C1136.7,765.5 1136.4,765.7 1136.2,765.8Z" style="fill:rgb(207,135,63);fill-rule:nonzero;"/>
                    </g>
                </g>
            </g>
            <g>
                <g>
                    <path d="M1075.5,703.9C1075.5,703.9 1054.2,685.1 1051.6,689.6C1049.5,693.2 1075.5,703.9 1075.5,703.9Z" style="fill:rgb(216,216,216);fill-rule:nonzero;"/>
                </g>
            </g>
            <g>
                <g>
                    <path d="M1075,752.3C1075,752.3 1056.6,756.9 1058.5,760.6C1060.1,763.5 1075,752.3 1075,752.3Z" style="fill:rgb(216,216,216);fill-rule:nonzero;"/>
                </g>
            </g>
            <g>
                <g>
                    <path d="M1056.4,725C1056.4,725 1014.9,715.5 1015.3,718.9C1015.8,723.1 1056.4,725 1056.4,725Z" style="fill:rgb(216,216,216);fill-rule:nonzero;"/>
                </g>
            </g>
            <g>
                <g>
                    <path d="M1072,735.6C1072,735.6 1029.8,736.7 1030.9,741.8C1031.5,744.3 1072,735.6 1072,735.6Z" style="fill:rgb(216,216,216);fill-rule:nonzero;"/>
                </g>
            </g>
            <path d="M1222.4,741.4C1215.9,740.2 1208.9,739.6 1201.3,739.7C1201.3,739.7 1194.1,740.7 1184.6,742.6C1183.7,749.8 1185.5,765.6 1195.3,776.2C1195.3,776.2 1219.1,757.6 1222.4,741.4Z" style="fill:rgb(239,239,239);fill-rule:nonzero;"/>
            <g>
                <g>
                    <path d="M1192.5,735.1C1192.5,735.1 1202.6,731.1 1213.7,734.3L1211.6,742.4L1192.4,746.3L1192.5,735.1Z" style="fill:rgb(186,186,186);fill-rule:nonzero;"/>
                </g>
                <g>
                    <g>
                        <path d="M1183.5,709.2C1183.5,709.2 1173.4,716.8 1170.2,711.4C1167.1,706 1179.2,697.5 1179.2,697.5C1179.2,697.5 1167.8,699 1168.4,693C1169.1,687 1179.6,682 1192.9,684.6C1192.9,684.6 1187.9,678.2 1191.4,677C1194.9,675.7 1210.1,682.2 1213.5,695.8C1213.5,695.8 1214.2,691.7 1216.1,692C1218,692.3 1222.7,702.5 1211.9,715.5C1211.9,715.5 1204.3,720.5 1198.9,716.4C1193.4,712.1 1183.5,709.2 1183.5,709.2Z" style="fill:rgb(86,47,94);fill-rule:nonzero;"/>
                    </g>
                </g>
                <g>
                    <g>
                        <path d="M1198.7,716.2C1204.1,720.4 1211.7,715.3 1211.7,715.3C1214.6,711.9 1216.4,708.6 1217.4,705.7C1210.9,716.6 1207.4,698.1 1207.4,698.1C1207.4,698.1 1207.1,702.5 1202.6,701.6C1198.2,700.6 1199.8,691.7 1199.8,691.7C1199.8,691.7 1195,699.3 1182.6,703.4C1172.7,706.7 1174.7,702 1175.9,700C1172.6,702.9 1168.2,707.8 1170.2,711.3C1173.3,716.7 1183.5,709.1 1183.5,709.1C1183.5,709.1 1193.4,712.1 1198.7,716.2Z" style="fill:rgb(72,31,82);fill-rule:nonzero;"/>
                    </g>
                </g>
                <g>
                    <g>
                        <path d="M1206.6,722.3L1210.9,747.2L1199.1,753.3L1192.9,749.5L1195.2,730.8L1206.6,722.3Z" style="fill:rgb(242,116,97);fill-rule:nonzero;"/>
                    </g>
                </g>
                <g>
                    <g>
                        <path d="M1194,740.4C1196.9,739.5 1206.8,735.8 1206,725.4L1195.2,730.9L1194,740.4Z" style="fill:rgb(229,88,87);fill-rule:nonzero;"/>
                    </g>
                </g>
                <g>
                    <g>
                        <path d="M1183.2,707.3C1183.2,707.3 1178.9,733.3 1191.6,733.4C1204.3,733.5 1206.9,725.2 1206.9,725.2C1206.9,725.2 1212.6,727.1 1214.2,722.7C1215.8,718.3 1214.6,711.6 1206.6,714.7C1206.7,714.7 1196.9,700.4 1183.2,707.3Z" style="fill:rgb(242,116,97);fill-rule:nonzero;"/>
                    </g>
                </g>
                <g>
                    <g>
                        <path d="M1206.4,714.9C1206.2,714.9 1205.9,714.8 1205.8,714.6C1200.8,708.4 1195.1,705.6 1189,706.3C1184.4,706.8 1181.2,709.2 1181.2,709.2C1180.9,709.5 1180.4,709.4 1180.1,709C1179.8,708.7 1179.9,708.2 1180.3,707.9C1180.4,707.8 1183.8,705.3 1188.8,704.7C1197.2,703.8 1203.4,709 1207.1,713.6C1207.4,713.9 1207.3,714.4 1207,714.7C1206.8,714.8 1206.6,714.9 1206.4,714.9Z" style="fill:rgb(55,20,67);fill-rule:nonzero;"/>
                    </g>
                </g>
                <g>
                    <g>
                        <path d="M1190,725.7C1190,725.7 1194.6,725.4 1201,721C1201,721 1198.7,730 1194.3,729.8C1192.1,729.7 1190,725.7 1190,725.7Z" style="fill:white;fill-rule:nonzero;"/>
                    </g>
                </g>
                <g>
                    <path d="M1213.7,735.3C1213.7,735.3 1220.7,749.5 1205.4,764.5C1205.4,764.5 1202.4,755.4 1199.4,754.4L1195.2,774.6L1197.4,753.4C1197.4,753.4 1193.3,756.4 1192.3,761.4C1192.3,761.4 1184.3,749.2 1190.5,738.2L1197,749.9L1200,750.9L1213.7,735.3Z" style="fill:rgb(214,214,214);fill-rule:nonzero;"/>
                </g>
                <g>
                    <path d="M1214.7,742.4C1214.7,742.4 1214.8,735.3 1213.8,734.3C1213.8,734.3 1204.6,747.4 1198.5,750.3C1198.5,750.3 1206.6,753.4 1206.5,760.5C1206.4,760.5 1214.6,750.5 1214.7,742.4Z" style="fill:rgb(239,239,239);fill-rule:nonzero;"/>
                </g>
                <g>
                    <path d="M1192.5,735.1C1192.5,735.1 1192.4,745.2 1198.4,750.3C1198.4,750.3 1193.3,752.3 1192.3,758.3C1192.3,758.4 1185.4,742.2 1192.5,735.1Z" style="fill:rgb(239,239,239);fill-rule:nonzero;"/>
                </g>
            </g>
        </g>
    </g>
    <g transform="matrix(0.564111,0,0,0.564111,-101.525,-76.2562)">
        <g>
            <g>
                <ellipse cx="2134.9" cy="1694.7" rx="230.9" ry="26.8" style="fill:rgb(180,206,214);"/>
            </g>
        </g>
    </g>
    <g id="stairs_1_" transform="matrix(0.564111,0,0,0.564111,-101.525,-76.2562)">
        <path d="M1784.1,527.4L2066.1,1700.8C2066.4,1702.2 2067.7,1703.2 2069.2,1703.2C2069.4,1703.2 2069.7,1703.2 2069.9,1703.1C2071.6,1702.7 2072.6,1701 2072.2,1699.3L2061.1,1653.2L2216.2,1641.8L2228.4,1692.6C2228.7,1694 2230,1695 2231.5,1695C2231.7,1695 2232,1695 2232.2,1694.9C2233.9,1694.5 2234.9,1692.8 2234.5,1691.1L1953.8,524.1C1953.4,522.4 1951.7,521.4 1950,521.8C1948.3,522.2 1947.3,523.9 1947.7,525.6L1963.9,593L1806.7,594.9L1790.2,526.1C1789.8,524.4 1788.1,523.4 1786.4,523.8C1784.7,524.1 1783.7,525.7 1784.1,527.4ZM1965.3,599L1991.1,706.3L1835.2,708.2C1834.8,708.2 1834.4,708.3 1834,708.5L1808.2,601L1964.5,599.1C1964.8,599.2 1965.1,599.1 1965.3,599ZM1835.4,714.4L1992.6,712.5L2019.2,823L1862.1,825.6L1835.4,714.4ZM1863.6,831.8L2019.5,829.2C2019.9,829.2 2020.2,829.1 2020.6,829L2048.5,945.1L1891.6,947.7L1891.5,947.7L1863.6,831.8ZM1893,953.9L2049.7,951.3L2050,951.3L2080.8,1079.4L1924.4,1084.9L1893,953.9ZM1926,1091.1L2082.4,1085.6L2120.4,1243.8L1964,1249.3L1926,1091.1ZM1965.5,1255.6L2121.9,1250.1L2155.3,1389.1L1999.7,1398.3L1965.5,1255.6ZM2001.2,1404.4L2156.8,1395.2L2186.2,1517.5L2031.1,1528.9L2001.2,1404.4ZM2059.6,1647.2L2032.6,1535L2187.4,1523.6L2187.6,1523.6L2214.6,1635.8L2059.6,1647.2Z" style="fill:rgb(26,26,26);fill-rule:nonzero;"/>
    </g>
    <g id="boy_with_shirt_1_" transform="matrix(1,0,0,1,-750,-500)">
        <g transform="matrix(0.564111,0,0,0.564111,648.475,423.744)">
            <path d="M1808.7,310L1809.6,308.5L1811.7,304.7L1811.9,304.3C1811.9,304.3 1845.4,322.3 1852.1,324.4C1874,331.4 1906.3,336.6 1906.3,336.6C1906.3,336.6 1877.1,369.6 1856.5,359.3C1835.8,349.1 1808.7,310 1808.7,310Z" style="fill:rgb(55,20,67);fill-rule:nonzero;"/>
        </g>
        <g transform="matrix(0.564111,0,0,0.564111,648.475,423.744)">
            <g>
                <path d="M1892.7,382.2C1768.2,274.4 1700.1,212.4 1697,214.1C1690.2,217.8 1322.8,608.4 1322.8,608.4C1322.8,608.4 1399.7,673.6 1533.7,780.8C1533.4,779.8 1845.8,440.4 1892.7,382.2Z" style="fill:rgb(247,247,247);fill-rule:nonzero;"/>
            </g>
            <g>
                <g>
                    <g>
                        <path d="M1449.1,622.5L1502.6,560L1565.3,609L1509.5,671.4L1449.1,622.5ZM1502.1,542.9L1429.6,627.3L1508.9,687.1L1584.7,603.9L1502.1,542.9Z" style="fill:rgb(71,155,219);fill-rule:nonzero;"/>
                        <path d="M1489.1,564.2L1510.6,615.1L1474.8,610.8L1464.6,629.8L1522,640L1538.5,624.8L1514,556C1505.6,558.3 1497.2,561 1489.1,564.2Z" style="fill:rgb(32,133,61);fill-rule:nonzero;"/>
                    </g>
                </g>
                <g>
                    <path d="M1665.1,354.1L1523,509L1535.8,517.9L1675.6,363.9C1672.2,360.5 1668.6,357.3 1665.1,354.1Z" style="fill:rgb(216,216,216);fill-rule:nonzero;"/>
                    <path d="M1698.4,338.7L1730.5,303.3C1726.5,300.8 1722.7,298.1 1719,295.3L1687.2,330C1690.9,332.9 1694.6,335.9 1698.4,338.7Z" style="fill:rgb(216,216,216);fill-rule:nonzero;"/>
                    <path d="M1628,463.9L1560.7,537L1573.4,545.9L1638.6,474.3C1635.1,470.8 1631.6,467.3 1628,463.9Z" style="fill:rgb(216,216,216);fill-rule:nonzero;"/>
                    <path d="M1651.5,438.8C1655,442.2 1658.5,445.5 1662,448.9L1754.6,347C1750.9,344.2 1747.3,341.2 1743.7,338.2L1651.5,438.8Z" style="fill:rgb(216,216,216);fill-rule:nonzero;"/>
                    <path d="M1730.4,422.2L1598.4,565.1L1610.9,573.9L1741,431.7C1737.4,428.7 1733.9,425.4 1730.4,422.2Z" style="fill:rgb(216,216,216);fill-rule:nonzero;"/>
                </g>
            </g>
            <g>
                <path d="M1530,765.1L1528.4,763.8C1519.4,756.6 1353.9,623.1 1344.4,612.3C1342.7,610.4 1342.6,607.6 1356.7,590.3C1365.2,579.8 1378.2,565 1395.3,546.3C1424.1,514.7 1464.8,471.5 1516.5,417.8C1604.5,326.4 1694.8,235.2 1695.7,234.3L1697.1,232.9L1876.8,382.9L1875.3,384.6L1530,765.1ZM1348.2,609.9C1361.7,623.6 1509.7,743.3 1529.6,759.1L1870.7,383.3L1697.6,238.7C1686,250.4 1604.6,332.8 1524.1,416.4C1473.2,469.2 1432.7,512.1 1403.4,544C1356.7,595 1349,607 1348.2,609.9Z" style="fill:rgb(216,216,216);fill-rule:nonzero;"/>
            </g>
            <path d="M1678,699.1L1593.4,831.4C1593.4,831.4 1404.3,693.1 1398.6,683.1L1678,699.1Z" style="fill:rgb(204,35,75);fill-rule:nonzero;"/>
        </g>
        <g transform="matrix(0.564111,0,0,0.564111,648.475,423.744)">
            <g>
                <path d="M1954,707C1953.4,707.2 1952.7,707.3 1952.1,707.3C1947.6,707.6 1924.1,709.2 1923.5,705.4C1922.8,701.2 1930.1,691.5 1947.9,698.2C1962.1,703.6 1956.7,706.2 1954,707Z" style="fill:rgb(86,47,94);fill-rule:nonzero;"/>
                <path d="M1948,698.3C1947.2,698 1946.4,697.7 1945.6,697.5C1949,701 1942.7,705.4 1932.5,705.4C1926.3,705.4 1924.5,703.8 1924.1,702.3C1923.5,703.4 1923.3,704.5 1923.5,705.4C1924.1,709.2 1947.6,707.6 1952.1,707.3C1952.8,707.3 1953.4,707.1 1954,707C1956.7,706.2 1962.1,703.6 1948,698.3Z" style="fill:rgb(72,31,82);fill-rule:nonzero;"/>
            </g>
            <path d="M1953.2,700.6L1944,669.3C1943.8,668.6 1943.1,668.2 1942.4,668.4L1938.6,669.4C1937.9,669.6 1937.4,670.4 1937.7,671.1L1947.7,699.4C1948.2,700.9 1949.6,702 1951.2,702.2L1951.8,702.3C1952.7,702.3 1953.5,701.5 1953.2,700.6Z" style="fill:rgb(232,86,83);fill-rule:nonzero;"/>
        </g>
        <g transform="matrix(0.564111,0,0,0.564111,648.475,423.744)">
            <g>
                <path d="M1868.4,707.2C1867.8,707.4 1867.1,707.5 1866.5,707.6C1862,707.9 1838.5,709.5 1837.9,705.7C1837.2,701.5 1844.5,691.8 1862.3,698.5C1876.5,703.9 1871.2,706.4 1868.4,707.2Z" style="fill:rgb(86,47,94);fill-rule:nonzero;"/>
                <path d="M1862.4,698.5C1861.6,698.2 1860.8,697.9 1860,697.7C1863.4,701.2 1857.1,705.6 1846.9,705.6C1840.7,705.6 1838.9,704 1838.5,702.5C1837.9,703.6 1837.7,704.7 1837.9,705.6C1838.5,709.4 1862,707.8 1866.5,707.5C1867.2,707.5 1867.8,707.3 1868.4,707.1C1871.2,706.4 1876.5,703.9 1862.4,698.5Z" style="fill:rgb(72,31,82);fill-rule:nonzero;"/>
            </g>
            <path d="M1867.6,700.8L1865.5,665C1865.3,664.3 1864.6,663.9 1863.9,664.1L1860.1,665.1C1859.4,665.3 1858.9,666.1 1859.2,666.8L1862.1,699.7C1862.6,701.2 1864,702.3 1865.6,702.5L1866.2,702.6C1867.1,702.6 1867.9,701.7 1867.6,700.8Z" style="fill:rgb(245,115,93);fill-rule:nonzero;"/>
        </g>
        <g transform="matrix(0.564111,0,0,0.564111,648.475,423.744)">
            <path d="M1731.8,394.1C1731.8,394.1 1728.4,383 1726.1,383.5C1723.8,384 1726.6,389 1725,388.9C1723.4,388.8 1717.7,379.9 1715,381C1712.7,381.9 1720.8,389.2 1720.1,389.5C1719.4,389.8 1711.1,385.5 1709.7,386.4C1708.3,387.3 1710.7,389.7 1716.7,391.5C1716.7,391.5 1719.2,392.4 1718.9,392.6C1718.6,392.8 1709.9,391.5 1709.8,392.8C1709.7,394.1 1711.9,394.6 1718.6,395.5C1718.6,395.5 1719.9,395.6 1719.2,395.9C1718.5,396.2 1711.1,396.5 1713.2,398.3C1715.3,400.1 1731.2,399.2 1731.2,399.2L1731.8,394.1Z" style="fill:rgb(245,115,93);fill-rule:nonzero;"/>
        </g>
        <g transform="matrix(0.564111,0,0,0.564111,648.475,423.744)">
            <path d="M1919,456.9C1919,456.9 1921.9,555 1921.3,567.3C1920.7,579.5 1946.1,672.8 1946.1,672.8C1946.1,672.8 1948.7,671.2 1949.3,673.1C1949.9,675 1953.5,682.7 1950,684C1946.5,685.3 1939.1,688.5 1938.1,686.3C1937.1,684.1 1932.6,675.4 1938.1,674.4C1938.1,674.4 1899.5,584.7 1896.6,570.9C1893.7,557.1 1887.8,522.7 1887.8,522.7C1887.8,522.7 1868.6,573.3 1868,575.9C1867.4,578.5 1867.3,675.3 1867.3,675.3C1867.3,675.3 1870.5,675 1870.8,677.2C1871.1,679.5 1872.1,686.2 1869.5,686.9C1866.9,687.6 1855.7,689.2 1855,686.9C1854.3,684.6 1852.4,675.6 1858.5,675.3C1858.5,675.3 1841.5,575.9 1842.4,566.3C1843.3,556.7 1855.6,458.8 1855.6,458.8L1919,456.9Z" style="fill:rgb(66,152,221);fill-rule:nonzero;"/>
        </g>
        <g transform="matrix(0.564111,0,0,0.564111,648.475,423.744)">
            <path d="M1887.7,522.6C1887.7,522.6 1893.9,503.8 1896,491.7C1896,491.7 1918.4,492.4 1919.3,465.5C1920,489.7 1921.8,557.2 1921.3,567.2C1920.7,579.4 1946.1,672.7 1946.1,672.7C1946.1,672.7 1948.7,671.1 1949.3,673C1949.9,674.9 1953.5,682.6 1950,683.9C1946.5,685.2 1939.1,688.4 1938.1,686.2C1937.1,684 1932.6,675.3 1938.1,674.3C1938.1,674.3 1899.5,584.6 1896.6,570.8C1893.6,557 1887.7,522.6 1887.7,522.6Z" style="fill:rgb(39,135,195);fill-rule:nonzero;"/>
        </g>
        <g transform="matrix(0.564111,0,0,0.564111,648.475,423.744)">
            <path d="M1896.1,491.7C1896.2,491.3 1896.6,491 1897,491C1897.4,491.1 1897.7,491.5 1897.7,491.9C1897.7,492 1895.4,505.2 1888.3,525.9C1887.9,523.8 1887.7,522.6 1887.7,522.6C1887.7,522.6 1887.7,522.7 1887.6,522.8C1894,503.7 1896,491.8 1896.1,491.7Z" style="fill:rgb(0,120,170);fill-rule:nonzero;"/>
        </g>
        <g transform="matrix(0.564111,0,0,0.564111,648.475,423.744)">
            <path d="M1939.2,674.6C1938.7,674.6 1938.4,674.3 1938.4,673.8C1938.4,673.4 1938.7,673 1939.2,673C1939.2,673 1942.3,672.8 1945.8,671.1C1946.1,672 1946.2,672.6 1946.2,672.7C1942.5,674.4 1939.4,674.6 1939.2,674.6Z" style="fill:rgb(0,120,170);fill-rule:nonzero;"/>
        </g>
        <g transform="matrix(0.564111,0,0,0.564111,648.475,423.744)">
            <path d="M1878.5,301.4L1881.9,333.1L1867.7,333.9L1868.6,321C1868.6,321 1861.9,325.5 1856.4,322C1851.5,318.9 1854.1,296.3 1854.1,296.3L1878.5,301.4Z" style="fill:rgb(245,115,93);fill-rule:nonzero;"/>
        </g>
        <g transform="matrix(0.564111,0,0,0.564111,648.475,423.744)">
            <path d="M1727.6,399.7C1727.6,399.7 1774.4,435.4 1798.8,431.7C1814.7,429.2 1829.3,404.9 1829.3,404.9C1829.3,404.9 1844.7,441.7 1850.2,459.7C1850.2,459.7 1875.4,484.1 1922.9,455.6C1922.9,455.6 1936.1,382.8 1925.8,353.9C1916.4,327.5 1868.3,330.7 1854,334.2C1831.5,339.7 1810.8,361.2 1782.6,395.1C1782.6,395.1 1754.6,400 1731.9,392.5C1731.9,392.5 1727.6,394.2 1727.6,399.7Z" style="fill:rgb(88,44,95);fill-rule:nonzero;"/>
        </g>
        <g transform="matrix(0.564111,0,0,0.564111,648.475,423.744)">
            <path d="M1840.8,381C1840.8,381 1846.1,446.3 1892.8,444.6C1913.8,443.8 1923.8,429.2 1928.4,413.4C1926.4,436.2 1922.9,455.6 1922.9,455.6C1875.4,484.1 1850.2,459.7 1850.2,459.7C1844.8,442.2 1830.1,406.8 1829.3,405C1832.8,399 1837,391 1840.8,381Z" style="fill:rgb(74,28,83);fill-rule:nonzero;"/>
        </g>
        <g transform="matrix(0.564111,0,0,0.564111,648.475,423.744)">
            <path d="M1727.7,397.9C1727.8,397.9 1727.8,397.9 1727.9,398C1739.4,406.5 1754.2,416.8 1768.9,423.7C1786.1,431.8 1799.3,432.9 1808,427.1C1828.1,413.7 1840.9,378.6 1841,378.3C1841.2,377.9 1841.6,377.7 1842,377.8C1842.4,377.9 1842.6,378.4 1842.5,378.8C1842.5,378.9 1839.2,387.9 1833.5,398.4C1828.2,408.2 1819.6,421.3 1808.9,428.4C1805,431 1800.3,432.3 1794.9,432.3C1787.4,432.3 1778.5,429.9 1768.2,425.1C1753.7,418.3 1739.1,408.2 1727.5,399.7C1727.5,399.6 1727.7,397.9 1727.7,397.9Z" style="fill:rgb(56,17,68);fill-rule:nonzero;"/>
        </g>
        <g transform="matrix(0.564111,0,0,0.564111,648.475,423.744)">
            <path d="M1928.9,406.7C1928.8,408.8 1928.6,410.8 1928.4,412.8C1885.4,411.7 1847.4,421.4 1837.1,424.3C1836.4,422.4 1835.6,420.6 1834.9,418.9C1874.9,404.8 1920.5,406.3 1928.9,406.7Z" style="fill:rgb(255,176,2);fill-rule:nonzero;"/>
        </g>
        <g transform="matrix(0.564111,0,0,0.564111,648.475,423.744)">
            <path d="M1852.8,420.5C1845.6,422.1 1840.2,423.5 1837.2,424.3C1836.5,422.4 1835.7,420.6 1835,418.9C1839.8,417.2 1844.8,415.7 1849.7,414.4C1850.7,416.5 1851.7,418.5 1852.8,420.5Z" style="fill:rgb(239,149,0);fill-rule:nonzero;"/>
        </g>
        <g transform="matrix(0.564111,0,0,0.564111,648.475,423.744)">
            <path d="M1840.7,433.1C1875.8,421.5 1914.4,421.6 1927.6,422C1927.4,424.1 1927.1,426.2 1926.9,428.2C1889.4,427.8 1856.3,435.2 1842.8,438.8C1842.1,436.9 1841.4,435 1840.7,433.1Z" style="fill:rgb(255,176,2);fill-rule:nonzero;"/>
        </g>
        <g transform="matrix(0.564111,0,0,0.564111,648.475,423.744)">
            <path d="M1858.1,428.3C1859.8,430.4 1861.6,432.3 1863.5,434.1C1854.6,435.8 1847.5,437.5 1842.8,438.7C1842.4,437.8 1842.1,436.8 1841.7,435.9C1841.3,435 1841,434 1840.6,433.1C1846.4,431.2 1852.3,429.7 1858.1,428.3Z" style="fill:rgb(239,149,0);fill-rule:nonzero;"/>
            <path d="M1925.2,422C1926.1,422 1926.8,422 1927.5,422.1L1927.5,422.2C1927.4,422.7 1927.4,423.2 1927.3,423.6L1927.3,423.7C1927.2,424.2 1927.2,424.6 1927.1,425.1L1927.1,425.4C1927.1,425.8 1927,426.3 1927,426.7L1927,426.9C1927,427.3 1926.9,427.6 1926.9,428L1926.9,428.2L1921.8,428.2C1923.1,426.2 1924.2,424.1 1925.2,422Z" style="fill:rgb(239,149,0);fill-rule:nonzero;"/>
        </g>
        <g transform="matrix(0.564111,0,0,0.564111,648.475,423.744)">
            <path d="M1868,311.6C1868,311.6 1874.8,322.8 1883.1,318C1891.5,313.1 1886.9,302.9 1886.9,302.9C1886.9,302.9 1892.1,304.8 1892,302.9C1892,301 1887.2,301.3 1887.2,301.3C1887.2,301.3 1893.9,298.4 1892,294.8C1890.1,291.3 1885.9,295.5 1885.9,295.5C1885.9,295.5 1882.3,282.3 1864,278.8C1845.6,275.3 1840.3,299.5 1867,304.2C1867,304.2 1872.7,299 1874.1,305.8C1876.1,315.4 1868,311.6 1868,311.6Z" style="fill:rgb(204,34,118);fill-rule:nonzero;"/>
        </g>
        <g transform="matrix(0.564111,0,0,0.564111,648.475,423.744)">
            <path d="M1887.3,301.3C1887.3,301.3 1892.1,301 1892.1,302.9C1892.1,304.8 1887,302.9 1887,302.9C1887,302.9 1891.5,313.2 1883.2,318C1874.8,322.9 1868.1,311.6 1868.1,311.6C1868.1,311.6 1876.2,315.4 1874.2,305.8C1872.8,299 1867.1,304.2 1867.1,304.2C1852.9,301.7 1847.8,293.7 1848.8,287.3C1850.1,297.2 1871.8,302.4 1879.3,299.6C1884.8,297.5 1884,292.6 1882.6,289.2C1885.3,292.6 1886,295.4 1886,295.4C1886,295.4 1890.2,291.2 1892.1,294.7C1894.1,298.3 1887.3,301.3 1887.3,301.3Z" style="fill:rgb(181,16,107);fill-rule:nonzero;"/>
        </g>
        <g transform="matrix(0.564111,0,0,0.564111,648.475,423.744)">
            <path d="M1853.6,334.3C1853.7,334.3 1853.9,334.2 1854,334.2C1860.1,332.7 1872.2,331.1 1885.4,332.2C1881.2,333.5 1870.9,335.9 1853.6,334.3Z" style="fill:rgb(245,115,93);fill-rule:nonzero;"/>
        </g>
        <g transform="matrix(0.564111,0,0,0.564111,648.475,423.744)">
            <path d="M1899.8,456.5C1912.3,452.9 1921.8,447.2 1924.6,445.3C1924.5,446 1924.4,446.7 1924.3,447.4C1920.4,449.8 1911.6,454.7 1900.3,458C1892.9,460.1 1885.6,461.2 1878.7,461.3C1877.2,461.3 1875.7,461.3 1874.3,461.2C1865,460.6 1856.3,458 1848.3,453.5C1848,452.7 1847.8,452 1847.5,451.2C1855.7,456.2 1864.7,459 1874.4,459.6C1882.4,460.1 1891,459.1 1899.8,456.5Z" style="fill:rgb(56,17,68);fill-rule:nonzero;"/>
        </g>
        <g transform="matrix(0.564111,0,0,0.564111,648.475,423.744)">
            <path d="M1809.4,308.3L1809.6,308.5L1811.7,304.7C1809.3,303.6 1804.3,301.4 1803,300.7C1801.2,299.7 1798.9,300.6 1798.9,300.6L1804.6,304.9C1804.6,304.9 1798.9,306.5 1800.7,308.4C1801.5,309.2 1808.2,308.3 1809.4,308.3Z" style="fill:rgb(232,86,83);fill-rule:nonzero;"/>
        </g>
    </g>
    <g transform="matrix(1,0,0,1,-750,-500)">
        <g transform="matrix(0.564111,0,0,0.564111,648.475,423.744)">
            <g>
                <g>
                    <path d="M309.5,1038.8C311.4,1203.5 310.2,1295.5 313.5,1296.7C320.8,1299.3 856.8,1315.3 856.8,1315.3C856.8,1315.3 854.6,1214.5 846,1043.1C845.3,1044.1 384.2,1035.3 309.5,1038.8Z" style="fill:rgb(247,247,247);fill-rule:nonzero;"/>
                </g>
                <g>
                    <g>
                        <g>
                            <path d="M783.5,1211.5L701.2,1212.9L696.3,1133.5L780,1133.8L783.5,1211.5ZM688.8,1224.6L800.1,1222.9L792.3,1123.9L679.8,1122.3L688.8,1224.6Z" style="fill:rgb(71,155,219);fill-rule:nonzero;"/>
                        </g>
                    </g>
                    <g>
                        <path d="M439.4,1227.8L649.5,1231.4L647.7,1215.9L439.8,1213.4C439.5,1218.3 439.4,1223 439.4,1227.8Z" style="fill:rgb(216,216,216);fill-rule:nonzero;"/>
                        <path d="M405.8,1213.1L358,1212.5C358.8,1217.1 359.3,1221.8 359.6,1226.5L406.6,1227.3C406.4,1222.5 406.1,1217.8 405.8,1213.1Z" style="fill:rgb(216,216,216);fill-rule:nonzero;"/>
                        <path d="M546.1,1182.8L645.5,1184.7L643.7,1169.4L546.9,1168C546.7,1172.9 546.3,1177.8 546.1,1182.8Z" style="fill:rgb(216,216,216);fill-rule:nonzero;"/>
                        <path d="M511.8,1181.9C512,1177.1 512.2,1172.2 512.4,1167.4L374.7,1165.6C375,1170.2 375.2,1174.9 375.3,1179.6L511.8,1181.9Z" style="fill:rgb(216,216,216);fill-rule:nonzero;"/>
                        <path d="M447.1,1133.8L641.6,1137.9L639.9,1122.7L447.2,1119.6C447.3,1124.3 447.2,1129 447.1,1133.8Z" style="fill:rgb(216,216,216);fill-rule:nonzero;"/>
                    </g>
                </g>
                <g>
                    <path d="M836.6,1056.4L836.7,1058.5C837.3,1070.1 847.1,1282.4 845.3,1296.7C845,1299.3 843,1301.2 820.6,1302.1C807.1,1302.7 787.4,1302.8 762,1302.4C719.3,1301.8 659.9,1299.9 585.5,1296.9C458.8,1291.6 330.6,1284.6 329.3,1284.5L327.3,1284.4L320.4,1050.4L322.7,1050.4L836.6,1056.4ZM841,1295.4C842.3,1276.2 833.7,1086.1 832.4,1060.7L325,1054.6L331.6,1280.1C348.1,1281 463.7,1287.3 579.7,1292.2C652.9,1295.3 712,1297.2 755.2,1297.9C824.2,1299 838.3,1296.7 841,1295.4Z" style="fill:rgb(216,216,216);fill-rule:nonzero;"/>
                </g>
            </g>
            <path d="M713.5,1205.8C714.9,1206.2 724.2,1200.1 735.4,1192C745.9,1206.9 755.4,1219.1 757.7,1217.9C763.3,1214.9 772.5,1207.5 772.5,1207.5C771.7,1206.9 762.5,1194.7 751.5,1180.3C766.5,1169.2 780.3,1158.6 780.3,1158.6C780.3,1158.6 768.9,1142.5 765.8,1140.9C764.4,1140.1 751.2,1150.5 737.3,1162C725,1146.3 713.9,1132.7 712.3,1133.4C708.6,1135 702.3,1142.4 702.3,1142.4C702.3,1142.4 711.8,1157.4 722.9,1174C711.8,1183.4 702.9,1191.1 702.9,1191.1C702.9,1191.1 709.7,1204.6 713.5,1205.8Z" style="fill:rgb(204,35,75);fill-rule:nonzero;"/>
        </g>
        <g id="girl_with_box_2_" transform="matrix(0.564111,0,0,0.564111,648.475,423.744)">
            <g>
                <g>
                    <g>
                        <ellipse cx="530.8" cy="1673.4" rx="129.2" ry="18.5" style="fill:rgb(180,206,214);"/>
                    </g>
                </g>
            </g>
            <g>
                <g>
                    <g>
                        <path d="M628.5,1313.8C628.5,1313.8 631.8,1310.2 632.5,1308.6L624.3,1308.2C624.3,1308.2 623.4,1302.7 621,1302.6C616.9,1302.3 622,1312.6 622,1312.6L628.5,1313.8Z" style="fill:rgb(229,88,87);fill-rule:nonzero;"/>
                    </g>
                </g>
            </g>
            <g>
                <g>
                    <g>
                        <g>
                            <path d="M523.7,1672.5L527.2,1639.2L533.6,1640.8L528.8,1671.9L523.7,1672.5Z" style="fill:rgb(245,115,93);fill-rule:nonzero;"/>
                        </g>
                    </g>
                </g>
                <g>
                    <g>
                        <g>
                            <g>
                                <path d="M523.5,1677C524.1,1677.2 524.8,1677.3 525.4,1677.3C529.8,1677.6 553.2,1679.1 553.8,1675.3C554.4,1671.1 547.2,1661.5 529.5,1668.3C515.4,1673.7 520.8,1676.2 523.5,1677Z" style="fill:rgb(39,135,195);fill-rule:nonzero;"/>
                            </g>
                        </g>
                    </g>
                    <g>
                        <g>
                            <g>
                                <path d="M529.5,1668.4C530.3,1668.1 531.1,1667.8 531.8,1667.6C528.4,1671.1 534.8,1675.5 544.8,1675.5C551,1675.5 552.8,1673.9 553.1,1672.4C553.7,1673.5 553.9,1674.6 553.7,1675.5C553.1,1679.3 529.8,1677.8 525.3,1677.5C524.6,1677.5 524,1677.3 523.4,1677.2C520.8,1676.2 515.4,1673.7 529.5,1668.4Z" style="fill:rgb(0,120,170);fill-rule:nonzero;"/>
                            </g>
                        </g>
                    </g>
                </g>
            </g>
            <g>
                <g>
                    <g>
                        <g>
                            <path d="M464.6,1628.2L486.6,1603.1L490.9,1608.1L469.1,1630.6L464.6,1628.2Z" style="fill:rgb(232,86,83);fill-rule:nonzero;"/>
                        </g>
                    </g>
                </g>
                <g>
                    <g>
                        <g>
                            <g>
                                <path d="M462.3,1630.5C462.6,1631.1 463,1631.6 463.5,1632.1C466.5,1635.4 482.6,1652.4 485.6,1650.1C488.9,1647.5 490.2,1635.5 472.7,1628.3C458.7,1622.6 460.9,1628.1 462.3,1630.5Z" style="fill:rgb(39,135,195);fill-rule:nonzero;"/>
                            </g>
                        </g>
                    </g>
                    <g>
                        <g>
                            <g>
                                <path d="M472.6,1628.3C473.4,1628.6 474.2,1629 474.9,1629.3C470,1629.5 471.7,1637.1 479,1643.9C483.5,1648.1 485.9,1648.2 487.2,1647.4C486.8,1648.6 486.2,1649.5 485.6,1650.1C482.6,1652.4 466.6,1635.4 463.5,1632.1C463.1,1631.6 462.7,1631.1 462.3,1630.5C460.9,1628.1 458.7,1622.6 472.6,1628.3Z" style="fill:rgb(0,120,170);fill-rule:nonzero;"/>
                            </g>
                        </g>
                    </g>
                </g>
            </g>
            <g>
                <g>
                    <g>
                        <g>
                            <path d="M553.6,1426.2L562.6,1534.9C562.7,1536 562.3,1537.2 561.5,1538L484.3,1618.9L476.7,1610.8L537,1537.6L515.9,1427.9L553.6,1426.2Z" style="fill:rgb(78,19,85);fill-rule:nonzero;"/>
                        </g>
                    </g>
                </g>
                <g>
                    <g>
                        <g>
                            <path d="M494.9,1428.2L534.1,1551.4L523.9,1649.6L535.4,1650.9L552.1,1547.7L541.8,1425.4L494.9,1428.2Z" style="fill:rgb(92,38,97);fill-rule:nonzero;"/>
                        </g>
                    </g>
                </g>
                <g>
                    <g>
                        <g>
                            <path d="M527.1,1650L523.8,1649.6L534,1551.4L494.8,1428.1L541.7,1425.3L543.7,1448.7C540.4,1444.8 529.4,1434.2 518.2,1446.2C506,1459.3 540.6,1551.4 540.6,1551.4L527.1,1650Z" style="fill:rgb(78,19,85);fill-rule:nonzero;"/>
                        </g>
                    </g>
                </g>
                <g>
                    <g>
                        <path d="M552.1,1547.8L542.7,1443.6C542.7,1443.5 542.7,1443.3 542.8,1443.2L545.7,1437.1C545.9,1436.7 546.4,1436.5 546.8,1436.7C547.2,1436.9 547.4,1437.4 547.2,1437.8L544.4,1443.7L553.8,1546.2L552.1,1547.8Z" style="fill:rgb(60,7,70);fill-rule:nonzero;"/>
                    </g>
                </g>
            </g>
            <g>
                <g>
                    <g>
                        <path d="M527.4,1301C527.4,1301 545.5,1302.6 552.1,1304.3C579.4,1311.1 623.1,1373.8 620.5,1312.3C620.5,1312.3 628,1310.3 632.1,1312.8C632.1,1312.8 649.4,1406.6 568.5,1363.5C568.5,1363.5 561.2,1417.8 556.9,1428.3C556.9,1428.3 521,1438.4 492.6,1429.8C492.6,1429.8 486,1388 479.8,1370.5C479.8,1370.5 473.2,1381.3 455.1,1387.8C455.1,1387.8 467.5,1409.7 482.3,1416.9C482.3,1416.9 482.1,1422.4 477.3,1426.4C477.3,1426.4 416.9,1413.8 421.6,1385.5C426.3,1357.1 460.2,1305.8 527.4,1301Z" style="fill:rgb(215,0,118);fill-rule:nonzero;"/>
                    </g>
                </g>
            </g>
            <g>
                <g>
                    <g>
                        <path d="M492.6,1429.7C492.6,1429.7 486.1,1388.6 480,1370.9C483.4,1365.5 487.7,1357 492.1,1344C492.1,1344 488.7,1406.8 528.8,1413.2C548.5,1416.4 558.3,1408.3 563.2,1399.2C561.1,1411.8 558.8,1423.8 556.9,1428.2C557,1428.2 521.1,1438.3 492.6,1429.7Z" style="fill:rgb(190,0,107);fill-rule:nonzero;"/>
                    </g>
                </g>
            </g>
            <g>
                <path d="M527.4,1301C527.4,1301 540.3,1302.2 548.3,1303.5C549.2,1305.9 550.6,1310.8 550.1,1316.8C549.2,1327.5 536.5,1332.8 528.2,1326C520.6,1319.8 515.2,1310.6 515.4,1302.4C519.2,1301.8 523.3,1301.3 527.4,1301Z" style="fill:rgb(245,115,93);fill-rule:nonzero;"/>
            </g>
            <g>
                <g>
                    <g>
                        <path d="M479.9,1370.4C489.3,1354.3 494.2,1333.9 494.2,1333.7C494.3,1333.3 494.7,1333 495.2,1333.1C495.6,1333.2 495.9,1333.6 495.8,1334.1C495.7,1334.3 490.6,1356 480.6,1372.5C480.3,1371.8 480.1,1371.1 479.9,1370.4Z" style="fill:rgb(135,0,79);fill-rule:nonzero;"/>
                    </g>
                </g>
            </g>
            <g>
                <g>
                    <g>
                        <g>
                            <path d="M542,1272.2C542,1272.2 561.3,1257.9 549.3,1240C537.3,1222.1 513.1,1236.5 508.1,1257.4C508.1,1257.4 504,1252.4 502.3,1257.8C500.6,1263.1 512.1,1283.1 512.1,1283.1C512.1,1283.1 524.3,1285.1 542,1272.2Z" style="fill:rgb(39,135,195);fill-rule:nonzero;"/>
                        </g>
                    </g>
                </g>
                <g>
                    <g>
                        <g>
                            <path d="M502.1,1259.4C505.2,1270.6 515,1256.1 515,1256.1C515,1256.1 524.5,1265.7 539.4,1259.6C552.6,1254.1 549.1,1241.3 548.1,1238.4C548.5,1238.9 548.9,1239.5 549.3,1240C561.3,1257.9 542,1272.2 542,1272.2C524.3,1285.1 512,1283 512,1283C512,1283 502.4,1266.3 502.1,1259.4Z" style="fill:rgb(0,120,170);fill-rule:nonzero;"/>
                        </g>
                    </g>
                </g>
                <g>
                    <g>
                        <g>
                            <path d="M521.7,1313L516.9,1285.1L529.4,1285.1L536.5,1309.6C532,1310.6 526.1,1311.8 521.7,1313Z" style="fill:rgb(245,115,93);fill-rule:nonzero;"/>
                        </g>
                    </g>
                </g>
                <g>
                    <g>
                        <g>
                            <path d="M532.6,1296.3C521.5,1296.3 518.5,1287.8 518.5,1287.8L529.6,1285.9L532.6,1296.3Z" style="fill:rgb(232,86,83);fill-rule:nonzero;"/>
                        </g>
                    </g>
                </g>
                <g>
                    <g>
                        <g>
                            <path d="M536.2,1269C536.2,1269 543.3,1289.3 532.9,1291C522.5,1292.7 515.9,1286.6 515.9,1286.6C515.9,1286.6 508.6,1289.7 507.2,1283.4C505.8,1277.1 511.4,1274.4 514.4,1278.3C514.3,1278.2 510.6,1263.5 536.2,1269Z" style="fill:rgb(245,115,93);fill-rule:nonzero;"/>
                        </g>
                    </g>
                </g>
                <g>
                    <g>
                        <g>
                            <g>
                                <path d="M513.9,1278.5C514.4,1278.4 514.7,1278 514.6,1277.5C514.4,1275 514.8,1270.7 520.1,1269C527.5,1266.7 539.1,1270.2 539.2,1270.3C539.7,1270.5 540.2,1270.2 540.4,1269.7C540.6,1269.2 540.3,1268.7 539.8,1268.5C539.3,1268.3 527.6,1264.7 519.5,1267.2C512.5,1269.4 512.5,1275.8 512.7,1277.7C512.7,1278.2 513.2,1278.6 513.7,1278.6C513.8,1278.6 513.8,1278.6 513.9,1278.5Z" style="fill:rgb(0,92,120);fill-rule:nonzero;"/>
                            </g>
                        </g>
                    </g>
                </g>
            </g>
            <g>
                <g>
                    <g>
                        <path d="M477.3,1423.6C477.3,1423.6 480.1,1430.7 483.8,1431.1C484.7,1431.2 485.6,1431.2 486.4,1431C486.7,1430.9 486.9,1430.8 487.1,1430.6C487.4,1430.3 487.4,1429.8 487.7,1429.4C488.1,1428.9 488.9,1429 489.3,1428.5C489.6,1428.1 489.4,1427.4 489.7,1426.9C489.9,1426.5 490.5,1426.3 490.6,1425.9C490.8,1425.6 490.7,1425.2 490.8,1424.8C490.9,1424.4 491.4,1424.1 491.5,1423.6C491.5,1423.4 491.5,1423.2 491.4,1423.1C491.2,1422.6 489.3,1421.5 489.3,1421.5C489.3,1421.5 490.5,1420 489.1,1418.8C488,1417.8 479,1418.4 479,1418.4L477.3,1423.6Z" style="fill:rgb(245,115,93);fill-rule:nonzero;"/>
                    </g>
                </g>
            </g>
            <g>
                <g>
                    <g>
                        <path d="M488.3,1420C488.8,1420.2 489.1,1420.8 489.1,1421.3L489.1,1421.4L484.9,1419.1C485,1419.2 486.9,1419.4 488.3,1420Z" style="fill:rgb(232,86,83);fill-rule:nonzero;"/>
                    </g>
                </g>
            </g>
            <g>
                <g>
                    <g>
                        <path d="M459.7,1394.9C464.6,1402 473,1412.4 482.3,1416.9C482.3,1416.9 482.1,1422.4 477.3,1426.4C477.3,1426.4 456.1,1422 439.8,1412.5C446.3,1406.5 453,1400.7 459.7,1394.9Z" style="fill:rgb(215,0,118);fill-rule:nonzero;"/>
                    </g>
                </g>
            </g>
            <g>
                <g>
                    <g>
                        <path d="M440.2,1346.6C445.5,1345.1 454.1,1343.1 455.6,1345C457.9,1347.9 452.7,1361.3 455.4,1360.8C458.1,1360.3 472.6,1356.8 473.7,1362.2C474.5,1366.1 473.9,1373.5 473.6,1377.3C472.5,1378.2 471.2,1379.2 469.8,1380.2C470.3,1377.7 473.1,1363 467.5,1363.1C461.3,1363.2 453.8,1367.6 451.6,1363.8C449.4,1360 454.5,1347.5 449.2,1347.7C445,1347.9 438.9,1350.5 436.5,1351.7C437.6,1350 438.8,1348.3 440.2,1346.6Z" style="fill:rgb(255,176,0);fill-rule:nonzero;"/>
                    </g>
                </g>
            </g>
            <g>
                <g>
                    <g>
                        <path d="M431.5,1359.6C436,1357.9 440.8,1356.5 442.1,1357.8C444.7,1360.4 441.4,1374.4 444.1,1373.5C446.7,1372.6 460.6,1367.2 462.4,1372.4C463.4,1375.2 463.9,1380 464.1,1383.9C463.1,1384.4 462.1,1384.9 461.1,1385.4C461,1380.2 460.1,1373.6 456.3,1374.2C450.2,1375.2 443.3,1380.5 440.6,1377C437.9,1373.5 441.3,1360.4 436,1361.4C433.9,1361.8 431.3,1362.9 429,1364.1C429.8,1362.6 430.6,1361.1 431.5,1359.6Z" style="fill:rgb(255,176,0);fill-rule:nonzero;"/>
                    </g>
                </g>
            </g>
            <g>
                <g>
                    <path d="M620.6,1312.3C620.6,1312.3 628.1,1310.3 632.2,1312.8C632.2,1312.8 649.5,1406.6 568.7,1363.5C570,1350.8 571.1,1337 571.1,1330.7C571.1,1323.3 565.1,1310 558,1306.4C585.2,1318.4 622.9,1369.6 620.6,1312.3Z" style="fill:rgb(190,0,107);fill-rule:nonzero;"/>
                </g>
            </g>
            <g>
                <g>
                    <path d="M580,1335.4C581.8,1341.3 587.9,1347.4 584.9,1350.5C581.8,1353.6 568.4,1352 570,1357.1C571.1,1360.5 574.3,1364.8 576.3,1367.2C574.3,1366.3 572.3,1365.3 570.2,1364.2C569.8,1363.4 569.3,1362.6 568.9,1361.8C569.2,1358.8 569.5,1355.8 569.8,1352.8L569.8,1352.7C569.9,1351.7 570,1350.8 570.1,1349.8C575,1349 581.9,1349.2 581.1,1347.5C579.9,1345 572.7,1332 577.6,1329.5C580,1328.3 584.2,1327.2 587.9,1326.5L591.3,1329C585.9,1329.9 578.9,1331.6 580,1335.4Z" style="fill:rgb(245,149,0);fill-rule:nonzero;"/>
                </g>
            </g>
            <g>
                <g>
                    <path d="M593.1,1342.7C596.1,1348.1 603.5,1352.7 601.2,1356.4C598.9,1360.1 585.4,1361.5 588.1,1366.1C589.6,1368.7 592.8,1371.6 595.2,1373.6C593.2,1373.2 591.2,1372.8 589,1372.1C585.5,1368.3 581.8,1363.5 582.6,1361.7C584.1,1358.3 598.4,1356.6 596.6,1354.4C594.8,1352.3 585,1341.1 589.2,1337.6C591,1336.2 593.9,1334.6 596.8,1333.2L600,1335.1C595.7,1337 591.4,1339.8 593.1,1342.7Z" style="fill:rgb(245,149,0);fill-rule:nonzero;"/>
                </g>
            </g>
        </g>
    </g>
    <g transform="matrix(1,0,0,1,-750,-500)">
        <g transform="matrix(0.564111,0,0,0.564111,648.475,423.744)">
            <ellipse cx="2564.7" cy="1623.1" rx="125.7" ry="17.8" style="fill:rgb(180,206,214);"/>
        </g>
        <g transform="matrix(0.564111,0,0,0.564111,648.475,423.744)">
            <g>
                <path d="M2577.3,1620.1L2573.7,1586.1L2567.2,1587.7L2572.1,1619.4L2577.3,1620.1Z" style="fill:rgb(242,116,97);fill-rule:nonzero;"/>
            </g>
            <g>
                <g>
                    <path d="M2577.5,1624.7C2576.9,1624.9 2576.2,1625 2575.5,1625C2571,1625.3 2547.1,1626.8 2546.5,1623C2545.8,1618.8 2553.3,1608.9 2571.3,1615.8C2585.8,1621.3 2580.3,1623.9 2577.5,1624.7Z" style="fill:rgb(86,47,94);fill-rule:nonzero;"/>
                </g>
                <g>
                    <path d="M2571.4,1615.8C2570.6,1615.5 2569.8,1615.2 2569,1615C2572.5,1618.5 2566,1623 2555.7,1623C2549.4,1623 2547.5,1621.4 2547.2,1619.9C2546.6,1621.1 2546.4,1622.2 2546.6,1623C2547.2,1626.8 2571,1625.3 2575.6,1625C2576.3,1625 2576.9,1624.8 2577.6,1624.7C2580.3,1623.9 2585.8,1621.3 2571.4,1615.8Z" style="fill:rgb(72,31,82);fill-rule:nonzero;"/>
                </g>
            </g>
        </g>
        <g transform="matrix(0.564111,0,0,0.564111,648.475,423.744)">
            <g>
                <path d="M2621,1581.7L2601.4,1553.7L2596.5,1558.3L2616.2,1583.6L2621,1581.7Z" style="fill:rgb(229,88,87);fill-rule:nonzero;"/>
            </g>
            <g>
                <g>
                    <path d="M2623,1584.3C2622.6,1584.8 2622.1,1585.3 2621.6,1585.8C2618.2,1588.8 2600,1604.3 2597.2,1601.6C2594.1,1598.6 2594.2,1586.3 2612.8,1581C2627.6,1576.6 2624.8,1582 2623,1584.3Z" style="fill:rgb(86,47,94);fill-rule:nonzero;"/>
                </g>
                <g>
                    <path d="M2612.8,1580.9C2612,1581.1 2611.1,1581.4 2610.4,1581.7C2615.3,1582.5 2612.8,1589.9 2604.6,1596.1C2599.6,1599.9 2597.1,1599.7 2595.9,1598.7C2596.1,1600 2596.6,1601 2597.3,1601.6C2600.1,1604.3 2618.3,1588.8 2621.7,1585.8C2622.2,1585.4 2622.7,1584.9 2623.1,1584.3C2624.8,1582 2627.6,1576.6 2612.8,1580.9Z" style="fill:rgb(72,31,82);fill-rule:nonzero;"/>
                </g>
            </g>
        </g>
        <g transform="matrix(0.564111,0,0,0.564111,648.475,423.744)">
            <g>
                <path d="M2546.1,1366.5L2529.1,1476.1C2528.9,1477.3 2529.2,1478.4 2530,1479.4L2601,1568.8L2609.5,1561.3L2555,1481.3L2586.5,1371.7L2546.1,1366.5Z" style="fill:rgb(18,121,169);fill-rule:nonzero;"/>
            </g>
            <g>
                <path d="M2605.9,1374L2566.7,1496.5L2577.1,1596.7L2565.4,1598L2548.4,1493.2L2558.9,1367.8L2605.9,1374Z" style="fill:rgb(71,155,219);fill-rule:nonzero;"/>
            </g>
            <g>
                <path d="M2573.8,1597.1L2577.1,1596.7L2566.6,1496.4L2605.8,1373.9L2558.8,1367.7L2556.8,1391.6C2560.2,1387.6 2571.4,1376.8 2582.8,1389.1C2595.2,1402.5 2559.9,1496.6 2559.9,1496.6L2573.8,1597.1Z" style="fill:rgb(47,138,194);fill-rule:nonzero;"/>
            </g>
            <g>
                <path d="M2549.1,1493L2557.9,1386.3C2557.9,1386.2 2557.9,1386 2557.8,1385.9L2554.8,1379.6C2554.6,1379.2 2554.1,1379 2553.7,1379.2C2553.3,1379.4 2553.1,1379.9 2553.3,1380.3L2556.2,1386.4L2547.4,1492.9L2547.4,1493.1L2548.4,1502.5L2550.3,1504.9L2549.1,1493Z" style="fill:rgb(8,93,119);fill-rule:nonzero;"/>
            </g>
        </g>
        <g transform="matrix(0.564111,0,0,0.564111,648.475,423.744)">
            <g>
                <path d="M2537.8,1291.8C2537.8,1291.8 2536.2,1356.5 2542,1368.6C2542,1368.6 2582.5,1382.6 2610.3,1375.8C2610.3,1375.8 2633.8,1316.4 2631.9,1288.9C2629.9,1261.5 2613,1253.3 2577,1244.2C2577,1244.2 2557.4,1245.5 2508.7,1274.9C2460,1304.2 2537.8,1291.8 2537.8,1291.8Z" style="fill:rgb(204,34,118);fill-rule:nonzero;"/>
            </g>
            <g>
                <path d="M2551.7,1252.2C2541.1,1256.7 2526.9,1263.8 2508.7,1274.9C2460,1304.3 2537.8,1291.9 2537.8,1291.9C2538.8,1279.4 2542.1,1261.4 2551.7,1252.2Z" style="fill:rgb(181,16,107);fill-rule:nonzero;"/>
            </g>
            <g>
                <path d="M2528.5,1263.5C2527.1,1264.3 2525.6,1265.1 2524.1,1265.9C2527.9,1268.5 2535.3,1274.3 2538.9,1282.2C2539.3,1279.9 2539.7,1277.6 2540.3,1275.3C2538.3,1271.8 2534.3,1265.7 2528.5,1263.5Z" style="fill:rgb(239,149,0);fill-rule:nonzero;"/>
            </g>
            <g>
                <path d="M2529.2,1285.8C2529.6,1283.5 2530,1281.2 2530.6,1278.9C2528.8,1275.7 2525.3,1270.9 2520.4,1268C2518.9,1268.8 2517.5,1269.7 2516,1270.6C2519.9,1273.5 2526,1278.8 2529.2,1285.8Z" style="fill:rgb(239,149,0);fill-rule:nonzero;"/>
            </g>
            <g>
                <g>
                    <path d="M2539.3,1283C2539.3,1283 2539.2,1283 2539.3,1283C2538.8,1283 2538.4,1282.6 2538.5,1282.1C2539.7,1268.8 2545.4,1259.4 2545.7,1259C2545.9,1258.6 2546.4,1258.5 2546.8,1258.7C2547.2,1258.9 2547.3,1259.4 2547.1,1259.8C2547,1259.9 2541.3,1269.3 2540.2,1282.2C2540.1,1282.7 2539.7,1283 2539.3,1283Z" style="fill:rgb(128,3,79);fill-rule:nonzero;"/>
                </g>
            </g>
            <g>
                <path d="M2631.9,1288.9C2631.7,1286.6 2631.5,1284.4 2631.1,1282.4C2622.3,1275.8 2607,1266.5 2599.5,1275.4C2587.8,1289.2 2586.2,1316.3 2586.2,1316.3L2549.3,1324.1C2549.3,1324.1 2535.3,1324.1 2538.9,1350.9C2539.6,1358.9 2540.6,1365.4 2542.1,1368.5C2542.1,1368.5 2582.6,1382.5 2610.4,1375.7C2610.3,1375.8 2633.8,1316.3 2631.9,1288.9Z" style="fill:rgb(181,16,107);fill-rule:nonzero;"/>
            </g>
            <g>
                <path d="M2539.6,1358.2C2539.7,1358.8 2539.8,1359.4 2539.9,1360C2543.2,1361.1 2552.1,1363.8 2563.6,1365.9C2574.7,1367.9 2584.3,1368.7 2592.5,1368.7C2601.3,1368.7 2608.3,1367.8 2613.7,1366.8C2613.9,1366.2 2614.1,1365.6 2614.4,1365C2582.1,1371.9 2544.6,1359.9 2539.6,1358.2Z" style="fill:rgb(129,3,79);fill-rule:nonzero;"/>
            </g>
        </g>
        <g transform="matrix(0.564111,0,0,0.564111,648.475,423.744)">
            <g>
                <path d="M2647.5,1204.9C2632.1,1188.9 2613.2,1223.8 2599.8,1223.2L2594.9,1222.5C2597.2,1217.8 2597.9,1211.9 2594.6,1204.9C2585.4,1185.1 2556.1,1191.2 2552.1,1206.2C2548.2,1221.2 2561.6,1225.1 2561.6,1225.1L2581.9,1235.2C2581.9,1235.2 2588.3,1232.1 2592.7,1226.1L2596.3,1228C2596.3,1228 2597.6,1244 2614.9,1245C2632.2,1246 2635.2,1227.4 2645.6,1242.4C2645.6,1242.5 2662.9,1220.9 2647.5,1204.9Z" style="fill:rgb(90,41,96);fill-rule:nonzero;"/>
            </g>
            <g>
                <path d="M2645.1,1217.2C2633,1212.1 2629.7,1225.7 2615.1,1230.9C2600.4,1236.1 2595.5,1226 2595.5,1226L2597.1,1222.8L2595,1222.5C2597.3,1217.8 2598,1211.9 2594.7,1204.9C2592.3,1199.8 2588.6,1196.5 2584.4,1194.5C2588.4,1197.9 2591,1202.9 2588,1208.6C2582.9,1218.2 2567.6,1209.7 2567.6,1209.7C2567.7,1217.1 2576.5,1230.3 2579,1233.7L2582,1235.2C2582,1235.2 2588.4,1232.1 2592.8,1226.1L2596.4,1228C2596.4,1228 2597.7,1244 2615,1245C2632.3,1246 2635.3,1227.4 2645.7,1242.4L2645.8,1242.3C2650.1,1233.7 2654.1,1220.9 2645.1,1217.2Z" style="fill:rgb(72,31,82);fill-rule:nonzero;"/>
            </g>
            <g>
                <g>
                    <path d="M2588.9,1230.4C2588.9,1230.4 2595.6,1224.5 2596.9,1214.8C2596.9,1214.8 2605.8,1217 2601.2,1226.2C2597,1234.4 2588.9,1230.4 2588.9,1230.4Z" style="fill:rgb(204,34,118);fill-rule:nonzero;"/>
                </g>
                <g>
                    <path d="M2593.8,1224C2591.5,1228.1 2588.9,1230.4 2588.9,1230.4C2588.9,1230.4 2597,1234.4 2601.2,1226.2C2601.6,1225.4 2601.9,1224.7 2602.1,1224C2598.8,1226.8 2594.7,1224.5 2593.8,1224Z" style="fill:rgb(181,16,107);fill-rule:nonzero;"/>
                </g>
            </g>
            <g>
                <g>
                    <path d="M2559.3,1215.7C2559.3,1215.7 2557,1236.3 2567.1,1235.6C2577.2,1234.9 2582.1,1227.8 2582.1,1227.8C2582.1,1227.8 2589.6,1229.1 2589.6,1222.9C2589.6,1216.7 2583.7,1215.4 2581.8,1219.6C2581.8,1219.6 2571.7,1219.3 2567.4,1209.8C2567.5,1209.8 2564.2,1214.4 2559.3,1215.7Z" style="fill:rgb(242,116,97);fill-rule:nonzero;"/>
                </g>
                <g>
                    <g>
                        <path d="M2583.6,1245.9L2582.5,1226.8L2570.2,1229.7L2569.6,1245.7C2566.7,1246.5 2563,1247.7 2558.3,1249.5C2557.4,1253.7 2556,1265.7 2569.4,1265.7C2583.2,1265.7 2593,1253.4 2595.7,1249.5C2592.1,1248.3 2588,1247.1 2583.6,1245.9Z" style="fill:rgb(242,116,97);fill-rule:nonzero;"/>
                    </g>
                    <g>
                        <path d="M2579.6,1231.2C2579.6,1230.8 2579.7,1230.3 2579.3,1230.1C2578.9,1229.9 2578.4,1230 2578.2,1230.4C2578.2,1230.4 2577.5,1231.5 2575.9,1232.7C2574.7,1233.6 2572.8,1234.6 2570,1235.3L2569.7,1243.8C2579.9,1241 2579.6,1231.7 2579.6,1231.2Z" style="fill:rgb(229,88,87);fill-rule:nonzero;"/>
                    </g>
                </g>
            </g>
            <g>
                <g>
                    <path d="M2581.6,1220C2581.5,1220 2581.5,1220 2581.6,1220C2573,1218.9 2568.8,1212.7 2567.5,1210.2C2563.9,1215.1 2557.2,1216.6 2556.9,1216.7C2556.5,1216.8 2556.2,1216.6 2556.1,1216.2C2556,1215.8 2556.2,1215.5 2556.6,1215.4C2556.7,1215.4 2563.9,1213.8 2567,1208.5L2567.7,1207.3L2568.2,1208.5C2568.2,1208.6 2571.8,1217.3 2581.7,1218.5C2582.1,1218.5 2582.3,1218.9 2582.3,1219.2C2582.2,1219.7 2581.9,1220 2581.6,1220Z" style="fill:rgb(55,20,67);fill-rule:nonzero;"/>
                </g>
            </g>
        </g>
        <g transform="matrix(0.564111,0,0,0.564111,648.475,423.744)">
            <g>
                <g>
                    <path d="M2469.9,1601.7C2594.5,1494 2665.6,1435.5 2664.4,1432.2C2661.7,1424.9 2328,1005.2 2328,1005.2C2328,1005.2 2252.5,1071.9 2127,1189.1C2128.1,1189 2419,1546.9 2469.9,1601.7Z" style="fill:rgb(247,247,247);fill-rule:nonzero;"/>
                </g>
                <g>
                    <g>
                        <g>
                            <path d="M2295.9,1128.1L2350.1,1190L2292.6,1245L2238.9,1180.9L2295.9,1128.1ZM2367,1192L2293.9,1108.1L2223.3,1177.9L2294.7,1264.9L2367,1192Z" style="fill:rgb(71,155,219);fill-rule:nonzero;"/>
                        </g>
                    </g>
                    <g>
                        <path d="M2530.4,1380.5L2397.6,1217.7L2387,1229L2519.3,1389.5C2523,1386.6 2526.7,1383.6 2530.4,1380.5Z" style="fill:rgb(216,216,216);fill-rule:nonzero;"/>
                        <path d="M2540.8,1415.7L2571.2,1452.6C2574.2,1449 2577.4,1445.6 2580.8,1442.3L2551.1,1405.8C2547.7,1409.1 2544.2,1412.4 2540.8,1415.7Z" style="fill:rgb(216,216,216);fill-rule:nonzero;"/>
                        <path d="M2427.1,1328L2364.4,1250.9L2353.8,1262.2L2415.2,1337C2419.2,1334 2423.2,1331 2427.1,1328Z" style="fill:rgb(216,216,216);fill-rule:nonzero;"/>
                        <path d="M2448.6,1354.8C2444.8,1357.8 2441,1360.8 2437.1,1363.7L2524.6,1470C2527.9,1466.7 2531.4,1463.6 2534.9,1460.5L2448.6,1354.8Z" style="fill:rgb(216,216,216);fill-rule:nonzero;"/>
                        <path d="M2453.6,1435.3L2331.2,1284.1L2320.7,1295.2L2442.6,1444.4C2446.2,1441.3 2449.9,1438.3 2453.6,1435.3Z" style="fill:rgb(216,216,216);fill-rule:nonzero;"/>
                    </g>
                </g>
                <g>
                    <path d="M2143.2,1187.7L2144.7,1186.3C2153.2,1178.4 2309,1033.8 2321.1,1026C2323.3,1024.6 2326,1024.9 2341.1,1041.4C2350.2,1051.3 2363,1066.3 2379.1,1085.9C2406.2,1118.9 2443.1,1165.5 2488.8,1224.3C2566.6,1324.5 2643.9,1427 2644.6,1428L2645.8,1429.6L2471.5,1585.9L2470,1584.1L2143.2,1187.7ZM2322.9,1030.1C2307.4,1041.5 2167.7,1170.8 2149.2,1188.1L2472,1579.6L2640,1429.1C2630.1,1415.9 2560.3,1323.6 2489.1,1231.8C2444.2,1173.9 2407.5,1127.5 2380.2,1094C2336.4,1040.6 2325.6,1031.3 2322.9,1030.1Z" style="fill:rgb(216,216,216);fill-rule:nonzero;"/>
                </g>
            </g>
            <path d="M2336.7,1185.3C2336.2,1184 2325.4,1180.9 2312,1177.5C2316.6,1159.8 2319.8,1144.7 2317.4,1143.8C2311.5,1141.5 2299.9,1139.3 2299.9,1139.3C2300,1140.3 2296.5,1155.2 2292.7,1172.9C2274.5,1168.6 2257.5,1164.9 2257.5,1164.9C2257.5,1164.9 2252.6,1183.9 2253.3,1187.4C2253.6,1189 2270,1192.3 2287.8,1195.6C2283.7,1215.1 2280.5,1232.4 2282.1,1233.1C2285.7,1234.9 2295.4,1234.9 2295.4,1234.9C2295.4,1234.9 2300.7,1218 2306.2,1198.8C2320.5,1201.2 2332.1,1203 2332.1,1203C2332.1,1203 2338.2,1188.9 2336.7,1185.3Z" style="fill:rgb(204,35,75);fill-rule:nonzero;"/>
        </g>
        <g transform="matrix(0.564111,0,0,0.564111,648.475,423.744)">
            <g>
                <path d="M2536,1326.6C2536,1326.6 2531.6,1315.7 2529.3,1316.3C2527,1316.9 2530.3,1321.9 2528.6,1321.9C2527,1321.9 2520.4,1313.4 2517.8,1314.7C2515.6,1315.8 2524.3,1322.5 2523.7,1322.9C2523,1323.2 2514.2,1319.6 2512.9,1320.6C2511.6,1321.6 2514.2,1323.9 2520.4,1325.2C2520.4,1325.2 2523,1325.9 2522.7,1326.2C2522.4,1326.5 2513.6,1325.9 2513.6,1327.2C2513.6,1328.5 2515.9,1328.8 2522.7,1329.2C2522.7,1329.2 2524,1329.2 2523.4,1329.5C2522.7,1329.8 2515.2,1330.8 2517.5,1332.4C2519.8,1334 2535.8,1331.7 2535.8,1331.7L2536,1326.6Z" style="fill:rgb(242,116,97);fill-rule:nonzero;"/>
            </g>
            <g>
                <path d="M2632,1272.7C2641.2,1288.3 2626.8,1338 2609.5,1346.5C2592.2,1355 2547.1,1339.6 2534.7,1332.1C2534.7,1332.1 2534.7,1327.9 2536,1325.6L2591.5,1320C2591.5,1320 2586.9,1285.5 2607.7,1261.4C2607.7,1261.4 2611.2,1257.1 2614.6,1257.8C2614.9,1258 2628.3,1266.5 2632,1272.7Z" style="fill:rgb(204,34,118);fill-rule:nonzero;"/>
            </g>
            <g>
                <path d="M2631.5,1309.5C2610.8,1303.5 2595.6,1305 2591.3,1305.7C2591.4,1303.7 2591.6,1301.6 2591.9,1299.4C2610,1296.3 2628,1300.8 2633.2,1302.3C2632.7,1304.8 2632.1,1307.1 2631.5,1309.5Z" style="fill:rgb(255,176,2);fill-rule:nonzero;"/>
            </g>
            <g>
                <path d="M2634.1,1296.9C2612.5,1291.3 2596.5,1293.5 2592.7,1294.2C2593.1,1292.1 2593.6,1289.9 2594.2,1287.6C2615.8,1285.3 2630.5,1289.2 2634.8,1290.6C2634.6,1292.7 2634.4,1294.8 2634.1,1296.9Z" style="fill:rgb(255,176,2);fill-rule:nonzero;"/>
            </g>
        </g>
        <g transform="matrix(0.564111,0,0,0.564111,648.475,423.744)">
            <path d="M2476.5,1191.9C2475.7,1193.1 2472.4,1197.9 2470.7,1198C2468.8,1198.1 2469.4,1195.1 2473.3,1191C2473.3,1191 2473.6,1190.3 2473.1,1190.7C2472.6,1191.1 2466.7,1197 2465.4,1195.7C2463.9,1194.2 2471.7,1188.7 2471.7,1188.7C2471.7,1188.7 2472,1188.5 2471.5,1188.4C2471,1188.3 2465.3,1193.2 2464.2,1192.3C2463.2,1191.5 2464.1,1189.4 2469.8,1186.6C2469.8,1186.6 2470.3,1186.2 2469.6,1186.3C2468.9,1186.4 2465.1,1188.5 2464.4,1187.4C2463.8,1186.6 2466.7,1183.3 2471.6,1182.8C2478,1182.1 2480.6,1192.4 2479.8,1196.4L2476.5,1191.9Z" style="fill:rgb(229,88,87);fill-rule:nonzero;"/>
        </g>
    </g>
    <g transform="matrix(1,0,0,1,-750,-500)">
        <g transform="matrix(0.564111,0,0,0.564111,648.475,423.744)">
            <ellipse cx="1956.6" cy="1805.4" rx="130.2" ry="18.5" style="fill:rgb(180,206,214);"/>
        </g>
        <g transform="matrix(0.564111,0,0,0.564111,648.475,423.744)">
            <g>
                <path d="M1910.1,1375.5C1910.1,1375.5 1917.2,1366.3 1915.5,1364.7C1913.8,1363.1 1911.3,1368.3 1910.5,1366.9C1909.7,1365.5 1913.6,1355.7 1911.2,1354.1C1909.1,1352.8 1907.8,1363.6 1907.2,1363.2C1906.6,1362.8 1905.2,1353.5 1903.7,1352.9C1902.2,1352.3 1901.6,1355.7 1903.6,1361.6C1903.6,1361.6 1904.4,1364.1 1903.9,1364C1903.5,1363.9 1899.6,1356.1 1898.5,1356.7C1897.4,1357.4 1898.3,1359.5 1901.4,1365.5C1901.4,1365.5 1902.1,1366.6 1901.5,1366.2C1900.9,1365.8 1896.3,1359.9 1896,1362.7C1895.8,1365.5 1905.7,1377.9 1905.7,1377.9L1910.1,1375.5Z" style="fill:rgb(229,88,87);fill-rule:nonzero;"/>
            </g>
            <g>
                <path d="M1926.6,1460.8C1929.7,1459.8 1932.8,1458.8 1935.9,1457.8C1950.7,1453 1965.5,1448 1979.1,1440.8C1970.5,1439.8 1962.2,1437 1952.9,1431.7C1937.3,1422.7 1933.7,1417.9 1933.7,1417.9C1924.8,1403.4 1910.8,1375.6 1910.8,1375.6C1906.6,1374.5 1904.4,1376.9 1904.4,1376.9C1904.4,1376.9 1898.8,1397.7 1916.3,1441.2C1919.2,1448.6 1922.8,1455.1 1926.6,1460.8Z" style="fill:rgb(18,121,169);fill-rule:nonzero;"/>
            </g>
        </g>
        <g transform="matrix(0.564111,0,0,0.564111,648.475,423.744)">
            <g>
                <path d="M1804,1430.3C1958.5,1373.3 2045.6,1343.5 2045.6,1340C2045.6,1332.2 1880.8,822 1880.8,822C1880.8,822 1786.6,857.9 1628,923.5C1629.2,923.7 1775.6,1361 1804,1430.3Z" style="fill:rgb(247,247,247);fill-rule:nonzero;"/>
            </g>
            <g>
                <g>
                    <g>
                        <path d="M1807.7,925.8L1836.6,1002.8L1763.5,1034.1L1735.7,955.2L1807.7,925.8ZM1851.7,1010.6L1812.7,906.4L1722.1,946.9L1758.3,1053.5L1851.7,1010.6Z" style="fill:rgb(71,155,219);fill-rule:nonzero;"/>
                        <path d="M1839.3,988.9L1784.3,983.1L1805.3,953.8L1793.6,935.7L1757,981.1L1762.4,1002.9L1834.5,1014.6C1836.6,1006.2 1838.3,997.6 1839.3,988.9Z" style="fill:rgb(32,133,61);fill-rule:nonzero;"/>
                    </g>
                </g>
                <g>
                    <path d="M1938.5,1244.4L1871.4,1045.3L1857.4,1052.2L1924.8,1248.9C1929.4,1247.6 1933.9,1246 1938.5,1244.4Z" style="fill:rgb(216,216,216);fill-rule:nonzero;"/>
                    <path d="M1935.8,1281.1L1951.3,1326.3C1955.4,1324 1959.6,1322 1963.9,1320.1L1948.9,1275.5C1944.6,1277.3 1940.2,1279.2 1935.8,1281.1Z" style="fill:rgb(216,216,216);fill-rule:nonzero;"/>
                    <path d="M1860.2,1159L1828.6,1064.8L1814.7,1071.6L1845.9,1163.3C1850.7,1161.8 1855.5,1160.5 1860.2,1159Z" style="fill:rgb(216,216,216);fill-rule:nonzero;"/>
                    <path d="M1870.9,1191.7C1866.3,1193.2 1861.6,1194.6 1857,1196L1901.5,1326.3C1905.8,1324.4 1910.1,1322.7 1914.5,1321L1870.9,1191.7Z" style="fill:rgb(216,216,216);fill-rule:nonzero;"/>
                    <path d="M1847.3,1268.8L1785.9,1084.2L1772.1,1090.9L1833.8,1273.5C1838.3,1271.8 1842.8,1270.3 1847.3,1268.8Z" style="fill:rgb(216,216,216);fill-rule:nonzero;"/>
                </g>
            </g>
            <g>
                <path d="M1643.7,927.8L1645.6,927C1656.3,922.6 1853,842.1 1867.1,839C1869.6,838.4 1872.1,839.7 1880.4,860.4C1885.4,872.9 1892.2,891.4 1900.3,915.5C1914.1,955.9 1932.2,1012.5 1954.3,1083.7C1991.9,1204.8 2028.2,1328 2028.5,1329.2L2029.1,1331.1L1811,1416.1L1810.3,1413.9L1643.7,927.8ZM1867.4,843.4C1848.8,848.6 1672.6,920.5 1649.2,930.2L1813.7,1410.2L2023.9,1328.4C2019.2,1312.6 1986.4,1201.6 1952,1090.6C1930.3,1020.6 1912.3,964.3 1898.5,923.3C1876.3,858.1 1869.5,845.5 1867.4,843.4Z" style="fill:rgb(216,216,216);fill-rule:nonzero;"/>
            </g>
        </g>
        <g transform="matrix(0.564111,0,0,0.564111,648.475,423.744)">
            <path d="M1852.1,1376.5C1852.1,1376.5 1859.2,1367.3 1857.5,1365.7C1855.8,1364.1 1853.3,1369.3 1852.5,1367.9C1851.7,1366.5 1855.6,1356.7 1853.2,1355.1C1851.1,1353.8 1849.8,1364.6 1849.2,1364.2C1848.6,1363.8 1847.2,1354.5 1845.7,1353.9C1844.2,1353.3 1843.6,1356.7 1845.6,1362.6C1845.6,1362.6 1846.4,1365.1 1845.9,1365C1845.5,1364.9 1841.6,1357.1 1840.5,1357.7C1839.4,1358.4 1840.3,1360.5 1843.4,1366.5C1843.4,1366.5 1844.1,1367.6 1843.5,1367.2C1842.9,1366.8 1838.3,1360.9 1838,1363.7C1837.8,1366.5 1847.7,1378.9 1847.7,1378.9L1852.1,1376.5Z" style="fill:rgb(242,116,97);fill-rule:nonzero;"/>
        </g>
        <g transform="matrix(0.564111,0,0,0.564111,648.475,423.744)">
            <g>
                <path d="M1932.4,1776.7L1935.6,1793.1L1939.2,1791.5L1936.9,1775.4L1932.4,1776.7Z" style="fill:rgb(242,116,97);fill-rule:nonzero;"/>
            </g>
            <g>
                <path d="M1927.6,1800.7C1927.6,1800.7 1919.7,1799 1917.5,1804C1914.9,1809.9 1921.9,1811.1 1926.1,1810.8C1930.3,1810.5 1933.5,1809.9 1937.7,1802.2C1942,1794.4 1943.8,1788.5 1938.9,1788.5C1934,1788.5 1927.6,1800.7 1927.6,1800.7Z" style="fill:rgb(88,44,95);fill-rule:nonzero;"/>
            </g>
            <g>
                <path d="M1939,1788.5C1934.2,1788.5 1927.6,1800.7 1927.6,1800.7L1927.5,1800.7C1926.7,1802.3 1925.7,1804.2 1925.6,1805.4C1925.3,1807.6 1916.8,1807.2 1918.4,1802.6C1918,1803 1917.7,1803.5 1917.5,1804C1914.9,1809.9 1921.9,1811.1 1926.1,1810.8C1930.3,1810.5 1933.5,1809.9 1937.7,1802.2C1942,1794.4 1943.9,1788.5 1939,1788.5Z" style="fill:rgb(74,28,83);fill-rule:nonzero;"/>
            </g>
        </g>
        <g transform="matrix(0.564111,0,0,0.564111,648.475,423.744)">
            <g>
                <path d="M1979.5,1776.7L1982.7,1793.1L1986.3,1791.5L1984,1775.4L1979.5,1776.7Z" style="fill:rgb(229,88,87);fill-rule:nonzero;"/>
            </g>
            <g>
                <path d="M1974.7,1800.7C1974.7,1800.7 1966.8,1799 1964.6,1804C1962,1809.9 1969,1811.1 1973.2,1810.8C1977.4,1810.5 1980.6,1809.9 1984.8,1802.2C1989.1,1794.4 1990.9,1788.5 1986,1788.5C1981.1,1788.5 1974.7,1800.7 1974.7,1800.7Z" style="fill:rgb(88,44,95);fill-rule:nonzero;"/>
            </g>
            <g>
                <path d="M1986.1,1788.5C1981.3,1788.5 1974.7,1800.7 1974.7,1800.7L1974.6,1800.7C1973.8,1802.3 1972.8,1804.2 1972.7,1805.4C1972.4,1807.6 1963.9,1807.2 1965.5,1802.6C1965.1,1803 1964.8,1803.5 1964.6,1804C1962,1809.9 1969,1811.1 1973.2,1810.8C1977.4,1810.5 1980.6,1809.9 1984.8,1802.2C1989.1,1794.4 1990.9,1788.5 1986.1,1788.5Z" style="fill:rgb(74,28,83);fill-rule:nonzero;"/>
            </g>
        </g>
        <g transform="matrix(0.564111,0,0,0.564111,648.475,423.744)">
            <g>
                <path d="M1991.7,1563.3L1932.7,1558.5C1932.7,1558.5 1904.7,1660 1907.2,1673.3C1909.8,1686.5 1931.4,1780.7 1931.4,1780.7L1939.8,1779.4C1939.8,1779.4 1924.2,1675.1 1925.8,1669.3C1926.7,1666.2 1941.6,1635.8 1955.2,1608.3C1957.2,1632.5 1959.4,1659 1959.8,1666.5C1960.8,1681.3 1978.5,1779.7 1978.5,1779.7L1986.2,1779.7C1986.2,1779.7 1980.1,1683 1979.1,1676.9C1978.2,1670.6 1991.7,1563.3 1991.7,1563.3Z" style="fill:rgb(86,47,94);fill-rule:nonzero;"/>
            </g>
            <g>
                <g>
                    <path d="M1959.2,1599.8L1959.3,1599.8L1959.2,1599.8Z" style="fill:rgb(66,152,221);fill-rule:nonzero;"/>
                </g>
            </g>
            <g>
                <path d="M1932.7,1558.4C1932.7,1558.4 1913.9,1626.4 1908.5,1658.4C1912.8,1640.9 1927.4,1591.5 1939.8,1579.4C1956.9,1562.6 1990.7,1579.7 1974.6,1592C1973.7,1592.7 1961.7,1596.5 1961.7,1596.5L1955.2,1608.6C1957.2,1632.7 1959.3,1658.9 1959.8,1666.4C1960.8,1681.2 1978.5,1780.5 1978.5,1780.5L1986.2,1779.5C1986.2,1779.5 1980.1,1682.8 1979.1,1676.7C1978.1,1670.6 1991.7,1563.2 1991.7,1563.2L1932.7,1558.4Z" style="fill:rgb(72,31,82);fill-rule:nonzero;"/>
            </g>
            <g>
                <g>
                    <path d="M1975.6,1591.5C1975.4,1591.1 1975,1590.9 1974.6,1591L1961.1,1595.9L1961,1596.2C1932.9,1651.7 1924.5,1671.7 1924.4,1671.8L1924.3,1672L1938.4,1779.1C1938.4,1779.2 1938.4,1779.3 1938.5,1779.4C1939,1779.3 1939.5,1779.3 1940,1779.2L1940,1778.9L1926,1672.2C1926.9,1670 1935.9,1649.4 1962.3,1597.1L1975.2,1592.4C1975.5,1592.4 1975.7,1591.9 1975.6,1591.5Z" style="fill:rgb(55,20,67);fill-rule:nonzero;"/>
                </g>
            </g>
        </g>
        <g transform="matrix(0.564111,0,0,0.564111,648.475,423.744)">
            <path d="M1994,1412.4L1975,1446.6L1961.8,1440.5L1969.4,1425.3C1969.4,1425.3 1962,1424.8 1958.6,1419.2C1955.6,1414.2 1967,1397.9 1967,1397.9L1994,1412.4Z" style="fill:rgb(242,116,97);fill-rule:nonzero;"/>
        </g>
        <g transform="matrix(0.564111,0,0,0.564111,648.475,423.744)">
            <path d="M2009.8,1490.7C2009.7,1491.7 2005,1532.6 1999.5,1561.6C1999.5,1561.6 1967.3,1582.9 1923.7,1557.4L1911.1,1495.8C1911.1,1495.8 1876.9,1482.1 1859.8,1442C1841.4,1398.8 1846.6,1377.8 1846.6,1377.8C1846.6,1377.8 1848.9,1375.5 1853,1376.5C1853,1376.5 1867.5,1403.9 1876.7,1418.2C1876.7,1418.2 1880.4,1422.9 1896.2,1431.6C1913.1,1440.9 1926.8,1441.8 1944.2,1439.3C1956,1437.6 1969.2,1436.6 1978.2,1438.9C1998.3,1444.1 2012.9,1459.6 2009.8,1490.7Z" style="fill:rgb(71,155,219);fill-rule:nonzero;"/>
        </g>
        <g transform="matrix(0.564111,0,0,0.564111,648.475,423.744)">
            <path d="M1978.4,1439C1976.7,1438.6 1974.9,1438.3 1972.9,1438C1978.9,1442.2 1991.1,1453.9 1992.5,1478.9C1994.4,1512.1 1979.6,1531.1 1951.9,1531.8C1929.3,1532.3 1918,1517.3 1913.6,1507.8L1923.7,1557.5C1967.2,1583 1999.5,1561.7 1999.5,1561.7C2005,1532.7 2009.7,1491.7 2009.8,1490.8C2012.9,1459.6 1998.3,1444.1 1978.4,1439Z" style="fill:rgb(47,138,194);fill-rule:nonzero;"/>
        </g>
        <g transform="matrix(0.564111,0,0,0.564111,648.475,423.744)">
            <path d="M1955.5,1438.1C1960.7,1440.2 1974.5,1445 1984.3,1440.9C1982.4,1440.2 1980.6,1439.3 1978.6,1438.8C1972.3,1437.2 1963.9,1437.4 1955.5,1438.1Z" style="fill:rgb(242,116,97);fill-rule:nonzero;"/>
        </g>
        <g transform="matrix(0.564111,0,0,0.564111,648.475,423.744)">
            <path d="M1970.2,1400.7C1970.2,1400.7 1958.7,1402.3 1960.8,1388.1C1962.9,1374 1993,1376.8 2002.2,1392.6C2011.4,1408.3 2015.8,1410.7 2034.2,1412.2C2052.5,1413.8 2054.6,1440.5 2049.4,1450.5C2044.2,1460.5 2036.6,1456.8 2030.3,1469.6C2024,1482.4 2011.4,1488.5 1997.3,1479C1983.2,1469.6 1983.9,1457 1984.2,1447.8C1984.5,1438.6 1985,1438.6 1981.8,1431.8C1978.6,1425 1977.1,1423.7 1978.7,1418.4C1978.7,1418.4 1982.9,1421.8 1984.2,1417.6C1985.5,1413.4 1985.2,1408.2 1979.5,1410.8C1979.3,1410.9 1973.3,1408.6 1970.2,1400.7Z" style="fill:rgb(255,176,2);fill-rule:nonzero;"/>
        </g>
        <g transform="matrix(0.564111,0,0,0.564111,648.475,423.744)">
            <path d="M2005.7,1445.1C1986.7,1434.1 1999.5,1405.7 1999.5,1405.7C1999.5,1405.7 1982.7,1406.2 1975.7,1391.3C1971,1381.4 1976,1379.5 1979.9,1379.3C1970.5,1378 1961.9,1380.8 1960.8,1388.1C1958.7,1402.2 1970.2,1400.7 1970.2,1400.7C1973.3,1408.6 1979.4,1410.9 1979.4,1410.9C1985.2,1408.3 1985.4,1413.5 1984.1,1417.7C1982.8,1421.9 1978.6,1418.5 1978.6,1418.5C1977,1423.7 1978.6,1425.1 1981.7,1431.9C1984.8,1438.7 1984.3,1438.7 1984.1,1447.9C1983.8,1457.1 1983.1,1469.6 1997.2,1479.1C2011.3,1488.5 2023.9,1482.5 2030.2,1469.7C2036.5,1456.9 2044.1,1460.5 2049.3,1450.6C2052.4,1444.8 2052.9,1433.2 2049.2,1424.3C2053.6,1443 2025.6,1456.6 2005.7,1445.1Z" style="fill:rgb(239,149,0);fill-rule:nonzero;"/>
        </g>
        <g transform="matrix(0.564111,0,0,0.564111,648.475,423.744)">
            <path d="M1924.8,1500.7C1925.2,1500.7 1925.6,1500.4 1925.6,1499.9C1925.6,1499.5 1925.3,1499.1 1924.8,1499C1919.2,1498.7 1911.1,1495.8 1911.1,1495.8L1911.5,1497.7C1915,1499.1 1919.6,1500.4 1924.8,1500.7Z" style="fill:rgb(8,93,119);fill-rule:nonzero;"/>
        </g>
        <g transform="matrix(0.564111,0,0,0.564111,648.475,423.744)">
            <path d="M1945.2,1555.8C1932.2,1553 1923.5,1548.5 1921.7,1547.5L1922.1,1549.5C1925.4,1551.1 1933.5,1554.9 1944.8,1557.3C1950.8,1558.6 1958.3,1559.6 1966.7,1559.6C1976.9,1559.6 1988.6,1558.1 2000.9,1553.6C2001,1553 2001.1,1552.4 2001.2,1551.8C1978.8,1560.3 1958.4,1558.7 1945.2,1555.8Z" style="fill:rgb(8,93,119);fill-rule:nonzero;"/>
        </g>
        <g transform="matrix(0.564111,0,0,0.564111,648.475,423.744)">
            <path d="M1976.9,1423.7C1973.9,1424.6 1971.4,1425.1 1969.3,1425.3L1965.7,1432.5C1976,1430.7 1976.9,1423.7 1976.9,1423.7Z" style="fill:rgb(229,88,87);fill-rule:nonzero;"/>
        </g>
    </g>
</svg>
