<?xml version="1.0" encoding="UTF-8" standalone="no"?>
<!DOCTYPE svg PUBLIC "-//W3C//DTD SVG 1.1//EN" "http://www.w3.org/Graphics/SVG/1.1/DTD/svg11.dtd">
<svg width="100%" height="100%" viewBox="0 0 1500 1000" version="1.1" xmlns="http://www.w3.org/2000/svg" xmlns:xlink="http://www.w3.org/1999/xlink" xml:space="preserve" xmlns:serif="http://www.serif.com/" style="fill-rule:evenodd;clip-rule:evenodd;stroke-linejoin:round;stroke-miterlimit:2;">
    <g transform="matrix(0.837206,0,0,0.837206,-1255.4,-1183.57)">
        <g transform="matrix(1.14731,0,0,1,-352.623,0)">
            <path d="M2966.8,2576.8L2485.8,2575.7L2101.5,2574.8L1900,2574.3C1900,2574.3 1755.3,2514.6 1759.9,2374.9C1761.6,2321.9 1782.2,2287.1 1807.1,2264.3C1847.8,2227.1 1899.9,2222.1 1899.9,2222.1C1899.9,2222.1 1889.1,2205.4 1879.3,2181C1858.8,2129.9 1842.9,2044.9 1940,2007.8C1940,2007.8 1872.8,1936.8 1950.7,1890.8C1950.7,1890.8 1902.8,1798.6 1927.3,1701.8C1937,1663.6 1957.9,1624.6 1997.5,1590.4C2004.3,1584.5 2011.6,1578.8 2019.5,1573.2C2190.6,1452.6 2314.3,1616 2314.3,1616C2314.3,1616 2349.4,1546.1 2398.3,1597C2398.3,1597 2410.5,1429.7 2557.1,1444.5C2703.7,1459.3 2686.4,1632.6 2686.4,1632.6C2686.4,1632.6 2809.1,1546.7 2795.4,1711.3C2795.4,1711.3 2923.7,1713.5 2939,1871C2954.3,2028.5 2856.5,2066.3 2856.5,2066.3C2856.5,2066.3 2960.4,2081.3 2882.5,2175.5C2882.5,2175.5 3023,2187.7 3027.6,2368.1C3032.3,2548.6 2966.8,2576.8 2966.8,2576.8Z" style="fill:rgb(200,194,237);fill-rule:nonzero;"/>
        </g>
        <g transform="matrix(1,0,0,1,31.3463,74.9559)">
            <path d="M2809.9,1941.8L2782.6,1798.4C2790.2,1790.6 2797.6,1773.8 2797.6,1760C2797.6,1736.3 2783.2,1717.2 2765.5,1717.2C2747.8,1717.2 2733.4,1736.4 2733.4,1760C2733.4,1776.7 2740.6,1791.2 2751.1,1798.3L2721.4,1941.8L2809.9,1941.8Z" style="fill:rgb(255,221,133);fill-rule:nonzero;"/>
            <path d="M2751.8,1760C2751.8,1740.6 2761.5,1724.2 2774.7,1718.9C2771.8,1717.8 2768.7,1717.1 2765.6,1717.1C2747.9,1717.1 2733.5,1736.3 2733.5,1759.9C2733.5,1776.6 2740.7,1791.1 2751.2,1798.2L2721.5,1941.7L2739.8,1941.7L2769.5,1798.2C2759,1791.3 2751.8,1776.8 2751.8,1760Z" style="fill:rgb(255,164,47);fill-rule:nonzero;"/>
        </g>
        <g transform="matrix(1,0,0,1,31.3463,73.7614)">
            <path d="M2638.8,2102.9L2638.8,2205.5L2416.6,2205.5L2416.6,2298.6L2210.2,2298.6L2210.2,2389.7L1988,2389.7L1988,2501.84L2861,2501.84L2861,2102.9L2638.8,2102.9Z" style="fill:rgb(63,50,122);fill-rule:nonzero;"/>
        </g>
        <g transform="matrix(1,0,0,1,31.3463,74.9559)">
            <path d="M2080.3,1820.2L2051.6,1831.5L2051.5,1834.3C2058.9,1837 2066.8,1838.5 2074.8,1838.8C2075.2,1829.7 2080.3,1820.2 2080.3,1820.2Z" style="fill:rgb(237,126,148);fill-rule:nonzero;"/>
            <path d="M2066.4,1822.6C2060.6,1806.3 2081.6,1800.4 2093.2,1790.6L2089.4,1781.9L2038,1800.6L2051.5,1831.5C2058.6,1833.2 2068.3,1832.5 2076.9,1831.1C2072.2,1830.1 2068.2,1827.7 2066.4,1822.6Z" style="fill:rgb(237,126,148);fill-rule:nonzero;"/>
            <path d="M2094.9,1811.1L2100.3,1807.2L2093.2,1790.6C2081.6,1800.4 2060.6,1806.4 2066.4,1822.6C2068.2,1827.7 2072.2,1830.1 2077,1831.2C2087.8,1829.5 2096.9,1826.8 2096.9,1826.8L2094.9,1811.1Z" style="fill:rgb(255,150,169);fill-rule:nonzero;"/>
            <path d="M2059.8,1805.8C2059.8,1805.8 2094.6,1795.3 2116,1761.8C2116,1761.8 2053.3,1776.6 2024.5,1805.8C2024.5,1805.8 2030.2,1822.8 2051.5,1831.5L2051.5,1809.7C2051.5,1809.7 2043.2,1803.6 2048.9,1801C2054.6,1798.4 2059.8,1805.8 2059.8,1805.8Z" style="fill:rgb(50,38,102);fill-rule:nonzero;"/>
            <path d="M2061.2,1936.3C2049.7,1927.3 2036.7,1921 2022.7,1919.7L2021.5,1922.6C2021.5,1922.6 2080.3,1971.4 2082,2006.7C2082,2006.7 2115.8,2028.5 2151.6,2003.5C2139.1,2000.9 2126.9,1996.3 2115.3,1988.7C2093.8,1973.5 2082.1,1952 2061.2,1936.3Z" style="fill:rgb(246,222,248);fill-rule:nonzero;"/>
            <path d="M2116,1855.1L2075.5,1846L2050.7,1849.5L2022.7,1919.8C2036.7,1921.1 2049.7,1927.4 2061.2,1936.4C2082.1,1952.1 2093.9,1973.6 2115.4,1988.7C2127,1996.3 2139.1,2001 2151.7,2003.5C2152,2003.3 2152.3,2003.1 2152.7,2002.8C2152.6,2002.7 2136.1,1890.3 2116,1855.1Z" style="fill:white;fill-rule:nonzero;"/>
            <path d="M2144.1,2194.4C2113.2,2137.8 2106.2,2072.8 2105.1,2008.9C2096,2014.8 2088.8,2024.8 2087.1,2041.6C2081.6,2094.5 2122,2193.2 2122,2193.2C2061.2,2259.5 2055.4,2383.6 2055.4,2383.6L2058.4,2379.2C2062.2,2355.6 2069.5,2332.7 2080.2,2311.4C2100.4,2270.8 2117.3,2229.6 2144.1,2194.4Z" style="fill:rgb(50,38,102);fill-rule:nonzero;"/>
            <path d="M2152.6,2002.7C2152.6,2002.7 2124.6,1996.1 2105.1,2008.8C2106.2,2072.8 2113.2,2137.7 2144.1,2194.3C2117.3,2229.6 2100.3,2270.7 2080.1,2311.2C2069.4,2332.5 2062.1,2355.5 2058.3,2379L2178.8,2201.1C2181.8,2148.4 2152.6,2002.7 2152.6,2002.7Z" style="fill:rgb(63,50,122);fill-rule:nonzero;"/>
            <path d="M2268.9,2110.1C2268.9,2101.6 2270.9,2092.5 2272.8,2084C2223.8,2084.7 2173.5,2088.6 2129.7,2061.1C2109.2,2048.1 2094.4,2030.5 2078.4,2013.9C2074.9,2022.2 2070.6,2036.2 2074.8,2049.3C2081.3,2069.6 2137.5,2102.9 2247.3,2102.9C2247.3,2102.9 2238.6,2174.7 2274.4,2259.8C2267.5,2210.4 2266.3,2160 2268.9,2110.1Z" style="fill:rgb(50,38,102);fill-rule:nonzero;"/>
            <path d="M2308.2,2050.4C2308.2,2050.4 2151.1,2010.5 2082.1,2006.7C2082.1,2006.7 2080.4,2009.5 2078.5,2013.9C2094.5,2030.5 2109.3,2048.1 2129.8,2061.1C2173.6,2088.5 2223.9,2084.6 2272.9,2084C2270.9,2092.5 2269,2101.6 2269,2110.1C2266.4,2160 2267.6,2210.4 2274.6,2259.8C2276.5,2264.4 2278.6,2269.1 2280.8,2273.8C2280.7,2273.8 2314.2,2105.9 2308.2,2050.4Z" style="fill:rgb(63,50,122);fill-rule:nonzero;"/>
            <path d="M1999.5,1898.2C2000.5,1908.8 2002.9,1929.9 2007.4,1952.1C2009.6,1951.4 2011.9,1950.9 2014.2,1950.4C2008.5,1933.2 2003.4,1915.9 1999.5,1898.2Z" style="fill:rgb(246,222,248);fill-rule:nonzero;"/>
            <path d="M2116,1855.1L2075.5,1846L2050.7,1849.5C2050.7,1849.5 2027.6,1860 1998.9,1891.3C1998.9,1891.3 1999.1,1893.9 1999.5,1898.3C2003.5,1915.9 2008.6,1933.3 2014.3,1950.5C2024.8,1948.3 2035.7,1948.2 2045.3,1951.9L2038.1,1916.6L2113.9,1888.3L2194,1941L2208.8,1914.9L2116,1855.1Z" style="fill:white;fill-rule:nonzero;"/>
            <path d="M2138.7,2024.5C2138.7,2024.5 2130.9,1921.7 2085,1872.9C2093.8,1887.5 2098.1,1903.6 2100.3,1920.6C2106.7,1970.3 2108.4,2019 2100.3,2067.2L2138.7,2024.5Z" style="fill:rgb(229,100,154);fill-rule:nonzero;"/>
            <path d="M2100.4,1920.6C2098.1,1903.6 2093.9,1887.5 2085.1,1872.9C2084.9,1872.7 2084.8,1872.5 2084.6,1872.3C2084.6,1872.3 2107.7,1971.4 2064.2,2032.1L2100.4,2067.1C2108.5,2019.1 2106.8,1970.4 2100.4,1920.6Z" style="fill:rgb(219,74,135);fill-rule:nonzero;"/>
            <path d="M2057.4,2361.6L2025.9,2389.7L2163.7,2389.7L2057.4,2361.6Z" style="fill:rgb(50,38,102);fill-rule:nonzero;"/>
            <path d="M2112.5,1872.7C2112.5,1872.7 2132.8,1892.7 2138,1906.5C2143.2,1920.2 2160.2,1906.5 2160.2,1906.5C2160.2,1906.5 2125.3,1875.8 2112.5,1872.7Z" style="fill:rgb(246,222,248);fill-rule:nonzero;"/>
            <path d="M2273.3,2256.9L2255.2,2289.1L2378.7,2249.2L2273.3,2256.9Z" style="fill:rgb(50,38,102);fill-rule:nonzero;"/>
            <g>
                <path d="M2189.4,1875.9L2189.4,1723.4L2238.9,1723.4L2238.9,1693L2218.4,1693L2218.4,1663.5L2238.9,1663.5L2238.9,1644.7L2189.4,1644.7L2189.4,1629.3L2150.1,1629.3L2150.1,1875.9C2113.9,1884.7 2087.1,1917.3 2087.1,1956.2C2087.1,2001.8 2124.1,2038.8 2169.7,2038.8C2215.3,2038.8 2252.3,2001.8 2252.3,1956.2C2252.4,1917.3 2225.5,1884.7 2189.4,1875.9ZM2169.7,2015.8C2160.4,2015.8 2152.8,2008.2 2152.8,1998.9C2152.8,1989.6 2160.4,1982 2169.7,1982C2179,1982 2186.6,1989.6 2186.6,1998.9C2186.6,2008.2 2179,2015.8 2169.7,2015.8Z" style="fill:rgb(255,221,133);fill-rule:nonzero;"/>
            </g>
            <g>
                <g>
                    <path d="M2167.9,2015.7C2169.3,2016.1 2171.1,2015.8 2172.5,2015.8C2181.8,2015.8 2189.4,2008.2 2189.4,1998.9C2189.4,1989.6 2181.8,1982 2172.5,1982C2171,1982 2169.4,1981.7 2168.1,1982.1C2175.4,1984 2180.9,1991 2180.9,1998.9C2180.9,2006.8 2175.1,2013.8 2167.9,2015.7Z" style="fill:rgb(255,204,70);fill-rule:nonzero;"/>
                </g>
                <g>
                    <path d="M2089.9,1956.2C2089.9,1917.3 2116.7,1884.7 2152.9,1875.9L2152.9,1629.3L2144.4,1629.3L2144.4,1875.9C2108.2,1884.7 2081.4,1917.3 2081.4,1956.2C2081.4,2001.8 2118.4,2038.8 2164,2038.8C2165.4,2038.8 2166.8,2038.8 2168.2,2038.7C2124.6,2036.6 2089.9,2000.4 2089.9,1956.2Z" style="fill:rgb(255,204,70);fill-rule:nonzero;"/>
                </g>
            </g>
            <path d="M2238.9,1934.3C2233,1940.8 2220.6,1952.6 2217.3,1946.1C2215.6,1942.8 2215.2,1939.1 2215.9,1935.3C2210.8,1946.8 2208.7,1958 2211.4,1960C2217.5,1964.4 2235.4,1941.3 2235.4,1941.3C2235.4,1941.3 2226.8,1967.6 2246.4,1965.7C2238.3,1958.7 2236.1,1945 2238.9,1934.3Z" style="fill:rgb(237,126,148);fill-rule:nonzero;"/>
            <path d="M2243.2,1908.2C2232.1,1907.7 2221.9,1921.7 2215.9,1935.3C2215.2,1939.1 2215.6,1942.8 2217.3,1946.1C2220.6,1952.6 2233,1940.9 2238.9,1934.3C2236.1,1945 2238.3,1958.7 2246.4,1965.7L2246.7,1965.7C2266.7,1963.5 2263.7,1909.1 2243.2,1908.2Z" style="fill:rgb(255,150,169);fill-rule:nonzero;"/>
            <path d="M2051.4,1834.3L2050.7,1849.4L2077.5,1861.6L2075.5,1845.9C2074.8,1843.7 2074.6,1841.3 2074.7,1838.8C2066.7,1838.5 2058.9,1837.1 2051.4,1834.3Z" style="fill:rgb(255,150,169);fill-rule:nonzero;"/>
            <path d="M2152.6,2051.9C2170.4,2047.1 2189,2043.6 2206.7,2045.4C2205.3,2041.3 2186.3,2033.2 2162.6,2035.6C2162.6,2035.6 2137.8,2024.1 2139.1,2016.7C2140.4,2009.3 2147.4,1980.5 2131.3,1982.7L2128.3,2000.6C2128.3,2000.6 2115.7,2006.3 2116.1,2013.7L2111.6,2011.3C2108.7,2017.8 2108.7,2025 2110.1,2032.2C2114.6,2033.2 2119.2,2033.9 2123.9,2034.4C2127.1,2046.7 2140.2,2054.5 2152.6,2051.9Z" style="fill:rgb(255,150,169);fill-rule:nonzero;"/>
            <path d="M2152.6,2051.9C2140.2,2054.5 2127.1,2046.7 2123.9,2034.3C2119.3,2033.9 2114.7,2033.1 2110.1,2032.1C2110.7,2035.1 2111.5,2038.1 2112.5,2041.1C2113.7,2041.4 2114.9,2041.6 2116,2041.8C2116,2041.8 2126,2054.4 2140.8,2056.6C2155.6,2058.8 2178.7,2045.7 2199.2,2047.5C2205,2048 2207.2,2047 2206.7,2045.3C2189,2043.6 2170.4,2047.1 2152.6,2051.9Z" style="fill:rgb(237,126,148);fill-rule:nonzero;"/>
            <path d="M2100.3,2037.7C2104.7,2039.1 2108.8,2040.3 2112.5,2041.1C2111.5,2038.1 2110.7,2035.1 2110.1,2032.1C2106.1,2031.2 2102.1,2030.2 2098.2,2029C2098.7,2032 2099.4,2034.9 2100.3,2037.7Z" style="fill:rgb(236,194,240);fill-rule:nonzero;"/>
            <path d="M2111.6,2011.2L2101.5,2005.8C2097.8,2012.9 2097,2020.9 2098.2,2029C2102.1,2030.2 2106.1,2031.2 2110.1,2032.1C2108.7,2024.9 2108.7,2017.8 2111.6,2011.2Z" style="fill:rgb(246,222,248);fill-rule:nonzero;"/>
            <path d="M2046.7,1857.6L2082,1884.6L2079,1864.4L2098.2,1876.4L2081.1,1848L2091.3,1869.4L2077.5,1861.6L2077.5,1876.2L2046.7,1857.6Z" style="fill:rgb(246,222,248);fill-rule:nonzero;"/>
            <path d="M2079,1864.4L2080.5,1874.5L2090,1880.2L2088.8,1870.6L2079,1864.4Z" style="fill:rgb(229,100,154);fill-rule:nonzero;"/>
            <path d="M2100.3,2037.7C2099.4,2034.8 2098.7,2031.9 2098.3,2029C2074.3,2021.6 2051.8,2008.3 2030.5,1995.7C2024.9,1980.8 2019.3,1965.6 2014.3,1950.3C2012,1950.8 2009.7,1951.3 2007.5,1952C2011.5,1971.1 2017.1,1991 2024.9,2005.7C2024.8,2005.8 2069.1,2027.7 2100.3,2037.7Z" style="fill:rgb(246,222,248);fill-rule:nonzero;"/>
            <path d="M2014.2,1950.4C2019.3,1965.7 2024.8,1980.8 2030.4,1995.8C2051.7,2008.4 2074.2,2021.7 2098.2,2029.1C2097,2021.1 2097.8,2013 2101.5,2005.9L2050.7,1978.8L2045.2,1951.8C2035.6,1948.1 2024.7,1948.2 2014.2,1950.4Z" style="fill:white;fill-rule:nonzero;"/>
            <circle cx="2106" cy="2035.6" r="2.1" style="fill:rgb(254,242,254);"/>
            <path d="M2238.9,1656.2L2189.2,1663.4L2238.9,1663.5L2238.9,1656.2Z" style="fill:rgb(255,204,70);fill-rule:nonzero;"/>
            <path d="M2218.4,1686.1L2218.4,1693L2192.3,1693L2218.4,1686.1Z" style="fill:rgb(255,204,70);fill-rule:nonzero;"/>
        </g>
        <g transform="matrix(1.3275,0,0,1,-833.861,0)">
            <path d="M3028.5,2578.3L1836.6,2578.3C1835.3,2578.3 1834.2,2577.2 1834.2,2575.8C1834.2,2574.4 1835.3,2573.3 1836.6,2573.3L3028.5,2573.3C3029.8,2573.3 3030.9,2574.4 3030.9,2575.8C3030.9,2577.2 3029.9,2578.3 3028.5,2578.3Z" style="fill:rgb(200,194,237);fill-rule:nonzero;"/>
        </g>
        <g transform="matrix(1,0,0,1,31.3463,74.9559)">
            <path d="M2809.9,1941.8L1770.85,2103.09C1742.95,2038.3 1741.44,1966.31 1841.65,1932.88C1841.65,1932.88 1764.75,1861.85 1853.95,1815.85C1853.95,1815.85 1799.28,1730.76 1827.07,1626.55C1835.82,1593.7 1862.43,1550.98 1901.31,1520.93L2765.5,1717.2C2765.5,1717.2 2786,1715.4 2795.6,1745.2C2805.2,1775 2782.6,1798.4 2782.6,1798.4L2809.9,1941.8Z" style="fill:url(#_Linear1);fill-rule:nonzero;"/>
        </g>
    </g>
    <defs>
        <linearGradient id="_Linear1" x1="0" y1="0" x2="1" y2="0" gradientUnits="userSpaceOnUse" gradientTransform="matrix(945.924,0,0,945.924,1863.99,1885.7)"><stop offset="0" style="stop-color:white;stop-opacity:0.44"/><stop offset="1" style="stop-color:white;stop-opacity:0.44"/></linearGradient>
    </defs>
</svg>
