<?xml version="1.0" encoding="utf-8"?>
<!-- Generator: Adobe Illustrator 19.0.0, SVG Export Plug-In . SVG Version: 6.00 Build 0)  -->
<svg version="1.1" id="_x3C_Layer_x3E_" xmlns="http://www.w3.org/2000/svg" xmlns:xlink="http://www.w3.org/1999/xlink" x="0px"
	 y="0px" viewBox="0 0 3000 2000" style="enable-background:new 0 0 3000 2000;" xml:space="preserve">
<style type="text/css">
	.st0{fill:#D6E6ED;}
	.st1{fill:#B4CED6;}
	.st2{fill:#CC234B;}
	.st3{fill:#AF0B3A;}
	.st4{fill:#8C0331;}
	.st5{fill:#D6295B;}
	.st6{fill:#70032D;}
	.st7{fill:#FFFFFF;}
	.st8{fill:#D8D8D8;}
	.st9{fill:#085D77;}
	.st10{fill:#479BDB;}
	.st11{fill:#333333;}
	.st12{fill:#ED9300;}
	.st13{fill:#2F8AC2;}
	.st14{fill:#D37301;}
	.st15{fill:#F27461;}
	.st16{fill:#1A1A1A;}
	.st17{fill:#E55857;}
	.st18{fill:#562F5E;}
	.st19{fill:#481F52;}
	.st20{fill:#371443;}
	.st21{fill:#F0BD78;}
	.st22{fill:#E9AD68;}
	.st23{fill:#CF873F;}
	.st24{fill:#EFEFEF;}
	.st25{fill:#BABABA;}
	.st26{fill:#D6D6D6;}
	.st27{fill:#F7F7F7;}
	.st28{fill:#20853D;}
	.st29{fill:#E85653;}
	.st30{fill:#F5735D;}
	.st31{fill:#4298DD;}
	.st32{fill:#2787C3;}
	.st33{fill:#0078AA;}
	.st34{fill:#582C5F;}
	.st35{fill:#4A1C53;}
	.st36{fill:#381144;}
	.st37{fill:#FFB002;}
	.st38{fill:#EF9500;}
	.st39{fill:#CC2276;}
	.st40{fill:#B5106B;}
	.st41{fill:#4E1355;}
	.st42{fill:#5C2661;}
	.st43{fill:#3C0746;}
	.st44{fill:#D70076;}
	.st45{fill:#BE006B;}
	.st46{fill:#87004F;}
	.st47{fill:#005C78;}
	.st48{fill:#FFB000;}
	.st49{fill:#F59500;}
	.st50{fill:#1279A9;}
	.st51{fill:#80034F;}
	.st52{fill:#81034F;}
	.st53{fill:#5A2960;}
</style>
<g>
	<path style="fill:#D6E6ED;" d="M2473.9,340.4c0,0-318.3,11.8-332.1-3c-13.8-14.8-17.7-55.2,59.1-48.3c0,0-70-90.6,37.4-107.4
		c107.4-16.8,94.6,68,94.6,68s106.4-60.1,77.8,37.4c0,0,26.6-19.7,34.5,14.8C2445.3,302,2610.9,333.5,2473.9,340.4z"/>
</g>
<g>
	<path style="fill:#D6E6ED;" d="M822.8,595.2c0,0,105.6-1,90.5-27.2C898.2,541.9,796.6,550,796.6,550s7-42.2-25.1-55.3
		c-32.2-13.1-64.4-2-64.4-2S744.3,378,656.8,373c-87.5-5-73.4,95.5-73.4,95.5s-17.1-45.3-59.3-16.1c-42.2,29.2-8,83.5-8,83.5
		s-26.1-32.2-61.3-11.1c-35.2,21.1-27.2,52.3-27.2,52.3s-104.6,13.1-73.4,27.2C385.3,618.4,822.8,595.2,822.8,595.2z"/>
</g>
<path style="fill:#D6E6ED;" d="M2752,1637.2c0,133.4-479,241.6-1230.7,224.6C792,1845.3,267,1731,267,1597.5s485.7-228.4,1215.1-228.4
	S2752,1503.8,2752,1637.2z"/>
<g>
	<path style="fill:#B4CED6;" d="M2245.2,1579.1c-36.1,85.2-354.3,167.5-791.4,167.5s-832.9-75.5-791.4-167.5
		c38.1-84.3,354.3-170.4,791.4-167.5C2032.8,1415.4,2282.9,1490,2245.2,1579.1z"/>
	<path style="fill:#CC234B;" d="M873.5,963.9c0,0-14.2,607.5,0,630.6c14.2,23.1,840.8,125.9,877.1,115.3c36.4-10.6,337-196,343.2-220.8
		c6.2-24.8,0-893.1,0-893.1L873.5,963.9z"/>
	<path style="fill:#AF0B3A;" d="M872.6,1004.6c73.1,9.6,875.5,115,881.8,106.9c6.6-8.5,0-69.8,0-69.8l-833.3-92.2l-47.7,14.4
		C873.5,963.9,873.1,979,872.6,1004.6z"/>
	<path style="fill:#AF0B3A;" d="M1747.9,700.1c0,178.5,0,857.4,0,1010.1c1.1-0.1,2-0.3,2.7-0.5c36.4-10.6,337-196,343.2-220.8
		c6.2-24.8,0-893.1,0-893.1L1747.9,700.1z"/>
	<path style="fill:#CC234B;" d="M1191.9,448.6c0,0-344.1,378.7-353,408.9c-8.9,30.2,0,121.5,0,121.5s898.4,114.4,930.4,103.8
		c31.9-10.6,360.1-392,363.6-436.4c3.1-38.2,6.2-133.9-5.3-139.2C2109.7,498.9,1224.7,412.2,1191.9,448.6z"/>
	<path style="fill:#AF0B3A;" d="M1237.2,873.7c0,0,88.5,3.4,78.2,26.2l-49.9-1.7c0,0,0,13.2-12.3,13.2c-5.7,0-0.9,120.8-0.9,120.8
		s19.8,26.4,9.4,35.9c-10.4,9.4-11.3-11.3-15.1-26.4c-3.8-15.1-3.8-17-3.8-17L1211.7,902l-5.7-4.7c0,0-52.9,33-56.6,44.4
		c-7.5,22.4-28.3,78.3-28.3,78.3s-21.7,17-30.2,13.2c-8.5-3.8,2.8-15.1,2.8-15.1l18-0.7c0,0,10.3-88.1,15-95.6
		c4.7-7.6,43.4-40.6,43.4-40.6L1237.2,873.7z"/>
	<path style="fill:#AF0B3A;" d="M2132.9,646.3c3-37.6,6.1-131.2-4.8-139c-77.6,96.1-337.4,417.3-351.7,426.3c-16.9,10.6-917.1-76.3-917.1-76.3
		s900.2,94,905.5,96.7c5.1,2.5,4.5,117.4,4.4,128.6C1801.2,1072,2129.3,690.7,2132.9,646.3z"/>
	<g>
		<path style="fill:#8C0331;" d="M1760.2,1085.5c-88.3,0-699.5-76.3-893.3-100.8c-1.2-0.2-2.1-1.3-1.9-2.5c0.2-1.2,1.3-2.1,2.5-1.9
			c421.3,53.2,879.3,107.6,901.1,100.3c11.7-3.9,71-65.6,147.5-153.6c62.5-71.8,144.7-171,188.2-233.6c0.7-1,2.1-1.3,3.1-0.6
			c1,0.7,1.3,2.1,0.6,3.1c-43.5,62.8-125.9,162.1-188.5,234c-62.2,71.6-134.2,149.8-149.5,154.9
			C1768.4,1085.3,1765.1,1085.5,1760.2,1085.5z"/>
	</g>
	<path style="fill:#D6295B;" d="M1447.3,889.4c0,0,304.2,31.9,321.1,23.9c16.9-8,240.4-268.7,235-279.4c-5.3-10.6-229.6,261-255.4,260
		C1722.2,892.9,1262.8,866.3,1447.3,889.4z"/>
	<path style="fill:#D6295B;" d="M1103.2,569.2c0,0,81.6-111.7,108.2-115.3c26.6-3.5,474.5,16.9,588.9,31.9c114.4,15.1-547.2-24.8-590.7-12.4
		c-24.3,6.9-150.8,159.6-142.8,142.8C1074.8,599.3,1103.2,569.2,1103.2,569.2z"/>
	<g>
		<path style="fill:#70032D;" d="M1255.7,638.8c0,0,483.3,22.2,484.2,29.3c0.9,7.1-27.5,32.8-27.5,32.8s-490.4-26.1-487.7-31.5
			C1227.3,664.1,1255.7,638.8,1255.7,638.8z"/>
	</g>
	<g>
		<g>
			<path style="fill:#FFFFFF;" d="M1090.1,1296.2l2.9-11l3.1-12.3l2.9-12.1c3.8-15.2,7.2-27.3,10.2-36.3c2.9-9.5,5.1-19.3,6.4-29.4
				c0.2-3,1.8-4.7,4.8-5.2c4.3-1.2,9.1-1.5,14.4-0.8c6.9,0.9,13.9,1.5,20.8,1.8l2.5,0.3c2.3,0.6,3.4,2.2,3.4,4.7
				c0,0.2-0.2,1.1-0.5,2.8c-0.9,5.2-3.2,16.3-6.9,33.3l-4.2,19.1l-1.1,4.9l-1.1,4.6c-0.9,5-1.6,8.1-2.1,9.3l-1.8,7.2
				c-0.9,3.1-1.6,5.5-2.3,7.4l-5.2,16.8l-4.7,16.9c-4.2,13.4-7.8,24.6-10.9,33.6c-1,3.4-3.2,5.1-6.5,5l-14.6,0.6
				c-6.6,0.1-11.7-0.4-15.4-1.4l-8.7-1.1c-1.3-0.2-2.6-0.4-4-0.8l-6.7-0.8c-1.7-0.2-2.9-1.4-3.7-3.6c-2.4-5.8-4.5-12.4-6.2-19.8
				c-1.8-9.8-4.7-19.8-8.5-30.2l-4.8-13c-0.6-2-1.4-4.3-2.4-6.9l-0.9-3.3l-1-2.8l-9.3-27.9l-2.4-6.7c-0.8-2.2-1.5-4.5-2.1-6.9
				c-0.9-3.3-2.2-8.2-3.8-14.8l-2.1-8.2l-2.1-8.7l-2.6-11.2c-0.9-4.5,0.7-6.5,4.8-6l11.9,1l3,0.4c0.8,0.1,1.7,0,2.7-0.2
				c4-0.4,8.7,0.3,14.1,2l2.7,0.9l2.7,0.6c2.6,0.5,4.3,2.1,4.9,4.8l7.8,27.2l3.3,10.7l1,3l0.7,3c0.6,2.2,1.1,3.8,1.4,4.9
				c0.3,0.9,0.9,3.7,1.9,8.2l0.9,4.1l0.7,4.1l5.4,24l1.6,6.8c0.9,3.3,1.7,5.6,2.1,6.9l0.5,1.6c0.3,0.6,0.9,1.1,1.7,1.5
				L1090.1,1296.2z"/>
			<path style="fill:#FFFFFF;" d="M1174.1,1295.1c0.4-3,0.7-7.2,0.9-12.9l0.3-3.9l0-3.4c0-2.5,0.1-4.2,0.3-5.3c1.5-10.1,3.8-19.5,7.1-28.2
				c3.3-8.2,6.5-14.7,9.7-19.4c5.4-8,12.2-13.1,20.5-15.4c5.3-1.6,10.9-2.4,16.6-2.4l2.7,0.1l3.2,0.1l5.9,1l4.7,0.6
				c1,0.3,2,0.5,3,0.6l2.2,0.3l3.5,0.7l3.7,1.3c6.6,2.6,12.8,5.7,18.7,9.2c7.9,4.9,14.9,11,21.1,18.5c2.6,3,5.7,8.3,9.2,16
				c3.5,8,6.6,18.4,9.2,31.1c1.7,9.2,2.2,17.4,1.6,24.6c-0.2,1.9-0.3,6-0.4,12.1c0.1,3-0.5,8.1-1.9,15.1
				c-1.8,7.2-5.3,14.4-10.7,21.7l-1.3,2l-0.8,1l-1,1.2l-5.5,5.7l-1.8,1.6l-2,1.9c-1.7,1.4-3.3,2.6-4.8,3.6l-4.8,3.1l-4.5,3.1
				c-8.3,5.3-15.6,7.9-21.9,7.8l-16.1,0.4c-12.9-0.9-23.3-5.4-31.3-13.4l-3.9-3.7l-3.9-3.9c-1.3-1.2-2.7-2.6-4.2-4.2l-2-1.8
				l-1.5-1.8c-5-5.6-9.7-13.8-14-24.8c-3.5-9.4-5.5-19.1-6-29.1c-0.3-1.4-0.3-3.1,0.1-5l0.1-5.5L1174.1,1295.1z M1277.7,1295.3
				l-0.2-2.7c0-1.8-0.1-3.5-0.4-5.3l-1.8-10.6c-3-13.2-10.3-22.5-22.2-27.7c-2.6-0.7-4.2-1-4.7-0.9c-2.5-0.3-5.1-0.4-7.9-0.2l-3,0.4
				l-3,0.7c-6.3,2.6-11.2,6.9-14.6,13c-4.8,9.5-7.7,17.8-8.8,25.1c-0.4,3.7-0.5,5.9-0.3,6.8c-0.1,4.6,0.8,9.5,2.5,14.6
				c2.3,9.6,7.4,17.3,15.1,23.1c6.9,4.9,12.7,7.2,17.5,7c6-0.3,10.2-1.4,12.7-3.2c6.7-4.1,11.8-10.1,15.4-17.9
				c2.2-5,3.5-11.6,3.7-19.6L1277.7,1295.3z"/>
			<path style="fill:#FFFFFF;" d="M1410.9,1327.6c-0.1,10.7-0.2,17.7,0,20.9l-0.1,9.5c0,3,0.1,6.3,0.4,9.8c0.7,6.6,0.9,13.3,0.5,19.9
				c0,0.7-0.2,3.7-0.6,8.9c-0.2,2.8-1.7,4.2-4.5,4.2l-6.9-0.1l-6.9,0.2c-3.5,0.1-7.2-0.5-11.1-1.7l-5.7-1.5l-5.7-1.5
				c-2.6-0.5-3.9-2.3-3.9-5.5c0.5-9.8,0.7-15.4,0.7-16.6c0.2-1.2,0.3-3.8,0.4-7.9l0.9-29.3l0-2.9l0.5-2.6c0.2-1,0.3-2,0.3-2.9l0-2.1
				l-0.1-8.2l-0.4-8.3c0-3.3,0.2-5.4,0.3-6.3l0.2-11.1c0-1.2-0.1-7.3-0.2-18.3c0-1.2-0.1-1.9-0.2-2.1c-0.5-1.8-1.4-2.8-2.9-3l-2-0.2
				l-2,0c-1-0.1-2.3-0.1-4,0c-6.3,0.6-12.2,0.8-17.9,0.4l-0.7-0.1l-1,0.1c-2.3-0.3-3.7-1.5-4.2-3.7c-1.1-2.6-1.7-5.6-1.6-8.9
				c0-1.8-0.1-8.3-0.2-19.6c-0.3-3.2-0.7-6.3-1.4-9.2l0-0.3c-0.2-0.2-0.2-0.5-0.2-0.8c-0.8-4.2,1-6.1,5.3-6l7.2,0.6l7.2,0.6l6.4,0.8
				l6.2,1c3.5,0.4,7.7,0.8,12.6,1c2.5,0.1,5,0.3,7.7,0.4c3.5,0.1,6.9,0.1,10.4,0c1.8,0.1,5.9,0.5,12.4,1.3l5,0.4l5.2,0.6l13.4,2.5
				c2.5,0.5,4.9,0.8,7.4,0.9c3.1,0.4,4.8,2.3,4.9,5.6l0.1,14.3l-0.2,16.4l-0.3,2.1c-0.4,3-1.8,4.4-4.3,4.2c-1.8,0.5-4,0.6-6.4,0.3
				l-13.9-1.2l-2.2-0.3c-1-0.3-1.8-0.4-2.5-0.3c-1.8,0.1-2.7,1.2-2.8,3.1l-0.1,4.2c0.4,8.3,1,16.7,1.9,25.1c0.2,0.2,0.2,1,0.2,2.4
				L1410.9,1327.6z"/>
			<path style="fill:#FFFFFF;" d="M1548.5,1276l0,1.6c-0.2,2.3-1.4,3.5-3.5,3.8c-0.8,0.1-2.1,0-4-0.2c-2.3,0.1-6.1-0.1-11.4-0.4l-11.4-1.2
				l-6.2-0.2l-6.4,0c-2.6,0.2-4,1.9-4,5.1c-0.2,3.3-0.3,6.8-0.1,10.3l-0.1,4.2c0,1.2,0.1,2.8,0.4,4.6c0.1,2.1,1.2,3.4,3.2,3.8
				c0.8,0.3,1.6,0.4,2.2,0.3l13.9,1.7c5.6,0.7,9.2,1.2,10.9,1.6c6.6,1.2,12.9,2.5,19,4c3,0.5,4.6,2.6,4.9,6.2l1.2,20.8
				c0.3,3.2,0.4,5.2,0.4,5.9c0,2.5-1.1,3.8-3.3,4.1l-3.5,0.1l-3.2,0.4c-2.8,0.2-5,0.1-6.7-0.3l-1.2-0.2l-1-0.4l-2.2-0.3
				c-4-0.7-8.5-1-13.6-0.9l-6.9-0.1l-6.7,0.2l-6.2,0c-2,0.5-3,1.5-3,3.1c-0.4,5.6-0.6,8.7-0.6,9.2c-0.2,0.9-0.3,2.9-0.3,6
				c0,2.3,1.4,3.8,4.2,4.5c4.8,1,8.4,1.2,10.9,0.8c3.1-0.3,8.4,0,15.9,0.9l11.4,1.4l5.4,0.9l5.7,0.7c1.6,0.2,2.6,0.4,3,0.6
				c2,0.8,3,2.2,3.2,4.4l0,3.4l0.4,7.7l0.1,7.7c0.1,1.1,0,4.2-0.4,9.2l0,3.2c-0.4,2.4-1.5,3.7-3.5,3.8c-3.3,0.3-7.4,0.2-12.4-0.2
				l-4.5-0.6l-4.7-0.3l-8.2-0.2c-3.6,0.1-9.3-0.4-16.8-1.3c-10.9-2.2-20.8-2.8-29.7-1.6c-5.5,0.6-10,0.3-13.6-0.6
				c-1-0.5-2.1-0.6-3.5-0.4l-3.5-0.2c-3.3-0.2-4.8-2-4.6-5.3c0.2-3.7,0.7-7,1.4-9.9l0.3-22.5c0.3-10.4,0.8-19.2,1.6-26.5
				c0.4-7.5,1-15,1.8-22.5l2.7-30.9l1.4-14.6c0.4-7.4,0.7-12.2,0.7-14.5c0.4-3.1,0.7-6.5,0.9-10.2l1.1-9.7l0.8-7
				c0.4-4,2.4-5.9,6-5.6l3.7,0.5c1.3,0,4.1,0.3,8.4,0.8l4.2,0.5l4.2,0.8l7.4,0.4c1.3,0,2.7,0.1,4.2,0.3l3.5,0.4
				c1.3,0,5,0.5,11.1,1.7c8.1,2.1,13.7,3.2,16.8,3.4c1,0,3.5,0.3,7.4,1.2c2.6,0.3,4.2,1.8,4.6,4.6c0.3,1.8,0.5,3.1,0.4,4l-0.1,6.9
				l-0.3,3.1L1548.5,1276z"/>
		</g>
		<g>
			<path style="fill:#D8D8D8;" d="M1582.8,1464.5c-13.5,0-38.9-1.4-88.4-6.2c-54.9-5.3-128-13.8-206-23.9c-77.2-10-149.9-20.3-204.7-29.1
				c-95.1-15.2-98.3-19.5-100.3-22c-7.5-9.8-10.9-76.7-11.7-114.7c-0.5-24.4-1.4-105.9,9.1-128.2c2.2-4.7,5.1-7.1,8.6-7.3
				c11.9-0.5,171.1,17,309.7,34c82.8,10.2,153.1,19.5,203.4,27c94.7,14.1,96.4,18.1,97.9,21.7c3.9,9.4,8.3,72.7,9.6,123.2
				c3.1,113.8-7.7,121.1-11.3,123.4C1597.5,1463.3,1595.6,1464.5,1582.8,1464.5z M990.3,1377.7c2.5,1.4,16.8,6.5,98.8,19.5
				c54.6,8.7,126.2,18.8,201.7,28.5c76.3,9.8,148.2,18.2,202.4,23.5c83.9,8.2,98.3,6.5,100.8,5.7c0.8-0.8,4.8-6.1,6.7-38
				c1.2-20,1.4-47.1,0.5-78.3c-1.6-58.5-6.2-109.5-8.7-118.6c-5.8-2.9-45.4-13.6-301.2-44.9c-141.5-17.3-287.5-33.1-301-33.1
				c0,0,0,0-0.1,0c-0.6,0.6-3,3.8-5.1,16.6c-5.1,29.5-5.4,84.8-4,126.6C982.9,1338.6,987.1,1372.3,990.3,1377.7z M990.1,1377.6
				L990.1,1377.6L990.1,1377.6z"/>
		</g>
	</g>
</g>
<g>
	<g>
		<g>
			<g>
				<g>
					<path class="st9" d="M1152.8,725.3c0,0,4.5,0.8,5.2,4.1c0.7,3.3-1.1,7.2-6.3,7.4L1152.8,725.3z"/>
				</g>
			</g>
			<g>
				<g>
					<path style="fill:#479BDB;" d="M1079.7,724.7c0,0-1.6,17.7,4.5,26c6,8.3,12.5,1.8,22.3-5.4c9.8-7.2,44-5.5,44-5.5s3-2.3,3.5-8.5
						c0.5-6.2-3.7-9.7-3.7-9.7s-29.4-3.5-44.3-17c-13.5-12.2-18.4-4.9-19.7-2.9C1084.2,704.8,1080.4,715,1079.7,724.7z"/>
				</g>
			</g>
			<g>
				<g>
					
						<ellipse transform="matrix(0.9973 7.290849e-002 -7.290849e-002 0.9973 55.8718 -77.6411)" style="fill:#333333;" cx="1091.4" cy="726.5" rx="10.5" ry="26.4"/>
				</g>
			</g>
			<g>
				<g>
					<path style="fill:#ED9300;" d="M1092.6,717.9c-1.3,0-3.3,3.2-3.6,7.3c-0.3,4.2,0.9,6.9,2.5,7.8l9,3.5c0.7-2.9,1.1-6,1.4-9.3
						c0.3-4,0.2-7.9-0.2-11.3L1092.6,717.9z"/>
				</g>
			</g>
			<g>
				<g>
					<path style="fill:#333333;" d="M1132.6,737.8c0,0-0.4,5.8-0.9,10.2c-0.5,4.6-1,7.7,0.6,7.9c3.1,0.4,4.8-1,7.2-18.4L1132.6,737.8z"/>
				</g>
			</g>
			<g>
				<g>
					<path style="fill:#2F8AC2;" d="M1104.2,735.3c3.4-17.4-2-30.5-2.1-30.6c-0.2-0.4-0.7-0.6-1.1-0.4c-0.4,0.2-0.6,0.7-0.4,1.1
						c0.1,0.2,7.2,17.1-0.3,38.1c0,0.1-2.8,8-7,10.6c3.8-1.3,8.1-5,13.3-8.8c9.8-7.2,44-5.5,44-5.5s2.2-1.7,3.1-6
						C1150.6,733.4,1120,730.8,1104.2,735.3z"/>
				</g>
			</g>
			<g>
				<g>
					<path class="st9" d="M1143.8,739.5c0.6,0,1.3,0,1.8,0c3.5-8.9,1.7-15.6,0.3-18.7c-0.6-0.1-1.3-0.2-2.1-0.4
						C1144.9,722.4,1148,729.6,1143.8,739.5z"/>
				</g>
			</g>
			<g>
				<g>
					<path style="fill:#D37301;" d="M1100.6,736.5c0.6-2.8,1.1-5.8,1.3-9l-5.8,0.7c0.5-6.2-1.7-8.3-1.7-8.3s1.9,4.8,0.2,9.5
						c-0.7,2-1.6,2.8-2.2,3C1092,732.6,1100.6,736.5,1100.6,736.5z"/>
				</g>
			</g>
		</g>
		<g>
			<g>
				<g>
					<path style="fill:#F27461;" d="M1135.7,746.2c-0.8,1.2,1.6,2.7,1.6,2.7l-0.4,1.8c-1,4-3.5,4.1-4.7,3.3c-1.2-0.8-0.7-2.1-0.7-2.1
						s3.5,0.5,3.3-0.5c-0.1-0.3-0.5-0.6-1-0.8c0.9-0.2,1.8-0.4,1.6-1.3c-0.1-0.3-0.4-0.5-0.8-0.6c0.1-0.1,0.2-0.2,0.3-0.4
						c0.1-0.2,0.2-0.5,0.1-0.7c-0.1-0.1-0.1-0.2-0.2-0.2c-0.1-0.1-0.2-0.1-0.3-0.2c0.1-0.1,0.1-0.1,0.2-0.2c0.1-0.3,0.1-0.6-0.1-0.8
						c-0.1-0.1-0.2-0.1-0.3-0.2c-0.7-0.3-1.5-0.4-2.3-0.4c-0.3,0-0.7,0-1,0.1c-0.2,0.1-0.5,0.2-0.6,0.4c-0.1,0.2,0,0.5,0.1,0.7
						c0,0,0,0.1,0,0.1c0,0,0,0.1-0.1,0.1c-0.1,0.1-0.2,0.1-0.3,0.1c-0.1,0-0.2,0.1-0.2,0.2c0,0.1,0,0.2,0,0.3
						c0.1,0.2,0.1,0.4,0.2,0.5c0,0.1,0.1,0.1,0.1,0.2c0,0,0,0.1-0.1,0.1c-0.2,0.2-0.4,0.2-0.6,0.3c-0.1,0.1-0.1,0.3-0.1,0.4
						c0,0.1,0.1,0.3,0.2,0.4c0.1,0.1,0.2,0.2,0.2,0.3c0,0.1,0,0.1,0,0.2c-0.1,0.1-0.2,0.2-0.3,0.3c-0.8,1.2,1.2,5.9,1.2,5.9
						s-1,5.3,3.5,2.3c4.2-2.8,5-10.2,4.8-11.2C1138.8,746.6,1136.5,745,1135.7,746.2z"/>
				</g>
			</g>
		</g>
		<g>
			<g>
				<g>
					<path style="fill:#F27461;" d="M1265.1,888c0,0,0.4,6-2.8,7.5c-3.1,1.5-1.8,3.8-1.5,5.5c0.1,0.7-0.2,1.4-1,0.9c-1.3-0.9-1.7-2.8-2.3-4.2
						c0,0,0-0.1-0.1-0.1c0,0,0,0.1,0,0.1c0.3,1.4,0.9,2.6,1.1,4c0.1,0.6,0.4,2.3-0.6,2.5c-0.9,0.2-1.5-1.5-1.8-2.1
						c-0.3-0.6-0.5-1.3-0.7-2c-0.2-0.8-0.3-1.7-0.5-2.5c-0.2,0.3-0.2,0.8-0.1,1.2c0.2,1.3,0.5,2.5,0.5,3.8c0,0.6,0,2.1-0.8,2.2
						c-1,0.2-1.5-1.7-1.6-2.4c-0.4-1.6-0.5-3.3-0.7-4.9c-0.2,0.3-0.3,0.7-0.3,1.1c0,0.9,0.2,1.8,0.1,2.6c0,0.3-0.1,1.5-0.6,1.6
						c-1.2,0.3-1.8-2.7-2-3.4c-0.4-2.1-0.5-4,1-5.6c0,0,0.1-0.1,0.1-0.1c0.6-0.6,1.3-1.1,2-1.5c0.8-0.5-0.1-0.6-0.6-0.6
						c-0.9-0.1-2.1-0.4-1.4-1.5c1.3-2,8.3-1.7,9.7-3.7C1261.8,884.4,1265.1,888,1265.1,888z"/>
				</g>
			</g>
		</g>
		<g>
			<g>
				<g>
					<path style="fill:#333333;" d="M1245,1037.6c0,0-2.5,0.5-2.5,4.9c0,4.4,1,22,8.7,21.1c10.3-1.2,4.2-15-1.1-22.7
						C1246.3,1035.5,1245,1037.6,1245,1037.6z"/>
				</g>
			</g>
			<g>
				<g>
					<path style="fill:#1A1A1A;" d="M1252.4,1044.6c1.4,4.1,3.8,11.6-2.1,10.4c-6.4-1.3-5.8-15.5-5.8-15.5l-0.3-1.5c-0.7,0.5-1.7,1.8-1.7,4.5
						c0,4.4,1,22,8.7,21.1C1260,1062.6,1256.8,1052.3,1252.4,1044.6z"/>
				</g>
			</g>
			<g>
				<g>
					<g>
						<polygon style="fill:#E55857;" points="1115.5,1018.2 1115,989.7 1108.7,990 1111.7,1017.4 						"/>
					</g>
				</g>
				<g>
					<g>
						<path style="fill:#1A1A1A;" d="M1115.7,1020.9c1.1,0.1,2-1,1.6-2.1c-0.5-1.6-2-3.7-6-5.2c-7.1-2.7-19.1-5.5-21.1-3.3
							c-1.2,1.3-2,3.5-2.5,5.4c-0.6,2,0.9,4,2.9,4L1115.7,1020.9z"/>
					</g>
				</g>
				<g>
					<g>
						<path style="fill:#333333;" d="M1091.2,1015.5c-2.5-0.8-2.4-2.7-1.8-4.1c0.2-0.4,0.5-0.8,0.8-1.1c1.9-2.2,13.6,0.5,20.7,3.2
							C1119.4,1018.4,1095.2,1016.7,1091.2,1015.5z"/>
					</g>
				</g>
			</g>
			<g>
				<g>
					<g>
						<path style="fill:#F27461;" d="M1247.8,1039.4l-4.5-25.2l-6.2,1.3l6.9,24.8c0.3,1,1.3,1.6,2.3,1.4l0,0
							C1247.3,1041.4,1248,1040.4,1247.8,1039.4z"/>
					</g>
				</g>
			</g>
			<g>
				<g>
					<path style="fill:#562F5E;" d="M1243.4,868.8c0.9,3.2,1,6.7,0.1,9.9c-3.3,12.4-11.6,43.8-11.8,47.9c-0.2,5.2,16.8,105.2,16.8,105.2
						l-7.5,1.5l-41-137.1c0,0-75,13.2-77.1,16.6c-2.1,3.4-6.1,94.9-6.1,94.9l-7.2,0.2c0,0-11.6-106.6-7.9-111.2
						c3.7-4.7,91.1-33.2,91.1-33.2l46.3-9.8L1243.4,868.8z"/>
				</g>
			</g>
			<g>
				<g>
					<path style="fill:#481F52;" d="M1243.4,868.8l-4.4-15l-46.3,9.8c0,0-87.4,28.5-91.1,33.2c-3.7,4.7,7.9,111.2,7.9,111.2l7.2-0.2
						c0,0,4-91.5,6.1-94.9c2-3.2,68.8-15.1,76.4-16.5l-2.3-11c0,0,0-8.8,13.8-9.9c13.9-1.1,20.9,20.4,16.8,52.1l18.5,104.8l2.4-0.5
						c0,0-17.1-100-16.8-105.2c0.2-4.1,8.5-35.6,11.8-47.9C1244.4,875.4,1244.3,872,1243.4,868.8z"/>
				</g>
			</g>
			<g>
				<g>
					<path style="fill:#371443;" d="M1196.6,882.2c-0.1-0.5-0.6-0.7-1-0.6c-0.5,0.1-0.8,0.6-0.6,1l3.3,13.9c1-0.2,1.6-0.3,1.7-0.3
						L1196.6,882.2z"/>
				</g>
			</g>
		</g>
		<g>
			<g>
				<path style="fill:#F0BD78;" d="M1201.3,739.7c0,0-10.9,1.6-23.5,4.4c-5.1,1.1-9.7,3.6-13.7,7c-8.9,7.6-16.6,33.5-21.8,33.7
					c-10,0.4-6.9-19.3-4.8-27.7l-8-1c-8.3,15.1-20.1,73.9,20.6,62.6c5.1-1.4,9.5-4.5,17-10.4c0,0,10.2,47.4,15.2,57.2
					c0,0,35.7,7,62.6-3.5c0,0,2.5-30.2,5.7-48.3l7.7,9.1c4.4,5.6,6.9,12.5,7.1,19.7c0.2,11-0.8,27.9-7.3,43.5c0,0,2.1,3.8,8.4,5.1
					c0,0,34.7-48,28-75.2C1287.9,788.8,1267,739.1,1201.3,739.7z"/>
			</g>
		</g>
		<g>
			<g>
				<path style="fill:#E9AD68;" d="M1232.3,787.1c16,47.9-15.2,70-32.2,71.7c-14.3,1.5-22.5-11.7-24.7-16c2.6,10.1,5.2,19.1,7,22.7
					c0,0,35.7,7,62.6-3.5c0,0,2.4-29.2,5.6-47.3C1242.3,804.6,1232.3,787.1,1232.3,787.1z"/>
			</g>
		</g>
		<g>
			<g>
				<path style="fill:#CF873F;" d="M1232.9,786c-0.2-0.4-0.7-0.6-1.1-0.5c-0.4,0.2-0.6,0.7-0.5,1.1c5.1,12.5,18,27.9,19.1,29.2
					c0.1-0.7,0.2-1.4,0.4-2.1C1250.8,813.7,1238,798.5,1232.9,786z"/>
			</g>
		</g>
		<g>
			<g>
				<path style="fill:#E9AD68;" d="M1170.3,746.8c-2.2,1.2-4.3,2.6-6.2,4.2c-8.9,7.6-16.6,33.5-21.8,33.7c-10,0.4-6.9-19.3-4.8-27.7l-8-1
					c-8.3,15.1-20.1,73.9,20.6,62.6c5.1-1.4,9.5-4.5,16.9-10.4C1163.7,790.7,1158.9,756.5,1170.3,746.8z"/>
			</g>
		</g>
		<g>
			<g>
				<path style="fill:#CF873F;" d="M1163.8,761.6c-0.5-0.1-0.9,0.2-1,0.7c-0.1,0.7-3.3,16.4,2.9,47.3c0.5-0.4,1-0.8,1.5-1.2c0,0,0,0,0,0
					c0,0,0,0,0,0c-5.9-30-2.8-45.6-2.8-45.7C1164.5,762.1,1164.2,761.7,1163.8,761.6z"/>
			</g>
		</g>
		<g>
			<g>
				<g>
					<path style="fill:#CF873F;" d="M1270.9,885.8c-0.1,0-0.1,0-0.2,0c-4.3-0.2-9-3.7-10.9-5.2c-0.4-0.3-0.4-0.8-0.1-1.2
						c0.3-0.4,0.8-0.4,1.2-0.1c1.3,1.1,5.9,4.6,9.9,4.8c0.5,0,0.8,0.4,0.8,0.9C1271.6,885.4,1271.3,885.8,1270.9,885.8z"/>
				</g>
			</g>
		</g>
		<g>
			<g>
				<g>
					<path style="fill:#CF873F;" d="M1136.2,765.8c-0.2,0-0.3,0-0.5-0.1c-4.2-1.9-9-1.5-9.1-1.5c-0.5,0-0.9-0.3-0.9-0.8
						c0-0.5,0.3-0.9,0.8-0.9c0.2,0,5.3-0.4,9.9,1.6c0.4,0.2,0.6,0.7,0.4,1.1C1136.7,765.5,1136.4,765.7,1136.2,765.8z"/>
				</g>
			</g>
		</g>
		<g>
			<g>
				<path style="fill:#D8D8D8;" d="M1075.5,703.9c0,0-21.3-18.8-23.9-14.3C1049.5,693.2,1075.5,703.9,1075.5,703.9z"/>
			</g>
		</g>
		<g>
			<g>
				<path style="fill:#D8D8D8;" d="M1075,752.3c0,0-18.4,4.6-16.5,8.3C1060.1,763.5,1075,752.3,1075,752.3z"/>
			</g>
		</g>
		<g>
			<g>
				<path style="fill:#D8D8D8;" d="M1056.4,725c0,0-41.5-9.5-41.1-6.1C1015.8,723.1,1056.4,725,1056.4,725z"/>
			</g>
		</g>
		<g>
			<g>
				<path style="fill:#D8D8D8;" d="M1072,735.6c0,0-42.2,1.1-41.1,6.2C1031.5,744.3,1072,735.6,1072,735.6z"/>
			</g>
		</g>
		<path style="fill:#EFEFEF;" d="M1222.4,741.4c-6.5-1.2-13.5-1.8-21.1-1.7c0,0-7.2,1-16.7,2.9c-0.9,7.2,0.9,23,10.7,33.6
			C1195.3,776.2,1219.1,757.6,1222.4,741.4z"/>
		<g>
			<g>
				<path style="fill:#BABABA;" d="M1192.5,735.1c0,0,10.1-4,21.2-0.8l-2.1,8.1l-19.2,3.9L1192.5,735.1z"/>
			</g>
			<g>
				<g>
					<path style="fill:#562F5E;" d="M1183.5,709.2c0,0-10.1,7.6-13.3,2.2c-3.1-5.4,9-13.9,9-13.9s-11.4,1.5-10.8-4.5c0.7-6,11.2-11,24.5-8.4
						c0,0-5-6.4-1.5-7.6c3.5-1.3,18.7,5.2,22.1,18.8c0,0,0.7-4.1,2.6-3.8c1.9,0.3,6.6,10.5-4.2,23.5c0,0-7.6,5-13,0.9
						C1193.4,712.1,1183.5,709.2,1183.5,709.2z"/>
				</g>
			</g>
			<g>
				<g>
					<path style="fill:#481F52;" d="M1198.7,716.2c5.4,4.2,13-0.9,13-0.9c2.9-3.4,4.7-6.7,5.7-9.6c-6.5,10.9-10-7.6-10-7.6s-0.3,4.4-4.8,3.5
						c-4.4-1-2.8-9.9-2.8-9.9s-4.8,7.6-17.2,11.7c-9.9,3.3-7.9-1.4-6.7-3.4c-3.3,2.9-7.7,7.8-5.7,11.3c3.1,5.4,13.3-2.2,13.3-2.2
						S1193.4,712.1,1198.7,716.2z"/>
				</g>
			</g>
			<g>
				<g>
					<polygon style="fill:#F27461;" points="1206.6,722.3 1210.9,747.2 1199.1,753.3 1192.9,749.5 1195.2,730.8 					"/>
				</g>
			</g>
			<g>
				<g>
					<path style="fill:#E55857;" d="M1194,740.4c2.9-0.9,12.8-4.6,12-15l-10.8,5.5L1194,740.4z"/>
				</g>
			</g>
			<g>
				<g>
					<path style="fill:#F27461;" d="M1183.2,707.3c0,0-4.3,26,8.4,26.1c12.7,0.1,15.3-8.2,15.3-8.2s5.7,1.9,7.3-2.5c1.6-4.4,0.4-11.1-7.6-8
						C1206.7,714.7,1196.9,700.4,1183.2,707.3z"/>
				</g>
			</g>
			<g>
				<g>
					<path style="fill:#371443;" d="M1206.4,714.9c-0.2,0-0.5-0.1-0.6-0.3c-5-6.2-10.7-9-16.8-8.3c-4.6,0.5-7.8,2.9-7.8,2.9
						c-0.3,0.3-0.8,0.2-1.1-0.2c-0.3-0.3-0.2-0.8,0.2-1.1c0.1-0.1,3.5-2.6,8.5-3.2c8.4-0.9,14.6,4.3,18.3,8.9
						c0.3,0.3,0.2,0.8-0.1,1.1C1206.8,714.8,1206.6,714.9,1206.4,714.9z"/>
				</g>
			</g>
			<g>
				<g>
					<path style="fill:#FFFFFF;" d="M1190,725.7c0,0,4.6-0.3,11-4.7c0,0-2.3,9-6.7,8.8C1192.1,729.7,1190,725.7,1190,725.7z"/>
				</g>
			</g>
			<g>
				<path style="fill:#D6D6D6;" d="M1213.7,735.3c0,0,7,14.2-8.3,29.2c0,0-3-9.1-6-10.1l-4.2,20.2l2.2-21.2c0,0-4.1,3-5.1,8
					c0,0-8-12.2-1.8-23.2l6.5,11.7l3,1L1213.7,735.3z"/>
			</g>
			<g>
				<path style="fill:#EFEFEF;" d="M1214.7,742.4c0,0,0.1-7.1-0.9-8.1c0,0-9.2,13.1-15.3,16c0,0,8.1,3.1,8,10.2
					C1206.4,760.5,1214.6,750.5,1214.7,742.4z"/>
			</g>
			<g>
				<path style="fill:#EFEFEF;" d="M1192.5,735.1c0,0-0.1,10.1,5.9,15.2c0,0-5.1,2-6.1,8C1192.3,758.4,1185.4,742.2,1192.5,735.1z"/>
			</g>
		</g>
	</g>
</g>
<g>
	<g>
		<g>
			<ellipse style="fill:#B4CED6;" cx="2134.9" cy="1694.7" rx="230.9" ry="26.8"/>
		</g>
	</g>
</g>
<path id="stairs_1_" style="fill:#1A1A1A;" d="M1784.1,527.4l282,1173.4c0.3,1.4,1.6,2.4,3.1,2.4c0.2,0,0.5,0,0.7-0.1
	c1.7-0.4,2.7-2.1,2.3-3.8l-11.1-46.1l155.1-11.4l12.2,50.8c0.3,1.4,1.6,2.4,3.1,2.4c0.2,0,0.5,0,0.7-0.1c1.7-0.4,2.7-2.1,2.3-3.8
	L1953.8,524.1c-0.4-1.7-2.1-2.7-3.8-2.3c-1.7,0.4-2.7,2.1-2.3,3.8l16.2,67.4l-157.2,1.9l-16.5-68.8c-0.4-1.7-2.1-2.7-3.8-2.3
	C1784.7,524.1,1783.7,525.7,1784.1,527.4z M1965.3,599l25.8,107.3l-155.9,1.9c-0.4,0-0.8,0.1-1.2,0.3L1808.2,601l156.3-1.9
	C1964.8,599.2,1965.1,599.1,1965.3,599z M1835.4,714.4l157.2-1.9l26.6,110.5l-157.1,2.6L1835.4,714.4z M1863.6,831.8l155.9-2.6
	c0.4,0,0.7-0.1,1.1-0.2l27.9,116.1l-156.9,2.6c0,0-0.1,0-0.1,0L1863.6,831.8z M1893,953.9l156.7-2.6c0.1,0,0.2,0,0.3,0l30.8,128.1
	l-156.4,5.5L1893,953.9z M1926,1091.1l156.4-5.5l38,158.2l-156.4,5.5L1926,1091.1z M1965.5,1255.6l156.4-5.5c0,0,0,0,0,0l33.4,139
	l-155.6,9.2L1965.5,1255.6z M2001.2,1404.4l155.6-9.2l29.4,122.3l-155.1,11.4L2001.2,1404.4z M2059.6,1647.2l-27-112.2l154.8-11.4
	c0.1,0,0.1,0,0.2,0l27,112.2L2059.6,1647.2z"/>
<g id="boy_with_shirt_1_">
	<g>
		<path style="fill:#371443;" d="M1808.7,310l0.9-1.5l2.1-3.8l0.2-0.4c0,0,33.5,18,40.2,20.1c21.9,7,54.2,12.2,54.2,12.2s-29.2,33-49.8,22.7
			C1835.8,349.1,1808.7,310,1808.7,310z"/>
	</g>
	<g>
		<g>
			<path style="fill:#F7F7F7;" d="M1892.7,382.2c-124.5-107.8-192.6-169.8-195.7-168.1c-6.8,3.7-374.2,394.3-374.2,394.3
				s76.9,65.2,210.9,172.4C1533.4,779.8,1845.8,440.4,1892.7,382.2z"/>
		</g>
		<g>
			<g>
				<g>
					<path style="fill:#479BDB;" d="M1449.1,622.5l53.5-62.5l62.7,49l-55.8,62.4L1449.1,622.5z M1502.1,542.9l-72.5,84.4l79.3,59.8l75.8-83.2
						L1502.1,542.9z"/>
					<path style="fill:#20853D;" d="M1489.1,564.2l21.5,50.9l-35.8-4.3l-10.2,19l57.4,10.2l16.5-15.2l-24.5-68.8
						C1505.6,558.3,1497.2,561,1489.1,564.2z"/>
				</g>
			</g>
			<g>
				<path style="fill:#D8D8D8;" d="M1665.1,354.1L1523,509l12.8,8.9l139.8-154C1672.2,360.5,1668.6,357.3,1665.1,354.1z"/>
				<path style="fill:#D8D8D8;" d="M1698.4,338.7l32.1-35.4c-4-2.5-7.8-5.2-11.5-8l-31.8,34.7C1690.9,332.9,1694.6,335.9,1698.4,338.7z"/>
				<path style="fill:#D8D8D8;" d="M1628,463.9l-67.3,73.1l12.7,8.9l65.2-71.6C1635.1,470.8,1631.6,467.3,1628,463.9z"/>
				<path style="fill:#D8D8D8;" d="M1651.5,438.8c3.5,3.4,7,6.7,10.5,10.1l92.6-101.9c-3.7-2.8-7.3-5.8-10.9-8.8L1651.5,438.8z"/>
				<path style="fill:#D8D8D8;" d="M1730.4,422.2l-132,142.9l12.5,8.8L1741,431.7C1737.4,428.7,1733.9,425.4,1730.4,422.2z"/>
			</g>
		</g>
		<g>
			<path style="fill:#D8D8D8;" d="M1530,765.1l-1.6-1.3c-9-7.2-174.5-140.7-184-151.5c-1.7-1.9-1.8-4.7,12.3-22c8.5-10.5,21.5-25.3,38.6-44
				c28.8-31.6,69.5-74.8,121.2-128.5c88-91.4,178.3-182.6,179.2-183.5l1.4-1.4l179.7,150l-1.5,1.7L1530,765.1z M1348.2,609.9
				c13.5,13.7,161.5,133.4,181.4,149.2l341.1-375.8l-173.1-144.6c-11.6,11.7-93,94.1-173.5,177.7c-50.9,52.8-91.4,95.7-120.7,127.6
				C1356.7,595,1349,607,1348.2,609.9z"/>
		</g>
		<path style="fill:#CC234B;" d="M1678,699.1l-84.6,132.3c0,0-189.1-138.3-194.8-148.3L1678,699.1z"/>
	</g>
	<g>
		<g>
			<path style="fill:#562F5E;" d="M1954,707c-0.6,0.2-1.3,0.3-1.9,0.3c-4.5,0.3-28,1.9-28.6-1.9c-0.7-4.2,6.6-13.9,24.4-7.2
				C1962.1,703.6,1956.7,706.2,1954,707z"/>
			<path style="fill:#481F52;" d="M1948,698.3c-0.8-0.3-1.6-0.6-2.4-0.8c3.4,3.5-2.9,7.9-13.1,7.9c-6.2,0-8-1.6-8.4-3.1
				c-0.6,1.1-0.8,2.2-0.6,3.1c0.6,3.8,24.1,2.2,28.6,1.9c0.7,0,1.3-0.2,1.9-0.3C1956.7,706.2,1962.1,703.6,1948,698.3z"/>
		</g>
		<path style="fill:#E85653;" d="M1953.2,700.6l-9.2-31.3c-0.2-0.7-0.9-1.1-1.6-0.9l-3.8,1c-0.7,0.2-1.2,1-0.9,1.7l10,28.3
			c0.5,1.5,1.9,2.6,3.5,2.8l0.6,0.1C1952.7,702.3,1953.5,701.5,1953.2,700.6z"/>
	</g>
	<g>
		<g>
			<path style="fill:#562F5E;" d="M1868.4,707.2c-0.6,0.2-1.3,0.3-1.9,0.4c-4.5,0.3-28,1.9-28.6-1.9c-0.7-4.2,6.6-13.9,24.4-7.2
				C1876.5,703.9,1871.2,706.4,1868.4,707.2z"/>
			<path style="fill:#481F52;" d="M1862.4,698.5c-0.8-0.3-1.6-0.6-2.4-0.8c3.4,3.5-2.9,7.9-13.1,7.9c-6.2,0-8-1.6-8.4-3.1
				c-0.6,1.1-0.8,2.2-0.6,3.1c0.6,3.8,24.1,2.2,28.6,1.9c0.7,0,1.3-0.2,1.9-0.4C1871.2,706.4,1876.5,703.9,1862.4,698.5z"/>
		</g>
		<path style="fill:#F5735D;" d="M1867.6,700.8l-2.1-35.8c-0.2-0.7-0.9-1.1-1.6-0.9l-3.8,1c-0.7,0.2-1.2,1-0.9,1.7l2.9,32.9
			c0.5,1.5,1.9,2.6,3.5,2.8l0.6,0.1C1867.1,702.6,1867.9,701.7,1867.6,700.8z"/>
	</g>
	<path style="fill:#F5735D;" d="M1731.8,394.1c0,0-3.4-11.1-5.7-10.6c-2.3,0.5,0.5,5.5-1.1,5.4c-1.6-0.1-7.3-9-10-7.9
		c-2.3,0.9,5.8,8.2,5.1,8.5c-0.7,0.3-9-4-10.4-3.1c-1.4,0.9,1,3.3,7,5.1c0,0,2.5,0.9,2.2,1.1s-9-1.1-9.1,0.2
		c-0.1,1.3,2.1,1.8,8.8,2.7c0,0,1.3,0.1,0.6,0.4c-0.7,0.3-8.1,0.6-6,2.4c2.1,1.8,18,0.9,18,0.9L1731.8,394.1z"/>
	<path style="fill:#4298DD;" d="M1919,456.9c0,0,2.9,98.1,2.3,110.4c-0.6,12.2,24.8,105.5,24.8,105.5s2.6-1.6,3.2,0.3
		c0.6,1.9,4.2,9.6,0.7,10.9c-3.5,1.3-10.9,4.5-11.9,2.3c-1-2.2-5.5-10.9,0-11.9c0,0-38.6-89.7-41.5-103.5
		c-2.9-13.8-8.8-48.2-8.8-48.2s-19.2,50.6-19.8,53.2c-0.6,2.6-0.7,99.4-0.7,99.4s3.2-0.3,3.5,1.9c0.3,2.3,1.3,9-1.3,9.7
		c-2.6,0.7-13.8,2.3-14.5,0c-0.7-2.3-2.6-11.3,3.5-11.6c0,0-17-99.4-16.1-109s13.2-107.5,13.2-107.5L1919,456.9z"/>
	<path style="fill:#2787C3;" d="M1887.7,522.6c0,0,6.2-18.8,8.3-30.9c0,0,22.4,0.7,23.3-26.2c0.7,24.2,2.5,91.7,2,101.7
		c-0.6,12.2,24.8,105.5,24.8,105.5s2.6-1.6,3.2,0.3c0.6,1.9,4.2,9.6,0.7,10.9c-3.5,1.3-10.9,4.5-11.9,2.3c-1-2.2-5.5-10.9,0-11.9
		c0,0-38.6-89.7-41.5-103.5C1893.6,557,1887.7,522.6,1887.7,522.6z"/>
	<path style="fill:#0078AA;" d="M1896.1,491.7c0.1-0.4,0.5-0.7,0.9-0.7c0.4,0.1,0.7,0.5,0.7,0.9c0,0.1-2.3,13.3-9.4,34
		c-0.4-2.1-0.6-3.3-0.6-3.3s0,0.1-0.1,0.2C1894,503.7,1896,491.8,1896.1,491.7z"/>
	<path style="fill:#0078AA;" d="M1939.2,674.6C1939.2,674.6,1939.2,674.6,1939.2,674.6c-0.5,0-0.8-0.3-0.8-0.8c0-0.4,0.3-0.8,0.8-0.8
		c0,0,3.1-0.2,6.6-1.9c0.3,0.9,0.4,1.5,0.4,1.6C1942.5,674.4,1939.4,674.6,1939.2,674.6z"/>
	<path style="fill:#F5735D;" d="M1878.5,301.4l3.4,31.7l-14.2,0.8l0.9-12.9c0,0-6.7,4.5-12.2,1c-4.9-3.1-2.3-25.7-2.3-25.7L1878.5,301.4z"/>
	<path style="fill:#582C5F;" d="M1727.6,399.7c0,0,46.8,35.7,71.2,32c15.9-2.5,30.5-26.8,30.5-26.8s15.4,36.8,20.9,54.8
		c0,0,25.2,24.4,72.7-4.1c0,0,13.2-72.8,2.9-101.7c-9.4-26.4-57.5-23.2-71.8-19.7c-22.5,5.5-43.2,27-71.4,60.9c0,0-28,4.9-50.7-2.6
		C1731.9,392.5,1727.6,394.2,1727.6,399.7z"/>
	<path style="fill:#4A1C53;" d="M1840.8,381c0,0,5.3,65.3,52,63.6c21-0.8,31-15.4,35.6-31.2c-2,22.8-5.5,42.2-5.5,42.2
		c-47.5,28.5-72.7,4.1-72.7,4.1c-5.4-17.5-20.1-52.9-20.9-54.7C1832.8,399,1837,391,1840.8,381z"/>
	<g>
		<path style="fill:#381144;" d="M1727.7,397.9c0.1,0,0.1,0,0.2,0.1c11.5,8.5,26.3,18.8,41,25.7c17.2,8.1,30.4,9.2,39.1,3.4
			c20.1-13.4,32.9-48.5,33-48.8c0.2-0.4,0.6-0.6,1-0.5c0.4,0.1,0.6,0.6,0.5,1c0,0.1-3.3,9.1-9,19.6c-5.3,9.8-13.9,22.9-24.6,30
			c-3.9,2.6-8.6,3.9-14,3.9c-7.5,0-16.4-2.4-26.7-7.2c-14.5-6.8-29.1-16.9-40.7-25.4C1727.5,399.6,1727.7,397.9,1727.7,397.9z"/>
	</g>
	<path style="fill:#FFB002;" d="M1928.9,406.7c-0.1,2.1-0.3,4.1-0.5,6.1c-43-1.1-81,8.6-91.3,11.5c-0.7-1.9-1.5-3.7-2.2-5.4
		C1874.9,404.8,1920.5,406.3,1928.9,406.7z"/>
	<path style="fill:#EF9500;" d="M1852.8,420.5c-7.2,1.6-12.6,3-15.6,3.8c-0.7-1.9-1.5-3.7-2.2-5.4c4.8-1.7,9.8-3.2,14.7-4.5
		C1850.7,416.5,1851.7,418.5,1852.8,420.5z"/>
	<path style="fill:#FFB002;" d="M1840.7,433.1c35.1-11.6,73.7-11.5,86.9-11.1c-0.2,2.1-0.5,4.2-0.7,6.2c-37.5-0.4-70.6,7-84.1,10.6
		C1842.1,436.9,1841.4,435,1840.7,433.1z"/>
	<g>
		<path style="fill:#EF9500;" d="M1858.1,428.3c1.7,2.1,3.5,4,5.4,5.8c-8.9,1.7-16,3.4-20.7,4.6c0,0,0,0,0,0c-0.4-0.9-0.7-1.9-1.1-2.8
			c0,0,0,0,0,0c-0.4-0.9-0.7-1.9-1.1-2.8C1846.4,431.2,1852.3,429.7,1858.1,428.3z"/>
		<path style="fill:#EF9500;" d="M1925.2,422c0.9,0,1.6,0,2.3,0.1c0,0,0,0.1,0,0.1c-0.1,0.5-0.1,1-0.2,1.4c0,0,0,0,0,0.1
			c-0.1,0.5-0.1,0.9-0.2,1.4c0,0.1,0,0.2,0,0.3c0,0.4-0.1,0.9-0.1,1.3c0,0.1,0,0.2,0,0.2c0,0.4-0.1,0.7-0.1,1.1c0,0.1,0,0.2,0,0.2
			c-1.7,0-3.4,0-5.1,0C1923.1,426.2,1924.2,424.1,1925.2,422z"/>
	</g>
	<path style="fill:#CC2276;" d="M1868,311.6c0,0,6.8,11.2,15.1,6.4c8.4-4.9,3.8-15.1,3.8-15.1s5.2,1.9,5.1,0c0-1.9-4.8-1.6-4.8-1.6
		s6.7-2.9,4.8-6.5c-1.9-3.5-6.1,0.7-6.1,0.7s-3.6-13.2-21.9-16.7c-18.4-3.5-23.7,20.7,3,25.4c0,0,5.7-5.2,7.1,1.6
		C1876.1,315.4,1868,311.6,1868,311.6z"/>
	<path style="fill:#B5106B;" d="M1887.3,301.3c0,0,4.8-0.3,4.8,1.6c0,1.9-5.1,0-5.1,0s4.5,10.3-3.8,15.1c-8.4,4.9-15.1-6.4-15.1-6.4
		s8.1,3.8,6.1-5.8c-1.4-6.8-7.1-1.6-7.1-1.6c-14.2-2.5-19.3-10.5-18.3-16.9c1.3,9.9,23,15.1,30.5,12.3c5.5-2.1,4.7-7,3.3-10.4
		c2.7,3.4,3.4,6.2,3.4,6.2s4.2-4.2,6.1-0.7C1894.1,298.3,1887.3,301.3,1887.3,301.3z"/>
	<path style="fill:#F5735D;" d="M1853.6,334.3c0.1,0,0.3-0.1,0.4-0.1c6.1-1.5,18.2-3.1,31.4-2C1881.2,333.5,1870.9,335.9,1853.6,334.3z"/>
	<path style="fill:#381144;" d="M1899.8,456.5c12.5-3.6,22-9.3,24.8-11.2c-0.1,0.7-0.2,1.4-0.3,2.1c-3.9,2.4-12.7,7.3-24,10.6
		c-7.4,2.1-14.7,3.2-21.6,3.3c-1.5,0-3,0-4.4-0.1c-9.3-0.6-18-3.2-26-7.7c-0.3-0.8-0.5-1.5-0.8-2.3c8.2,5,17.2,7.8,26.9,8.4
		C1882.4,460.1,1891,459.1,1899.8,456.5z"/>
	<path style="fill:#E85653;" d="M1809.4,308.3l0.2,0.2l2.1-3.8c-2.4-1.1-7.4-3.3-8.7-4c-1.8-1-4.1-0.1-4.1-0.1l5.7,4.3c0,0-5.7,1.6-3.9,3.5
		C1801.5,309.2,1808.2,308.3,1809.4,308.3z"/>
</g>
<g>
	<g>
		<g>
			<g>
				<path style="fill:#F7F7F7;" d="M309.5,1038.8c1.9,164.7,0.7,256.7,4,257.9c7.3,2.6,543.3,18.6,543.3,18.6s-2.2-100.8-10.8-272.2
					C845.3,1044.1,384.2,1035.3,309.5,1038.8z"/>
			</g>
			<g>
				<g>
					<g>
						<path style="fill:#479BDB;" d="M783.5,1211.5l-82.3,1.4l-4.9-79.4l83.7,0.3L783.5,1211.5z M688.8,1224.6l111.3-1.7l-7.8-99l-112.5-1.6
							L688.8,1224.6z"/>
					</g>
				</g>
				<g>
					<path style="fill:#D8D8D8;" d="M439.4,1227.8l210.1,3.6l-1.8-15.5l-207.9-2.5C439.5,1218.3,439.4,1223,439.4,1227.8z"/>
					<path style="fill:#D8D8D8;" d="M405.8,1213.1l-47.8-0.6c0.8,4.6,1.3,9.3,1.6,14l47,0.8C406.4,1222.5,406.1,1217.8,405.8,1213.1z"/>
					<path style="fill:#D8D8D8;" d="M546.1,1182.8l99.4,1.9l-1.8-15.3l-96.8-1.4C546.7,1172.9,546.3,1177.8,546.1,1182.8z"/>
					<path style="fill:#D8D8D8;" d="M511.8,1181.9c0.2-4.8,0.4-9.7,0.6-14.5l-137.7-1.8c0.3,4.6,0.5,9.3,0.6,14L511.8,1181.9z"/>
					<path style="fill:#D8D8D8;" d="M447.1,1133.8l194.5,4.1l-1.7-15.2l-192.7-3.1C447.3,1124.3,447.2,1129,447.1,1133.8z"/>
				</g>
			</g>
			<g>
				<path style="fill:#D8D8D8;" d="M836.6,1056.4l0.1,2.1c0.6,11.6,10.4,223.9,8.6,238.2c-0.3,2.6-2.3,4.5-24.7,5.4
					c-13.5,0.6-33.2,0.7-58.6,0.3c-42.7-0.6-102.1-2.5-176.5-5.5c-126.7-5.3-254.9-12.3-256.2-12.4l-2-0.1l-6.9-234l2.3,0
					L836.6,1056.4z M841,1295.4c1.3-19.2-7.3-209.3-8.6-234.7l-507.4-6.1l6.6,225.5c16.5,0.9,132.1,7.2,248.1,12.1
					c73.2,3.1,132.3,5,175.5,5.7C824.2,1299,838.3,1296.7,841,1295.4z"/>
			</g>
		</g>
		<path style="fill:#CC234B;" d="M713.5,1205.8c1.4,0.4,10.7-5.7,21.9-13.8c10.5,14.9,20,27.1,22.3,25.9c5.6-3,14.8-10.4,14.8-10.4
			c-0.8-0.6-10-12.8-21-27.2c15-11.1,28.8-21.7,28.8-21.7s-11.4-16.1-14.5-17.7c-1.4-0.8-14.6,9.6-28.5,21.1
			c-12.3-15.7-23.4-29.3-25-28.6c-3.7,1.6-10,9-10,9s9.5,15,20.6,31.6c-11.1,9.4-20,17.1-20,17.1S709.7,1204.6,713.5,1205.8z"/>
	</g>
	<g id="girl_with_box_2_">
		<g>
			<g>
				<g>
					<ellipse style="fill:#B4CED6;" cx="530.8" cy="1673.4" rx="129.2" ry="18.5"/>
				</g>
			</g>
		</g>
		<g>
			<g>
				<g>
					<path style="fill:#E55857;" d="M628.5,1313.8c0,0,3.3-3.6,4-5.2l-8.2-0.4c0,0-0.9-5.5-3.3-5.6c-4.1-0.3,1,10,1,10L628.5,1313.8z"/>
				</g>
			</g>
		</g>
		<g>
			<g>
				<g>
					<g>
						<polygon style="fill:#F5735D;" points="523.7,1672.5 527.2,1639.2 533.6,1640.8 528.8,1671.9 						"/>
					</g>
				</g>
			</g>
			<g>
				<g>
					<g>
						<g>
							<path style="fill:#2787C3;" d="M523.5,1677c0.6,0.2,1.3,0.3,1.9,0.3c4.4,0.3,27.8,1.8,28.4-2c0.6-4.2-6.6-13.8-24.3-7
								C515.4,1673.7,520.8,1676.2,523.5,1677z"/>
						</g>
					</g>
				</g>
				<g>
					<g>
						<g>
							<path style="fill:#0078AA;" d="M529.5,1668.4c0.8-0.3,1.6-0.6,2.3-0.8c-3.4,3.5,3,7.9,13,7.9c6.2,0,8-1.6,8.3-3.1
								c0.6,1.1,0.8,2.2,0.6,3.1c-0.6,3.8-23.9,2.3-28.4,2c-0.7,0-1.3-0.2-1.9-0.3C520.8,1676.2,515.4,1673.7,529.5,1668.4z"/>
						</g>
					</g>
				</g>
			</g>
		</g>
		<g>
			<g>
				<g>
					<g>
						<polygon style="fill:#E85653;" points="464.6,1628.2 486.6,1603.1 490.9,1608.1 469.1,1630.6 						"/>
					</g>
				</g>
			</g>
			<g>
				<g>
					<g>
						<g>
							<path style="fill:#2787C3;" d="M462.3,1630.5c0.3,0.6,0.7,1.1,1.2,1.6c3,3.3,19.1,20.3,22.1,18c3.3-2.6,4.6-14.6-12.9-21.8
								C458.7,1622.6,460.9,1628.1,462.3,1630.5z"/>
						</g>
					</g>
				</g>
				<g>
					<g>
						<g>
							<path style="fill:#0078AA;" d="M472.6,1628.3c0.8,0.3,1.6,0.7,2.3,1c-4.9,0.2-3.2,7.8,4.1,14.6c4.5,4.2,6.9,4.3,8.2,3.5
								c-0.4,1.2-1,2.1-1.6,2.7c-3,2.3-19-14.7-22.1-18c-0.4-0.5-0.8-1-1.2-1.6C460.9,1628.1,458.7,1622.6,472.6,1628.3z"/>
						</g>
					</g>
				</g>
			</g>
		</g>
		<g>
			<g>
				<g>
					<g>
						<path style="fill:#4E1355;" d="M553.6,1426.2l9,108.7c0.1,1.1-0.3,2.3-1.1,3.1l-77.2,80.9l-7.6-8.1l60.3-73.2l-21.1-109.7L553.6,1426.2
							z"/>
					</g>
				</g>
			</g>
			<g>
				<g>
					<g>
						<polygon style="fill:#5C2661;" points="494.9,1428.2 534.1,1551.4 523.9,1649.6 535.4,1650.9 552.1,1547.7 541.8,1425.4 						"/>
					</g>
				</g>
			</g>
			<g>
				<g>
					<g>
						<path style="fill:#4E1355;" d="M527.1,1650l-3.3-0.4l10.2-98.2l-39.2-123.3l46.9-2.8l2,23.4c-3.3-3.9-14.3-14.5-25.5-2.5
							c-12.2,13.1,22.4,105.2,22.4,105.2L527.1,1650z"/>
					</g>
				</g>
			</g>
			<g>
				<g>
					<path style="fill:#3C0746;" d="M552.1,1547.8l-9.4-104.2c0-0.1,0-0.3,0.1-0.4l2.9-6.1c0.2-0.4,0.7-0.6,1.1-0.4c0.4,0.2,0.6,0.7,0.4,1.1
						l-2.8,5.9l9.4,102.5L552.1,1547.8z"/>
				</g>
			</g>
		</g>
		<g>
			<g>
				<g>
					<path style="fill:#D70076;" d="M527.4,1301c0,0,18.1,1.6,24.7,3.3c27.3,6.8,71,69.5,68.4,8c0,0,7.5-2,11.6,0.5c0,0,17.3,93.8-63.6,50.7
						c0,0-7.3,54.3-11.6,64.8c0,0-35.9,10.1-64.3,1.5c0,0-6.6-41.8-12.8-59.3c0,0-6.6,10.8-24.7,17.3c0,0,12.4,21.9,27.2,29.1
						c0,0-0.2,5.5-5,9.5c0,0-60.4-12.6-55.7-40.9C426.3,1357.1,460.2,1305.8,527.4,1301z"/>
				</g>
			</g>
		</g>
		<g>
			<g>
				<g>
					<path style="fill:#BE006B;" d="M492.6,1429.7c0,0-6.5-41.1-12.6-58.8c3.4-5.4,7.7-13.9,12.1-26.9c0,0-3.4,62.8,36.7,69.2
						c19.7,3.2,29.5-4.9,34.4-14c-2.1,12.6-4.4,24.6-6.3,29C557,1428.2,521.1,1438.3,492.6,1429.7z"/>
				</g>
			</g>
		</g>
		<g>
			<path style="fill:#F5735D;" d="M527.4,1301c0,0,12.9,1.2,20.9,2.5c0.9,2.4,2.3,7.3,1.8,13.3c-0.9,10.7-13.6,16-21.9,9.2
				c-7.6-6.2-13-15.4-12.8-23.6C519.2,1301.8,523.3,1301.3,527.4,1301z"/>
		</g>
		<g>
			<g>
				<g>
					<path style="fill:#87004F;" d="M479.9,1370.4c9.4-16.1,14.3-36.5,14.3-36.7c0.1-0.4,0.5-0.7,1-0.6c0.4,0.1,0.7,0.5,0.6,1
						c-0.1,0.2-5.2,21.9-15.2,38.4C480.3,1371.8,480.1,1371.1,479.9,1370.4z"/>
				</g>
			</g>
		</g>
		<g>
			<g>
				<g>
					<g>
						<path style="fill:#2787C3;" d="M542,1272.2c0,0,19.3-14.3,7.3-32.2c-12-17.9-36.2-3.5-41.2,17.4c0,0-4.1-5-5.8,0.4
							c-1.7,5.3,9.8,25.3,9.8,25.3S524.3,1285.1,542,1272.2z"/>
					</g>
				</g>
			</g>
			<g>
				<g>
					<g>
						<path style="fill:#0078AA;" d="M502.1,1259.4c3.1,11.2,12.9-3.3,12.9-3.3s9.5,9.6,24.4,3.5c13.2-5.5,9.7-18.3,8.7-21.2
							c0.4,0.5,0.8,1.1,1.2,1.6c12,17.9-7.3,32.2-7.3,32.2c-17.7,12.9-30,10.8-30,10.8S502.4,1266.3,502.1,1259.4z"/>
					</g>
				</g>
			</g>
			<g>
				<g>
					<g>
						<path style="fill:#F5735D;" d="M521.7,1313l-4.8-27.9l12.5,0l7.1,24.5C532,1310.6,526.1,1311.8,521.7,1313z"/>
					</g>
				</g>
			</g>
			<g>
				<g>
					<g>
						<path style="fill:#E85653;" d="M532.6,1296.3c-11.1,0-14.1-8.5-14.1-8.5l11.1-1.9L532.6,1296.3z"/>
					</g>
				</g>
			</g>
			<g>
				<g>
					<g>
						<path style="fill:#F5735D;" d="M536.2,1269c0,0,7.1,20.3-3.3,22s-17-4.4-17-4.4s-7.3,3.1-8.7-3.2c-1.4-6.3,4.2-9,7.2-5.1
							C514.3,1278.2,510.6,1263.5,536.2,1269z"/>
					</g>
				</g>
			</g>
			<g>
				<g>
					<g>
						<g>
							<path style="fill:#005C78;" d="M513.9,1278.5c0.5-0.1,0.8-0.5,0.7-1c-0.2-2.5,0.2-6.8,5.5-8.5c7.4-2.3,19,1.2,19.1,1.3
								c0.5,0.2,1-0.1,1.2-0.6c0.2-0.5-0.1-1-0.6-1.2c-0.5-0.2-12.2-3.8-20.3-1.3c-7,2.2-7,8.6-6.8,10.5c0,0.5,0.5,0.9,1,0.9
								C513.8,1278.6,513.8,1278.6,513.9,1278.5z"/>
						</g>
					</g>
				</g>
			</g>
		</g>
		<g>
			<g>
				<g>
					<path style="fill:#F5735D;" d="M477.3,1423.6c0,0,2.8,7.1,6.5,7.5c0.9,0.1,1.8,0.1,2.6-0.1c0.3-0.1,0.5-0.2,0.7-0.4
						c0.3-0.3,0.3-0.8,0.6-1.2c0.4-0.5,1.2-0.4,1.6-0.9c0.3-0.4,0.1-1.1,0.4-1.6c0.2-0.4,0.8-0.6,0.9-1c0.2-0.3,0.1-0.7,0.2-1.1
						c0.1-0.4,0.6-0.7,0.7-1.2c0-0.2,0-0.4-0.1-0.5c-0.2-0.5-2.1-1.6-2.1-1.6s1.2-1.5-0.2-2.7c-1.1-1-10.1-0.4-10.1-0.4
						L477.3,1423.6z"/>
				</g>
			</g>
		</g>
		<g>
			<g>
				<g>
					<path style="fill:#E85653;" d="M488.3,1420c0.5,0.2,0.8,0.8,0.8,1.3c0,0.1,0,0.1,0,0.1s0,0-4.2-2.3C485,1419.2,486.9,1419.4,488.3,1420z
						"/>
				</g>
			</g>
		</g>
		<g>
			<g>
				<g>
					<path style="fill:#D70076;" d="M459.7,1394.9c4.9,7.1,13.3,17.5,22.6,22c0,0-0.2,5.5-5,9.5c0,0-21.2-4.4-37.5-13.9
						C446.3,1406.5,453,1400.7,459.7,1394.9z"/>
				</g>
			</g>
		</g>
		<g>
			<g>
				<g>
					<path style="fill:#FFB000;" d="M440.2,1346.6c5.3-1.5,13.9-3.5,15.4-1.6c2.3,2.9-2.9,16.3-0.2,15.8c2.7-0.5,17.2-4,18.3,1.4
						c0.8,3.9,0.2,11.3-0.1,15.1c-1.1,0.9-2.4,1.9-3.8,2.9c0.5-2.5,3.3-17.2-2.3-17.1c-6.2,0.1-13.7,4.5-15.9,0.7
						c-2.2-3.8,2.9-16.3-2.4-16.1c-4.2,0.2-10.3,2.8-12.7,4C437.6,1350,438.8,1348.3,440.2,1346.6z"/>
				</g>
			</g>
		</g>
		<g>
			<g>
				<g>
					<path style="fill:#FFB000;" d="M431.5,1359.6c4.5-1.7,9.3-3.1,10.6-1.8c2.6,2.6-0.7,16.6,2,15.7c2.6-0.9,16.5-6.3,18.3-1.1
						c1,2.8,1.5,7.6,1.7,11.5c-1,0.5-2,1-3,1.5c-0.1-5.2-1-11.8-4.8-11.2c-6.1,1-13,6.3-15.7,2.8c-2.7-3.5,0.7-16.6-4.6-15.6
						c-2.1,0.4-4.7,1.5-7,2.7C429.8,1362.6,430.6,1361.1,431.5,1359.6z"/>
				</g>
			</g>
		</g>
		<g>
			<g>
				<path style="fill:#BE006B;" d="M620.6,1312.3c0,0,7.5-2,11.6,0.5c0,0,17.3,93.8-63.5,50.7c1.3-12.7,2.4-26.5,2.4-32.8
					c0-7.4-6-20.7-13.1-24.3C585.2,1318.4,622.9,1369.6,620.6,1312.3z"/>
			</g>
		</g>
		<g>
			<g>
				<path style="fill:#F59500;" d="M580,1335.4c1.8,5.9,7.9,12,4.9,15.1c-3.1,3.1-16.5,1.5-14.9,6.6c1.1,3.4,4.3,7.7,6.3,10.1
					c-2-0.9-4-1.9-6.1-3c-0.4-0.8-0.9-1.6-1.3-2.4c0.3-3,0.6-6,0.9-9c0,0,0-0.1,0-0.1c0.1-1,0.2-1.9,0.3-2.9
					c4.9-0.8,11.8-0.6,11-2.3c-1.2-2.5-8.4-15.5-3.5-18c2.4-1.2,6.6-2.3,10.3-3l3.4,2.5C585.9,1329.9,578.9,1331.6,580,1335.4z"/>
			</g>
		</g>
		<g>
			<g>
				<path style="fill:#F59500;" d="M593.1,1342.7c3,5.4,10.4,10,8.1,13.7c-2.3,3.7-15.8,5.1-13.1,9.7c1.5,2.6,4.7,5.5,7.1,7.5
					c-2-0.4-4-0.8-6.2-1.5c-3.5-3.8-7.2-8.6-6.4-10.4c1.5-3.4,15.8-5.1,14-7.3c-1.8-2.1-11.6-13.3-7.4-16.8c1.8-1.4,4.7-3,7.6-4.4
					l3.2,1.9C595.7,1337,591.4,1339.8,593.1,1342.7z"/>
			</g>
		</g>
	</g>
</g>
<g>
	<g>
		<ellipse style="fill:#B4CED6;" cx="2564.7" cy="1623.1" rx="125.7" ry="17.8"/>
	</g>
	<g>
		<g>
			<polygon style="fill:#F27461;" points="2577.3,1620.1 2573.7,1586.1 2567.2,1587.7 2572.1,1619.4 			"/>
		</g>
		<g>
			<g>
				<path style="fill:#562F5E;" d="M2577.5,1624.7c-0.6,0.2-1.3,0.3-2,0.3c-4.5,0.3-28.4,1.8-29-2c-0.7-4.2,6.8-14.1,24.8-7.2
					C2585.8,1621.3,2580.3,1623.9,2577.5,1624.7z"/>
			</g>
			<g>
				<path style="fill:#481F52;" d="M2571.4,1615.8c-0.8-0.3-1.6-0.6-2.4-0.8c3.5,3.5-3,8-13.3,8c-6.3,0-8.2-1.6-8.5-3.1
					c-0.6,1.2-0.8,2.3-0.6,3.1c0.6,3.8,24.4,2.3,29,2c0.7,0,1.3-0.2,2-0.3C2580.3,1623.9,2585.8,1621.3,2571.4,1615.8z"/>
			</g>
		</g>
	</g>
	<g>
		<g>
			<polygon style="fill:#E55857;" points="2621,1581.7 2601.4,1553.7 2596.5,1558.3 2616.2,1583.6 			"/>
		</g>
		<g>
			<g>
				<path style="fill:#562F5E;" d="M2623,1584.3c-0.4,0.5-0.9,1-1.4,1.5c-3.4,3-21.6,18.5-24.4,15.8c-3.1-3-3-15.3,15.6-20.6
					C2627.6,1576.6,2624.8,1582,2623,1584.3z"/>
			</g>
			<g>
				<path style="fill:#481F52;" d="M2612.8,1580.9c-0.8,0.2-1.7,0.5-2.4,0.8c4.9,0.8,2.4,8.2-5.8,14.4c-5,3.8-7.5,3.6-8.7,2.6
					c0.2,1.3,0.7,2.3,1.4,2.9c2.8,2.7,21-12.8,24.4-15.8c0.5-0.4,1-0.9,1.4-1.5C2624.8,1582,2627.6,1576.6,2612.8,1580.9z"/>
			</g>
		</g>
	</g>
	<g>
		<g>
			<path style="fill:#1279A9;" d="M2546.1,1366.5l-17,109.6c-0.2,1.2,0.1,2.3,0.9,3.3l71,89.4l8.5-7.5l-54.5-80l31.5-109.6L2546.1,1366.5z"/>
		</g>
		<g>
			<polygon style="fill:#479BDB;" points="2605.9,1374 2566.7,1496.5 2577.1,1596.7 2565.4,1598 2548.4,1493.2 2558.9,1367.8 			"/>
		</g>
		<g>
			<path style="fill:#2F8AC2;" d="M2573.8,1597.1l3.3-0.4l-10.5-100.3l39.2-122.5l-47-6.2l-2,23.9c3.4-4,14.6-14.8,26-2.5
				c12.4,13.4-22.9,107.5-22.9,107.5L2573.8,1597.1z"/>
		</g>
		<g>
			<path class="st9" d="M2549.1,1493l8.8-106.7c0-0.1,0-0.3-0.1-0.4l-3-6.3c-0.2-0.4-0.7-0.6-1.1-0.4c-0.4,0.2-0.6,0.7-0.4,1.1
				l2.9,6.1l-8.8,106.5c0,0.1,0,0.1,0,0.2l1,9.4l1.9,2.4L2549.1,1493z"/>
		</g>
	</g>
	<g>
		<g>
			<path style="fill:#CC2276;" d="M2537.8,1291.8c0,0-1.6,64.7,4.2,76.8c0,0,40.5,14,68.3,7.2c0,0,23.5-59.4,21.6-86.9
				c-2-27.4-18.9-35.6-54.9-44.7c0,0-19.6,1.3-68.3,30.7C2460,1304.2,2537.8,1291.8,2537.8,1291.8z"/>
		</g>
		<g>
			<path style="fill:#B5106B;" d="M2551.7,1252.2c-10.6,4.5-24.8,11.6-43,22.7c-48.7,29.4,29.1,17,29.1,17s0,0,0,0
				C2538.8,1279.4,2542.1,1261.4,2551.7,1252.2z"/>
		</g>
		<g>
			<path style="fill:#EF9500;" d="M2528.5,1263.5c-1.4,0.8-2.9,1.6-4.4,2.4c3.8,2.6,11.2,8.4,14.8,16.3c0.4-2.3,0.8-4.6,1.4-6.9
				C2538.3,1271.8,2534.3,1265.7,2528.5,1263.5z"/>
		</g>
		<g>
			<path style="fill:#EF9500;" d="M2529.2,1285.8c0.4-2.3,0.8-4.6,1.4-6.9c-1.8-3.2-5.3-8-10.2-10.9c-1.5,0.8-2.9,1.7-4.4,2.6
				C2519.9,1273.5,2526,1278.8,2529.2,1285.8z"/>
		</g>
		<g>
			<g>
				<path style="fill:#80034F;" d="M2539.3,1283C2539.3,1283,2539.2,1283,2539.3,1283c-0.5,0-0.9-0.4-0.8-0.9c1.2-13.3,6.9-22.7,7.2-23.1
					c0.2-0.4,0.7-0.5,1.1-0.3c0.4,0.2,0.5,0.7,0.3,1.1c-0.1,0.1-5.8,9.5-6.9,22.4C2540.1,1282.7,2539.7,1283,2539.3,1283z"/>
			</g>
		</g>
		<g>
			<path style="fill:#B5106B;" d="M2631.9,1288.9c-0.2-2.3-0.4-4.5-0.8-6.5c-8.8-6.6-24.1-15.9-31.6-7c-11.7,13.8-13.3,40.9-13.3,40.9
				l-36.9,7.8c0,0-14,0-10.4,26.8c0.7,8,1.7,14.5,3.2,17.6c0,0,40.5,14,68.3,7.2C2610.3,1375.8,2633.8,1316.3,2631.9,1288.9z"/>
		</g>
		<g>
			<path style="fill:#81034F;" d="M2539.6,1358.2c0.1,0.6,0.2,1.2,0.3,1.8c3.3,1.1,12.2,3.8,23.7,5.9c11.1,2,20.7,2.8,28.9,2.8
				c8.8,0,15.8-0.9,21.2-1.9c0.2-0.6,0.4-1.2,0.7-1.8C2582.1,1371.9,2544.6,1359.9,2539.6,1358.2z"/>
		</g>
	</g>
	<g>
		<g>
			<path style="fill:#5A2960;" d="M2647.5,1204.9c-15.4-16-34.3,18.9-47.7,18.3l-4.9-0.7c2.3-4.7,3-10.6-0.3-17.6
				c-9.2-19.8-38.5-13.7-42.5,1.3c-3.9,15,9.5,18.9,9.5,18.9l20.3,10.1c0,0,6.4-3.1,10.8-9.1l3.6,1.9c0,0,1.3,16,18.6,17
				c17.3,1,20.3-17.6,30.7-2.6C2645.6,1242.5,2662.9,1220.9,2647.5,1204.9z"/>
		</g>
		<g>
			<path style="fill:#481F52;" d="M2645.1,1217.2c-12.1-5.1-15.4,8.5-30,13.7c-14.7,5.2-19.6-4.9-19.6-4.9l1.6-3.2l-2.1-0.3
				c2.3-4.7,3-10.6-0.3-17.6c-2.4-5.1-6.1-8.4-10.3-10.4c4,3.4,6.6,8.4,3.6,14.1c-5.1,9.6-20.4,1.1-20.4,1.1
				c0.1,7.4,8.9,20.6,11.4,24l3,1.5c0,0,6.4-3.1,10.8-9.1l3.6,1.9c0,0,1.3,16,18.6,17c17.3,1,20.3-17.6,30.7-2.6c0,0,0,0,0.1-0.1
				C2650.1,1233.7,2654.1,1220.9,2645.1,1217.2z"/>
		</g>
		<g>
			<g>
				<path style="fill:#CC2276;" d="M2588.9,1230.4c0,0,6.7-5.9,8-15.6c0,0,8.9,2.2,4.3,11.4C2597,1234.4,2588.9,1230.4,2588.9,1230.4z"/>
			</g>
			<g>
				<path style="fill:#B5106B;" d="M2593.8,1224c-2.3,4.1-4.9,6.4-4.9,6.4s8.1,4,12.3-4.2c0.4-0.8,0.7-1.5,0.9-2.2
					C2598.8,1226.8,2594.7,1224.5,2593.8,1224z"/>
			</g>
		</g>
		<g>
			<g>
				<path style="fill:#F27461;" d="M2559.3,1215.7c0,0-2.3,20.6,7.8,19.9s15-7.8,15-7.8s7.5,1.3,7.5-4.9c0-6.2-5.9-7.5-7.8-3.3
					c0,0-10.1-0.3-14.4-9.8C2567.5,1209.8,2564.2,1214.4,2559.3,1215.7z"/>
			</g>
			<g>
				<g>
					<path style="fill:#F27461;" d="M2583.6,1245.9l-1.1-19.1l-12.3,2.9l-0.6,16c-2.9,0.8-6.6,2-11.3,3.8c-0.9,4.2-2.3,16.2,11.1,16.2
						c13.8,0,23.6-12.3,26.3-16.2C2592.1,1248.3,2588,1247.1,2583.6,1245.9z"/>
				</g>
				<g>
					<path style="fill:#E55857;" d="M2579.6,1231.2c0-0.4,0.1-0.9-0.3-1.1c-0.4-0.2-0.9-0.1-1.1,0.3c0,0-0.7,1.1-2.3,2.3
						c-1.2,0.9-3.1,1.9-5.9,2.6l0,0l-0.3,8.5C2579.9,1241,2579.6,1231.7,2579.6,1231.2z"/>
				</g>
			</g>
		</g>
		<g>
			<g>
				<path style="fill:#371443;" d="M2581.6,1220C2581.5,1220,2581.5,1220,2581.6,1220c-8.6-1.1-12.8-7.3-14.1-9.8c-3.6,4.9-10.3,6.4-10.6,6.5
					c-0.4,0.1-0.7-0.1-0.8-0.5c-0.1-0.4,0.1-0.7,0.5-0.8c0.1,0,7.3-1.6,10.4-6.9l0.7-1.2l0.5,1.2c0,0.1,3.6,8.8,13.5,10
					c0.4,0,0.6,0.4,0.6,0.7C2582.2,1219.7,2581.9,1220,2581.6,1220z"/>
			</g>
		</g>
	</g>
	<g>
		<g>
			<g>
				<path style="fill:#F7F7F7;" d="M2469.9,1601.7c124.6-107.7,195.7-166.2,194.5-169.5c-2.7-7.3-336.4-427-336.4-427s-75.5,66.7-201,183.9
					C2128.1,1189,2419,1546.9,2469.9,1601.7z"/>
			</g>
			<g>
				<g>
					<g>
						<path style="fill:#479BDB;" d="M2295.9,1128.1l54.2,61.9l-57.5,55l-53.7-64.1L2295.9,1128.1z M2367,1192l-73.1-83.9l-70.6,69.8l71.4,87
							L2367,1192z"/>
					</g>
				</g>
				<g>
					<path style="fill:#D8D8D8;" d="M2530.4,1380.5l-132.8-162.8L2387,1229l132.3,160.5C2523,1386.6,2526.7,1383.6,2530.4,1380.5z"/>
					<path style="fill:#D8D8D8;" d="M2540.8,1415.7l30.4,36.9c3-3.6,6.2-7,9.6-10.3l-29.7-36.5C2547.7,1409.1,2544.2,1412.4,2540.8,1415.7z"/>
					<path style="fill:#D8D8D8;" d="M2427.1,1328l-62.7-77.1l-10.6,11.3l61.4,74.8C2419.2,1334,2423.2,1331,2427.1,1328z"/>
					<path style="fill:#D8D8D8;" d="M2448.6,1354.8c-3.8,3-7.6,6-11.5,8.9l87.5,106.3c3.3-3.3,6.8-6.4,10.3-9.5L2448.6,1354.8z"/>
					<path style="fill:#D8D8D8;" d="M2453.6,1435.3l-122.4-151.2l-10.5,11.1l121.9,149.2C2446.2,1441.3,2449.9,1438.3,2453.6,1435.3z"/>
				</g>
			</g>
			<g>
				<path style="fill:#D8D8D8;" d="M2143.2,1187.7l1.5-1.4c8.5-7.9,164.3-152.5,176.4-160.3c2.2-1.4,4.9-1.1,20,15.4
					c9.1,9.9,21.9,24.9,38,44.5c27.1,33,64,79.6,109.7,138.4c77.8,100.2,155.1,202.7,155.8,203.7l1.2,1.6l-174.3,156.3l-1.5-1.8
					L2143.2,1187.7z M2322.9,1030.1c-15.5,11.4-155.2,140.7-173.7,158l322.8,391.5l168-150.5c-9.9-13.2-79.7-105.5-150.9-197.3
					c-44.9-57.9-81.6-104.3-108.9-137.8C2336.4,1040.6,2325.6,1031.3,2322.9,1030.1z"/>
			</g>
		</g>
		<path style="fill:#CC234B;" d="M2336.7,1185.3c-0.5-1.3-11.3-4.4-24.7-7.8c4.6-17.7,7.8-32.8,5.4-33.7c-5.9-2.3-17.5-4.5-17.5-4.5
			c0.1,1-3.4,15.9-7.2,33.6c-18.2-4.3-35.2-8-35.2-8s-4.9,19-4.2,22.5c0.3,1.6,16.7,4.9,34.5,8.2c-4.1,19.5-7.3,36.8-5.7,37.5
			c3.6,1.8,13.3,1.8,13.3,1.8s5.3-16.9,10.8-36.1c14.3,2.4,25.9,4.2,25.9,4.2S2338.2,1188.9,2336.7,1185.3z"/>
	</g>
	<g>
		<g>
			<path style="fill:#F27461;" d="M2536,1326.6c0,0-4.4-10.9-6.7-10.3s1,5.6-0.7,5.6c-1.6,0-8.2-8.5-10.8-7.2c-2.2,1.1,6.5,7.8,5.9,8.2
				c-0.7,0.3-9.5-3.3-10.8-2.3c-1.3,1,1.3,3.3,7.5,4.6c0,0,2.6,0.7,2.3,1c-0.3,0.3-9.1-0.3-9.1,1c0,1.3,2.3,1.6,9.1,2
				c0,0,1.3,0,0.7,0.3c-0.7,0.3-8.2,1.3-5.9,2.9c2.3,1.6,18.3-0.7,18.3-0.7L2536,1326.6z"/>
		</g>
		<g>
			<path style="fill:#CC2276;" d="M2632,1272.7c9.2,15.6-5.2,65.3-22.5,73.8c-17.3,8.5-62.4-6.9-74.8-14.4c0,0,0-4.2,1.3-6.5l55.5-5.6
				c0,0-4.6-34.5,16.2-58.6c0,0,3.5-4.3,6.9-3.6C2614.9,1258,2628.3,1266.5,2632,1272.7z"/>
		</g>
		<g>
			<path style="fill:#FFB002;" d="M2631.5,1309.5c-20.7-6-35.9-4.5-40.2-3.8c0.1-2,0.3-4.1,0.6-6.3c18.1-3.1,36.1,1.4,41.3,2.9
				C2632.7,1304.8,2632.1,1307.1,2631.5,1309.5z"/>
		</g>
		<g>
			<path style="fill:#FFB002;" d="M2634.1,1296.9c-21.6-5.6-37.6-3.4-41.4-2.7c0.4-2.1,0.9-4.3,1.5-6.6c21.6-2.3,36.3,1.6,40.6,3
				C2634.6,1292.7,2634.4,1294.8,2634.1,1296.9z"/>
		</g>
	</g>
	<g>
		<path style="fill:#E55857;" d="M2476.5,1191.9c-0.8,1.2-4.1,6-5.8,6.1c-1.9,0.1-1.3-2.9,2.6-7c0,0,0.3-0.7-0.2-0.3s-6.4,6.3-7.7,5
			c-1.5-1.5,6.3-7,6.3-7s0.3-0.2-0.2-0.3c-0.5-0.1-6.2,4.8-7.3,3.9c-1-0.8-0.1-2.9,5.6-5.7c0,0,0.5-0.4-0.2-0.3
			c-0.7,0.1-4.5,2.2-5.2,1.1c-0.6-0.8,2.3-4.1,7.2-4.6c6.4-0.7,9,9.6,8.2,13.6L2476.5,1191.9z"/>
	</g>
</g>
<g>
	<g>
		<ellipse style="fill:#B4CED6;" cx="1956.6" cy="1805.4" rx="130.2" ry="18.5"/>
	</g>
	<g>
		<g>
			<path style="fill:#E55857;" d="M1910.1,1375.5c0,0,7.1-9.2,5.4-10.8c-1.7-1.6-4.2,3.6-5,2.2c-0.8-1.4,3.1-11.2,0.7-12.8
				c-2.1-1.3-3.4,9.5-4,9.1s-2-9.7-3.5-10.3c-1.5-0.6-2.1,2.8-0.1,8.7c0,0,0.8,2.5,0.3,2.4c-0.4-0.1-4.3-7.9-5.4-7.3
				c-1.1,0.7-0.2,2.8,2.9,8.8c0,0,0.7,1.1,0.1,0.7c-0.6-0.4-5.2-6.3-5.5-3.5c-0.2,2.8,9.7,15.2,9.7,15.2L1910.1,1375.5z"/>
		</g>
		<g>
			<path style="fill:#1279A9;" d="M1926.6,1460.8c3.1-1,6.2-2,9.3-3c14.8-4.8,29.6-9.8,43.2-17c-8.6-1-16.9-3.8-26.2-9.1
				c-15.6-9-19.2-13.8-19.2-13.8c-8.9-14.5-22.9-42.3-22.9-42.3c-4.2-1.1-6.4,1.3-6.4,1.3s-5.6,20.8,11.9,64.3
				C1919.2,1448.6,1922.8,1455.1,1926.6,1460.8z"/>
		</g>
	</g>
	<g>
		<g>
			<path style="fill:#F7F7F7;" d="M1804,1430.3c154.5-57,241.6-86.8,241.6-90.3c0-7.8-164.8-518-164.8-518s-94.2,35.9-252.8,101.5
				C1629.2,923.7,1775.6,1361,1804,1430.3z"/>
		</g>
		<g>
			<g>
				<g>
					<path style="fill:#479BDB;" d="M1807.7,925.8l28.9,77l-73.1,31.3l-27.8-78.9L1807.7,925.8z M1851.7,1010.6l-39-104.2l-90.6,40.5
						l36.2,106.6L1851.7,1010.6z"/>
					<path style="fill:#20853D;" d="M1839.3,988.9l-55-5.8l21-29.3l-11.7-18.1l-36.6,45.4l5.4,21.8l72.1,11.7
						C1836.6,1006.2,1838.3,997.6,1839.3,988.9z"/>
				</g>
			</g>
			<g>
				<path style="fill:#D8D8D8;" d="M1938.5,1244.4l-67.1-199.1l-14,6.9l67.4,196.7C1929.4,1247.6,1933.9,1246,1938.5,1244.4z"/>
				<path style="fill:#D8D8D8;" d="M1935.8,1281.1l15.5,45.2c4.1-2.3,8.3-4.3,12.6-6.2l-15-44.6C1944.6,1277.3,1940.2,1279.2,1935.8,1281.1z"
					/>
				<path style="fill:#D8D8D8;" d="M1860.2,1159l-31.6-94.2l-13.9,6.8l31.2,91.7C1850.7,1161.8,1855.5,1160.5,1860.2,1159z"/>
				<path style="fill:#D8D8D8;" d="M1870.9,1191.7c-4.6,1.5-9.3,2.9-13.9,4.3l44.5,130.3c4.3-1.9,8.6-3.6,13-5.3L1870.9,1191.7z"/>
				<path style="fill:#D8D8D8;" d="M1847.3,1268.8l-61.4-184.6l-13.8,6.7l61.7,182.6C1838.3,1271.8,1842.8,1270.3,1847.3,1268.8z"/>
			</g>
		</g>
		<g>
			<path style="fill:#D8D8D8;" d="M1643.7,927.8l1.9-0.8c10.7-4.4,207.4-84.9,221.5-88c2.5-0.6,5,0.7,13.3,21.4c5,12.5,11.8,31,19.9,55.1
				c13.8,40.4,31.9,97,54,168.2c37.6,121.1,73.9,244.3,74.2,245.5l0.6,1.9l-218.1,85l-0.7-2.2L1643.7,927.8z M1867.4,843.4
				c-18.6,5.2-194.8,77.1-218.2,86.8l164.5,480l210.2-81.8c-4.7-15.8-37.5-126.8-71.9-237.8c-21.7-70-39.7-126.3-53.5-167.3
				C1876.3,858.1,1869.5,845.5,1867.4,843.4z"/>
		</g>
	</g>
	<g>
		<path style="fill:#F27461;" d="M1852.1,1376.5c0,0,7.1-9.2,5.4-10.8c-1.7-1.6-4.2,3.6-5,2.2c-0.8-1.4,3.1-11.2,0.7-12.8
			c-2.1-1.3-3.4,9.5-4,9.1c-0.6-0.4-2-9.7-3.5-10.3c-1.5-0.6-2.1,2.8-0.1,8.7c0,0,0.8,2.5,0.3,2.4c-0.4-0.1-4.3-7.9-5.4-7.3
			c-1.1,0.7-0.2,2.8,2.9,8.8c0,0,0.7,1.1,0.1,0.7c-0.6-0.4-5.2-6.3-5.5-3.5c-0.2,2.8,9.7,15.2,9.7,15.2L1852.1,1376.5z"/>
	</g>
	<g>
		<g>
			<polygon style="fill:#F27461;" points="1932.4,1776.7 1935.6,1793.1 1939.2,1791.5 1936.9,1775.4 			"/>
		</g>
		<g>
			<path style="fill:#582C5F;" d="M1927.6,1800.7c0,0-7.9-1.7-10.1,3.3c-2.6,5.9,4.4,7.1,8.6,6.8c4.2-0.3,7.4-0.9,11.6-8.6
				c4.3-7.8,6.1-13.7,1.2-13.7S1927.6,1800.7,1927.6,1800.7z"/>
		</g>
		<g>
			<path style="fill:#4A1C53;" d="M1939,1788.5c-4.8,0-11.4,12.2-11.4,12.2s0,0-0.1,0c-0.8,1.6-1.8,3.5-1.9,4.7c-0.3,2.2-8.8,1.8-7.2-2.8
				c-0.4,0.4-0.7,0.9-0.9,1.4c-2.6,5.9,4.4,7.1,8.6,6.8c4.2-0.3,7.4-0.9,11.6-8.6C1942,1794.4,1943.9,1788.5,1939,1788.5z"/>
		</g>
	</g>
	<g>
		<g>
			<polygon style="fill:#E55857;" points="1979.5,1776.7 1982.7,1793.1 1986.3,1791.5 1984,1775.4 			"/>
		</g>
		<g>
			<path style="fill:#582C5F;" d="M1974.7,1800.7c0,0-7.9-1.7-10.1,3.3c-2.6,5.9,4.4,7.1,8.6,6.8c4.2-0.3,7.4-0.9,11.6-8.6
				c4.3-7.8,6.1-13.7,1.2-13.7S1974.7,1800.7,1974.7,1800.7z"/>
		</g>
		<g>
			<path style="fill:#4A1C53;" d="M1986.1,1788.5c-4.8,0-11.4,12.2-11.4,12.2s0,0-0.1,0c-0.8,1.6-1.8,3.5-1.9,4.7c-0.3,2.2-8.8,1.8-7.2-2.8
				c-0.4,0.4-0.7,0.9-0.9,1.4c-2.6,5.9,4.4,7.1,8.6,6.8c4.2-0.3,7.4-0.9,11.6-8.6C1989.1,1794.4,1990.9,1788.5,1986.1,1788.5z"/>
		</g>
	</g>
	<g>
		<g>
			<path style="fill:#562F5E;" d="M1991.7,1563.3l-59-4.8c0,0-28,101.5-25.5,114.8c2.6,13.2,24.2,107.4,24.2,107.4l8.4-1.3
				c0,0-15.6-104.3-14-110.1c0.9-3.1,15.8-33.5,29.4-61c2,24.2,4.2,50.7,4.6,58.2c1,14.8,18.7,113.2,18.7,113.2h7.7
				c0,0-6.1-96.7-7.1-102.8C1978.2,1670.6,1991.7,1563.3,1991.7,1563.3z"/>
		</g>
		<g>
			<g>
				<path style="fill:#4298DD;" d="M1959.2,1599.8L1959.2,1599.8c0.1,0,0.1,0,0.1,0C1959.3,1599.8,1959.2,1599.8,1959.2,1599.8z"/>
			</g>
		</g>
		<g>
			<path style="fill:#481F52;" d="M1932.7,1558.4c0,0-18.8,68-24.2,100c4.3-17.5,18.9-66.9,31.3-79c17.1-16.8,50.9,0.3,34.8,12.6
				c-0.9,0.7-12.9,4.5-12.9,4.5l-6.5,12.1c2,24.1,4.1,50.3,4.6,57.8c1,14.8,18.7,114.1,18.7,114.1l7.7-1c0,0-6.1-96.7-7.1-102.8
				c-1-6.1,12.6-113.5,12.6-113.5L1932.7,1558.4z"/>
		</g>
		<g>
			<g>
				<path style="fill:#371443;" d="M1975.6,1591.5c-0.2-0.4-0.6-0.6-1-0.5l-13.5,4.9l-0.1,0.3c-28.1,55.5-36.5,75.5-36.6,75.6l-0.1,0.2
					l14.1,107.1c0,0.1,0,0.2,0.1,0.3c0.5-0.1,1-0.1,1.5-0.2c0-0.1,0-0.2,0-0.3l-14-106.7c0.9-2.2,9.9-22.8,36.3-75.1l12.9-4.7
					C1975.5,1592.4,1975.7,1591.9,1975.6,1591.5z"/>
			</g>
		</g>
	</g>
	<g>
		<path style="fill:#F27461;" d="M1994,1412.4l-19,34.2l-13.2-6.1l7.6-15.2c0,0-7.4-0.5-10.8-6.1c-3-5,8.4-21.3,8.4-21.3L1994,1412.4z"/>
	</g>
	<g>
		<path style="fill:#479BDB;" d="M2009.8,1490.7c-0.1,1-4.8,41.9-10.3,70.9c0,0-32.2,21.3-75.8-4.2l-12.6-61.6c0,0-34.2-13.7-51.3-53.8
			c-18.4-43.2-13.2-64.2-13.2-64.2s2.3-2.3,6.4-1.3c0,0,14.5,27.4,23.7,41.7c0,0,3.7,4.7,19.5,13.4c16.9,9.3,30.6,10.2,48,7.7
			c11.8-1.7,25-2.7,34-0.4C1998.3,1444.1,2012.9,1459.6,2009.8,1490.7z"/>
	</g>
	<g>
		<path style="fill:#2F8AC2;" d="M1978.4,1439c-1.7-0.4-3.5-0.7-5.5-1c6,4.2,18.2,15.9,19.6,40.9c1.9,33.2-12.9,52.2-40.6,52.9
			c-22.6,0.5-33.9-14.5-38.3-24l10.1,49.7c43.5,25.5,75.8,4.2,75.8,4.2c5.5-29,10.2-70,10.3-70.9
			C2012.9,1459.6,1998.3,1444.1,1978.4,1439z"/>
	</g>
	<g>
		<path style="fill:#F27461;" d="M1955.5,1438.1c5.2,2.1,19,6.9,28.8,2.8c-1.9-0.7-3.7-1.6-5.7-2.1
			C1972.3,1437.2,1963.9,1437.4,1955.5,1438.1z"/>
	</g>
	<g>
		<path style="fill:#FFB002;" d="M1970.2,1400.7c0,0-11.5,1.6-9.4-12.6c2.1-14.1,32.2-11.3,41.4,4.5c9.2,15.7,13.6,18.1,32,19.6
			c18.3,1.6,20.4,28.3,15.2,38.3c-5.2,10-12.8,6.3-19.1,19.1c-6.3,12.8-18.9,18.9-33,9.4c-14.1-9.4-13.4-22-13.1-31.2
			c0.3-9.2,0.8-9.2-2.4-16s-4.7-8.1-3.1-13.4c0,0,4.2,3.4,5.5-0.8c1.3-4.2,1-9.4-4.7-6.8C1979.3,1410.9,1973.3,1408.6,1970.2,1400.7
			z"/>
	</g>
	<g>
		<path style="fill:#EF9500;" d="M2005.7,1445.1c-19-11-6.2-39.4-6.2-39.4s-16.8,0.5-23.8-14.4c-4.7-9.9,0.3-11.8,4.2-12
			c-9.4-1.3-18,1.5-19.1,8.8c-2.1,14.1,9.4,12.6,9.4,12.6c3.1,7.9,9.2,10.2,9.2,10.2c5.8-2.6,6,2.6,4.7,6.8
			c-1.3,4.2-5.5,0.8-5.5,0.8c-1.6,5.2,0,6.6,3.1,13.4s2.6,6.8,2.4,16c-0.3,9.2-1,21.7,13.1,31.2c14.1,9.4,26.7,3.4,33-9.4
			c6.3-12.8,13.9-9.2,19.1-19.1c3.1-5.8,3.6-17.4-0.1-26.3C2053.6,1443,2025.6,1456.6,2005.7,1445.1z"/>
	</g>
	<g>
		<path class="st9" d="M1924.8,1500.7c0.4,0,0.8-0.3,0.8-0.8c0-0.4-0.3-0.8-0.8-0.9c-5.6-0.3-13.7-3.2-13.7-3.2l0.4,1.9
			C1915,1499.1,1919.6,1500.4,1924.8,1500.7C1924.8,1500.7,1924.8,1500.7,1924.8,1500.7z"/>
	</g>
	<g>
		<path class="st9" d="M1945.2,1555.8c-13-2.8-21.7-7.3-23.5-8.3l0.4,2c3.3,1.6,11.4,5.4,22.7,7.8c6,1.3,13.5,2.3,21.9,2.3
			c10.2,0,21.9-1.5,34.2-6c0.1-0.6,0.2-1.2,0.3-1.8C1978.8,1560.3,1958.4,1558.7,1945.2,1555.8z"/>
	</g>
	<g>
		<path style="fill:#E55857;" d="M1976.9,1423.7c-3,0.9-5.5,1.4-7.6,1.6l-3.6,7.2C1976,1430.7,1976.9,1423.7,1976.9,1423.7z"/>
	</g>
</g>
</svg>
