<?xml version="1.0" encoding="utf-8"?>
<!-- Generator: Adobe Illustrator 19.0.0, SVG Export Plug-In . SVG Version: 6.00 Build 0)  -->
<svg version="1.1" id="_x3C_Layer_x3E_" xmlns="http://www.w3.org/2000/svg" xmlns:xlink="http://www.w3.org/1999/xlink" x="0px"
	 y="0px" viewBox="0 0 4080 2243.9" style="enable-background:new 0 0 4080 2243.9;" xml:space="preserve">
<style type="text/css">
	.st0{fill:#B1ABDE;}
	.st1{fill:#FFFFFF;}
	.st2{fill:#ED7E94;}
	.st3{fill:#FF96A9;}
	.st4{fill:#322666;}
	.st5{fill:#FFCC46;}
	.st6{fill:#FFDD85;}
	.st7{fill:#3F327A;}
	.st8{fill:#E8462C;}
	.st9{fill:#FF5B41;}
	.st10{fill:#D99287;}
	.st11{fill:#F5B7AD;}
	.st12{fill:#FFD4CD;}
	.st13{fill:#E8A499;}
	.st14{fill:#C8C2ED;}
	.st15{fill:#DB4A87;}
	.st16{fill:#E5649A;}
	.st17{fill:#FFA42F;}
	.st18{fill:#F6DEF8;}
	.st19{fill:#FEF2FE;}
</style>
<g>
	<g>
		<circle style="fill:#B1ABDE;" cx="1708.6" cy="594.3" r="8.5"/>
		<ellipse style="fill:#B1ABDE;" cx="1649.6" cy="504.9" rx="32.4" ry="16.2"/>
		<ellipse style="fill:#B1ABDE;" cx="1569.3" cy="347.5" rx="243.6" ry="101.8"/>
		<circle style="fill:#FFFFFF;" cx="1494.3" cy="347.5" r="23.5"/>
		<circle style="fill:#FFFFFF;" cx="1569.3" cy="347.5" r="23.5"/>
		<circle style="fill:#FFFFFF;" cx="1644.2" cy="347.5" r="23.5"/>
	</g>
	<g>
		<g>
			<path style="fill:#ED7E94;" d="M1832.5,693.1l-46.6-20.8c0,0,4.5,15.3,4.6,36.6c14.7-1.6,29-6.6,42.2-13.3L1832.5,693.1z"/>
			<path style="fill:#FF96A9;" d="M1790.5,708.9c0.1,17.3-2.7,38.7-13.1,59.1c-23.1,45.5,60.2,4.6,60.2,4.6l-4.9-77
				C1819.5,702.2,1805.2,707.3,1790.5,708.9z"/>
			<path style="fill:#ED7E94;" d="M1778.2,605.2c0,0-4.2,5.3-9.7,13.2c1.6,1.1,3.3,2.1,4.7,3.4c16.2,9.3,37,9.3,49.8,24.3
				c5.8,8.1,2.3,19.7-3.5,25.5c-9,11.1-22.2,17.2-36.3,20.6c38.2,3.1,90.7-2,90.7-2S1947.9,585.9,1778.2,605.2z"/>
			<path style="fill:#FF96A9;" d="M1819.5,671.5c5.8-5.8,9.3-17.4,3.5-25.5c-12.7-15-33.6-15-49.8-24.3c-1.3-1.3-3-2.3-4.7-3.4
				c-10.9,15.8-26.8,42.3-24.3,59c1.4,8.9,18,13,39,14.7C1797.3,688.7,1810.5,682.6,1819.5,671.5z"/>
			<path style="fill:#322666;" d="M1858.4,631.4c0,0-44.7,10.8-95.7-23.9c-50.9-34.7-5.4-97.2,67.1-55.6c72.5,41.7,66.4,88,66.4,88
				s77.9,10,76.4,91.8c-1.5,81.8-138.1,84.9-138.1,84.9s-29.3-98.8,17.7-165.9c0,0,33.2,0.8,23.9-19.3
				C1866.9,611.3,1858.4,631.4,1858.4,631.4z"/>
			<path style="fill:#FFCC46;" d="M1503.5,890.2c-13.6-19.9-24.6-41.1-33.8-63.1c-6.1,2.9-12.6,4.8-19.1,5.1c12.4,25.1,28.8,49,50.6,68.4
				c0,0,132.7-6.2,194.4-47.1c12.8-8.5,28.7-13.1,45.8-15.2c-0.8-9.3-1.5-18.6-1.8-28C1667.9,852.1,1588,886.8,1503.5,890.2z"/>
			<path style="fill:#FFCC46;" d="M1895.8,840.5c-5.4,5.4-10.5,11-15.5,16.9c6.1,1.9,9.6,3.2,9.6,3.2s74.2,120.4,187.6,158.2
				c0,0,24.5-10.7,56-29.1c-3.4-2.7-6.5-5.6-9.5-8.8c-15.2,7.9-31.2,14.4-47.7,19.3C2005.8,962,1937.5,909.9,1895.8,840.5z"/>
			<path style="fill:#FFDD85;" d="M2068.3,946.2l-152.8-169l-43-13.3c-26.7,16.2-58.5,24.5-88.9,21c-18.2-2.9-39.5-12.8-52.2-29.3l-22.6,3.8
				l-177.5,70.2c0,0-10.4-15.7-23.6-39.4c-2.2,4.1-4.8,8.1-7.6,12c-7.7,9.4-18.3,19.2-30.3,24.9c9.2,22,20.2,43.1,33.8,63.1
				c84.5-3.5,164.3-38.2,236.1-79.9c0.4,9.4,1.1,18.7,1.8,28c51.9-6.3,115.2,11.4,138.9,19c5-5.9,10.2-11.5,15.5-16.9
				c41.7,69.4,109.9,121.5,180.5,159.7c16.5-4.9,32.4-11.4,47.7-19.3c-12.8-13.6-21.4-30.9-22.4-49.2
				C2089.9,938.1,2078.5,943.3,2068.3,946.2z"/>
			<path style="fill:#ED7E94;" d="M2307.8,818.5c11.6,10.4,12.7,27.8,6.9,38.2c-10.4,23.1-42.8,16.2-61.3,2.3c-30.6,49-73.7,91.9-124.9,119.5
				c3.3,2.9,6.8,5.5,10.5,7.9c42.8-25.5,95.9-64.2,118.3-108.9c0,0,35.5,19.3,61,0.8c25.5-18.5,0-50.9,0-50.9s24.7-16.2,50.1-17
				c6.1-0.2,9.1-2.9,8.8-6.3C2353.6,803.6,2329,808.4,2307.8,818.5z"/>
			<path style="fill:#ED7E94;" d="M2259.2,818.5c4.6,5.8,20.8,4.6,24.3,13.9c3.5,6.9,1.2,16.2-2.3,23.1c2.3-3.5,5.8-5.8,6.9-9.3
				c4.6-12.7-6.9-25.5,1.2-38.2c1.2-1.7,2.6-3.2,4-4.5c-6.5,2.8-13.4,6.1-20.6,9.9c-22.6,12.1-37.8-51.6-63.7-36.7
				C2232.2,778.2,2245.2,802.3,2259.2,818.5z"/>
			<path style="fill:#FF96A9;" d="M2377.2,804.1c-0.8-9.6-27.8-24.5-83.9-0.5c-1.5,1.4-2.8,2.8-4,4.5c-8.1,12.7,3.5,25.5-1.2,38.2
				c-1.2,3.5-4.6,5.8-6.9,9.3c3.5-6.9,5.8-16.2,2.3-23.1c-3.5-9.3-19.7-8.1-24.3-13.9c-14-16.1-27-40.3-50.2-41.7
				c-0.6,0.4-1.3,0.8-1.9,1.2c-27,19.3,20.8,33.2,20.8,33.2s-29.3,20.8-17.7,41.7c0,0-57.9,51.3-108.5,78.9c0,0.5,0.1,0.9,0.1,1.4
				c3.4,17.5,13.3,33.6,26.7,45.4c51.2-27.6,94.3-70.6,124.9-119.5c18.5,13.9,50.9,20.8,61.3-2.3c5.8-10.4,4.6-27.8-6.9-38.2
				C2329,808.4,2353.6,803.6,2377.2,804.1z"/>
			<path style="fill:#ED7E94;" d="M2101.8,933.1c1.7,22,14.1,42.4,31.7,56.5c1.8-1.1,3.6-2.1,5.5-3.2C2120.3,974.6,2106.1,954.9,2101.8,933.1z
				"/>
			<path style="fill:#ED7E94;" d="M1448.3,827.6c0.7,1.6,1.5,3.1,2.3,4.7c19.5-0.9,37.9-15.8,49.5-30c2.9-3.9,5.4-7.9,7.6-12
				c-0.1-0.1-0.1-0.3-0.2-0.4C1494,810.3,1472,823.6,1448.3,827.6z"/>
			<path style="fill:#ED7E94;" d="M1386.6,636.8c-2.3-16.2,5.8-31.2,16.2-42.8c-16.5,0.9-38.9-5.5-47.4-20.3c-21.2,14.6,39.3,23.7,39.3,23.7
				s-38.6,27.7-22.4,50.5c16.2,22.8,40.1,19,40.1,19s0,84.7,35.9,160.7c6.6-1.1,13.1-3,19.3-5.5c-21.3-53.2-32.1-110.8-41.6-166.8
				C1410.9,657.6,1390.1,654.2,1386.6,636.8z"/>
			<path style="fill:#ED7E94;" d="M1414.4,628.7c-1.2,3.5,0,8.1,1.2,11.6c-1.2-15,15-31.2,30.1-26.6c3.6-19.7,23.8-27.6,43-29.1
				c-13.5-1.2-31.7,4.2-42.2,12.9c-7.5,6.2-16.3-0.8-27.1-9.7C1425.4,600.3,1421.7,614.1,1414.4,628.7z"/>
			<path style="fill:#FF96A9;" d="M1454.9,656.9c0,0,29.3-18.5,17-37c-12.3-18.5,36.3-2.3,33.9-22.4c-0.9-8.1-8-12.1-17.2-12.9
				c-19.2,1.5-39.4,9.4-43,29.1c-15-4.6-31.2,11.6-30.1,26.6c-1.2-3.5-2.3-8.1-1.2-11.6c7.3-14.5,11-28.4,4.9-40.9
				c-14.7-12.2-33-27.9-56.2-18.1c-3.3,1.4-5.8,2.7-7.7,4c8.5,14.8,30.9,21.2,47.4,20.3c-10.4,11.6-18.5,26.6-16.2,42.8
				c3.5,17.4,24.3,20.8,39.3,18.5c9.6,56,20.3,113.6,41.6,166.8c16-6.5,30.1-17.5,39.8-32.2C1487.7,754.5,1461.8,701.5,1454.9,656.9
				z"/>
			<path style="fill:#FF96A9;" d="M1844,777.5c9.9-3.5,19.5-8.1,28.5-13.5l-67-20.7l-68.2,11.4C1762,784.5,1806.5,788.5,1844,777.5z"/>
			<path style="fill:#ED7E94;" d="M1737.3,754.7l-5.9,1c12.7,16.4,34,26.4,52.2,29.3c20.2,2.3,40.9-0.6,60.4-7.5
				C1806.5,788.5,1762,784.5,1737.3,754.7z"/>
			<path style="fill:#3F327A;" d="M1803.7,1414.2c13-86.8,19-179,13.3-272.8l-86.6-41.7c0,0-30.9,116-60.2,290.4
				C1712.9,1407.2,1758.2,1414.8,1803.7,1414.2z"/>
			<path style="fill:#ED7E94;" d="M1670.2,1390.2c-26.8,159.8-52.1,368.6-51,582.2c0,0,137.6-244.3,184.5-558.1
				C1758.2,1414.8,1712.9,1407.2,1670.2,1390.2z"/>
			<path style="fill:#3F327A;" d="M1890.1,1262.9c8.5-36.4,9.5-72.1,4.5-107.2c-35.7,22.4-77.4,36.6-119.3,40c3.6,57.2,11.9,119.8,23.1,183.9
				c6.8-4.7,13.4-9.7,19.9-14.9C1853,1338.1,1879.6,1305.7,1890.1,1262.9z"/>
			<path style="fill:#322666;" d="M1938.5,1388.9c-11.1-124.2-26.5-195.1-40.5-235.5c-1.2,0.8-2.3,1.5-3.5,2.2c5,35.1,4,70.9-4.5,107.2
				c-10.4,42.8-37,75.2-71.8,101.8c-6.5,5.2-13.2,10.2-19.9,14.9c2,11.5,4.1,23,6.3,34.6C1850.1,1413.5,1895.5,1404.6,1938.5,1388.9
				z"/>
			<path style="fill:#322666;" d="M1864.1,1099.7l-90.7,41.7c0.1,17.4,0.7,35.6,1.9,54.3c43.3-3.5,86.3-18.5,122.8-42.3
				C1879.8,1100.4,1864.1,1099.7,1864.1,1099.7z"/>
			<path style="fill:#322666;" d="M1952.6,1972.3c0.7-42.2,1.1-82.3,1.2-120.4c-6.9,2.2-13.9,3.8-21,4.5c2.7,27.6,5.7,55.3,9,82.8
				C1948.5,1960.4,1952.6,1972.3,1952.6,1972.3z"/>
			<path style="fill:#3F327A;" d="M1915.9,1856.4c10.4,34.5,19.3,62.8,25.8,82.8c-3.3-27.6-6.3-55.2-9-82.8
				C1927.2,1856.9,1921.5,1857,1915.9,1856.4z"/>
			<path style="fill:#ED7E94;" d="M1953.8,1851.9c0.8-205.2-5.6-354.4-15.3-462.9c-13.9,5.1-28,9.4-42.3,13c14.6,151.1,21.8,303.3,36.6,454.4
				C1939.8,1855.6,1946.9,1854.1,1953.8,1851.9z"/>
			<path style="fill:#FF96A9;" d="M1896.2,1401.9c-30,7.5-60.8,11.8-91.5,12.2c31,164.4,78.5,333.8,111.3,442.2c5.6,0.6,11.2,0.5,16.8,0
				C1918,1705.2,1910.7,1553,1896.2,1401.9z"/>
			<path style="fill:#FFCC46;" d="M1814.8,1024.5c0,23.1,15,39.3,28.9,59c19.7,28.9-10.4,57.9-35.9,70.6c-34.4,17.7-72.2,21.2-108.8,14.1
				c-0.4,1.1-0.8,2.2-1.1,3.2c0,0,113.4,55.6,209.5-47.4c0,0-23.2-35.6-55.6-60.2c-24.1-18.3,1.6-177.4,54.2-207.5
				c-3.5-5.2-7-10.4-10.2-15.8C1848.4,887.9,1814.8,956.2,1814.8,1024.5z"/>
			<path style="fill:#FFCC46;" d="M1716.5,898.3c-37,12.7-96.1-8.1-89.1-54.4c0.1-0.9,0.3-1.8,0.6-2.6c-3.8,3-6.6,6.2-7.5,9.5
				c-5.8,19.7,9.3,46.3,38.2,61.3c0,0-1.8,15.1-0.4,33c1.5-3.5,3.5-6.8,6.2-9.9C1679.4,919.2,1701.4,913.4,1716.5,898.3z"/>
			<path style="fill:#FFCC46;" d="M1773.2,840.5c17.4,1.2,34.7,8.1,46.3,23.1c6.9,11.6,9.3,23.1,1.2,34.7c-25.5,33.6-75.2,15-93.7-16.2
				c3.5,15,12.7,28.9,25.5,37c24.7,15.7,56.1,18.8,83.1,10.3c9.9-22.9,22.9-44.5,38.1-63.8C1848.2,840.6,1806.7,837.4,1773.2,840.5z
				"/>
			<path style="fill:#FFDD85;" d="M1707.2,783.8l-15,32.8c0,0-45.5,10.1-64.2,24.8c-0.3,0.8-0.5,1.7-0.6,2.6c-6.9,46.3,52.1,67.1,89.1,54.4
				c-15,15-37,20.8-52.1,37c-2.6,3.1-4.6,6.4-6.2,9.9c1.4,17.5,5.7,37.7,17.7,49.1c23.9,22.7,44.4,111.5,23.1,173.8
				c36.6,7,74.4,3.5,108.8-14.1c25.5-12.7,55.6-41.7,35.9-70.6c-13.9-19.7-28.9-35.9-28.9-59c0-32.4,7.6-64.8,20.6-95
				c-27,8.5-58.4,5.4-83.1-10.3c-12.7-8.1-22-22-25.5-37c18.5,31.2,68.3,49.8,93.7,16.2c8.1-11.6,5.8-23.1-1.2-34.7
				c-11.6-15-28.9-22-46.3-23.1c33.5-3,75,0.1,100.3,25.2c7-8.9,14.5-17.3,22.3-25.2c3.2,5.4,6.6,10.7,10.2,15.8
				c0.5-0.3,0.9-0.5,1.4-0.8l28.9-22L1707.2,783.8z"/>
			<path style="fill:#FFFFFF;" d="M1750,658.4l32.8,6.6c0,0-15,13.9-23.9,12.4C1750,675.8,1750,658.4,1750,658.4z"/>
			<path style="fill:#FFCC46;" d="M1658,826.5c0,0,22.9-8,34.1-9.9l14.2-30.8C1706.3,785.7,1682.7,815.4,1658,826.5z"/>
		</g>
		<g>
			<path style="fill:#E8462C;" d="M1555.6,941.2c9.6,5.2,12,17.8,7,26.6l9.8-4.1C1570.7,953.6,1565.5,944.5,1555.6,941.2z"/>
			<path class="st9" d="M1622,924.2c-3.7-8.6-13.6-12.7-22.3-9l-55.4,23.5c-8.6,3.7-12.7,13.6-9,22.3h0c3.7,8.6,13.6,12.7,22.3,9
				l5.1-2.2c4.9-8.8,2.6-21.3-7-26.6c9.9,3.3,15.1,12.4,16.8,22.4l40.5-17.2C1621.6,942.7,1625.6,932.8,1622,924.2z"/>
			<path style="fill:#E8462C;" d="M1614,941.6l-55.4,23.5c-8.6,3.7-18.6-0.4-22.3-9l0,0c-1.1-2.5-1.5-5.2-1.3-7.7c-1.5,3.9-1.5,8.4,0.3,12.6h0
				c3.7,8.6,13.6,12.7,22.3,9l55.4-23.5c6.1-2.6,9.9-8.3,10.3-14.5C1621.7,936.1,1618.5,939.7,1614,941.6z"/>
			<path class="st9" d="M1807.9,923.2L1807.9,923.2c-3.7-8.6-13.6-12.7-22.3-9l-55.4,23.5c-8.6,3.7-12.7,13.6-9,22.3
				s13.6,12.7,22.3,9l12.5-5.3c1.8-8.9,0-18.7-8.3-23.6c10.8,2.7,14.1,11.3,15,20.8l36.2-15.3
				C1807.5,941.8,1811.5,931.8,1807.9,923.2z"/>
			<path style="fill:#E8462C;" d="M1747.7,940c8.3,5,10,14.7,8.3,23.6l6.8-2.9C1761.8,951.3,1758.5,942.7,1747.7,940z"/>
			<path style="fill:#E8462C;" d="M1807.9,923.2L1807.9,923.2c-0.3-0.8-0.8-1.6-1.2-2.3c2,8-2,16.5-9.8,19.8l-55.4,23.5
				c-7.8,3.3-16.7,0.3-21-6.7c0.2,0.8,0.5,1.7,0.8,2.5c3.7,8.6,13.6,12.7,22.3,9l55.4-23.5C1807.5,941.8,1811.5,931.8,1807.9,923.2z
				"/>
			<polygon style="fill:#D99287;" points="1841.5,1165.7 1522.9,1165.7 1522.9,1122.9 1841.5,1127.5 			"/>
			<polygon style="fill:#F5B7AD;" points="1830.7,1133.4 1772,1972.3 1664.5,1972.3 1648.9,1079.6 1730.7,1086.5 			"/>
			<polygon style="fill:#FFD4CD;" points="1695.7,1972.3 1442.9,1972.3 1405.8,1072.5 1695.7,1072.5 			"/>
			<g>
				<path style="fill:#3F327A;" d="M1448.4,1064.2c-2.6,0-4.6-2.1-4.6-4.6v-60.2c0-1.9,1.1-3.5,2.8-4.3l101.1-43.2c2.3-1,5.1,0.1,6.1,2.4
					c1,2.4-0.1,5.1-2.4,6.1l-98.3,42v57.1C1453,1062.2,1450.9,1064.2,1448.4,1064.2z"/>
			</g>
			<g>
				<path style="fill:#3F327A;" d="M1635.4,1061.3c-2.6,0-4.6-2.1-4.6-4.6v-60.2c0-1.9,1.1-3.5,2.8-4.3l101.1-43.2c2.3-1,5.1,0.1,6.1,2.4
					c1,2.4-0.1,5.1-2.4,6.1l-98.3,42v57.1C1640,1059.3,1637.9,1061.3,1635.4,1061.3z"/>
			</g>
			<rect x="1386.6" y="1051.1" style="fill:#F5B7AD;" width="315.9" height="42.8"/>
			<polygon style="fill:#E8A499;" points="1702.6,1051.1 1841.5,1127.5 1841.5,1165.7 1702.6,1093.9 			"/>
			<ellipse style="fill:#E8A499;" cx="1553.3" cy="1503.1" rx="75.3" ry="219.3"/>
			<path style="fill:#D99287;" d="M1493,1507.6c0-121.1,33.7-219.3,75.3-219.3c0.1,0,0.2,0,0.3,0c-5-3-10.1-4.6-15.4-4.6
				c-41.6,0-75.3,98.2-75.3,219.3c0,120.8,33.5,218.8,74.9,219.3C1518.8,1701.7,1493,1613.4,1493,1507.6z"/>
		</g>
	</g>
</g>
<g>
	<path style="fill:#C8C2ED;" d="M3789.8,1983.5H273.9c-3.7,0-6.6-2.2-6.6-4.8c0-2.7,3-4.8,6.6-4.8h3515.9c3.7,0,6.6,2.2,6.6,4.8
		C3796.4,1981.3,3793.5,1983.5,3789.8,1983.5z"/>
</g>
<g>
	<path style="fill:#FF96A9;" d="M573.4,1883.7c17.7-41.1,33.8-81.6,48.4-121.2c-23.4,4.5-47-7-68.5-19.3c-4.8,52.3-9,99.2-12.3,136.8
		C551.8,1882.7,562.6,1883.9,573.4,1883.7z"/>
	<path style="fill:#DB4A87;" d="M573.4,1883.7c-10.8,0.2-21.6-1-32.4-3.7c-5,56.9-7.9,92.3-7.9,92.3C547.4,1942.5,560.8,1912.9,573.4,1883.7z
		"/>
	<path style="fill:#DB4A87;" d="M635.3,1082.5c-25.2,81-60.2,424.9-82,660.7c21.5,12.4,45.1,23.9,68.5,19.3
		c134.3-363.8,143.4-649.6,143.4-649.6L635.3,1082.5z"/>
	<path style="fill:#E5649A;" d="M765.2,1112.9c3.6-55.1-129.9-30.4-129.9-30.4s-76.3,13-76.3,97.8c0,64.7,38.5,334.6,108.4,578.4
		c24.3,8.8,51.4,6.8,76.2-2.1c-0.8-183.6-7.8-435.6-37.8-552.7C705.8,1203.9,761.6,1168,765.2,1112.9z"/>
	<path style="fill:#E5649A;" d="M741.8,1972.3c0,0,0.9-37.4,1.4-96.3c-11.6,4-23.7,6.7-36.2,7.5C718.1,1914.6,729.7,1944.4,741.8,1972.3z"/>
	<path style="fill:#FF96A9;" d="M743.6,1756.6c-24.8,9-51.8,10.9-76.2,2.1c12.3,42.8,25.5,84.9,39.7,124.8c12.4-0.8,24.5-3.4,36.2-7.5
		C743.6,1842.3,743.8,1801.5,743.6,1756.6z"/>
	<path style="fill:#ED7E94;" d="M705.8,681.2l-55,11l1.1,10.3c13.4,4.8,27.6,6.8,41.9,7.4C696.9,690.7,705.8,681.2,705.8,681.2z"/>
	<path style="fill:#FF96A9;" d="M651.9,702.5l7.6,68.4l41.5-4.8c-8.8-23.8-9.5-42.5-7.3-56.2C679.5,709.4,665.4,707.3,651.9,702.5z"/>
	<path style="fill:#ED7E94;" d="M681.4,660.8c5.2-14.3,25.5-20,38.6-32.3c-5.7-6.6-10.3-10.9-10.3-10.9c-149.3-3.1-83.3,82.5-83.3,82.5
		s42.1-0.6,75.3-6.6C685.9,687.6,675.1,677.4,681.4,660.8z"/>
	<path style="fill:#FF96A9;" d="M741.1,675.7c4.1-14.8-10.4-35-21.1-47.2c-13.1,12.3-33.4,18-38.6,32.3c-6.3,16.6,4.4,26.8,20.3,32.7
		C721.9,689.9,738.8,684.3,741.1,675.7z"/>
	<path style="fill:#3F327A;" d="M645.3,661.6c0,0,61.3-14.1,91.9-59.7c30.6-45.6-14.1-102.9-69.1-61.3c-55,41.6-53.4,83.3-53.4,83.3
		s-36.1,10.2-38.5,37.7c-2.4,27.5,18.1,44,18.1,44s-110.8,47.9-93.5,132c17.3,84.1,141.4,77,141.4,77l18.1-149.3
		c0,0,7.9-69.1-8.6-84.1c0,0-29.9-3.9-25.1-20.4C631.1,644.3,645.3,661.6,645.3,661.6z"/>
	<path style="fill:#FFDD85;" d="M769.5,1104.7c13.8-27.3,56.5-116.8,56.5-178.3c0-59.8-134.8,3.6-184.7,29.1c4.7,33.8,4.3,69.2,18.1,99.7
		C680.6,1101.2,724.2,1110.9,769.5,1104.7z"/>
	<path style="fill:#FFA42F;" d="M659.4,1055.3c-13.8-30.5-13.4-65.9-18.1-99.7c-11.3,5.8-18.3,9.6-18.3,9.6s25.9,78.6,12.3,117.3
		c0,0,37.7,54.5,129.9,30.4c0,0,1.6-3,4.2-8.2C724.2,1110.9,680.6,1101.2,659.4,1055.3z"/>
	<path style="fill:#FFDD85;" d="M798.8,761.9l-44.3,1.9c-40.3,36.1-100.2,52.4-148.8,27.6l-52,19.8l-99.5,154l484-103.7L798.8,761.9z"/>
	<path style="fill:#FF96A9;" d="M754.5,763.8l-53.4,2.3l-41.5,4.8l-53.9,20.5C654.2,816.2,714.2,799.9,754.5,763.8z"/>
	
		<rect x="325.4" y="812.5" transform="matrix(0.9703 -0.242 0.242 0.9703 -200.8069 197.6366)" style="fill:#B1ABDE;" width="757.4" height="207.4"/>
	<path style="fill:#FF96A9;" d="M323.1,1016c-4.7,17.3-1.6,34.6,12.6,45.6c18.2,11.6,38.2,12.7,56.7,7.5c0.7-0.7,1.3-1.5,1.9-2.2
		c19.9-24.1,1-81.7-36.7-62.9c0,0,55.5-53.4,37.7-65c-2.4-1.5-5.9-1.6-10.1-0.3C354.9,953.7,330.9,982.1,323.1,1016z"/>
	<path style="fill:#ED7E94;" d="M335.7,1061.5c-14.1-11-17.3-28.3-12.6-45.6c7.8-33.8,31.8-62.3,62.1-77.3c-27.5,8-86,69.1-70.5,114.5
		c17.3,50.7,57.1,38.6,77.7,15.9C373.9,1074.3,353.9,1073.1,335.7,1061.5z"/>
	<path style="fill:#FF96A9;" d="M1071.1,825.8c-7.9,0-15.7,4.7-20.4,9.4c-12.6,15.7-4.7,37.7,11,50.3c13.6,9.8,28.3,11.6,42.8,9.3
		c7.7-7.5,12.8-19.9,12.7-38.6c-0.2-53.9-95.3-96.2-112.3-82.8C1012.8,801,1048,812.8,1071.1,825.8z"/>
	<path style="fill:#ED7E94;" d="M1061.7,885.5c-15.7-12.6-23.6-34.6-11-50.3c4.7-4.7,12.6-9.4,20.4-9.4c-23.2-13-58.4-24.8-66.2-52.4
		c-0.4,0.3-0.9,0.7-1.2,1.2c-13.1,16.7,56.8,49.1,56.8,49.1c-41.8-5.5-40.9,55.1-14.2,71.4c17.6,10.8,43,14.5,58.1-0.2
		C1090,897.2,1075.3,895.3,1061.7,885.5z"/>
	<g>
		<path style="fill:#FFFFFF;" d="M586.8,1006.5c-0.1,2.5-1.2,4-3.4,4.6l-21.3,5.3c-2.3,0.6-4-0.3-5.2-2.4l-59.7-107c-1.3-2.1-0.4-3.6,1.5-4.1
			l24.4-6.1c2.1-0.5,4.1,0.1,5.2,2.3l32.7,73.2l3.9,10.3l-1.4-11l-5.7-79.8c0-2.5,1.4-4,3.5-4.5l24.4-6.1c2-0.5,3.4,0.4,3.3,2.9
			L586.8,1006.5z"/>
		<path style="fill:#FFFFFF;" d="M604.2,920.5c-5.8-23.1,2.4-47.5,30.8-54.6c28-7,47,10.3,52.9,33.6l9.8,39.2c5.8,23.3-2.8,47.5-30.8,54.5
			c-27.6,6.9-47.1-10.4-52.9-33.6L604.2,920.5z M644,954.4c1.9,7.8,7.6,12.8,15.9,10.7c8.3-2.1,10.9-9.2,8.9-16.8l-11-43.8
			c-1.8-7.3-7.7-12.8-15.8-10.7c-8.2,2.1-10.8,9.8-9,17L644,954.4z"/>
		<path style="fill:#FFFFFF;" d="M685.2,860c-0.6-2.3,0.1-3.8,2.1-4.3l71.4-17.9c1.8-0.4,3.3,0.5,3.9,2.8l5.2,20.9c0.6,2.3-0.3,3.8-2.1,4.2
			l-20.8,5.2l22.6,90.2c0.6,2.3-0.3,3.8-2.3,4.3l-23.4,5.9c-2,0.5-3.2-0.5-3.8-2.8l-22.6-90.2l-21.1,5.3c-2,0.5-3.3-0.4-3.9-2.8
			L685.2,860z"/>
		<path style="fill:#FFFFFF;" d="M773.4,837.9c-0.6-2.3,0.2-3.9,2.5-4.4l61.1-15.3c2-0.5,3.2,0.5,3.8,2.9l5.2,20.9c0.6,2.3-0.1,3.7-2,4.2
			l-35.2,8.8l4.7,18.8l26.6-6.7c2-0.5,3.5,0.3,4.1,2.8l5.2,20.8c0.6,2.3-0.1,3.8-2.4,4.3l-26.6,6.7l4.8,19l36.1-9
			c2-0.5,3.3,0.4,3.8,2.7l5.3,21.1c0.6,2.3-0.1,3.8-2.1,4.2l-62.1,15.5c-2.3,0.6-3.7-0.3-4.3-2.6L773.4,837.9z"/>
		<path style="fill:#FFFFFF;" d="M882.2,912.6c-0.6-2.3,0.7-3.7,2-4l21.9-5.5c2.6-0.6,3.7,1.5,3.9,2.5l4.8,19.2c0.7,2.6-1.7,3.8-2.3,3.9
			l-21.8,5.5c-0.7,0.2-3.1,0.2-3.8-2.4L882.2,912.6z M858.4,816.6c-0.6-2.3,0.3-3.9,2.6-4.5l20.3-5.1c2.3-0.6,3.8,0.4,4.4,2.7
			l19.5,77.7c0.6,2.3-0.3,3.8-2.6,4.4l-20.3,5.1c-2.4,0.6-3.8-0.3-4.4-2.6L858.4,816.6z"/>
	</g>
</g>
<g>
	<path style="fill:#ED7E94;" d="M3349,438.7c0,0-5.8,46.1,20.4,58.7c26.2,12.6,21.5-25.7,21.5-25.7L3349,438.7z"/>
	<path style="fill:#ED7E94;" d="M2727.7,827.4c-0.2-2.3,29.3-17.3,40.3-8.6c11,8.6,8.9,74.1,0,76.7C2759.1,898.1,2735,898.1,2727.7,827.4z"/>
	<path style="fill:#ED7E94;" d="M3149,740.5l2.5-9.8l-69.9-25.9c0,0,15.3,14.9,12.4,42.1C3112.5,748.7,3131.1,746.1,3149,740.5z"/>
	<path style="fill:#FF96A9;" d="M3134.2,678.1c-6.7-18.8-32.8-22.7-50.1-37.1l-20.1,30.8l10.5,5.2c0,0-11,33.5-10.5,41.4
		c0.2,3.1,13.6,5.6,29.8,7.6C3119.6,718.1,3143.4,702.3,3134.2,678.1z"/>
	<path style="fill:#ED7E94;" d="M3207,672.9l-113.7-46.1L3084,641c17.3,14.4,43.4,18.3,50.1,37.1c9.2,24.3-14.6,40-40.4,47.9
		c25.4,3.1,57.7,4.7,57.7,4.7L3207,672.9z"/>
	<path style="fill:#322666;" d="M3158.5,674.2c0,0-98.2-36.9-132-113.9c0,0,124.9,37.7,211.4,113.9c0,0-37.7,46.4-86.4,56.6l11.8-36.1
		c0,0,24.4-11,14.1-24.4C3167.2,656.9,3158.5,674.2,3158.5,674.2z"/>
	<path style="fill:#FF96A9;" d="M2753.8,919.8c-2.9-2.5-5.5-5-7.8-7.6c0,0,27.5-128.9-60.5-93.5c-44.1,17.7-25.1,86.7,26.3,151.4
		C2732.3,959.8,2748.7,941.2,2753.8,919.8z"/>
	<path style="fill:#F6DEF8;" d="M2769.1,931.2c-5.7-3.7-10.8-7.5-15.3-11.4c-5.1,21.3-21.5,40-41.9,50.3c5.9,7.4,12.2,14.8,18.9,22
		C2749.4,976.3,2763.8,955.1,2769.1,931.2z"/>
	<path style="fill:#FF96A9;" d="M3363.4,391.7c-71.3,39.1,34,121.1,58.4,103.3c0,0,0.7,2.6,2,7.2c13.4-2.3,26.9-7,38.7-14.2
		c-12.2-28.3-27.8-55-48.5-78.6C3402.1,395.5,3382.7,389.8,3363.4,391.7z"/>
	<path style="fill:#ED7E94;" d="M3378.6,385c-5.8,2-10.8,4.3-15.2,6.7c19.4-1.9,38.7,3.8,50.6,17.7c20.7,23.7,36.3,50.3,48.5,78.6
		c4.3-2.7,8.4-5.7,12.1-9.1C3450.4,417.6,3418.3,370.9,3378.6,385z"/>
	<path style="fill:#F6DEF8;" d="M3474.5,478.9c-13.8,12.5-32.5,20.2-50.8,23.3c1.1,4,2.5,9.4,4.2,15.9c18.6-4.6,37.9-11.8,52.5-23.4
		C3478.5,489.4,3476.6,484.1,3474.5,478.9z"/>
	<path style="fill:#F6DEF8;" d="M2966,1003.4c-14.1,26.7-29.9,53.4-45.6,80.1c-46.4-11.8-95.5-25-139.8-46.1c44.5,33.8,97.3,57.9,150.8,58.7
		c0,0,71.5-98.2,78.6-152.4l29.6-10.6c-10.4-19.3-21.9-37.8-32.8-56.9C2997.5,920.1,2988,962.5,2966,1003.4z"/>
	<path style="fill:#FEF2FE;" d="M3363.6,797.5c55-28.3,119.4-51.9,147.7-111.6c-10.9-60.6-20.6-124.9-42.9-183.1
		c-12.4,7.1-26.6,11.9-40.5,15.3c10.3,40.2,29,121.4,19.7,150.5c0,0-105.7,88.6-219.2,103.7l-88.8,3.9l-54.2-1.6l-95.1,25.1
		c0,0-70.7,137.5-84.9,188.6c0,0-87.2-25-136.4-57.2c-5.2,23.9-19.7,45.1-38.3,61c14.9,16.1,31.7,31.5,49.9,45.3
		c44.3,21.1,93.4,34.3,139.8,46.1c15.7-26.7,31.4-53.4,45.6-80.1c22-40.9,31.4-83.3,40.9-127.3c10.9,19.1,22.3,37.7,32.8,56.9
		l179.2-64.3c3.3-7.7,6.1-15.6,8-24.1C3275.6,840,3321.2,819.5,3363.6,797.5z"/>
	<path style="fill:#F6DEF8;" d="M2985.4,860.4c-23.9,34.9-18.9,88.8-11.1,126.4c13.1-28.8,21-58.3,27.8-88.6L2985.4,860.4z"/>
	<path style="fill:#F6DEF8;" d="M3480.5,494.7c-3.7,3-7.8,5.7-12,8.1c22.3,58.2,32,122.5,42.9,183.1c-28.3,59.7-92.7,83.3-147.7,111.6
		c-42.4,22-88,42.4-136.7,47.1c-1.9,8.5-4.7,16.4-8,24.1l19-6.8c0,0,227.1-70.7,291.5-165C3529.4,696.9,3513,585,3480.5,494.7z"/>
	<path style="fill:#FF96A9;" d="M3093.9,746.9c-0.9,8.2-3.4,17.5-8.5,27.8l8.9,44l45.4-42.4l9.3-35.8C3131.1,746.1,3112.5,748.7,3093.9,746.9z
		"/>
	<path style="fill:#3F327A;" d="M3082.3,1333.4c-19.8-58.2-26.9-120.4-22.9-181.8l-6.4,1.6c0,0-233.1,566.8-266.1,780.5c0,0,1-1.3,2.9-3.7
		c58.9-99.7,111.8-200.8,168.4-304.3C3008.5,1529.8,3046.2,1432.4,3082.3,1333.4z"/>
	<path style="fill:#322666;" d="M3195.5,1117.1l-136.1,34.5c-4,61.4,3.1,123.6,22.9,181.8c-36.1,99-73.9,196.4-124.1,292.3
		c-56.6,103.5-109.5,204.6-168.4,304.3C2827.2,1881.5,3219.4,1366,3195.5,1117.1z"/>
	<path style="fill:#3F327A;" d="M3195.5,1117.1c0,0,84.8,16.8,54.2,122.1c0,0,143.8,333.2,151.7,694.6c0,0-269.1-425.9-288.6-652.2
		c0,0-68.7-30.4-59.8-128.3L3195.5,1117.1z"/>
	<path style="fill:#322666;" d="M3168.8,1122.8c-35,24.8-78.1,34.7-116.7,19.7c0.5,3.7,0.9,7.3,1,10.7c0,0,94.3,43.5,142.5-36.2
		c0,0-1.6-5.4-3.5-14.2C3185.2,1110,3177.6,1116.7,3168.8,1122.8z"/>
	<path style="fill:#F6DEF8;" d="M3195.5,979.8c18.9-42.7,44.9-102.6,52.2-138.1c-6.9,1.3-13.8,2.3-20.8,3c-9.4,42.4-40.9,72.3-56.6,111.6
		c-17.3,44,7.9,92.7-20.4,135.2c-23,34-60.1,44.5-98.6,46.7c0.3,1.5,0.5,2.9,0.7,4.4c38.7,15,81.8,5.1,116.7-19.7
		c8.8-6.1,16.5-12.8,23.2-20C3186.3,1076.8,3177.5,1020.5,3195.5,979.8z"/>
	<path style="fill:#FEF2FE;" d="M3248.9,818.7L2992.8,836c0,0-30.9,83-8.9,141.7c19.7,52.6,58.9,114.6,67.5,160.4
		c38.5-2.3,75.6-12.7,98.6-46.7c28.3-42.4,3.1-91.1,20.4-135.2c15.7-39.3,47.1-69.1,56.6-111.6c7-0.7,13.9-1.7,20.8-3
		C3249.7,831.9,3250.3,824,3248.9,818.7z"/>
	<polygon style="fill:#322666;" points="2804.3,1910.9 2846.6,1972.3 2558.5,1972.3 	"/>
	<polygon style="fill:#322666;" points="3387.3,1910.9 3328.5,1972.3 3606.2,1972.3 	"/>
	<g>
		<path style="fill:#F5B7AD;" d="M2900.1,1972.3c-4.6,0-8.6-3.3-9.3-8L2631.5,283.7c-0.8-5.1,2.7-10,7.9-10.8c5.1-0.8,10,2.7,10.8,7.9
			l259.3,1680.7c0.8,5.1-2.7,10-7.9,10.8C2901.1,1972.3,2900.6,1972.3,2900.1,1972.3z"/>
	</g>
	
		<rect x="2386" y="291.8" transform="matrix(0.9875 -0.1575 0.1575 0.9875 -36.4831 425.8365)" style="fill:#B1ABDE;" width="563.4" height="302.6"/>
	<path style="fill:#ED7E94;" d="M2753.2,864.1c-0.3-38.4-20-44.8-20-44.8s25.7-45.4,12-55.2c-0.2-0.1-0.3-0.2-0.5-0.3
		c-1.3,22.2-14.7,41.3-27,60.4C2739.1,823.1,2749.2,843.7,2753.2,864.1z"/>
	<path style="fill:#FF96A9;" d="M2746,912.2c5.3-20,7.3-35.7,7.2-48.2c-4-20.4-14.1-41-35.5-39.9c12.3-19.1,25.7-38.2,27-60.4
		c-14.4-8-65.1,57.8-65.1,57.8S2724.3,994,2746,912.2z"/>
	<polygon style="fill:#F6DEF8;" points="3069.8,786.5 3062.9,849.4 3092.5,823.2 3109.3,853.8 3153.6,781 3109.6,844.1 3094.3,818.7 
		3070.3,836.5 	"/>
	<g>
		<path style="fill:#F6DEF8;" d="M3112.8,900.2c-1.5,0-2.9-1.1-3.1-2.7c-0.3-1.7,0.9-3.3,2.6-3.6l72.7-11c1.7-0.3,3.3,0.9,3.6,2.6
			c0.3,1.7-0.9,3.3-2.6,3.6l-72.7,11C3113.1,900.2,3112.9,900.2,3112.8,900.2z"/>
	</g>
	<polygon style="fill:#DB4A87;" points="3092.5,823.2 3081.5,833 3086,847.6 3098.9,834.9 	"/>
	<path style="fill:#E5649A;" d="M3089.7,838.4c0.3-2,0.5-3,0.5-3c-65.6,117.9-79.4,238-79.4,238c5.5,30.6,65.2,73.1,65.2,73.1
		c0.1-0.1,0.2-0.2,0.4-0.3C3034.2,1048.1,3051.9,935.6,3089.7,838.4z"/>
	<path style="fill:#DB4A87;" d="M3125.5,1078.8c-59.3-74.4-39.4-217.8-35.8-240.4c-37.8,97.2-55.5,209.7-13.3,307.7
		C3106.1,1122.5,3125.5,1078.8,3125.5,1078.8z"/>
	<circle style="fill:#FEF2FE;" cx="2728.3" cy="975.6" r="5.5"/>
	<circle style="fill:#FEF2FE;" cx="3473" cy="492.3" r="4.3"/>
	<g>
		<path style="fill:#FFFFFF;" d="M2525.9,537.6c-0.3,2.8-1.7,4.4-4.2,4.8l-24.2,4c-2.6,0.4-4.4-0.7-5.6-3.2l-56.8-124.8
			c-1.3-2.5-0.2-4.1,2.1-4.4l27.8-4.6c2.4-0.4,4.6,0.4,5.6,3.1l29.8,84.6l3.4,11.8l-0.5-12.4l0.9-89.6c0.2-2.8,1.9-4.3,4.3-4.7
			l27.8-4.6c2.2-0.4,3.7,0.8,3.4,3.5L2525.9,537.6z"/>
		<path style="fill:#FFFFFF;" d="M2553.2,443.3c-4.3-26.3,7.1-52.8,39.4-58.1c31.9-5.2,51.5,15.8,55.9,42.3l7.3,44.6
			c4.4,26.5-7.5,52.7-39.4,58c-31.4,5.2-51.5-16-55.9-42.3L2553.2,443.3z M2594.5,484.8c1.5,8.8,7.4,15,16.8,13.4
			c9.4-1.5,13-9.2,11.5-18l-8.2-49.9c-1.4-8.3-7.4-14.9-16.7-13.4c-9.3,1.5-12.9,9.9-11.6,18.1L2594.5,484.8z"/>
		<path style="fill:#FFFFFF;" d="M2649.1,383.3c-0.4-2.6,0.5-4.3,2.7-4.6l81.3-13.4c2-0.3,3.6,0.9,4.1,3.5l3.9,23.8c0.4,2.6-0.7,4.2-2.7,4.5
			l-23.7,3.9l16.9,102.7c0.4,2.6-0.7,4.2-2.9,4.6l-26.6,4.4c-2.2,0.4-3.5-0.8-4-3.4l-16.9-102.7l-24,3.9c-2.2,0.4-3.6-0.8-4.1-3.4
			L2649.1,383.3z"/>
		<path style="fill:#FFFFFF;" d="M2749.5,366.8c-0.4-2.6,0.6-4.3,3.2-4.7l69.6-11.4c2.2-0.4,3.5,0.8,4,3.5l3.9,23.8c0.4,2.6-0.4,4.2-2.6,4.5
			l-40,6.6l3.5,21.4l30.3-5c2.3-0.4,3.9,0.7,4.4,3.5l3.9,23.7c0.4,2.6-0.5,4.2-3,4.6l-30.3,5l3.6,21.7l41.1-6.8
			c2.2-0.4,3.6,0.8,4,3.3l3.9,24c0.4,2.6-0.5,4.2-2.7,4.5l-70.7,11.6c-2.6,0.4-4.1-0.7-4.5-3.3L2749.5,366.8z"/>
		<path style="fill:#FFFFFF;" d="M2864.1,460.1c-0.4-2.6,1.1-4.1,2.6-4.3l25-4.1c2.9-0.5,3.9,2,4.1,3.1l3.6,21.9c0.5,3-2.2,4.1-2.9,4.2
			l-24.8,4.1c-0.8,0.1-3.5,0-4-3L2864.1,460.1z M2846.3,350.9c-0.4-2.6,0.7-4.3,3.3-4.7l23.1-3.8c2.6-0.4,4.2,0.8,4.7,3.4l14.5,88.4
			c0.4,2.6-0.7,4.2-3.3,4.6l-23.1,3.8c-2.7,0.4-4.2-0.7-4.6-3.3L2846.3,350.9z"/>
	</g>
</g>
</svg>
