<?xml version="1.0" encoding="utf-8"?>
<!-- Generator: Adobe Illustrator 19.0.0, SVG Export Plug-In . SVG Version: 6.00 Build 0)  -->
<svg version="1.1" id="_x3C_Layer_x3E_" xmlns="http://www.w3.org/2000/svg" xmlns:xlink="http://www.w3.org/1999/xlink" x="0px"
	 y="0px" viewBox="0 0 3262.7 2772.9" style="enable-background:new 0 0 3262.7 2772.9;" xml:space="preserve">
<style type="text/css">
	.st0{fill:#E5649A;}
	.st1{fill:#DB4A87;}
	.st2{fill:#FFCC46;}
	.st3{fill:#FFA42F;}
	.st4{fill:#7860DC;}
	.st5{fill:#3F327A;}
	.st6{fill:#F2F0FF;}
	.st7{fill:#E4E0FF;}
	.st8{fill:#ED7E94;}
	.st9{fill:#FF96A9;}
	.st10{fill:#322666;}
	.st11{fill:#ED482D;}
	.st12{fill:#FF5B41;}
	.st13{fill:#FFD4CD;}
	.st14{fill:#F5B7AD;}
	.st15{fill:#634AC9;}
	.st16{fill:#FFFFFF;}
	.st17{fill:#C8C2ED;}
	.st18{fill:#FFDD85;}
	.st19{fill:#F6DEF8;}
	.st20{fill:#ECC2F0;}
	.st21{fill:#FEF2FE;}
	.st22{filter:url(#Adobe_OpacityMaskFilter);}
	.st23{filter:url(#Adobe_OpacityMaskFilter_1_);}
	.st24{mask:url(#SVGID_1_);fill:url(#SVGID_2_);}
	.st25{opacity:0.44;fill:url(#SVGID_3_);}
	.st26{fill:#E6E6E6;}
	.st27{fill:#F7F7F7;}
	.st28{fill:#FE9736;}
	.st29{fill:#EAC7ED;}
	.st30{fill:#D4A5D9;}
</style>
<g>
	<g>
		<g>
			<g>
				<g>
					
						<rect x="980.5" y="1584.4" transform="matrix(-0.4945 -0.8692 0.8692 -0.4945 47.1455 3318.1106)" style="fill:#E5649A;" width="15.9" height="121.9"/>
				</g>
				<g>
					<polygon style="fill:#E5649A;" points="1034.2,1602.4 1049.2,1628.6 1055.2,1607.8 					"/>
				</g>
			</g>
			<polygon style="fill:#DB4A87;" points="939.7,1679.6 932.9,1667.8 931.5,1668.6 939.4,1682.4 1045.4,1622.1 1044.3,1620.1 			"/>
		</g>
		<g>
			<g>
				<g>
					
						<rect x="809.9" y="1395.5" transform="matrix(-0.4945 -0.8692 0.8692 -0.4945 -364.2434 3651.2136)" style="fill:#FFCC46;" width="139.5" height="1072.1"/>
				</g>
				<g>
					<polygon style="fill:#FFCC46;" points="1281.5,1553.8 1413.3,1784.6 1466.2,1601.3 					"/>
				</g>
			</g>
			<polygon style="fill:#FFA42F;" points="450.7,2233.1 391.5,2129 379.2,2136 448.2,2257.2 1380.1,1727.1 1370.3,1709.9 			"/>
		</g>
		<g>
			<g>
				<g>
					
						<rect x="1019.7" y="1873.5" transform="matrix(-0.4945 -0.8692 0.8692 -0.4945 -247.2181 4026.1682)" style="fill:#7860DC;" width="55" height="423"/>
				</g>
				<g>
					<polygon style="fill:#7860DC;" points="1205.7,1936 1257.7,2027 1278.6,1954.7 					"/>
				</g>
			</g>
			<polygon style="fill:#3F327A;" points="878,2203.9 854.6,2162.9 849.8,2165.6 877,2213.5 1244.6,2004.3 1240.7,1997.5 			"/>
		</g>
		<g>
			<g>
				<g>
					
						<rect x="955" y="1561" transform="matrix(-0.4945 -0.8692 0.8692 -0.4945 -40.9365 3428.2642)" style="fill:#7860DC;" width="43" height="330.1"/>
				</g>
				<g>
					<polygon style="fill:#7860DC;" points="1100.2,1609.7 1140.8,1680.8 1157.1,1624.4 					"/>
				</g>
			</g>
			<polygon style="fill:#3F327A;" points="844.4,1818.9 826.2,1786.8 822.4,1789 843.6,1826.3 1130.5,1663.1 1127.5,1657.8 			"/>
		</g>
		<g>
			<g>
				<g>
					
						<rect x="1235.3" y="1768.5" transform="matrix(-0.4945 -0.8692 0.8692 -0.4945 243.141 3873.6606)" style="fill:#E5649A;" width="25.4" height="195.2"/>
				</g>
				<g>
					<polygon style="fill:#E5649A;" points="1321.2,1797.4 1345.2,1839.4 1354.8,1806 					"/>
				</g>
			</g>
			<polygon style="fill:#DB4A87;" points="1169.9,1921 1159.2,1902.1 1156.9,1903.3 1169.5,1925.4 1339.1,1828.9 1337.3,1825.8 			"/>
		</g>
	</g>
	<g>
		<path style="fill:#F2F0FF;" d="M1568.3,1546.8h-130.1l51.6-9.8c0,0-6.7-15.1,9.8-13.7c0,0-2.1-17.4,13.4-13.7c0,0,1-17.4,20.7-15.9
			c19.6,1.5,10.8,22.4,10.8,22.4s20.7-14.3,31.5,0C1586.9,1530.6,1568.3,1546.8,1568.3,1546.8z"/>
		<path style="fill:#F2F0FF;" d="M360.1,1609.9h370.6l-134-20.9c0,0-0.7-40.3-44.8-23.9c0,0-3.6-30.6-37.6-32.1c-34-1.5-31.8,27.6-31.8,27.6
			s-43.3-28.4-68.7-0.7c-25.4,27.6,14.9,35.1,14.9,35.1L360.1,1609.9z"/>
	</g>
	<g>
		<path style="fill:#E4E0FF;" d="M1575.5,2578.3H247c-1.4,0-2.5-1-2.5-2.3s1.1-2.3,2.5-2.3h1328.5c1.4,0,2.5,1,2.5,2.3
			S1576.9,2578.3,1575.5,2578.3z"/>
	</g>
	<g>
		<path style="fill:#ED7E94;" d="M741,1903.4l-30.3,15.3v2.7c8.4,2.6,17,4.1,25.6,4.6C735.9,1913.1,741,1903.4,741,1903.4z"/>
		<path class="st9" d="M736.3,1926c-8.6-0.5-17.2-2-25.6-4.6v36.2c0,0,57.5,19.8,36.8-3.7C739.2,1944.6,736.5,1934.6,736.3,1926z"/>
		<path style="fill:#ED7E94;" d="M724.5,1901.3c-5.2-19,17.9-20.7,33.4-28.3c-2.5-4.6-4.4-7.8-4.4-7.8c-71.3-20.2-60.7,45.5-51.5,51.6
			c4.8,3.2,22.3,2.2,38.4-0.1C732.8,1914.1,726.6,1909.3,724.5,1901.3z"/>
		<path class="st9" d="M757.9,1873c-15.4,7.6-38.5,9.4-33.4,28.3c2.1,8,8.3,12.8,15.9,15.4c14.6-2.1,28.2-5.4,30.7-7.8
			C774.8,1905.3,764.2,1884.5,757.9,1873z"/>
		<path style="fill:#322666;" d="M710.2,1885c0,0,25.7-2.8,48.7-15.6c23-12.9,13.8-52.4-32.2-34c-46,18.4-40.5,57.9-40.5,57.9
			s-20.7-5.1-29,7.4c-8.3,12.4,0,25.7,0,25.7s-23.4,17-16.5,44.6c6.9,27.6,43.5,36.8,64.5,29.9c21-6.9,5.8-108.5,5.8-108.5
			s-13.3,6-12.4-4.6C699.7,1877.2,710.2,1885,710.2,1885z"/>
		<path class="st9" d="M755,1938.2l-29.6-0.3l-45.8,7.1c6.9,7.3,15.4,13,24.8,15.9C723.9,1962.8,743.8,1955.3,755,1938.2z"/>
		<path style="fill:#ED7E94;" d="M755,1938.2c-11.2,17.1-31.1,24.6-50.6,22.6c7.6,2.3,15.8,2.9,24.2,1.2c13.6-3.4,24-12,29.5-23.8L755,1938.2z
			"/>
		<path style="fill:#ED482D;" d="M639.3,1959.1c-29.9,15.5-80.8,44.4-107,74.4c0,0,29.6,24.2,81.8,24.6c-1.9-3.1-3.3-6.5-4-10.3
			c-20.1-0.2-39.8-3.6-58.1-12.7C577.6,2006.5,606.5,1979.5,639.3,1959.1z"/>
		<path style="fill:#ED482D;" d="M771.9,1973.5l9.1-1.6c0,0,80-10.6,100.7-20.7c4.9-2.4,12.9-6.3,22.3-11.1c0.1-2.1,0.1-4.2-0.3-6.3
			c-0.1-0.7-0.3-1.5-0.4-2.2c-42.9,17.1-88.5,26.3-134,31.2C770.9,1966.2,771.6,1969.8,771.9,1973.5z"/>
		<path style="fill:#ED482D;" d="M623.3,2010.4l28.6-16l9.5-1.7c-1.7-3.3-2.8-6.9-3.1-10.7C647.1,1992,634.5,2000.5,623.3,2010.4z"/>
		<path style="fill:#FF5B41;" d="M769.3,1962.7c45.6-4.9,91.1-14,134-31.2c-1.9-8.4-6.3-16.6-13-21.2l-16,8.5l-109,19.5l-7.2-0.1
			c-5.5,11.8-15.9,20.3-29.5,23.8c-18.9,3.9-36.6-3.9-49-17.1l-16.7,2.6c0,0-9.4,4.3-23.5,11.6c-32.9,20.4-61.7,47.4-87.3,76
			c18.2,9.1,38,12.5,58.1,12.7c-0.1-0.3-0.1-0.7-0.2-1c-2.1-10.5,1.8-20.9,9.5-27.8l-12.7,0.6l16.5-9.3c11.2-10,23.8-18.5,35-28.4
			c0.3,3.9,1.4,7.4,3.1,10.7l110.5-19.3C771.6,1969.8,770.9,1966.2,769.3,1962.7z"/>
		<path style="fill:#ED7E94;" d="M891.6,1909.7l-1.2,0.6c7.3,5,11.9,14.2,13.4,23.4c0.3,2.1,0.4,4.2,0.3,6.3c2.1-1.1,4.3-2.2,6.5-3.3
			C907.5,1925.6,901.3,1915,891.6,1909.7z"/>
		<path class="st9" d="M1004.9,1871.1c0.3-9.9-11.5-15.6-11.5-15.6l-101.9,54.1c7.6,4.2,13,11.5,16.5,19.9
			c10-4.1,19.8-8.7,29.5-13.8C961.8,1903.1,983.5,1887.6,1004.9,1871.1z"/>
		<path style="fill:#ED7E94;" d="M937.6,1915.8c-9.7,5.1-19.5,9.7-29.5,13.8c1,2.3,1.8,4.7,2.4,7.1c29.9-15.4,70.7-37.5,85.7-50.8
			c6.3-5.6,8.6-10.6,8.7-14.8C983.5,1887.6,961.8,1903.1,937.6,1915.8z"/>
		<path style="fill:#3F327A;" d="M909.6,2412.5l-18.2-62.8l-91.7-199.4c0,0-65.5-16.6-66,45.5C733.1,2257.8,829,2362,829,2362
			c4.5,23.7,12,46.2,21.3,67C871.1,2430.3,891.4,2423.4,909.6,2412.5z"/>
		<path style="fill:#3F327A;" d="M956.2,2573.7l-16-55.4c-8.5,4.4-17.6,7.8-27,10.2C936.9,2557.1,956.2,2573.7,956.2,2573.7z"/>
		<path class="st9" d="M850.3,2429c17.9,40.3,42.1,74.5,62.9,99.5c9.4-2.4,18.5-5.8,27-10.2l-30.6-105.7
			C891.4,2423.4,871.1,2430.3,850.3,2429z"/>
		<path style="fill:#322666;" d="M871.7,2427.6c-21.6-51.9-36.2-96.6-36.2-96.6c-28.4-33.4-59.1-129.3-73.8-179.8
			c-14.6,4.8-27.9,16.8-28.1,44.6C733.1,2257.8,829,2362,829,2362c4.5,23.7,12,46.2,21.3,67C857.5,2429.4,864.7,2428.9,871.7,2427.6
			z"/>
		<path style="fill:#322666;" d="M953.4,2571.1c-11.2-10.4-22.5-26.1-33.6-44.6c-2.2,0.7-4.4,1.3-6.7,1.9
			C931.5,2550.6,947.2,2565.5,953.4,2571.1z"/>
		<path style="fill:#ED7E94;" d="M850.2,2429c17.9,40.3,42.1,74.5,62.9,99.5c2.2-0.6,4.5-1.2,6.7-1.9c-17.5-29.3-34.2-65.6-48.1-99
			C864.7,2428.9,857.5,2429.4,850.2,2429z"/>
		<path style="fill:#3F327A;" d="M497.4,2504.6c-9.1,23.2-17.2,46.4-23.9,69c0,0,18.6-20.5,46.5-53C511.1,2517.3,503.2,2512,497.4,2504.6z"/>
		<path class="st9" d="M543.3,2401.5c-16.4,33.3-32.3,68.2-46,103.1c5.9,7.3,13.8,12.6,22.6,16c20.2-23.5,45.3-53.4,71.7-86.3
			C571.6,2430,553.7,2419.4,543.3,2401.5z"/>
		<path style="fill:#3F327A;" d="M737.6,2173c-22.5-3-46-12.5-57.9-32.1c-4.9,4.2-10,9.7-12.5,15.6c-5.5,13.1,0,29.7,0,29.7
			s-65.5,97.2-123.9,215.4c10.3,17.9,28.2,28.4,48.3,32.8c60.4-75.2,127.9-166.2,160.3-234.4c0,0,31.7-6.5,44.1-37.1
			C778.2,2172.5,757.6,2175.4,737.6,2173z"/>
		<path style="fill:#322666;" d="M737.6,2173c20,2.4,40.6-0.5,58.4-10.2c1.5-3.8,2.8-8,3.6-12.6c7.6-41.4-108.3-17.9-108.3-17.9
			s-5.7,3.4-11.7,8.6C691.6,2160.5,715.1,2170,737.6,2173z"/>
		<path style="fill:#ED482D;" d="M699.7,2130.9c12.4-24.8,24.1-55.2,11-82.1c-8.3-17.9-26.9-26.2-40-42.1c-3.6-4.9-7.4-9.8-9.9-15.3l-9,2.8
			c0,0,17.5,40.5,40.9,55.6c23.4,15.2,17.9,71.3-10.6,79.5c0,0,15,44.1,69.8,42.8c43.3-1.1,62.5-20.3,68.6-28.3
			c-7.8,5.5-16.6,9.7-25,13.1C762.4,2170.3,723.8,2155.1,699.7,2130.9z"/>
		<path style="fill:#ED482D;" d="M762.4,2004.1c-15.9,13.8-42.8,25.5-62.1,12.4c-6.9-4.8-1.4-14.5,4.8-19.3c13.1-9.7,28.3-9.7,42.8-11.7
			c-25.9-4.4-60.9-1.9-78.9,19.1c0.5,0.7,1.1,1.5,1.6,2.2c8.6,10.4,19.6,17.6,28.5,26.4C723.6,2037.6,750.6,2025.9,762.4,2004.1z"/>
		<path style="fill:#FF5B41;" d="M790.2,2073.9c10-20.1,18-28.9,16.1-48.5c-13-3.5-25.7-9.6-37.1-15.8c12.4,4.8,26.9,6.2,37.9-2.1
			c9.6-6.8,17.9-16.4,20.5-27.6c-6.7-9-38.9-2.5-38.9-2.5l-7.8-23.9l-120.2,38.1c2.1,4.6,5.2,8.9,8.2,13c17.9-21,53-23.6,78.9-19.1
			c-14.5,2.1-29.7,2.1-42.8,11.7c-6.2,4.8-11.7,14.5-4.8,19.3c19.3,13.1,46.2,1.4,62.1-12.4c-11.8,21.9-38.8,33.6-63.2,29.1
			c4.6,4.6,8.7,9.6,11.5,15.7c13.1,26.9,1.4,57.2-11,82.1c24.1,24.1,62.8,39.3,95.9,26.2c8.4-3.4,17.2-7.6,25-13.1
			c1.6-2.1,2.3-3.4,2.3-3.4S778.7,2096.9,790.2,2073.9z"/>
		<path style="fill:#ED482D;" d="M828.8,1985.2c0.4-2.2-0.1-4-1.1-5.3c-2.6,11.2-10.9,20.8-20.5,27.6c-11,8.3-25.5,6.9-37.9,2.1
			c11.3,6.2,24,12.4,37.1,15.8c-0.3-2.9-0.7-6-1.4-9.4C804.9,2016,826.1,2001.8,828.8,1985.2z"/>
		<g>
			<path style="fill:#FFD4CD;" d="M729.2,1665.7c3.5,0.8,7,1.7,10.5,2.6c3.5,0.9,7,1.9,10.4,2.9c6.9,2,13.8,4.3,20.6,6.6
				c13.7,4.6,27.2,9.9,40.5,15.5c26.6,11.4,52.5,24.8,77.1,40.4c12.3,7.9,24.2,16.3,35.7,25.4c11.5,9.1,22.5,18.8,32.8,29.3l1.9,2
				l1.9,2c1.3,1.3,2.6,2.7,3.8,4c2.5,2.7,5,5.5,7.3,8.3c1.2,1.4,2.4,2.8,3.6,4.2l3.5,4.3c2.3,2.9,4.6,5.8,6.7,8.8
				c2.2,3,4.3,6,6.4,9.1c2,3.1,4.1,6.2,6,9.4c2,3.2,3.8,6.4,5.6,9.7c0.9,1.6,1.7,3.3,2.6,4.9l1.3,2.5l1.2,2.5c0.8,1.7,1.7,3.3,2.4,5
				l2.2,5.1l2.2,5.1l1.1,2.5c0.4,0.8,0.7,1.7,1,2.6l4,10.3c0.7,1.7,1.2,3.5,1.8,5.2l1.8,5.2l1.7,5.2c0.5,1.8,1,3.5,1.5,5.3
				c1,3.5,2.1,7,3,10.6c1.8,7.1,3.7,14.2,5.1,21.4c1.6,7.1,2.7,14.4,4,21.6c1,7.2,2.2,14.4,2.9,21.7c0.9,7.2,1.4,14.5,2.1,21.7
				c0.4,7.3,0.9,14.5,1.1,21.8c1,29.1-0.3,58.1-3.3,86.8c-1.5,14.4-3.5,28.7-6,42.9c-2.5,14.2-5.4,28.4-9.2,42.3
				c-0.1,0.4-0.6,0.7-1,0.6c-0.4-0.1-0.6-0.5-0.6-0.9l0,0c3.9-28.4,6.2-57,7.2-85.5c1-28.5,0.7-57.1-1.5-85.4
				c-0.5-7.1-1.2-14.1-1.9-21.2c-0.9-7-1.6-14.1-2.7-21.1c-0.9-7-2.3-14-3.4-20.9c-1.4-6.9-2.7-13.9-4.4-20.7l-1.2-5.1
				c-0.2-0.9-0.4-1.7-0.6-2.6l-0.7-2.6l-2.7-10.2c-1-3.4-2-6.7-3-10.1c-0.5-1.7-1-3.4-1.5-5l-1.7-5l-1.7-5c-0.6-1.7-1.1-3.3-1.8-4.9
				l-3.8-9.8c-0.3-0.8-0.6-1.6-1-2.4l-1.1-2.4l-2.1-4.8l-2.1-4.8c-0.7-1.6-1.5-3.1-2.2-4.7l-1.1-2.3l-1.2-2.3
				c-0.8-1.5-1.6-3.1-2.4-4.6c-1.7-3-3.4-6.1-5.2-9c-1.7-3-3.7-5.9-5.5-8.8c-2-2.9-3.9-5.8-5.9-8.6c-2-2.9-4.1-5.6-6.2-8.4l-3.2-4.1
				c-1.1-1.4-2.2-2.7-3.3-4c-4.4-5.4-9.1-10.6-13.9-15.7c-4.8-5.1-9.8-10-14.9-14.8c-5.1-4.8-10.4-9.5-15.8-14
				c-5.4-4.6-10.9-8.9-16.5-13.2c-5.6-4.3-11.3-8.5-17.1-12.5c-23.2-16.2-47.8-30.7-73.2-43.7c-25.4-13-51.6-24.7-78.5-34.6l0,0
				c-0.4-0.2-0.6-0.6-0.5-1C728.4,1665.8,728.8,1665.6,729.2,1665.7z"/>
			<path style="fill:#F5B7AD;" d="M1038.8,2114c1-28.5,0.7-57.1-1.5-85.4c-0.5-7.1-1.2-14.1-1.9-21.2c-0.9-7-1.6-14.1-2.7-21.1
				c-0.9-7-2.3-14-3.4-20.9c-1.4-6.9-2.7-13.9-4.4-20.7l-1.2-5.1c-0.2-0.9-0.4-1.7-0.6-2.6l-0.7-2.5l-2.7-10.2c-1-3.4-2-6.7-3-10.1
				c-0.5-1.7-1-3.4-1.5-5l-1.7-5l-1.7-5c-0.6-1.7-1.1-3.3-1.8-4.9l-3.8-9.8c-0.3-0.8-0.6-1.6-1-2.4l-1.1-2.4l-2.1-4.8l-2.1-4.8
				c-0.7-1.6-1.5-3.1-2.2-4.7l-1.1-2.3l-1.2-2.3c-0.8-1.5-1.6-3.1-2.4-4.6c-1.7-3-3.4-6.1-5.2-9c-1.7-3-3.7-5.9-5.5-8.8
				c-2-2.9-3.9-5.8-5.9-8.6c-2-2.9-4.1-5.6-6.2-8.4l-3.2-4.1c-1.1-1.4-2.2-2.7-3.3-4c-4.4-5.4-9.1-10.6-13.9-15.7
				c-4.8-5.1-9.8-10-14.9-14.8c-5.1-4.8-10.4-9.5-15.8-14c-5.4-4.6-10.9-8.9-16.5-13.2c-5.6-4.3-11.3-8.5-17.1-12.5
				c-23.2-16.2-47.8-30.7-73.2-43.7c-19.3-9.8-39-19-59.1-27.1c-1-0.3-2-0.6-3-0.9c-3.5-1-6.9-2-10.4-2.9c-3.5-0.9-7-1.8-10.5-2.6
				c-0.4-0.1-0.8,0.1-0.9,0.5c-0.2,0.4,0.1,0.9,0.5,1l0,0c26.9,9.9,53.1,21.7,78.5,34.6c25.4,13,50,27.5,73.2,43.7
				c5.8,4.1,11.5,8.2,17.1,12.5c5.6,4.3,11.1,8.7,16.5,13.2c5.4,4.5,10.6,9.2,15.8,14c5.1,4.8,10.1,9.7,14.9,14.8
				c4.8,5.1,9.5,10.3,13.9,15.7c1.1,1.3,2.2,2.7,3.3,4l3.2,4.1c2.1,2.8,4.2,5.5,6.2,8.4c2.1,2.8,3.9,5.7,5.9,8.6
				c1.9,2.9,3.8,5.8,5.5,8.8c1.8,2.9,3.5,6,5.2,9c0.8,1.5,1.6,3.1,2.4,4.6l1.2,2.3l1.1,2.3c0.7,1.6,1.5,3.1,2.2,4.7l2.1,4.8l2.1,4.8
				l1.1,2.4c0.4,0.8,0.6,1.6,1,2.4l3.8,9.8c0.7,1.6,1.2,3.3,1.8,4.9l1.7,5l1.7,5c0.5,1.7,1,3.4,1.5,5c1,3.4,2.1,6.7,3,10.1l2.7,10.2
				l0.7,2.6c0.2,0.9,0.4,1.7,0.6,2.6l1.2,5.1c1.7,6.8,2.9,13.8,4.4,20.7c1.1,7,2.5,13.9,3.4,20.9c1.1,7,1.8,14,2.7,21.1
				c0.7,7.1,1.4,14.1,1.9,21.2c2.2,28.3,2.5,56.8,1.5,85.4c-1,28.5-3.3,57.1-7.2,85.5l0,0c-0.1,0.4,0.2,0.8,0.6,0.9
				c0.4,0.1,0.9-0.1,1-0.6c2.5-9,4.5-18.2,6.4-27.3C1036.7,2154.9,1038,2134.4,1038.8,2114z"/>
			<g>
				<path style="fill:#FFD4CD;" d="M1027,2202.9c-0.1,0.1-0.3,0.1-0.4,0l-329.7-195.2l0-0.3l32.4-341.1c0-0.2,0.2-0.4,0.4-0.4
					c0.2,0,0.4,0.2,0.4,0.4l-32.3,340.9l329.3,195c0.2,0.1,0.3,0.4,0.1,0.6C1027.1,2202.9,1027,2202.9,1027,2202.9z"/>
			</g>
			<g>
				<path style="fill:#FFD4CD;" d="M697.6,2009.1c-0.8,0.4-1.7,0.1-2.1-0.6c-0.4-0.8-0.2-1.8,0.6-2.2l373.3-215.1c0.8-0.5,1.8-0.2,2.2,0.6
					c0.4,0.8,0.2,1.8-0.6,2.2L697.6,2009.1C697.6,2009.1,697.6,2009.1,697.6,2009.1z"/>
			</g>
			<polygon style="fill:#634AC9;" points="1081.6,1786.6 1046.7,1795.3 1056.2,1799.9 1057.2,1809.7 			"/>
		</g>
		<path style="fill:#ED7E94;" d="M996.9,1886.8c-9.4-1.9-9.7-13.5-11.2-22.4c-0.1,20.3,10.2,41.1,26.4,25.6c7.1-6.7,9.9-14.3,10.1-21.5
			C1018.3,1880.4,1010.9,1889.6,996.9,1886.8z"/>
		<path class="st9" d="M996.9,1886.8c14,2.7,21.4-6.4,25.2-18.3c0.5-19-17.2-36-24.9-31.7c-7.9,4.4-11.5,15.9-11.6,27.6
			C987.2,1873.3,987.4,1884.9,996.9,1886.8z"/>
		<path class="st9" d="M1008.6,1859.3c2-7.1-0.8-14.5-6.7-17.4c-5.8-0.2-18.4,0.1-27.7,6.1c-12.4,7.9-10.2,23.4-10.2,23.4
			s7.8,13.5,20.6,7.6c1.9-0.9,3.4-1.8,4.7-2.9c3-5.7,2.4-13.2,2.9-19.5C996.9,1859.9,1006.5,1866.8,1008.6,1859.3z"/>
		<path style="fill:#ED7E94;" d="M1004.9,1842c0,0-1.1-0.1-3.1-0.2c6,2.9,8.8,10.4,6.7,17.4c-2.1,7.6-11.7,0.7-16.5-2.8
			c-0.5,6.3,0.1,13.8-2.9,19.5c7.5-6.1,6-14.6,6-14.6s15.5,10.6,21.4,6.1C1022.4,1863,1004.9,1842,1004.9,1842z"/>
		<path style="fill:#FFFFFF;" d="M750.7,1900.2l15.6-4.4c0,0,1.1,7.8-5.5,9.9C754.1,1907.8,750.7,1900.2,750.7,1900.2z"/>
		<path style="fill:#ED7E94;" d="M619.1,2019.4c-7.4,6.9-11.1,17.1-9.1,27.4c0.5,4.2,2,7.9,4.1,11.3c1.6,0,3.3,0,5,0
			C613.2,2045.5,610.9,2030.5,619.1,2019.4z"/>
		<path class="st9" d="M700.4,2051.6c5.5-1.4,10.3-3.4,13.8-8.3c4.1-6.2,2.1-12.4,1.4-18.6c8.9,2.6,18.2,2.1,26.6-1.1
			c-5.9-10.1-34.2-30.7-39.3-28.3c-6,2.8-31.7,21.1-31.7,21.1l-51.7,2.6c-0.1,0.1-0.3,0.2-0.4,0.4c-6.1,8.2-6.4,18.5-3.8,28.4
			c20.8-0.3,41.7-3.9,61.6-7.9C681,2048.9,690.7,2053.7,700.4,2051.6z"/>
		<path style="fill:#ED7E94;" d="M715.5,2024.8c0.7,6.2,2.8,12.4-1.4,18.6c-3.4,4.8-8.3,6.9-13.8,8.3c-9.7,2.1-19.3-2.8-23.4-11.7
			c-19.8,4-40.8,7.6-61.6,7.9c0.9,3.5,2.2,7,3.8,10.3c16-0.3,34-2.9,53.9-9c0,0,22.5,16.1,37.7,6.4c15.2-9.7,9.7-24.4,9.7-24.4
			s17.9,2.8,22.5-3.2c0.7-0.9,0.4-2.4-0.7-4.3C733.7,2026.8,724.4,2027.4,715.5,2024.8z"/>
		<path style="fill:#ED482D;" d="M788.9,1977.4l-15.3,5c0,0,10.7-7.5,14.3-8.1L788.9,1977.4z"/>
		<path style="fill:#322666;" d="M497.4,2504.6c-8.6,22-16.4,43.9-22.8,65.5c8.5-19.8,17.8-40.1,27.5-60.5
			C500.4,2508.1,498.8,2506.4,497.4,2504.6z"/>
		<path style="fill:#ED7E94;" d="M543.3,2401.5c-16.4,33.3-32.3,68.2-46,103.1c1.4,1.8,3,3.4,4.7,5c15.6-32.7,32.3-65.8,49-97.5
			C548.1,2408.9,545.6,2405.4,543.3,2401.5z"/>
		<path style="fill:#322666;" d="M679.7,2140.9c-4.9,4.2-10,9.7-12.5,15.6c-5.5,13.1,0,29.7,0,29.7s-65.5,97.2-123.9,215.4
			c2.2,3.9,4.8,7.4,7.7,10.6c64.3-122.1,128.7-226,128.7-226C666,2169.6,679.7,2140.9,679.7,2140.9z"/>
	</g>
</g>
<g>
	<path style="fill:#C8C2ED;" d="M2966.8,2576.8l-481-1.1l-384.3-0.9l-201.5-0.5c0,0-144.7-59.7-140.1-199.4c1.7-53,22.3-87.8,47.2-110.6
		c40.7-37.2,92.8-42.2,92.8-42.2s-10.8-16.7-20.6-41.1c-20.5-51.1-36.4-136.1,60.7-173.2c0,0-67.2-71,10.7-117
		c0,0-47.9-92.2-23.4-189c9.7-38.2,30.6-77.2,70.2-111.4c6.8-5.9,14.1-11.6,22-17.2c171.1-120.6,294.8,42.8,294.8,42.8
		s35.1-69.9,84-19c0,0,12.2-167.3,158.8-152.5c146.6,14.8,129.3,188.1,129.3,188.1s122.7-85.9,109,78.7c0,0,128.3,2.2,143.6,159.7
		c15.3,157.5-82.5,195.3-82.5,195.3s103.9,15,26,109.2c0,0,140.5,12.2,145.1,192.6C3032.3,2548.6,2966.8,2576.8,2966.8,2576.8z"/>
	<g>
		<path style="fill:#FFDD85;" d="M2809.9,1941.8l-27.3-143.4c7.6-7.8,15-24.6,15-38.4c0-23.7-14.4-42.8-32.1-42.8
			c-17.7,0-32.1,19.2-32.1,42.8c0,16.7,7.2,31.2,17.7,38.3l-29.7,143.5H2809.9z"/>
		<path style="fill:#FFA42F;" d="M2751.8,1760c0-19.4,9.7-35.8,22.9-41.1c-2.9-1.1-6-1.8-9.1-1.8c-17.7,0-32.1,19.2-32.1,42.8
			c0,16.7,7.2,31.2,17.7,38.3l-29.7,143.5h18.3l29.7-143.5C2759,1791.3,2751.8,1776.8,2751.8,1760z"/>
	</g>
	<polygon style="fill:#3F327A;" points="2638.8,2102.9 2638.8,2205.5 2416.6,2205.5 2416.6,2298.6 2210.2,2298.6 2210.2,2389.7 1988,2389.7 
		1988,2575.9 2210.2,2575.9 2416.6,2575.9 2432.4,2575.9 2638.8,2575.9 2861,2575.9 2861,2102.9 	"/>
	<g>
		<path style="fill:#ED7E94;" d="M2080.3,1820.2l-28.7,11.3l-0.1,2.8c7.4,2.7,15.3,4.2,23.3,4.5C2075.2,1829.7,2080.3,1820.2,2080.3,1820.2z"
			/>
		<path style="fill:#ED7E94;" d="M2066.4,1822.6c-5.8-16.3,15.2-22.2,26.8-32l-3.8-8.7l-51.4,18.7l13.5,30.9c7.1,1.7,16.8,1,25.4-0.4
			C2072.2,1830.1,2068.2,1827.7,2066.4,1822.6z"/>
		<path class="st9" d="M2094.9,1811.1l5.4-3.9l-7.1-16.6c-11.6,9.8-32.6,15.8-26.8,32c1.8,5.1,5.8,7.5,10.6,8.6
			c10.8-1.7,19.9-4.4,19.9-4.4L2094.9,1811.1z"/>
		<path style="fill:#322666;" d="M2059.8,1805.8c0,0,34.8-10.5,56.2-44c0,0-62.7,14.8-91.5,44c0,0,5.7,17,27,25.7v-21.8c0,0-8.3-6.1-2.6-8.7
			C2054.6,1798.4,2059.8,1805.8,2059.8,1805.8z"/>
		<path style="fill:#F6DEF8;" d="M2061.2,1936.3c-11.5-9-24.5-15.3-38.5-16.6l-1.2,2.9c0,0,58.8,48.8,60.5,84.1c0,0,33.8,21.8,69.6-3.2
			c-12.5-2.6-24.7-7.2-36.3-14.8C2093.8,1973.5,2082.1,1952,2061.2,1936.3z"/>
		<path style="fill:#FFFFFF;" d="M2116,1855.1l-40.5-9.1l-24.8,3.5l-28,70.3c14,1.3,27,7.6,38.5,16.6c20.9,15.7,32.7,37.2,54.2,52.3
			c11.6,7.6,23.7,12.3,36.3,14.8c0.3-0.2,0.6-0.4,1-0.7C2152.6,2002.7,2136.1,1890.3,2116,1855.1z"/>
		<path style="fill:#322666;" d="M2144.1,2194.4c-30.9-56.6-37.9-121.6-39-185.5c-9.1,5.9-16.3,15.9-18,32.7c-5.5,52.9,34.9,151.6,34.9,151.6
			c-60.8,66.3-66.6,190.4-66.6,190.4l3-4.4c3.8-23.6,11.1-46.5,21.8-67.8C2100.4,2270.8,2117.3,2229.6,2144.1,2194.4z"/>
		<path style="fill:#3F327A;" d="M2152.6,2002.7c0,0-28-6.6-47.5,6.1c1.1,64,8.1,128.9,39,185.5c-26.8,35.3-43.8,76.4-64,116.9
			c-10.7,21.3-18,44.3-21.8,67.8l120.5-177.9C2181.8,2148.4,2152.6,2002.7,2152.6,2002.7z"/>
		<path style="fill:#322666;" d="M2268.9,2110.1c0-8.5,2-17.6,3.9-26.1c-49,0.7-99.3,4.6-143.1-22.9c-20.5-13-35.3-30.6-51.3-47.2
			c-3.5,8.3-7.8,22.3-3.6,35.4c6.5,20.3,62.7,53.6,172.5,53.6c0,0-8.7,71.8,27.1,156.9C2267.5,2210.4,2266.3,2160,2268.9,2110.1z"/>
		<path style="fill:#3F327A;" d="M2308.2,2050.4c0,0-157.1-39.9-226.1-43.7c0,0-1.7,2.8-3.6,7.2c16,16.6,30.8,34.2,51.3,47.2
			c43.8,27.4,94.1,23.5,143.1,22.9c-2,8.5-3.9,17.6-3.9,26.1c-2.6,49.9-1.4,100.3,5.6,149.7c1.9,4.6,4,9.3,6.2,14
			C2280.7,2273.8,2314.2,2105.9,2308.2,2050.4z"/>
		<path style="fill:#F6DEF8;" d="M1999.5,1898.2c1,10.6,3.4,31.7,7.9,53.9c2.2-0.7,4.5-1.2,6.8-1.7
			C2008.5,1933.2,2003.4,1915.9,1999.5,1898.2z"/>
		<path style="fill:#FFFFFF;" d="M2116,1855.1l-40.5-9.1l-24.8,3.5c0,0-23.1,10.5-51.8,41.8c0,0,0.2,2.6,0.6,7c4,17.6,9.1,35,14.8,52.2
			c10.5-2.2,21.4-2.3,31,1.4l-7.2-35.3l75.8-28.3l80.1,52.7l14.8-26.1L2116,1855.1z"/>
		<path style="fill:#E5649A;" d="M2138.7,2024.5c0,0-7.8-102.8-53.7-151.6c8.8,14.6,13.1,30.7,15.3,47.7c6.4,49.7,8.1,98.4,0,146.6l0,0
			L2138.7,2024.5z"/>
		<path style="fill:#DB4A87;" d="M2100.4,1920.6c-2.3-17-6.5-33.1-15.3-47.7c-0.2-0.2-0.3-0.4-0.5-0.6c0,0,23.1,99.1-20.4,159.8l36.2,35
			C2108.5,2019.1,2106.8,1970.4,2100.4,1920.6z"/>
		<polygon style="fill:#322666;" points="2057.4,2361.6 2025.9,2389.7 2163.7,2389.7 		"/>
		<path style="fill:#F6DEF8;" d="M2112.5,1872.7c0,0,20.3,20,25.5,33.8c5.2,13.7,22.2,0,22.2,0S2125.3,1875.8,2112.5,1872.7z"/>
		<polygon style="fill:#322666;" points="2273.3,2256.9 2255.2,2289.1 2378.7,2249.2 		"/>
		<g>
			<path style="fill:#FFDD85;" d="M2189.4,1875.9v-152.5h49.5V1693h-20.5v-29.5h20.5v-18.8h-49.5v-15.4h-39.3v246.6
				c-36.2,8.8-63,41.4-63,80.3c0,45.6,37,82.6,82.6,82.6c45.6,0,82.6-37,82.6-82.6C2252.4,1917.3,2225.5,1884.7,2189.4,1875.9z
				 M2169.7,2015.8c-9.3,0-16.9-7.6-16.9-16.9c0-9.3,7.6-16.9,16.9-16.9c9.3,0,16.9,7.6,16.9,16.9
				C2186.6,2008.2,2179,2015.8,2169.7,2015.8z"/>
		</g>
		<g>
			<g>
				<path style="fill:#FFCC46;" d="M2167.9,2015.7c1.4,0.4,3.2,0.1,4.6,0.1c9.3,0,16.9-7.6,16.9-16.9c0-9.3-7.6-16.9-16.9-16.9
					c-1.5,0-3.1-0.3-4.4,0.1c7.3,1.9,12.8,8.9,12.8,16.8C2180.9,2006.8,2175.1,2013.8,2167.9,2015.7z"/>
			</g>
			<g>
				<path style="fill:#FFCC46;" d="M2089.9,1956.2c0-38.9,26.8-71.5,63-80.3v-246.6h-8.5v246.6c-36.2,8.8-63,41.4-63,80.3
					c0,45.6,37,82.6,82.6,82.6c1.4,0,2.8,0,4.2-0.1C2124.6,2036.6,2089.9,2000.4,2089.9,1956.2z"/>
			</g>
		</g>
		<path style="fill:#ED7E94;" d="M2238.9,1934.3c-5.9,6.5-18.3,18.3-21.6,11.8c-1.7-3.3-2.1-7-1.4-10.8c-5.1,11.5-7.2,22.7-4.5,24.7
			c6.1,4.4,24-18.7,24-18.7s-8.6,26.3,11,24.4C2238.3,1958.7,2236.1,1945,2238.9,1934.3z"/>
		<path class="st9" d="M2243.2,1908.2c-11.1-0.5-21.3,13.5-27.3,27.1c-0.7,3.8-0.3,7.5,1.4,10.8c3.3,6.5,15.7-5.2,21.6-11.8
			c-2.8,10.7-0.6,24.4,7.5,31.4c0.1,0,0.2,0,0.3,0C2266.7,1963.5,2263.7,1909.1,2243.2,1908.2z"/>
		<path class="st9" d="M2051.4,1834.3l-0.7,15.1l26.8,12.2l-2-15.7c-0.7-2.2-0.9-4.6-0.8-7.1
			C2066.7,1838.5,2058.9,1837.1,2051.4,1834.3z"/>
		<path class="st9" d="M2152.6,2051.9c17.8-4.8,36.4-8.3,54.1-6.5c-1.4-4.1-20.4-12.2-44.1-9.8c0,0-24.8-11.5-23.5-18.9
			c1.3-7.4,8.3-36.2-7.8-34l-3,17.9c0,0-12.6,5.7-12.2,13.1l-4.5-2.4c-2.9,6.5-2.9,13.7-1.5,20.9c4.5,1,9.1,1.7,13.8,2.2
			C2127.1,2046.7,2140.2,2054.5,2152.6,2051.9z"/>
		<path style="fill:#ED7E94;" d="M2152.6,2051.9c-12.4,2.6-25.5-5.2-28.7-17.6c-4.6-0.4-9.2-1.2-13.8-2.2c0.6,3,1.4,6,2.4,9
			c1.2,0.3,2.4,0.5,3.5,0.7c0,0,10,12.6,24.8,14.8c14.8,2.2,37.9-10.9,58.4-9.1c5.8,0.5,8-0.5,7.5-2.2
			C2189,2043.6,2170.4,2047.1,2152.6,2051.9z"/>
		<path style="fill:#ECC2F0;" d="M2100.3,2037.7c4.4,1.4,8.5,2.6,12.2,3.4c-1-3-1.8-6-2.4-9c-4-0.9-8-1.9-11.9-3.1
			C2098.7,2032,2099.4,2034.9,2100.3,2037.7z"/>
		<path style="fill:#F6DEF8;" d="M2111.6,2011.2l-10.1-5.4c-3.7,7.1-4.5,15.1-3.3,23.2c3.9,1.2,7.9,2.2,11.9,3.1
			C2108.7,2024.9,2108.7,2017.8,2111.6,2011.2z"/>
		<polygon style="fill:#F6DEF8;" points="2046.7,1857.6 2082,1884.6 2079,1864.4 2098.2,1876.4 2081.1,1848 2091.3,1869.4 2077.5,1861.6 
			2077.5,1876.2 		"/>
		<polygon style="fill:#E5649A;" points="2079,1864.4 2080.5,1874.5 2090,1880.2 2088.8,1870.6 		"/>
		<path style="fill:#F6DEF8;" d="M2100.3,2037.7c-0.9-2.9-1.6-5.8-2-8.7c-24-7.4-46.5-20.7-67.8-33.3c-5.6-14.9-11.2-30.1-16.2-45.4
			c-2.3,0.5-4.6,1-6.8,1.7c4,19.1,9.6,39,17.4,53.7C2024.8,2005.8,2069.1,2027.7,2100.3,2037.7z"/>
		<path style="fill:#FFFFFF;" d="M2014.2,1950.4c5.1,15.3,10.6,30.4,16.2,45.4c21.3,12.6,43.8,25.9,67.8,33.3c-1.2-8-0.4-16.1,3.3-23.2
			l-50.8-27.1l-5.5-27C2035.6,1948.1,2024.7,1948.2,2014.2,1950.4z"/>
		<circle style="fill:#FEF2FE;" cx="2106" cy="2035.6" r="2.1"/>
		<polygon style="fill:#FFCC46;" points="2238.9,1656.2 2189.2,1663.4 2238.9,1663.5 		"/>
		<polygon style="fill:#FFCC46;" points="2218.4,1686.1 2218.4,1693 2192.3,1693 		"/>
	</g>
	<g>
		<path style="fill:#C8C2ED;" d="M3028.5,2578.3H1836.6c-1.3,0-2.4-1.1-2.4-2.5c0-1.4,1.1-2.5,2.4-2.5h1191.9c1.3,0,2.4,1.1,2.4,2.5
			C3030.9,2577.2,3029.9,2578.3,3028.5,2578.3z"/>
	</g>
	<defs>
		<filter id="Adobe_OpacityMaskFilter" filterUnits="userSpaceOnUse" x="1864" y="1590.4" width="945.9" height="590.7">
			<feFlood  style="flood-color:white;flood-opacity:1" result="back"/>
			<feBlend  in="SourceGraphic" in2="back" mode="normal"/>
		</filter>
	</defs>
	<mask maskUnits="userSpaceOnUse" x="1864" y="1590.4" width="945.9" height="590.7" id="SVGID_1_">
		<g style="filter:url(#Adobe_OpacityMaskFilter);">
			<defs>
				<filter id="Adobe_OpacityMaskFilter_1_" filterUnits="userSpaceOnUse" x="1864" y="1590.4" width="945.9" height="590.7">
					<feFlood  style="flood-color:white;flood-opacity:1" result="back"/>
					<feBlend  in="SourceGraphic" in2="back" mode="normal"/>
				</filter>
			</defs>
			<mask maskUnits="userSpaceOnUse" x="1864" y="1590.4" width="945.9" height="590.7" id="SVGID_1_">
				<g style="filter:url(#Adobe_OpacityMaskFilter_1_);">
				</g>
			</mask>
			<linearGradient id="SVGID_2_" gradientUnits="userSpaceOnUse" x1="1863.9878" y1="1885.6951" x2="2809.9119" y2="1885.6951">
				<stop  offset="0" style="stop-color:#000000"/>
				<stop  offset="1" style="stop-color:#FFFFFF"/>
			</linearGradient>
			<path style="mask:url(#SVGID_1_);fill:url(#SVGID_2_);" d="M2809.9,1941.8L1879.4,2181c-20.5-51.1-36.4-136.1,60.7-173.2c0,0-67.2-71,10.7-117c0,0-47.9-92.2-23.4-189
				c9.7-38.2,30.6-77.2,70.2-111.4l767.9,126.8c0,0,20.5-1.8,30.1,28c9.6,29.8-13,53.2-13,53.2L2809.9,1941.8z"/>
		</g>
	</mask>
	<linearGradient id="SVGID_3_" gradientUnits="userSpaceOnUse" x1="1863.9878" y1="1885.6951" x2="2809.9119" y2="1885.6951">
		<stop  offset="0" style="stop-color:#FFFFFF"/>
		<stop  offset="1" style="stop-color:#FFFFFF"/>
	</linearGradient>
	<path style="opacity:0.44;fill:url(#SVGID_3_);" d="M2809.9,1941.8L1879.4,2181c-20.5-51.1-36.4-136.1,60.7-173.2c0,0-67.2-71,10.7-117c0,0-47.9-92.2-23.4-189
		c9.7-38.2,30.6-77.2,70.2-111.4l767.9,126.8c0,0,20.5-1.8,30.1,28c9.6,29.8-13,53.2-13,53.2L2809.9,1941.8z"/>
</g>
<g>
	<g>
		<path style="fill:#F2F0FF;" d="M2711.1,1309.6H481.3c-2.3,0-4.2-1.7-4.2-3.7c0-2.1,1.9-3.7,4.2-3.7h2229.8c2.3,0,4.2,1.7,4.2,3.7
			C2715.2,1307.9,2713.4,1309.6,2711.1,1309.6z"/>
	</g>
	<g>
		<path class="st9" d="M984,704.6c-11.6-1.8-22.6-5.2-31.8-12.1l-6.8,38.4c0,0,31.2,41.8,30.1,9.5C974.9,726,979.1,713.8,984,704.6z
			"/>
		<path style="fill:#ED7E94;" d="M997.2,686.2l-44.6,3.9l-0.4,2.3c9.2,7,20.3,10.3,31.8,12.1C990.1,693,997.2,686.2,997.2,686.2z"/>
		<path style="fill:#ED7E94;" d="M984.9,674.5c7.3-12.9,26-11.4,41.7-16c-1.2-5.3-2.2-9.1-2.2-9.1l-71.9-6.1v46.8c0,0,20.2,3,39.6,4.8
			C985.1,689.2,980.9,682,984.9,674.5z"/>
		<path class="st9" d="M984.9,674.5c-4,7.5,0.2,14.6,7.3,20.4c16,1.5,31.5,2.1,35.1-0.4c5.4-3.9,2-24.1-0.6-36.1
			C1010.9,663.2,992.2,661.7,984.9,674.5z"/>
		<path style="fill:#3F327A;" d="M966.5,656.7c0,0,30.1,10.6,65.2-3.3c35.1-13.9,24.5-66.9-36.8-45.7c-61.3,21.2-51.9,61.3-51.9,61.3
			s-66.9,17.8-70.8,66.9c-3.9,49.1,53.5,58,53.5,58s39.6-64.1,38.5-128.2c0,0-11.7-7.8-5.6-15.1
			C964.8,643.3,966.5,656.7,966.5,656.7z"/>
		<path style="fill:#ED7E94;" d="M707.8,950l12.8,20.1c1.7,2.7,1.6,6.3-0.4,8.8c-5.4,6.8-16.5,18.6-27.4,16.2C677.7,991.8,707.8,950,707.8,950
			z"/>
		<path class="st9" d="M1010.9,729.2l-49-7.2L914,733c5.5,4.2,11.5,7.6,17.8,10.3C958.9,751.4,990.4,749,1010.9,729.2z"/>
		<path style="fill:#ED7E94;" d="M931.7,743.3c28.3,12.2,61.8,8.8,82.8-13.6l-3.7-0.5C990.4,749,958.9,751.4,931.7,743.3z"/>
		<path style="fill:#ED7E94;" d="M819.4,835.2c-1.7-3.8-3.7-7.6-6.2-11.2c-7.1-9.5-18.7-16.7-30.8-18.6c-1.3,0.9-2.5,1.9-3.7,2.8
			C794.8,812.2,809.2,821.9,819.4,835.2z"/>
		<path class="st9" d="M681.6,946.6c-2.2,3.3-13.4,2.2-17.8,8.9c-4.5,10-5.6,20.1-1.1,31.2c4.4,10.2,11.5,15.6,19.9,18.4
			c7.6-0.1,14.4-3.3,18-10c10-18.4,7.2-45.2,7.2-45.2L805,842.4l14.4-6.9c0-0.1-0.1-0.2-0.1-0.2c-7.7-10-17.6-17.9-29-23
			C747.2,850.4,712.7,894.8,681.6,946.6z"/>
		<path style="fill:#ED7E94;" d="M765.8,818.9c-30.1,29-90.9,119.9-90.9,119.9s-32.9,14.5-25.6,40.7c4.6,16.7,20.1,25.9,33.3,25.6
			c-8.4-2.8-15.5-8.2-19.9-18.4c-4.5-11.2-3.3-21.2,1.1-31.2c4.5-6.7,15.6-5.6,17.8-8.9c31.1-51.8,65.6-96.2,108.8-134.4
			c-3.8-1.7-7.7-3-11.8-4C773.6,812,769.2,815.6,765.8,818.9z"/>
		<path style="fill:#FFCC46;" d="M871.4,750.7c-25.3,14-63.9,36.2-89.1,54.7c4,0.6,8,1.8,11.8,3.5c16.2-14,33.6-27.2,52.5-39.6
			C855.4,763.3,863.4,756.9,871.4,750.7z"/>
		<path style="fill:#FFCC46;" d="M839.9,825.1c-0.8,0.6-1.5,1.1-2.3,1.7l40.8-19.5l14.6-2.9c-2.2-5.1-5-10.2-8.4-15
			C868.9,801.7,855.5,812.8,839.9,825.1z"/>
		<path style="fill:#FFCC46;" d="M996.4,784.1l13-2.5c0,0,44.7-8.5,87.6-19.8c0.8-5.5,0.8-11,0-16.3c-30.9,6.4-63,10-92,20.5
			C1002.1,766.7,998.8,774.8,996.4,784.1z"/>
		<path style="fill:#FFDD85;" d="M1082.5,719.6l-60.2,11.2l-7.7-1.1C988.9,757.1,944.6,756,914,733l-17.2,4c0,0-10.4,5.4-25.4,13.8
			c-8,6.2-16,12.5-24.8,18.6c-18.9,12.4-36.3,25.6-52.5,39.6c7.6,3.4,14.3,8.7,19,15c2.5,3.8,4.6,7.6,6.3,11.5l18.1-8.7
			c0.8-0.6,1.5-1.1,2.3-1.7c15.6-12.3,29-23.4,44.6-35.7c3.4,4.8,6.2,9.9,8.4,15l103.5-20.3c2.3-9.3,5.6-17.4,8.5-18.2
			c29-10.6,61.2-14.1,92-20.5C1095.5,735.6,1090.9,726.6,1082.5,719.6z"/>
		<path style="fill:#ED7E94;" d="M1240.5,630.3c-22.5,36.1-46.1,74.1-82.7,94.4c-17.8,10-37.6,15.8-57.9,20.1c1.1,5.2,1.6,10.5,1.6,15.8
			c30-8,58.3-17.3,69.1-25.9c26.8-21.2,80.3-100.4,80.3-100.4L1240.5,630.3z"/>
		<path class="st9" d="M1240.5,630.3l-19.2-7.6l-82.5,86.4l-55.4,10.3c9.2,5.2,14.2,14.8,16.4,25.4c20.3-4.4,40-10.1,57.9-20.1
			C1194.4,704.4,1218,666.4,1240.5,630.3z"/>
		<path style="fill:#ED7E94;" d="M1083.4,719.4l-0.9,0.2c13,10.7,16.8,26.4,14.6,42.2c1.5-0.4,2.9-0.8,4.4-1.2
			C1101.4,744.6,1097.1,727.1,1083.4,719.4z"/>
		<path class="st9" d="M1259.2,1194l-45.7-71c-14,16-34.1,26.4-54.9,31.9c24.6,23.8,52.3,43.3,75.9,57.8
			C1243.7,1207.7,1252.1,1201.4,1259.2,1194z"/>
		<path style="fill:#3F327A;" d="M1259.2,1194c-7.1,7.5-15.5,13.7-24.8,18.6c31.7,19.4,56.1,29.9,56.1,29.9L1259.2,1194z"/>
		<path style="fill:#3F327A;" d="M1213.5,1123l-56.8-88.2C1102,1004.6,966.7,950,966.7,950s-135.7-16.7-64.3,55.2c71.4,71.9,197.4,63,197.4,63
			c11.2,33,33.4,62.1,58.8,86.6C1179.4,1149.4,1199.5,1139,1213.5,1123z"/>
		<path style="fill:#322666;" d="M892.3,980.1c26.3,3.2,50.9-6.7,72.5-20.8c0.8-2.9,1.4-6,1.8-9.3c4.5-39.8-116-19.7-116-19.7
			s-8.2,3.7-15.7,11.6C849.4,960.5,867.4,976.4,892.3,980.1z"/>
		<path style="fill:#322666;" d="M1105.7,1049.2c-85.8-3.3-182-81.5-201.3-97.9c-23,5.4-36.1,19.5-2.1,53.9c71.4,71.9,197.4,63,197.4,63
			c11.2,33,33.4,62.1,58.8,86.6c7.8-2,15.6-4.8,22.9-8.3C1138.4,1097.2,1105.7,1049.2,1105.7,1049.2z"/>
		<path style="fill:#ED7E94;" d="M1181.5,1146.5c-7.4,3.5-15.1,6.2-22.9,8.3c24.6,23.8,52.3,43.3,75.9,57.8c2.6-1.4,5.1-2.8,7.6-4.4
			C1221,1189.9,1200.3,1168.1,1181.5,1146.5z"/>
		<path style="fill:#322666;" d="M1242,1208.2c-2.4,1.6-5,3-7.6,4.4c31.7,19.4,56.1,29.9,56.1,29.9C1274.8,1234.5,1258.3,1222.4,1242,1208.2z
			"/>
		<path style="fill:#3F327A;" d="M479,1242.5l67.3-14.7c-5.4-7.7-9.4-16.4-11.8-25.6C516.7,1214,498.1,1227.3,479,1242.5z"/>
		<path class="st9" d="M606.9,1174.1c-0.9-4.1-1.4-8.2-1.4-12.2c-21.7,10.6-45.5,23.8-70.9,40.4c2.3,9.1,6.3,17.8,11.8,25.6l77.9-17
			C615.6,1200.5,609.5,1187.8,606.9,1174.1z"/>
		<path style="fill:#3F327A;" d="M892.3,980.1c-24.9-3.7-43-19.6-57.3-38.3c-9.2,9.6-17.2,25.5-7.4,48.3c0,0-81,94-95.9,130.5
			c0,0-50.4,4.4-126.3,41.3c0,4,0.5,8.1,1.4,12.2c2.6,13.7,8.7,26.4,17.4,36.8l158.8-34.6c0,0,117.5-118.2,141.3-177.7
			c0,0,31.8-7.5,40.6-39.4C943.2,973.3,918.6,983.3,892.3,980.1z"/>
		<path style="fill:#FFCC46;" d="M855.5,931c36.5-33.3,59.5-91.3,32.4-136.4l-12.9,4.8c0,0,24,48,7.2,78.6c-16.7,30.7-45.2,51.3-45.2,51.3
			s24.5,41.6,66.9,43.4c30.4,1.3,55.6-11,67.4-18C931.7,962.4,889.3,955,855.5,931z"/>
		<path style="fill:#FFCC46;" d="M992.7,812.8c-23.4,14.5-65.8,35.7-76.9,4.5c-8.9-25.6,37.9-29,60.2-27.9c-27.4-11.6-61.8-7.2-85.3,10.2
			c6.8,13.4,9.5,27.7,9,42.1C932.5,853.3,971.9,840.6,992.7,812.8z"/>
		<path style="fill:#FFDD85;" d="M1056.7,794.8c-1.3-18-40-19.9-40-19.9l-6.1-25.6L888,794.6c1,1.6,1.9,3.3,2.8,5
			c23.5-17.5,57.8-21.8,85.3-10.2c-22.3-1.1-69.1,2.2-60.2,27.9c11.2,31.2,53.5,10,76.9-4.5c-20.8,27.8-60.2,40.5-93,28.9
			c-1.2,33.3-19.7,66.9-44.2,89.3c33.8,24,76.2,31.4,116,23.7c4.7-2.8,7.3-4.7,7.3-4.7s-31.8-32.9-20.6-54.1
			c10.1-19.2,40.3-21.5,55.8-49.8c-10-5.3-18.8-12.8-25.7-22.1C1014.8,834.8,1046.5,820.5,1056.7,794.8z"/>
		<path style="fill:#FFCC46;" d="M1056.7,794.8c-10.2,25.7-41.9,40-68.5,29.2c7,9.3,15.8,16.7,25.7,22.1c1.6-3,3.1-6.2,4.4-9.8
			c0,0,32.3-14.5,37.9-36.8C1056.7,797.8,1056.8,796.2,1056.7,794.8z"/>
		<g>
			<path style="fill:#FFD4CD;" d="M1207.9,684.6c-0.5,0-1.1-0.1-1.6-0.4c-1.6-0.9-2.2-2.9-1.4-4.5l148.3-275.4c0.9-1.6,2.9-2.2,4.5-1.4
				c1.6,0.9,2.2,2.9,1.4,4.5l-148.3,275.4C1210.3,683.9,1209.1,684.6,1207.9,684.6z"/>
		</g>
		<path style="fill:#F5B7AD;" d="M1208.3,679.6l148.3-275.4c0.3-0.6,0.8-1,1.3-1.3c0,0-0.1,0-0.1-0.1c-1.6-0.9-3.7-0.3-4.5,1.4L1205,679.6
			c-0.9,1.6-0.3,3.7,1.4,4.5c0.5,0.3,1,0.4,1.6,0.4c0.6,0,1.2-0.2,1.7-0.5C1208,683.2,1207.5,681.2,1208.3,679.6z"/>
		<path style="fill:#E6E6E6;" d="M1174.5,395.7c-47.7,4.9-97.2-10.7-126-48.1c0.5,1.2,34.7,81,125.4,75.5c91.4-5.6,127.5-40.6,179.2-12.5
			c0,0,0.8-0.1,2.2-0.5C1308.9,366.3,1233.1,389.6,1174.5,395.7z"/>
		<path style="fill:#F7F7F7;" d="M1421.5,258.5c0,0-90.4,1.2-158.6,47.5c-68.3,46.3-132.4,72-214.4,41.6c0,0,0,0,0,0
			c28.8,37.5,78.3,53,126,48.1c58.7-6.2,134.5-29.5,180.8,14.4c7.2-1.7,30.5-9.3,45.2-36.1c17.6-32.1,28.7-55.2,30.7-74.7
			C1433.2,279.8,1432.6,264.6,1421.5,258.5z"/>
		<g>
			<path style="fill:#FFD4CD;" d="M1359.3,412c-2.2,0-4.3-0.5-6.2-1.4c-8.2-4-11.7-15.8-9.8-33.3c1.8-16.4,8-36.2,17.4-55.9
				c9.5-19.7,21.1-36.9,32.8-48.5c12.5-12.4,23.9-17.1,32.1-13.1c8.2,4,11.7,15.8,9.8,33.3c-1.8,16.4-8,36.2-17.4,55.9l0,0
				c-9.5,19.7-21.1,36.9-32.8,48.5C1375.6,407,1366.7,412,1359.3,412z M1419.4,265.2c-5.4,0-13,4.4-21.1,12.5
				c-11.2,11.1-22.3,27.6-31.5,46.6c-19.7,40.9-21.5,75.1-10.8,80.2c5.3,2.6,14.5-1.9,24.5-11.8c11.2-11.1,22.3-27.6,31.5-46.6
				c19.7-40.9,21.5-75.1,10.8-80.2C1421.8,265.4,1420.7,265.2,1419.4,265.2z M1415,347.6L1415,347.6L1415,347.6z"/>
		</g>
		<g>
			<path style="fill:#F5B7AD;" d="M1416.5,345c19.7-40.9,21.5-75.1,10.8-80.2c-1-0.5-2.1-0.7-3.4-0.7c-1.6,0-3.4,0.4-5.3,1.2
				c0.3,0,0.6,0,0.9,0c1.2,0,2.4,0.2,3.4,0.7c10.7,5.2,8.9,39.4-10.8,80.2c-9.1,19-20.3,35.5-31.5,46.6c-5.7,5.7-11.2,9.6-15.8,11.4
				c5.3-0.5,12.5-4.8,20.2-12.5C1396.1,380.5,1407.3,364,1416.5,345z"/>
			<path style="fill:#F5B7AD;" d="M1363.8,410.8c-2.2,0-4.3-0.5-6.2-1.4c-8.2-4-11.7-15.8-9.8-33.3c1.8-16.4,8-36.2,17.4-55.9
				c9.5-19.7,21.1-36.9,32.8-48.5c6.8-6.7,13.2-11.2,19.1-13.2c-6.9,0.9-14.9,5.8-23.5,14.3c-11.7,11.6-23.3,28.8-32.8,48.5
				c-9.5,19.7-15.7,39.5-17.4,55.9c-1.9,17.5,1.6,29.3,9.8,33.3c1.9,0.9,4,1.4,6.2,1.4c2.2,0,4.5-0.4,6.9-1.3
				C1365.4,410.8,1364.6,410.8,1363.8,410.8z"/>
		</g>
		<path class="st9" d="M1255.9,641.1c11.5-8,16-20.1,16.2-32.6c-2.7-8.3-9-14.1-13-17.1c-2.3-1.7-5.4-1.6-7.6,0.1
			c-3.6,2.8-9.3,8.6-16,20.4c-4.3,7.7-5.6,14.7-4.8,20.6c1.3,3.7,3.3,6.7,6.3,9.7C1242.5,646.6,1250.3,644.4,1255.9,641.1z"/>
		<path style="fill:#ED7E94;" d="M1272.1,608.5c-0.3,12.5-4.7,24.6-16.2,32.6c-5.6,3.3-13.4,5.6-19,1.1c-3-3-5-6-6.3-9.7
			c2.5,17.6,23.8,24.3,37.1,2.2C1274.1,624.3,1274.4,615.5,1272.1,608.5z"/>
		<path style="fill:#ED7E94;" d="M1253,594.6c-1.3-1.9-3.5-3-5.9-2.9c-1.2,0-2.5,0.1-4.1,0.3c11.4,5,22,20.8,11.7,28
			c-6.7,4.5-7.8-12.3-15.6-16.7c1.9,10.4,5.4,20,4.3,30.2c2.7-8.9-0.6-25-0.6-25s6,25.2,16.7,16.7
			C1268.1,618.4,1257.7,601.4,1253,594.6z"/>
		<path class="st9" d="M1239.2,603.2c7.8,4.5,8.9,21.2,15.6,16.7c10.3-7.2-0.4-23-11.7-28c-6.2,0.6-14.9,2.4-21.7,7.5
			c-11.9,8.9,0,23.2,0,23.2s13,21,19.7,15.1c1.1-1,1.9-2.5,2.5-4.3C1244.5,623.2,1241,613.6,1239.2,603.2z"/>
		<path style="fill:#FFFFFF;" d="M1006.7,682.1l19.9-2.2c0,0-1,12.3-8.8,12.4C1010,692.4,1006.7,682.1,1006.7,682.1z"/>
		<path style="fill:#322666;" d="M479,1242.5l3.9-0.8l0,0c14.6-9.8,33.7-19.7,55-29.5c-1.3-3.2-2.4-6.5-3.2-9.9
			C516.7,1214,498.1,1227.3,479,1242.5z"/>
		<path style="fill:#ED7E94;" d="M606.9,1174.1c-0.9-4.1-1.4-8.2-1.4-12.2c-21.7,10.6-45.5,23.8-70.9,40.4c0.9,3.4,1.9,6.7,3.2,9.9
			c22.3-10.2,47-20.1,71.3-29.2C608.2,1180.1,607.4,1177.1,606.9,1174.1z"/>
		<path style="fill:#322666;" d="M844,995.4c-10-12.7-7.6-35.2-5-48.6c-1.4-1.6-2.7-3.3-4-5c-9.2,9.6-17.2,25.5-7.4,48.3
			c0,0-81,94-95.9,130.5c0,0-50.4,4.4-126.3,41.3c0,4,0.5,8.1,1.4,12.2c0.6,3,1.3,6,2.2,8.9c69.5-26,136-45.3,136-45.3L844,995.4z"
			/>
	</g>
	<g>
		<g>
			<path style="fill:#FFCC46;" d="M1897.7,258.4c-35.2-12.8-40.8-56.9-74.1-62.5c-30.7-5.2-54,27.3-57.5,32.5c9.1-4.1,22.2-7.2,25.5,1.1
				c7.1,18.1,8,42.8,20.5,57.2c7.1,4.1,13.7,5.2,13.7,5.2c-6.3-4.4-10-14.9-11.8-22.1c-2.6-4.9-4.6-9.9-5.6-15.7
				c7.4,12.7,17.8,24.2,32.5,28c-8.8-7.3-13.3-18.7-13.2-30.8c13,11.7,26.9,23,44.1,27.1c-14.8-7.4-22-22.5-28.3-35.6
				c22.9,19.6,56,27.4,85.4,20c0.4-0.2,0.7-0.3,0.7-0.3S1915,264.6,1897.7,258.4z"/>
			<path style="fill:#FE9736;" d="M1843.4,242.8c6.3,13.1,13.4,28.3,28.3,35.6c-17.2-4.1-31.1-15.4-44.1-27.1c-0.1,12,4.4,23.4,13.2,30.8
				c-14.7-3.8-25.1-15.3-32.5-28c1,5.8,3,10.8,5.6,15.7c-1.1-4.2-1.5-7.2-1.5-7.2c13.4,29.3,47.1,25.6,47.1,25.6
				c-15.2-2.2-24.4-25.9-24.4-25.9c24.4,25.9,57.9,18.7,57.9,18.7c-19.5-4.9-37.8-25.6-37.8-25.6c34.8,23.6,68.5,9.8,73.6,7.5
				C1899.4,270.1,1866.3,262.3,1843.4,242.8z"/>
			<path style="fill:#FE9736;" d="M1791.5,229.5c-3.3-8.3-16.3-5.2-25.5-1.1c-0.3,0.4-0.5,0.7-0.5,0.7c26.5-6.6,26.6,2.3,28.6,30.1
				c1.1,14.7,9.8,23,17.8,27.5C1799.5,272.3,1798.6,247.6,1791.5,229.5z"/>
		</g>
		<path style="fill:#FFCC46;" d="M1622.5,196c-33.6,3.2-42.4,46.7-78.4,57c-10,2.8-19,3-24.8,2.6c25.9,6.1,54.6,4.3,77.1-11.4
			c-4.3,11.6-12,22.5-23.6,26.3c17.4-4.9,33.6-12.6,47-24.7c-3.2,13.2-11.8,25-21.2,34.6c13.9-4.2,22.5-16,33.3-25
			c-0.2,7.3-2.9,13.5-6.6,19.2c-2.2,5.6-5.5,12-10,15.6c21.1-9,23.5-34.7,32.5-55.4c5-13.2,18.9-8.1,29.7-2.3
			C1674.4,227.1,1653.4,193.1,1622.5,196z"/>
		<path style="fill:#FE9736;" d="M1631.9,255.4c-10.8,9-19.4,20.8-33.3,25c9.4-9.7,18-21.4,21.2-34.6c-13.4,12.1-29.6,19.8-47,24.7
			c-0.9,0.3-1.9,0.6-2.9,0.8c1-0.3,1.9-0.5,2.9-0.8c11.6-3.8,19.3-14.7,23.6-26.3c-22.5,15.7-51.2,17.5-77.1,11.4
			c-4.5-0.3-7.1-0.9-7.1-0.9s35.1,21,74.6-1.8c0,0-19.7,19.3-39.5,22.8c0,0,32.8,9.6,59.1-14.5c0,0-10.9,23-26.2,24.1
			c0,0,33.4,6.2,48.9-22.1c0,0-1.2,5.3-3.6,11.4C1628.9,269,1631.7,262.8,1631.9,255.4z"/>
		<path style="fill:#FE9736;" d="M1677.5,232.5c-10.8-5.8-24.7-10.9-29.7,2.3c-9.1,20.7-11.4,46.3-32.5,55.4c-0.6,0.5-1.2,0.9-1.9,1.3
			c0,0,29.7-2.8,33.8-30.3c4.1-27.5,4.8-36.4,30.7-27.9C1677.9,233.3,1677.8,233,1677.5,232.5z"/>
		<path style="fill:#FE9736;" d="M1572.7,270.5c-1,0.3-1.9,0.5-2.9,0.8C1570.8,271.1,1571.8,270.8,1572.7,270.5z"/>
		<g>
			<path style="fill:#FFCC46;" d="M1766,228.4l-37.9-2.8l0.5-6.3c0.5-6.7,0.4-11.1-0.3-13.2c-0.7-2.1-2.5-3.3-5.4-3.5
				c-2.3-0.2-4.1,0.6-5.4,2.3c-1.3,1.7-2.1,4.3-2.3,7.9c-0.4,5.9,0.4,10.2,2.6,12.7c2.1,2.6,8.6,7.7,19.4,15.4
				c9.2,6.5,15.4,11.5,18.7,14.8c3.3,3.4,5.9,8,7.9,13.8c2,5.8,2.7,13,2,21.4c-1,13.5-5.1,23.9-12.1,31.1
				c-7.1,7.2-17.2,11.2-30.3,12.1l-1.1,14.3l-17.4-1.3l1.1-14.7c-10.1-1.8-18.6-6.3-25.7-13.7c-7.1-7.4-9.9-19.5-8.7-36.3l0.6-7.4
				l37.9,2.8l-0.7,9.3c-0.8,10.2-0.9,16.6-0.3,19.1c0.6,2.5,2.4,3.9,5.4,4.1c2.6,0.2,4.5-0.5,5.9-2.1c1.4-1.6,2.2-4.1,2.4-7.5
				c0.6-8.5,0.5-14.6-0.4-18.4c-0.9-3.7-4.7-8-11.3-12.9c-11-8.1-18.5-14-22.4-17.8c-3.9-3.7-7.1-8.8-9.7-15.2
				c-2.6-6.4-3.6-13.5-3-21.3c0.8-11.3,4.7-20,11.6-25.9c6.9-6,16.8-9.2,29.7-9.7l0.9-12.1l17.4,1.3l-0.9,12.1
				c11.6,2.4,20,7,25.4,13.7c5.3,6.8,7.6,15.8,6.7,27C1766.8,222.8,1766.5,225.2,1766,228.4z"/>
		</g>
	</g>
	<g>
		<path style="fill:#F2F0FF;" d="M739.8,288.1h348.1L962,268.4c0,0-0.7-37.9-42.1-22.4c0,0-3.4-28.7-35.3-30.1c-32-1.4-29.9,25.9-29.9,25.9
			s-40.7-26.6-64.5-0.7c-23.8,25.9,14,33,14,33L739.8,288.1z"/>
		<path style="fill:#F2F0FF;" d="M2088.3,193.4h-189.9l68.7-10.7c0,0,0.4-20.7,23-12.2c0,0,1.8-15.7,19.3-16.4c17.4-0.8,16.3,14.2,16.3,14.2
			s22.2-14.5,35.2-0.4c13,14.2-7.7,18-7.7,18L2088.3,193.4z"/>
	</g>
	<g>
		<path style="fill:#F7F7F7;" d="M2262.7,455c42.3,66.5,123.3,86,198.1,80.1c-31.1-3.5-146.2-23.6-149.8-131.6
			c-4.3-124.9-88.4-176.4-88.4-176.4l-30.4,8.1l-29.3,27l-26.3,36.1l-12.8,33.8l2.2,21.4C2188.4,344.7,2230.7,405,2262.7,455z"/>
		<path style="fill:#E6E6E6;" d="M2262.7,455c-32-50-74.3-110.3-136.7-101.6l0.1,0.9c0,0,55,27.2,91.9,117.7
			c55.5,136.1,250.5,63.7,250.5,63.7s-2.8-0.1-7.7-0.7C2386,540.9,2305,521.5,2262.7,455z"/>
		<path style="fill:#ED7E94;" d="M2439.3,917c0,0-12.3,9.1-11.6,19.1c0.7,9.9,17.4,26.6,22.4,22C2455,953.4,2452.6,916.4,2439.3,917z"/>
		<path style="fill:#ED7E94;" d="M2182.6,671.7H2143c0,0,8.4,5.3,14.5,17.5c9.6-2.9,18.7-7.3,26.1-14.1L2182.6,671.7z"/>
		<path class="st9" d="M2162.7,668.9c10.6-13.8,1.1-27.7-11.7-35.1c-7.6-5.1-15.2-7.5-21.7-12.5l-9.1,25.2l6.7,3.2v28.7
			c0,0,10.1,1.7,22.6,1.4C2154.3,677.5,2158.9,674.3,2162.7,668.9z"/>
		<path style="fill:#ED7E94;" d="M2199.9,631.1l-66.5-21.3l-4.2,11.5c6.5,5,14.1,7.4,21.7,12.5c12.8,7.5,22.4,21.3,11.7,35.1
			c-3.8,5.4-8.3,8.6-13.3,11c10.9-0.3,23.5-2.2,33.2-8.1C2203.3,658.9,2199.9,631.1,2199.9,631.1z"/>
		<path style="fill:#322666;" d="M2175.5,638.4c0,0-53.9-12.1-81.6-61c0,0,83,17.7,126.3,58.2c0,0-12.8,28.4-37.6,36.2l-5-24.1
			c0,0,11.4,0.7,9.9-7.8C2186.1,631.3,2175.5,638.4,2175.5,638.4z"/>
		<path class="st9" d="M1984.4,518.3c0,0-0.9,9.8-2,24.8c3.1,0.3,6.1,0.3,9.2,0.1c0.9-9.4,2.1-18.9,3.4-28.3
			C1989.1,516.5,1984.4,518.3,1984.4,518.3z"/>
		<path class="st9" d="M2017.4,520.9c3.1-11-11.5-8.9-22.3-6c-1.4,9.4-2.5,18.8-3.4,28.3c8.5-0.6,16.9-3,24.8-6.7
			C2016.3,529.2,2016.6,523.7,2017.4,520.9z"/>
		<path class="st9" d="M2470.3,962.7c11.7-6.4,20.2-21.3,10.6-34.1c-1.1-1.1-4.3-3.2-4.3-3.2c-3.2-8.2-6.5-16.4-10-24.6
			c-10.4,2-20.6,7.1-29.6,12.9l7.6,11.7c0,0-10.5,15.8-5,31.5C2447.5,964.9,2459.6,967.6,2470.3,962.7z"/>
		<path style="fill:#ED7E94;" d="M2479.9,916.9c0,0-2.5-6.6-7-16.9c-2.1,0.1-4.1,0.4-6.2,0.8c3.5,8.2,6.8,16.4,10,24.6c0,0,3.2,2.1,4.3,3.2
			c9.6,12.8,1.1,27.7-10.6,34.1c-10.7,5-22.8,2.2-30.6-5.7c1,3,2.7,6,5,8.9C2459.6,984,2511.8,966.9,2479.9,916.9z"/>
		<path style="fill:#EAC7ED;" d="M2431.3,904.8l5.8,8.9c9-5.9,19.2-11,29.6-12.9c-1.6-3.8-3.3-7.5-5-11.3C2450.6,892,2440,897.4,2431.3,904.8
			z"/>
		<path style="fill:#D4A5D9;" d="M2467.8,888.4c-2,0.3-4,0.6-6,1.1c1.7,3.7,3.3,7.5,5,11.3c2.1-0.4,4.1-0.7,6.2-0.8
			C2471.4,896.5,2469.7,892.6,2467.8,888.4z"/>
		<path style="fill:#EAC7ED;" d="M1989.2,681.7c-1.6-42.6-2-85.7,1.6-128.6c-3,0.1-6,0.1-9-0.2c-2.9,43.4-6,114.7,2.7,134.6
			c12.8,29.3,146.9,95.8,146.9,95.8l7.7-0.4c0.1-9.7,1.4-19.4,4.5-28.9C2088.2,740.2,2035,715.7,1989.2,681.7z"/>
		<path style="fill:#EAC7ED;" d="M2254.2,755.1c2.8,8.4,5.7,17,8.4,25.9l95.8,32.2c-27.3-16.1-55.6-29-84-45.3
			C2268.1,764.7,2262.7,757.2,2254.2,755.1z"/>
		<path style="fill:#F2F0FF;" d="M2399,797.7c-29.8-25.5-68.1-35.1-104.3-53.2c-8-3.6-15.4-8.7-23.1-13.6l-20.6-7.7l-55.9-13h-31.7l-29.5,14.5
			c0,0-78.2-30.9-107-67.6c0,0-8.4-69.9-10.2-110.3c-8.2,3.5-17,5.7-26,6.2c-3.6,42.9-3.2,86-1.6,128.6
			c45.8,34.1,99,58.5,154.3,72.4c-3.2,9.5-4.4,19.2-4.5,28.9l113.1-5.5l10.5,3.5c-2.7-8.8-5.6-17.5-8.4-25.9
			c8.5,2.1,13.8,9.6,20.2,12.8c28.4,16.3,56.8,29.2,84,45.3l17.1,5.7l55.8,85.8c8.6-7.4,19.2-12.8,30.4-15.3
			C2446.2,855,2426.7,822.2,2399,797.7z"/>
		<path style="fill:#EAC7ED;" d="M2393.7,776.4l-122.1-45.6c7.7,4.9,15.1,10,23.1,13.6c36.2,18.1,74.5,27.7,104.3,53.2
			c27.7,24.5,47.2,57.3,62.8,91.8c2-0.5,4-0.8,6-1.1C2452.1,853.5,2423.1,796.5,2393.7,776.4z"/>
		<path style="fill:#D4A5D9;" d="M1982.4,543.1c-0.2,3-0.4,6.3-0.7,9.8c3,0.3,6,0.3,9,0.2c0.3-3.3,0.6-6.6,0.9-9.9
			C1988.6,543.4,1985.5,543.4,1982.4,543.1z"/>
		<path style="fill:#EAC7ED;" d="M2016.4,536.5c-7.9,3.7-16.3,6.1-24.8,6.7c-0.3,3.3-0.6,6.6-0.9,9.9c9-0.4,17.8-2.6,26-6.2
			C2016.6,543.2,2016.5,539.7,2016.4,536.5z"/>
		<path style="fill:#F2F0FF;" d="M2261.7,927.5c31.9-52.2,10.6-118.1-7.5-172.4c8.4,2.1,13.7,9.4,19.9,12.6c-6.7-18.4-14.4-34.3-23.1-44.6
			c-36.8,24.3-74.9,34.1-115,24.1l-4.8,36.1c0,0-9,48.1,6.6,70.1c15.6,22,74.5,55.3,87.3,91.5c0,0,2.5,1.3,6.8,2.6
			C2244.6,945.9,2256.2,937.8,2261.7,927.5z"/>
		<path style="fill:#EAC7ED;" d="M2254.2,755.1c18.1,54.3,39.4,120.3,7.5,172.4c-5.5,10.3-17.1,18.3-29.8,19.9c13.3,4,44.4,8.2,75.6-24.6
			c0,0-10.6-92.4-33.3-155.2C2267.9,764.5,2262.6,757.2,2254.2,755.1z"/>
		<path style="fill:#322666;" d="M2234.4,1008.4c0,0,34.7,120.3,131.6,196.9l241.6-158.6c0,0-156.5,5.3-238.4,74.5l-54.3-155.4L2234.4,1008.4
			z"/>
		<path style="fill:#3F327A;" d="M2307.4,922.9c0,0,33,25.9,16,64.2c-17,38.3-121.3,72.2-235.2,51.5c0,0-26.6,135.8-157.5,212.4
			c0,0,77.7-218.2,109.6-261.8C2040.3,989.3,2218,927.9,2307.4,922.9z"/>
		<polygon style="fill:#322666;" points="1951.4,1237.9 1959.4,1279.3 1790.1,1205.4 		"/>
		<g>
			<path style="fill:#FFD4CD;" d="M1927.1,607.7c-0.6,0-1.2-0.2-1.7-0.6c-1.1-0.9-1.3-2.6-0.4-3.7l201.6-251.2c0.9-1.1,2.6-1.3,3.7-0.4
				c1.1,0.9,1.3,2.6,0.4,3.7l-201.6,251.2C1928.6,607.4,1927.9,607.7,1927.1,607.7z"/>
		</g>
		<path style="fill:#F5B7AD;" d="M2130.3,351.8c-0.8-0.6-1.8-0.7-2.6-0.4c0.6,0.9,0.6,2.2-0.2,3.1L1926,605.6c-0.3,0.4-0.7,0.6-1.1,0.8
			c0.2,0.2,0.3,0.5,0.6,0.7c0.5,0.4,1.1,0.6,1.7,0.6c0.8,0,1.6-0.3,2.1-1l201.6-251.2C2131.7,354.4,2131.5,352.7,2130.3,351.8z"/>
		<path class="st9" d="M2003,523.9c10.5-7.6,19.9-16.7,22.4-21c6-10.6,6-22.7-3.2-29.4c-9.7-7.1-42.3,15.4-51,39.8
			c0,3.5,0.8,6.4,2.1,7.7C1982.2,529.4,1992.6,528.5,2003,523.9z"/>
		<path style="fill:#ED7E94;" d="M2023.2,499.7c-7.5,0-21.3,1.1-20.2-8.5c0.7-5.9,6.1-9.2,12.1-11.5c-8.3,2.2-26.8,7.9-24.9,14.3
			c2.5,8.2,24.1,7.3,24.1,7.3s-16.9,7.8-19.6,18.7C2002.2,510.9,2012.7,504.4,2023.2,499.7z"/>
		<path class="st9" d="M1994.8,519.9c-0.5,1.9-0.5,3.9,0.1,6c3.9,13.8,22-2.1,22-2.1s15.6-9.6,20.9-22c5.3-12.4-18.8-23.1-18.8-23.1
			s-1.5,0.3-3.8,1c-6,2.2-11.4,5.5-12.1,11.5c-1.1,9.6,12.8,8.5,20.2,8.5C2012.7,504.4,2002.2,510.9,1994.8,519.9z"/>
		<path style="fill:#ED7E94;" d="M1973.2,520.9c-1.3-1.3-2.1-4.3-2.1-7.7c-1.5,4.2-2.3,8.5-2.2,12.7c0.6,17,18.5,9.2,34.1-2
			C1992.6,528.5,1982.2,529.4,1973.2,520.9z"/>
		<path class="st9" d="M2195.1,710.2l-11.5-35.1c-7.4,6.7-16.5,11.2-26.1,14.1c3.5,6.9,6.2,16,6.2,27.6v31.9L2195.1,710.2z"/>
		<path style="fill:#FFFFFF;" d="M2129.3,662.5h17.5c0,0-3.2,11.4-10.6,11.2C2128.6,673.4,2129.3,662.5,2129.3,662.5z"/>
		<polygon style="fill:#EAC7ED;" points="2203.4,721.1 2176.3,781.1 2163.3,751.1 2151.3,776 2155.2,721.1 2154.9,760.8 2163.7,748.7 
			2175.1,766.3 		"/>
		<polygon style="fill:#E5649A;" points="2163.3,751.1 2157,764.2 2161.6,781.1 2169.8,766.1 		"/>
		<path style="fill:#DB4A87;" d="M2179.7,827.5c-15.7-15.7-19.2-37.8-17-59.8C2100.1,908.3,2325,901.6,2325,901.6l46.8-40.4l-1.1-1.1
			C2305.1,876.4,2230.4,878.2,2179.7,827.5z"/>
		<path style="fill:#E5649A;" d="M2179.7,827.5c50.7,50.7,125.4,49,191,32.6l-42.5-42.8c0,0-20.3,21.8-85.2,18.6
			c-64.9-3.2-79.7-69.8-79.7-69.8c-0.2,0.5-0.4,1-0.6,1.5C2160.5,789.7,2164,811.8,2179.7,827.5z"/>
		<g>
			<path style="fill:#EAC7ED;" d="M2203.4,811.8c-0.7,0-1.4-0.5-1.6-1.3c-0.2-0.9,0.4-1.7,1.3-1.9l50.8-10.1c0.9-0.2,1.7,0.4,1.9,1.3
				c0.2,0.9-0.4,1.7-1.3,1.9l-50.8,10.1C2203.6,811.8,2203.5,811.8,2203.4,811.8z"/>
		</g>
		<circle style="fill:#F2F0FF;" cx="1986.8" cy="548.6" r="2.4"/>
		<path style="fill:#3F327A;" d="M2273.5,987.7l-39.1,20.7c0,0,34.7,120.3,131.6,196.9l241.6-158.6l-249.1,118.1
			C2329.5,1141.7,2296.2,1055.6,2273.5,987.7z"/>
		<circle style="fill:#F2F0FF;" cx="2464.2" cy="894.9" r="2.5"/>
		<path style="fill:#322666;" d="M2074.7,1022.3c0,0-73.1,182.5-138.5,225.5c126.1-77.2,152-209.1,152-209.1
			c113.9,20.7,218.2-13.2,235.2-51.5c17-38.3-16-64.2-16-64.2S2350,1055.6,2074.7,1022.3z"/>
		<polygon style="fill:#322666;" points="2584.2,1048.4 2595.9,1011.6 2695.9,1146.3 		"/>
		<g>
			<path style="fill:#FFD4CD;" d="M2131.7,356.8c-2.1-0.4-3.9-1.2-5.6-2.5c-6.9-5.3-8-17-2.9-33c4.8-15,14.3-32.4,26.9-49
				c12.6-16.6,26.7-30.5,39.9-39.1c14-9.2,25.6-11.4,32.5-6.2c6.9,5.3,8,17,2.9,33c-4.8,15-14.3,32.4-26.9,49l0,0
				c-12.6,16.6-26.7,30.5-39.9,39.1C2147.9,355.2,2138.6,358.2,2131.7,356.8z M2215.7,230.9c-5.1-1-13,1.7-22.2,7.7
				c-12.5,8.2-26.1,21.6-38.3,37.7c-26.1,34.5-34.3,66.2-25.3,73c4.5,3.4,13.9,1,25.2-6.4c12.5-8.2,26.1-21.6,38.3-37.7
				c26.1-34.5,34.3-66.2,25.3-73C2217.9,231.5,2216.9,231.1,2215.7,230.9z M2196,307.1L2196,307.1L2196,307.1z"/>
		</g>
		<g>
			<path style="fill:#F5B7AD;" d="M2224.9,229.3c3,6.3,2.6,15.9-1.2,27.9c-4.8,15-14.3,32.4-26.9,49c-12.6,16.6-26.7,30.5-39.9,39.1
				c-10.8,7.1-20.1,10-27,8.6c-2.1-0.4-3.9-1.2-5.6-2.5c-0.9-0.6-1.6-1.4-2.3-2.2c1,2.1,2.3,3.8,4.1,5.1c1.6,1.2,3.5,2,5.6,2.5
				c6.9,1.4,16.2-1.5,27-8.6c13.1-8.6,27.3-22.5,39.9-39.1c12.6-16.6,22.1-34,26.9-49C2229.9,246,2229.7,235.3,2224.9,229.3z"/>
			<path style="fill:#F5B7AD;" d="M2127.5,345.8c-4.3-11,4.7-39.1,27.8-69.5c12.1-16,25.7-29.4,38.3-37.7c9.2-6,17.1-8.7,22.2-7.7
				c1.2,0.2,2.2,0.7,3,1.3c0.3,0.2,0.5,0.4,0.7,0.6c-0.6-1.5-1.4-2.7-2.5-3.5c-0.8-0.6-1.8-1.1-3-1.3c-5.1-1-13,1.7-22.2,7.7
				c-12.5,8.2-26.1,21.6-38.3,37.7C2128.1,306.9,2119.7,337.8,2127.5,345.8z"/>
		</g>
	</g>
</g>
</svg>
