<?xml version="1.0" encoding="utf-8"?>
<!-- Generator: Adobe Illustrator 19.0.0, SVG Export Plug-In . SVG Version: 6.00 Build 0)  -->
<svg version="1.1" id="_x3C_Layer_x3E_" xmlns="http://www.w3.org/2000/svg" xmlns:xlink="http://www.w3.org/1999/xlink" x="0px"
	 y="0px" viewBox="0 0 3520 2566.1" style="enable-background:new 0 0 3520 2566.1;" xml:space="preserve">
<style type="text/css">
	.st0{fill:#F2F0FF;}
	.st1{fill:#FFFFFF;}
	.st2{fill:#3F327A;}
	.st3{fill:#8B77E8;}
	.st4{fill:#E4E0FF;}
	.st5{fill:#634AC9;}
	.st6{fill:#FF96A9;}
	.st7{fill:#ED7E94;}
	.st8{fill:#7860DC;}
	.st9{fill:#DAD8E6;}
	.st10{fill:#E5649A;}
	.st11{fill:#DB4A87;}
	.st12{fill:#FFCC46;}
	.st13{fill:#FE9736;}
	.st14{fill:#563AC9;}
	.st15{fill:#FFA42F;}
	.st16{fill:#F7C6BE;}
	.st17{fill:#FFD4CD;}
	.st18{fill:#C8C2ED;}
	.st19{fill:#EDC0B9;}
	.st20{fill:#322666;}
	.st21{fill:#FEF2FE;}
	.st22{fill:#F6DEF8;}
	.st23{fill:#684FCF;}
	.st24{fill:#EAC7ED;}
	.st25{fill:#E67A17;}
	.st26{fill:#FF5B41;}
	.st27{fill:#E8472E;}
	.st28{fill:#FFDD85;}
</style>
<g>
	<g>
		<g>
			<g>
				<path style="fill:#F2F0FF;" d="M574,1041.6c-19.7-17.5-37.2-40.9-36.6-67.3c0.7-31.8,27.6-57.3,56.4-70.7c33.4-15.5,72-19.7,107.9-11.8
					c-45-9.4-87.5-30.5-122.2-60.6c-16.4-14.2-31.3-30.8-40-50.7c-8.7-19.9-10.7-43.4-1.6-63.1c10-21.7,32.6-36.2,56.3-39.8
					c23.7-3.6,48.1,2.7,69.2,14.1c-56.2-35.5-95.2-97.1-103.3-163.2c-3.3-27.3,0.7-59.5,23.7-74.5c27.1-17.7,62.8-1.8,91,14.1
					c-35.1-56.9-56.4-122.2-61.5-188.9c-2.6-33.3,2.3-73,31.6-89.2c20.6-11.4,47.3-6.3,66.6,7.2c19.3,13.5,32.5,33.9,43.7,54.6
					c81.8,150.9,82.3,332.3,63.2,502.9c10.5-21.8,21.8-44.5,41.1-59.1s49.4-18.2,66.7-1.2c22,21.6,11.2,58.4-1.1,86.7
					c15.2-21.7,46-29.4,71-20.7c25,8.8,42.8,32.1,50.1,57.5c8.5,29.9,9.3,100,3.2,125.8c-17,72.8-88.6,152.6-88.6,152.6
					s-170.1,0-238.4-1.1C669.8,1094.4,612.8,1076,574,1041.6z"/>
				<g>
					<g>
						<path style="fill:#FFFFFF;" d="M938.2,1050c-0.3,0-0.6-0.1-0.9-0.4c-53-54-113-115.1-145.4-189.7c-37.1-85.5-36.1-181.7-35.1-274.8
							c0.1-8.2,0.2-16.3,0.2-24.5c0.7-95.9-3.4-205.4-61.5-291.3c-0.4-0.6-0.2-1.3,0.3-1.7c0.6-0.4,1.3-0.2,1.7,0.3
							c58.5,86.5,62.6,196.4,61.9,292.7c-0.1,8.1-0.1,16.3-0.2,24.5c-1,92.8-2,188.8,34.9,273.8c32.2,74.1,92,135.1,144.9,188.9
							c0.5,0.5,0.5,1.2,0,1.7C938.8,1049.9,938.5,1050,938.2,1050z"/>
					</g>
					<g>
						<path style="fill:#FFFFFF;" d="M778,1011.6c-40.2,0-80.4-4.7-119.4-14.1c-0.7-0.2-1.1-0.8-0.9-1.5c0.2-0.6,0.8-1.1,1.5-0.9
							c74.9,18,154.2,18.7,229.3,1.9c0.7-0.2,1.3,0.3,1.5,0.9c0.1,0.7-0.3,1.3-0.9,1.4C852.6,1007.5,815.3,1011.6,778,1011.6z"/>
					</g>
					<g>
						<path style="fill:#FFFFFF;" d="M807.5,889.4c-0.1,0-0.2,0-0.2,0c-0.7-0.1-1.1-0.8-1-1.4c9.2-49.1,35.3-93.9,73.3-126.3
							c0.5-0.4,1.3-0.4,1.7,0.1c0.4,0.5,0.4,1.3-0.1,1.7c-37.6,32-63.3,76.4-72.5,124.9C808.6,889,808.1,889.4,807.5,889.4z"/>
					</g>
					<g>
						<path style="fill:#FFFFFF;" d="M758.1,678.1c-0.4,0-0.9-0.2-1.1-0.7c-30.8-62.1-70.5-119.2-118-169.6c-0.5-0.5-0.4-1.3,0.1-1.7
							c0.5-0.5,1.3-0.4,1.7,0.1c47.7,50.6,87.5,107.9,118.4,170.2c0.3,0.6,0.1,1.3-0.6,1.6C758.4,678,758.2,678.1,758.1,678.1z"/>
					</g>
					<g>
						<path style="fill:#FFFFFF;" d="M736.6,353.9c-0.1,0-0.2,0-0.2,0c-0.7-0.1-1.1-0.8-1-1.4c8-40.2,1-83.8-19.3-119.4
							c-0.3-0.6-0.1-1.3,0.5-1.7c0.6-0.3,1.3-0.1,1.7,0.5c20.5,36.2,27.7,80.3,19.6,121.1C737.7,353.5,737.2,353.9,736.6,353.9z"/>
					</g>
				</g>
			</g>
			<g>
				<path style="fill:#F2F0FF;" d="M1614.1,1050.4c16-14.2,30.1-33.1,29.6-54.5c-0.6-25.7-22.3-46.4-45.7-57.3c-27.1-12.6-58.3-16-87.4-9.6
					c36.4-7.6,70.8-24.7,98.9-49c13.3-11.5,25.3-24.9,32.4-41c7.1-16.1,8.6-35.2,1.3-51.1c-8.1-17.6-26.4-29.3-45.6-32.3
					c-19.2-2.9-39,2.2-56,11.4c45.5-28.8,77.1-78.6,83.6-132.1c2.7-22.1-0.6-48.2-19.2-60.4c-21.9-14.3-50.8-1.5-73.6,11.4
					c28.4-46,45.7-98.9,49.8-152.9c2.1-27-1.9-59.1-25.6-72.2c-16.7-9.2-38.3-5.1-53.9,5.8c-15.6,10.9-26.3,27.5-35.4,44.2
					c-66.3,122.2-66.7,269.1-51.1,407.2c-8.5-17.7-17.6-36-33.3-47.9c-15.7-11.8-40-14.7-54-1c-17.9,17.5-9.1,47.3,0.9,70.2
					c-12.3-17.5-37.3-23.8-57.5-16.7c-20.2,7.1-34.7,26-40.6,46.6c-6.9,24.2-7.5,81-2.6,101.9c13.8,59,71.8,123.6,71.8,123.6
					s137.7,0,193-0.9C1536.6,1093.1,1582.7,1078.2,1614.1,1050.4z"/>
				<g>
					<g>
						<path style="fill:#FFFFFF;" d="M1319.2,1057.2c0.3,0,0.5-0.1,0.7-0.3c42.9-43.7,91.5-93.2,117.7-153.6c30-69.2,29.2-147.1,28.4-222.5
							c-0.1-6.6-0.1-13.2-0.2-19.8c-0.6-77.7,2.8-166.3,49.8-235.9c0.3-0.5,0.2-1.1-0.3-1.4c-0.4-0.3-1.1-0.2-1.4,0.3
							c-47.3,70-50.7,159-50.1,237c0,6.6,0.1,13.2,0.2,19.8c0.8,75.2,1.6,152.9-28.3,221.7c-26,60-74.5,109.4-117.3,153
							c-0.4,0.4-0.4,1,0,1.4C1318.8,1057.1,1319,1057.2,1319.2,1057.2z"/>
					</g>
					<g>
						<path style="fill:#FFFFFF;" d="M1449,1026.1c32.5,0,65.1-3.8,96.7-11.4c0.5-0.1,0.9-0.7,0.7-1.2c-0.1-0.5-0.7-0.9-1.2-0.7
							c-60.6,14.6-124.8,15.1-185.7,1.5c-0.6-0.1-1.1,0.2-1.2,0.7c-0.1,0.5,0.2,1.1,0.7,1.2
							C1388.5,1022.8,1418.8,1026.1,1449,1026.1z"/>
					</g>
					<g>
						<path style="fill:#FFFFFF;" d="M1425.1,927.1c0.1,0,0.1,0,0.2,0c0.5-0.1,0.9-0.6,0.8-1.1c-7.5-39.7-28.6-76.1-59.3-102.3
							c-0.4-0.4-1-0.3-1.4,0.1c-0.4,0.4-0.3,1,0.1,1.4c30.4,25.9,51.3,61.9,58.7,101.2C1424.2,926.8,1424.6,927.1,1425.1,927.1z"/>
					</g>
					<g>
						<path style="fill:#FFFFFF;" d="M1465.1,756c0.4,0,0.7-0.2,0.9-0.5c24.9-50.3,57.1-96.5,95.6-137.3c0.4-0.4,0.4-1,0-1.4
							c-0.4-0.4-1-0.4-1.4,0c-38.6,41-70.9,87.4-95.9,137.8c-0.2,0.5,0,1.1,0.4,1.3C1464.8,756,1465,756,1465.1,756z"/>
					</g>
					<g>
						<path style="fill:#FFFFFF;" d="M1482.5,493.6c0.1,0,0.1,0,0.2,0c0.5-0.1,0.9-0.6,0.8-1.2c-6.5-32.6-0.8-67.8,15.6-96.7
							c0.3-0.5,0.1-1.1-0.4-1.3c-0.5-0.3-1.1-0.1-1.3,0.4c-16.6,29.3-22.4,65-15.8,98C1481.6,493.3,1482,493.6,1482.5,493.6z"/>
					</g>
				</g>
			</g>
			<g>
				<path style="fill:#F2F0FF;" d="M522.1,1096.3H331.4c0,0-87.9-9.7-87.9-93.5s65.6-52.5,65.6-52.5s-52.2-36.5-7.5-53.3
					c0,0-117.8-166-77.5-315c40.2-149,119.7-231.4,181.9-196.7c126.4,70.5-122.2,330.3-77.5,423c0,0,17.9-66.3,53.7-53.1
					c35.8,13.2,43.2,40.7,26.8,89.6c0,0,32.1-23.4,44.7,23.5c0,0,36.3-38.3,106.1-19.9c69.8,18.4,85,177.9,67.7,248H522.1z"/>
			</g>
		</g>
		<g>
			<g>
				<path style="fill:#FFFFFF;" d="M496.8,1078.4c-0.2,0-0.3-0.1-0.5-0.2c-49.5-40.5-91.7-85.8-125.2-134.6c-36.4-52.9-61.8-108.8-75.4-165.9
					c-14.4-60.2-14.8-123.5-1.3-183.1c14.1-62.3,43.1-117.7,83.8-160.1c0.3-0.3,0.8-0.3,1.1,0c0.3,0.3,0.3,0.8,0,1.1
					c-80.8,84.3-112.3,215.2-82.1,341.8c26,108.9,97.1,215.3,200.2,299.7c0.3,0.3,0.4,0.7,0.1,1
					C497.2,1078.4,497,1078.4,496.8,1078.4z"/>
			</g>
			<g>
				<path style="fill:#FFFFFF;" d="M285.5,665.1c-0.3,0-0.6-0.2-0.7-0.4c-13.4-28.8-21.4-60.8-23.3-92.5c0-0.4,0.3-0.8,0.7-0.8
					c0.4,0,0.8,0.3,0.8,0.7c1.9,31.5,9.9,63.3,23.2,91.9c0.2,0.4,0,0.8-0.4,1C285.7,665,285.6,665.1,285.5,665.1z"/>
			</g>
			<g>
				<path style="fill:#FFFFFF;" d="M340.3,893.3C340.3,893.3,340.2,893.3,340.3,893.3c-0.5-0.1-0.8-0.4-0.7-0.8c3.6-29.7,12.2-58.4,25.5-85.1
					c0.2-0.4,0.6-0.5,1-0.3c0.4,0.2,0.5,0.6,0.3,1c-13.3,26.6-21.8,55.1-25.4,84.7C341,893,340.7,893.3,340.3,893.3z"/>
			</g>
			<g>
				<path style="fill:#FFFFFF;" d="M438.7,1026.4C438.7,1026.4,438.7,1026.4,438.7,1026.4c-51.1-2.7-101.5-12.4-149.9-28.8
					c-0.4-0.1-0.6-0.6-0.5-0.9c0.1-0.4,0.6-0.6,0.9-0.5c48.3,16.4,98.5,26,149.4,28.7c0.4,0,0.7,0.4,0.7,0.8
					C439.5,1026.1,439.1,1026.4,438.7,1026.4z"/>
			</g>
		</g>
	</g>
	<g>
		<path style="fill:#3F327A;" d="M1309.3,315.1h-536c-13.7,0-24.7,11.1-24.7,24.7v730.1c0,13.7,11.1,24.7,24.7,24.7h536
			c13.7,0,24.7-11.1,24.7-24.7V339.8C1334,326.2,1322.9,315.1,1309.3,315.1z"/>
		<rect x="769.3" y="332.2" style="fill:#F2F0FF;" width="545" height="742.9"/>
		<rect x="801" y="376.2" style="fill:#8B77E8;" width="477.8" height="79.4"/>
		<rect x="804.9" y="563.2" style="fill:#8B77E8;" width="138.1" height="62"/>
		<rect x="801" y="760.8" style="fill:#8B77E8;" width="329.9" height="73.9"/>
		<rect x="1047.9" y="932.2" style="fill:#8B77E8;" width="170.3" height="64.7"/>
		<g>
			<g>
				<path style="fill:#8B77E8;" d="M1278.8,669.2H815.7c-2.4,0-4.3-1.9-4.3-4.3c0-2.4,1.9-4.3,4.3-4.3h463.1c2.4,0,4.3,1.9,4.3,4.3
					C1283.1,667.3,1281.2,669.2,1278.8,669.2z"/>
			</g>
			<g>
				<path style="fill:#8B77E8;" d="M1186.1,707.9H815.7c-2.4,0-4.3-1.9-4.3-4.3c0-2.4,1.9-4.3,4.3-4.3h370.4c2.4,0,4.3,1.9,4.3,4.3
					C1190.4,706,1188.5,707.9,1186.1,707.9z"/>
			</g>
		</g>
		<g>
			<g>
				<path style="fill:#8B77E8;" d="M953.8,485.6H804.9c-1,0-1.8-0.8-1.8-1.8c0-1,0.8-1.8,1.8-1.8h148.9c1,0,1.8,0.8,1.8,1.8
					C955.6,484.8,954.8,485.6,953.8,485.6z"/>
			</g>
			<g>
				<path style="fill:#8B77E8;" d="M908.4,502.7H804.9c-1,0-1.8-0.8-1.8-1.8c0-1,0.8-1.8,1.8-1.8h103.5c1,0,1.8,0.8,1.8,1.8
					C910.2,501.9,909.4,502.7,908.4,502.7z"/>
			</g>
			<g>
				<path style="fill:#8B77E8;" d="M932.8,518H804.9c-1,0-1.8-0.8-1.8-1.8c0-1,0.8-1.8,1.8-1.8h127.9c1,0,1.8,0.8,1.8,1.8
					C934.6,517.2,933.8,518,932.8,518z"/>
			</g>
			<g>
				<path style="fill:#8B77E8;" d="M1278.8,566.2h-249.1c-1,0-1.8-0.8-1.8-1.8c0-1,0.8-1.8,1.8-1.8h249.1c1,0,1.8,0.8,1.8,1.8
					C1280.6,565.3,1279.8,566.2,1278.8,566.2z"/>
			</g>
			<g>
				<path style="fill:#8B77E8;" d="M1165.8,584h-136c-1,0-1.8-0.8-1.8-1.8s0.8-1.8,1.8-1.8h136c1,0,1.8,0.8,1.8,1.8S1166.8,584,1165.8,584z"/>
			</g>
			<g>
				<path style="fill:#8B77E8;" d="M1214.6,601.8h-184.9c-1,0-1.8-0.8-1.8-1.8c0-1,0.8-1.8,1.8-1.8h184.9c1,0,1.8,0.8,1.8,1.8
					C1216.5,601,1215.7,601.8,1214.6,601.8z"/>
			</g>
			<g>
				<path style="fill:#8B77E8;" d="M1094.1,625.2h-64.4c-1,0-1.8-0.8-1.8-1.8c0-1,0.8-1.8,1.8-1.8h64.4c1,0,1.8,0.8,1.8,1.8
					C1095.9,624.4,1095.1,625.2,1094.1,625.2z"/>
			</g>
			<g>
				<path style="fill:#8B77E8;" d="M1271.7,763.8h-117.4c-1,0-1.8-0.8-1.8-1.8c0-1,0.8-1.8,1.8-1.8h117.4c1,0,1.8,0.8,1.8,1.8
					C1273.5,763,1272.7,763.8,1271.7,763.8z"/>
			</g>
			<g>
				<path style="fill:#8B77E8;" d="M1218.2,786.2h-63.9c-1,0-1.8-0.8-1.8-1.8c0-1,0.8-1.8,1.8-1.8h63.9c1,0,1.8,0.8,1.8,1.8
					C1220,785.4,1219.2,786.2,1218.2,786.2z"/>
			</g>
			<g>
				<path style="fill:#8B77E8;" d="M1023.2,934H801c-1,0-1.8-0.8-1.8-1.8s0.8-1.8,1.8-1.8h222.2c1,0,1.8,0.8,1.8,1.8S1024.2,934,1023.2,934z"
					/>
			</g>
			<g>
				<path style="fill:#8B77E8;" d="M1023.2,951.5H801c-1,0-1.8-0.8-1.8-1.8c0-1,0.8-1.8,1.8-1.8h222.2c1,0,1.8,0.8,1.8,1.8
					C1025,950.7,1024.2,951.5,1023.2,951.5z"/>
			</g>
			<g>
				<path style="fill:#8B77E8;" d="M932.8,971.1H801c-1,0-1.8-0.8-1.8-1.8s0.8-1.8,1.8-1.8h131.8c1,0,1.8,0.8,1.8,1.8S933.8,971.1,932.8,971.1
					z"/>
			</g>
			<g>
				<path style="fill:#8B77E8;" d="M985.3,990.7H801c-1,0-1.8-0.8-1.8-1.8c0-1,0.8-1.8,1.8-1.8h184.3c1,0,1.8,0.8,1.8,1.8
					C987.2,989.9,986.3,990.7,985.3,990.7z"/>
			</g>
		</g>
		<circle style="fill:#E4E0FF;" cx="855.4" cy="414.8" r="28.1"/>
		<g>
			<path style="fill:#E4E0FF;" d="M1161.5,399.1H912.4c-1,0-1.8-0.8-1.8-1.8c0-1,0.8-1.8,1.8-1.8h249.1c1,0,1.8,0.8,1.8,1.8
				C1163.3,398.3,1162.5,399.1,1161.5,399.1z"/>
		</g>
		<g>
			<path style="fill:#E4E0FF;" d="M1048.4,416.9h-136c-1,0-1.8-0.8-1.8-1.8c0-1,0.8-1.8,1.8-1.8h136c1,0,1.8,0.8,1.8,1.8
				C1050.3,416.1,1049.4,416.9,1048.4,416.9z"/>
		</g>
		<g>
			<path style="fill:#E4E0FF;" d="M1097.3,434.8H912.4c-1,0-1.8-0.8-1.8-1.8c0-1,0.8-1.8,1.8-1.8h184.9c1,0,1.8,0.8,1.8,1.8
				C1099.1,433.9,1098.3,434.8,1097.3,434.8z"/>
		</g>
	</g>
	<g>
		<rect x="397.8" y="955" style="fill:#8B77E8;" width="105.1" height="139.6"/>
		<rect x="286.6" y="1002.4" style="fill:#634AC9;" width="105.1" height="92.3"/>
		<rect x="509" y="910.1" style="fill:#634AC9;" width="105.1" height="184.6"/>
		<rect x="620.2" y="868.8" style="fill:#8B77E8;" width="105.1" height="225.8"/>
	</g>
	<g>
		<path style="fill:#FF96A9;" d="M581.8,479.7c-1.7,6.8,3.8,10.2,10.5,12.1c3.6-0.1,6.5-0.5,7.7-1.4c2.1-1.5,0.9-6.4-1-11.3l3.2-2.2l-5.1-5.5
			C591.1,475.3,583.1,475.8,581.8,479.7z"/>
		<path style="fill:#ED7E94;" d="M581.8,479.7c1.3-3.9,9.3-4.4,15.3-8.4l-3.8-4.2c0,0-26,0.6-30.9,5.8c-4.9,5.2,5.5,17.4,5.5,17.4
			s11.1,1.4,20.3,1.5c1.4,0,2.8,0,4,0C585.6,489.8,580.1,486.4,581.8,479.7z"/>
		<path style="fill:#ED7E94;" d="M567.9,490.3c0,0,0,0-1,2c3.2,2.3,6.6,4.3,10.1,5.4c2.9-6.1,5.8-10.8,5.8-10.8
			C580.4,482.2,567.9,490.3,567.9,490.3z"/>
		<path style="fill:#3F327A;" d="M580.1,476.3c0,0,18-0.6,40-27.8c0,0-51.3,6.1-71.2,25c0,0,2.7,12.2,18.9,16.8l4-9.2c0,0-3.7-5.2,0.3-8.2
			C576.1,469.9,580.1,476.3,580.1,476.3z"/>
		<path style="fill:#7860DC;" d="M647.3,697.8c-36.7,9.8-74.5,15.9-112.4,15.9c-2-14.1-5.7-28.3-7.6-42.4c-15.9,15.9-45.1,49.5-13.6,55.1
			c41.5,7.3,116.5-12.2,116.5-12.2c-12.3,57.4,10.3,121.6,18,140.9c-0.6-3.8-0.9-7.8-0.9-11.7C647.3,794.3,640,746.6,647.3,697.8z"
			/>
		<path style="fill:#8B77E8;" d="M685.6,680.7c-52.1-25.3-149.5-17.8-149.5-17.8s-3.7,3.3-8.8,8.3c1.9,14.1,5.6,28.3,7.6,42.4
			c37.9,0,75.8-6.1,112.4-15.9c-7.3,48.9,0,96.5,0,145.4c0,4,0.3,7.9,0.9,11.7c1.5,3.7,2.4,5.8,2.4,5.8
			C679.1,798,685.6,680.7,685.6,680.7z"/>
		<path style="fill:#7860DC;" d="M499.5,734.4c19.8-19.8,30.7-44.9,36.5-71.5l-59.3,3.1c0,0-6.7,15.9-15.5,41.6
			C471.8,719,485.6,727.1,499.5,734.4z"/>
		<path style="fill:#7860DC;" d="M461.2,707.6c-18.6,54.4-46.9,152.8-42.4,238.2c0,0,0.6-0.7,1.7-2.1c3.1-79.5,19.5-158.2,42.2-234.5
			C462.2,708.7,461.7,708.2,461.2,707.6z"/>
		<path style="fill:#8B77E8;" d="M536,662.9c-5.8,26.6-16.7,51.8-36.5,71.5c-13.2-7-26.3-14.7-36.7-25.2c-22.7,76.4-39.2,155-42.2,234.5
			C433.9,927.4,522.1,814.3,536,662.9L536,662.9z"/>
		<path style="fill:#8B77E8;" d="M494.6,594.7l-44,94.5c0,0,15.9,26.5,50.5,30.1c0,0,31.8-31.4,47.9-94.9C565,560.9,494.6,594.7,494.6,594.7z"
			/>
		<path style="fill:#DAD8E6;" d="M737.3,509.5c1,1.8,1.8,3.8,2.3,5.8c0.9-1.4,1.8-2.7,2.7-4.1c0.4-0.6,0.7-1.2,1.1-1.7
			c-0.7-1.9-1.6-3.7-2.6-5.5c-0.5,1.1-1.1,2.2-1.8,3.2C738.4,507.9,737.8,508.7,737.3,509.5z"/>
		<path style="fill:#F2F0FF;" d="M728.9,494.3c-1,1.1-2.1,2.3-3.3,3.6c5.1,2.7,9.1,6.8,11.6,11.6c0.6-0.8,1.1-1.5,1.7-2.3
			c0.7-1.1,1.3-2.1,1.8-3.2C738.1,499.3,734.4,495.6,728.9,494.3z"/>
		<g>
			<path style="fill:#7860DC;" d="M503.6,672.4c-0.4,0-0.8-0.1-1.2-0.3l-27.1-14.7c-1.2-0.6-1.6-2.1-1-3.3c0.6-1.2,2.1-1.6,3.3-1l27.1,14.7
				c1.2,0.6,1.6,2.1,1,3.3C505.3,671.9,504.5,672.4,503.6,672.4z"/>
		</g>
		<path style="fill:#7860DC;" d="M501.6,519.3c0.7,1.1,1.4,2.2,2,3.3c13.5-6.4,27.4-12.1,41.3-17.4C533.8,507.7,519,512,501.6,519.3z"/>
		<path style="fill:#8B77E8;" d="M514.2,546.9c0.5,1.5,1,2.9,1.5,4.4c1.3-0.4,2.6-0.7,4-1c1.2-1.9,2.7-3.6,4.3-5.2
			C520.6,545.4,517.4,546,514.2,546.9z"/>
		<path style="fill:#8B77E8;" d="M725.7,497.9c-15.3,16.9-43.7,45.9-65.2,55.1c0,0-60.8-48.9-92.6-51.3c0,0-8.4,0.3-22.9,3.6
			c-13.9,5.3-27.8,11-41.3,17.4c4.4,7.6,7.7,15.9,10.5,24.2c3.2-0.8,6.4-1.5,9.7-1.8c-1.6,1.6-3.1,3.3-4.3,5.2
			c30.5-7.3,75.4-7,75.4-7s38.6,27.2,59.4,37.2c32.1-17,60.2-39.8,82.8-70.9C734.7,504.7,730.8,500.6,725.7,497.9z"/>
		<path style="fill:#7860DC;" d="M654.5,580.3c1.6,0.8,3.1,1.4,4.4,1.9c0,0,48.8-19.7,80.7-67c-0.6-2-1.4-3.9-2.3-5.8
			C714.7,540.6,686.6,563.3,654.5,580.3z"/>
		<path style="fill:#7860DC;" d="M568.1,544c13.3-0.8,23.8-0.8,26.4-0.8l6.6-8.1l-17.1-3.5l5.3-4.5l-9.2-22.8c-3.7-1.2-7.2-2-10.5-2.4
			L568.1,544z"/>
		<path style="fill:#FF96A9;" d="M766.8,477.7c0.7-1.6,0.9-2.9,0.9-2.9l-24.1-10.1c0,0-6.4,8.9-7,20.8c0,0-2.8,3.4-7.6,8.8
			c5.4,1.3,9.2,5.1,11.9,9.7c5.1-10.3,3.4-22.3,6.7-32.2C752.6,476.8,760.2,480.1,766.8,477.7z"/>
		<path style="fill:#ED7E94;" d="M747.5,471.7c-3.3,9.9-1.7,21.9-6.7,32.2c1,1.7,1.9,3.6,2.6,5.5c9.6-16.2,5-23.9,5-23.9l1.1-8.9
			c0,0,4.7,7,11.1,5.8c3.5-0.7,5.3-2.9,6.1-4.7C760.2,480.1,752.6,476.8,747.5,471.7z"/>
		<path style="fill:#7860DC;" d="M559.1,502.6c-3.1,0.4-7,1.1-11.5,2.1l-5.7,23.9l8.6,4.2l-15.8,6.1l1.4,8.3c9.4-1.4,19.2-2.3,28-2.9
			L559.1,502.6z"/>
		<path style="fill:#FF96A9;" d="M561.1,503.8c-6.8,13.4,9.6,25.7,9.9,13.7c0.2-6,3.1-13.6,6.1-19.7c-3.6-1.1-7-3.1-10.1-5.4
			C566,494.1,564.3,497.5,561.1,503.8z"/>
		<path style="fill:#F2F0FF;" d="M556.1,503c0,0,6,32.1,0,53.2c-6,21.1,17.9,4.9,17.9,4.9s6.2-16.8,0.8-58.3c0,0-4.1-1-7.2-1.1
			C564.2,501.5,556.1,503,556.1,503z"/>
		<polygon style="fill:#E5649A;" points="568.1,513.9 564.5,520.7 568.4,524.9 571.3,520.5 		"/>
		<path style="fill:#DB4A87;" d="M568.2,522l-0.3-0.7l-8.5,29.9l9.4-0.9C569.8,540.8,569.1,531.7,568.2,522z"/>
		<path style="fill:#E5649A;" d="M568.2,522c0.9,9.7,1.5,18.8,0.6,28.4l11.2-1L568.2,522z"/>
		<polygon style="fill:#FFCC46;" points="341.1,585.6 680,518 699.6,620.6 361.1,684.5 		"/>
		<g>
			<g>
				<path style="fill:#FE9736;" d="M450.6,590.5c-1.1,0-2.2-0.8-2.4-1.9c-0.3-1.3,0.6-2.6,1.9-2.9l196.6-42.3c1.3-0.3,2.6,0.6,2.9,1.9
					c0.3,1.3-0.6,2.6-1.9,2.9l-196.6,42.3C450.9,590.5,450.8,590.5,450.6,590.5z"/>
			</g>
			<g>
				<path style="fill:#FE9736;" d="M461.2,614.4c-1.2,0-2.2-0.8-2.4-2c-0.3-1.3,0.6-2.6,1.9-2.9l100.2-20c1.3-0.3,2.6,0.6,2.9,1.9
					c0.3,1.3-0.6,2.6-1.9,2.9l-100.2,20C461.5,614.4,461.3,614.4,461.2,614.4z"/>
			</g>
			<g>
				<path style="fill:#FE9736;" d="M463.6,640.2c-1.2,0-2.2-0.8-2.4-2c-0.3-1.3,0.6-2.6,1.9-2.9l160.2-31.7c1.3-0.3,2.6,0.6,2.9,1.9
					c0.3,1.3-0.6,2.6-1.9,2.9l-160.2,31.7C463.9,640.2,463.8,640.2,463.6,640.2z"/>
			</g>
		</g>
		<polygon style="fill:#3F327A;" points="418.4,933.9 400.5,955.6 483.6,955.6 		"/>
		<polygon style="fill:#3F327A;" points="645.1,847.1 627.2,868.8 710.3,868.8 		"/>
		<path style="fill:#7860DC;" d="M431,573.1c20.4-21.9,45.7-37.7,72.6-50.5c-0.6-1.1-1.3-2.2-2-3.3c-23.6,9.9-52.1,25.4-82.8,49.5
			c0,0,25.9,48.4,69,77.7c0.2-2.5,0.7-5,1.6-7.3C466.6,620.5,450.3,595.3,431,573.1z"/>
		<path style="fill:#7860DC;" d="M513.7,551.2c0.6-0.2,1.2-0.3,1.8-0.5c-0.4-1.3-0.9-2.6-1.3-3.9C500,550.5,487,558.3,475,567
			C484,562.2,497.5,556,513.7,551.2z"/>
		<path style="fill:#8B77E8;" d="M431,573.1c19.3,22.2,35.5,47.4,58.4,66.1c2.4-6.4,7.1-12,12.7-16c-11.7-10.5-28.8-28.1-39.3-49.1
			c0,0,4.4-3,12.2-7.1c12-8.7,25.1-16.5,39.2-20.1c-2.9-8.4-6.1-16.6-10.6-24.2C476.7,535.4,451.5,551.2,431,573.1z"/>
		<path style="fill:#ED7E94;" d="M509.2,652.6c-4.5-2.4-8.7-5.1-12.8-8c-0.7,2.1-1.2,4.3-1.5,6.5c1.4,0.8,2.8,1.7,4.2,2.5
			c0,0,1.5,17,22.9,11.2c1.9-0.5,3.6-1,5.1-1.6c-6.2-0.9-12.2-2.7-17.9-5.7C509.2,656.2,509.2,653.8,509.2,652.6z"/>
		<path style="fill:#FF96A9;" d="M541.2,649.9c0,0,18.9-6,11.1-15.4l-16.2,4.6c0,0-10.4-6.1-21.4-5.5c0,0-2.7-1.9-6.8-5.4
			c-5.4,4.2-9.3,10-11.4,16.4c4,2.9,8.3,5.5,12.8,8c0,1.2,0,3.7,0,4.9c5.7,3,11.8,4.9,17.9,5.7C543.1,657.4,541.2,649.9,541.2,649.9
			z"/>
		<path style="fill:#DAD8E6;" d="M487.8,646.5c2.3,1.6,4.7,3.1,7.1,4.5c0.3-2.2,0.8-4.4,1.5-6.5c-2.4-1.7-4.8-3.5-7.1-5.4
			C488.5,641.6,488,644,487.8,646.5z"/>
		<path style="fill:#F2F0FF;" d="M507.9,628.2c-1.7-1.4-3.6-3.1-5.8-5c-5.6,4.1-10.3,9.7-12.7,16c2.3,1.9,4.6,3.7,7.1,5.4
			C498.6,638.2,502.4,632.3,507.9,628.2z"/>
		<path style="fill:#FF96A9;" d="M574.8,502.8c0,0-4.1-1-7.2-1.1c-1.4-0.1-3.6,0.2-5.7,0.4l5.8,10L574.8,502.8z"/>
		<circle style="fill:#FE9736;" cx="397.4" cy="617.6" r="28.1"/>
		<ellipse style="fill:#F2F0FF;" cx="491.7" cy="644.9" rx="1.4" ry="1.8"/>
		<g>
			<circle style="fill:#563AC9;" cx="472.1" cy="629.3" r="2.2"/>
			<circle style="fill:#563AC9;" cx="476.5" cy="633.2" r="2.2"/>
			<circle style="fill:#563AC9;" cx="481" cy="637" r="2.2"/>
		</g>
	</g>
	<g>
		<path style="fill:#ED7E94;" d="M1562.2,632.7l-10.4-2.4c0,0-1.3,4.4-3.3,9.9c4.6-0.8,8.7-2.7,12.7-4.6L1562.2,632.7z"/>
		<path style="fill:#FF96A9;" d="M1548.4,640.2c-2.5,6.6-6.1,14.7-10,18.6c-7.2,7.2,6.5,10.6,10.6,5.5s8.2-17.2,8.2-17.2l3.9-11.6
			C1557.1,637.5,1553.1,639.4,1548.4,640.2z"/>
		<path style="fill:#FF96A9;" d="M1556.5,626.8c5-8.7-10.3-5-18.4-9.3c-2.6,4.8-5.1,11.1-3.6,15.2c0.9,2.6,4.4,3.4,8.6,3.4
			C1549.1,634.6,1554.6,630.7,1556.5,626.8z"/>
		<path style="fill:#ED7E94;" d="M1542.5,610.4c0,0-2.2,3-4.3,7.1c8,4.3,23.3,0.6,18.4,9.3c-2,3.9-7.4,7.8-13.3,9.2c8.1-0.1,19-3.4,19-3.4
			s13.7-0.4,15.4-9.5C1579.2,614.2,1569.3,601.8,1542.5,610.4z"/>
		<path style="fill:#3F327A;" d="M1563.5,618.6c0,0-15.8,2.4-28.8-5.5c-13-7.9-7.6-31.9,14.4-30.5c22,1.4,29.2,22.3,29.2,22.3
			s26.1-4.8,18.5,24.7c0,0,55.6,0.3,39.1,45.3c-16.5,45-60.3,31.4-60.3,31.4l-19.6-57.8l9.2-24.7c0,0,9.6,0.3,6.9-6.9
			C1569.3,609.7,1563.5,618.6,1563.5,618.6z"/>
		<path style="fill:#FFCC46;" d="M1584.8,782.9c-24.8-19.1-57.1-3.3-57.1-3.3s7.5,24.9,20,61.2c14.2-17.7,26.9-36.3,41.7-52.8
			C1587.9,785.9,1586.4,784.2,1584.8,782.9z"/>
		<path style="fill:#FFA42F;" d="M1589.4,788c-14.7,16.5-27.5,35.1-41.7,52.8c4.2,12.1,9,25.5,14.2,39.6c9.4,0.4,19-0.2,28.4-1.8
			c3.8-7.3,6.9-14.8,9.4-22.5c-1.8-6.9-3.8-13.8-6.1-20.6c2.3,6.8,4.3,13.7,6.1,20.6c2.3-7.3,4-14.9,4.8-22.6
			C1600.8,814.4,1595.8,797.3,1589.4,788z"/>
		<path style="fill:#FFA42F;" d="M1604.5,833.5c-0.8,7.7-2.5,15.2-4.8,22.6c1.7,6.5,3.1,13.1,4.4,19.6c2.1-0.5,4.3-1.1,6.4-1.8
			C1609,860.7,1607,846.7,1604.5,833.5z"/>
		<path style="fill:#FFCC46;" d="M1590.3,878.6c4.6-0.8,9.2-1.7,13.7-2.9c-1.2-6.6-2.7-13.1-4.4-19.6C1597.3,863.8,1594.1,871.3,1590.3,878.6
			z"/>
		<path style="fill:#ED7E94;" d="M1561.9,880.4c3.2,8.7,6.6,17.6,10.2,26.7c6.9-9.1,13.1-18.6,18.2-28.5
			C1580.9,880.2,1571.3,880.8,1561.9,880.4z"/>
		<path style="fill:#ED7E94;" d="M1608.7,937.1c47,25,51,79.2,56.6,130.1c2.1-1.2,4-2.6,5.6-4.3c-4.6-45.4-18.1-124.6-56-134.3
			c0,0-1.1-25.1-4.4-54.6c-2.1,0.6-4.3,1.2-6.4,1.8C1607.9,896,1609.5,916.5,1608.7,937.1z"/>
		<path style="fill:#FF96A9;" d="M1608.7,937.1c0.8-20.5-0.8-41.1-4.6-61.3c-4.6,1.2-9.1,2.1-13.7,2.9c-5.1,9.9-11.4,19.5-18.2,28.5
			c22.5,57.7,51.5,122.3,81.8,164.2c4-0.9,8-2.2,11.5-4.1C1659.7,1016.2,1655.7,962.1,1608.7,937.1z"/>
		<path style="fill:#FFA42F;" d="M1673.3,1094.6c0,0-0.4-13-2.3-31.8c-1.6,1.7-3.5,3.2-5.6,4.3c0.8,7.4,1.7,14.7,2.7,21.9
			C1669.8,1091,1671.5,1092.9,1673.3,1094.6z"/>
		<path style="fill:#FFCC46;" d="M1668,1089.1c-1-7.2-1.9-14.5-2.7-21.9c-3.5,2-7.5,3.3-11.5,4.1C1658.6,1077.8,1663.3,1083.8,1668,1089.1z"
			/>
		<path style="fill:#FFCC46;" d="M1574.4,880.4c57.9-73.6,3.3-117.9,3.3-117.9c-12.1,11.1-38.1,52.4-67.4,102.4
			C1530,877,1552.1,881.5,1574.4,880.4z"/>
		<path style="fill:#FFCC46;" d="M1384.9,1091c10.7-7,21.5-14.2,32-21.9c-5.5-2.3-10.7-5.3-15.2-9.4C1393.6,1074.6,1387.7,1085.6,1384.9,1091
			z"/>
		<path style="fill:#FFA42F;" d="M1382.9,1094.6c14.3-8.1,27-16,38.3-23.9c-1.5-0.5-2.9-1.1-4.4-1.6c-10.5,7.7-21.3,15-32,21.9
			C1383.6,1093.4,1382.9,1094.6,1382.9,1094.6z"/>
		<path style="fill:#FF96A9;" d="M1501.6,931.6c17-7.7,34.8-17,51.6-28c8.3-8,15.4-15.8,21.2-23.2c-22.3,1.1-44.4-3.3-64.1-15.5
			c-39.1,66.9-84,149.1-108.7,194.9c4.5,4.1,9.6,7.1,15.2,9.4C1463.8,1034.7,1504.4,992,1501.6,931.6z"/>
		<path style="fill:#ED7E94;" d="M1501.6,931.6c2.7,60.4-37.9,103.2-84.8,137.5c1.4,0.6,2.9,1.2,4.4,1.6c103-71.6,88-131.2,88-131.2
			c17.7-12.5,32.1-24.5,44-35.9C1536.4,914.6,1518.6,923.8,1501.6,931.6z"/>
		<path style="fill:#FF96A9;" d="M1530.5,673.5c16.7,4.5,28-11,36.8-25c-10-1.3-15.8-1.3-15.8-1.3c-10.7,1.1-18.4,4.8-24,9.3
			C1526.2,663.6,1523.1,671.4,1530.5,673.5z"/>
		<path style="fill:#F7C6BE;" d="M1496.1,700.9c-3.3-4.1-5.6-8.7-6-13.5c-0.2,0.4-0.3,0.8-0.5,1.2c-5.8,17.2,18.2,21.6,18.2,21.6l6.3,23
			c2.3-11.4,6.6-22.5,10.8-33.6C1516.7,710.5,1504.4,707.8,1496.1,700.9z"/>
		<path style="fill:#FFD4CD;" d="M1567.3,648.4c-8.8,14-20.1,29.5-36.8,25c-7.4-2.1-4.2-9.9-3-17.1c-11.6,9.3-13.8,22-13.8,22
			s-17.3-6.5-23.6,9.1c0.4,4.8,2.7,9.4,6,13.5c8.2,6.9,20.6,9.6,28.8-1.4c-4.3,11.1-8.5,22.2-10.8,33.6l1.6,5.9
			c0,0,57.4,0,56.7-18.9c-3.8-4.1-9.2-6.5-14.6-8.3c6.9-5.5,13.7-15.1,9.6-23.3c-4.1-6.9-12.4-11-20.6-9.6
			c12.4-4.1,26.1,5.5,27.5-12.4c12.4,3.1,23.8,7.9,34.7,13.7c4-6.8,8.6-13.4,14.7-17.9C1600.1,653.9,1580.2,650.1,1567.3,648.4z"/>
		<path style="fill:#F7C6BE;" d="M1574.4,666.6c-1.4,17.8-15.1,8.2-27.5,12.4c8.2-1.4,16.5,2.7,20.6,9.6c4.1,8.2-2.7,17.8-9.6,23.3
			c5.4,1.8,10.7,4.2,14.6,8.3c0-0.4,0-0.8-0.1-1.1c-3.1-20.1,5.3-44.8,5.3-44.8c7.3-1,19.2,2.9,30.4,7.7c0.3-0.5,0.6-1.1,0.9-1.6
			C1598.2,674.5,1586.7,669.7,1574.4,666.6z"/>
		<polygon style="fill:#3F327A;" points="1413.5,720.9 1701.8,673.5 1715.2,760.7 1429.3,809.4 		"/>
		<g>
			<g>
				<path style="fill:#F2F0FF;" d="M1508.3,729.7c-1,0-1.8-0.7-2-1.7c-0.2-1.1,0.5-2.2,1.7-2.4l98.3-17.4c1.1-0.2,2.2,0.5,2.4,1.7
					c0.2,1.1-0.5,2.2-1.7,2.4l-98.3,17.4C1508.6,729.7,1508.4,729.7,1508.3,729.7z"/>
			</g>
			<g>
				<path style="fill:#F2F0FF;" d="M1510.4,745.9c-1,0-1.9-0.7-2-1.7c-0.2-1.1,0.6-2.2,1.7-2.4l172.8-30.2c1.1-0.2,2.2,0.6,2.4,1.7
					c0.2,1.1-0.6,2.2-1.7,2.4l-172.8,30.2C1510.6,745.9,1510.5,745.9,1510.4,745.9z"/>
			</g>
			<g>
				<path style="fill:#F2F0FF;" d="M1514.3,764.5c-1,0-1.8-0.7-2-1.7c-0.2-1.1,0.5-2.2,1.7-2.4l60.1-10.7c1.1-0.2,2.2,0.5,2.4,1.7
					c0.2,1.1-0.5,2.2-1.7,2.4l-60.1,10.7C1514.6,764.5,1514.4,764.5,1514.3,764.5z"/>
			</g>
		</g>
		<path style="fill:#ED7E94;" d="M1608.2,682c6.7,2.9,13.1,6,18,8.6c-5.5-3.6-11.2-7.1-17.1-10.2C1608.8,680.9,1608.5,681.4,1608.2,682z"/>
		<path style="fill:#ED7E94;" d="M1637.2,761.4c13.6-22.8,20.8-57.2,23.7-73.3c-6.8,25.3-20.2,48.8-27.5,74.6c0,1.4,8.2,15.1,0,20.6
			c-8,3.4-21.7,2.1-26.1-7.2c-0.5,1.5-0.7,2.8-0.5,3.8c1.2,5.1,15.6,18.5,32.1,5.5C1655.4,772.4,1637.2,761.4,1637.2,761.4z"/>
		<path style="fill:#FF96A9;" d="M1633.4,783.3c8.2-5.5,0-19.2,0-20.6c7.2-25.8,20.7-49.3,27.5-74.6c1-5.4,1.4-8.8,1.4-8.8
			c-13.5-7.1-26.5-12.6-38.5-16.9c-6.1,4.5-10.7,11.2-14.7,17.9c5.9,3.1,11.5,6.6,17.1,10.2c5.8,3,9.7,5.3,9.7,5.3
			c1.7,23.3-13.4,52.5-16.8,59.4c-2.8,5.5-9.7,14.8-11.7,20.9C1611.7,785.4,1625.4,786.7,1633.4,783.3z"/>
		<path style="fill:#FF96A9;" d="M1418.7,742c-1.8-0.1-3.6,0.6-5.2,2.2c-9.8,9.6-11.1,23.1-7.8,31.3c3.2-0.6,6.4-1.7,9.4-3.2
			C1426.2,767.4,1427.3,750.5,1418.7,742z"/>
		<path style="fill:#ED7E94;" d="M1418.7,742c8.7,8.5,7.5,25.4-3.5,30.3c-3,1.5-6.2,2.6-9.4,3.2c3.1,7.6,10.1,10.8,17.9,2.5
			C1437.4,763.4,1428.1,742.4,1418.7,742z"/>
		<circle style="fill:#F2F0FF;" cx="1470.8" cy="758.2" r="24.7"/>
		<path style="fill:#F7C6BE;" d="M1514.4,675.6c-0.5,1.7-0.7,2.7-0.7,2.7s5.9,1.4,11.3,3.4C1525,681.7,1519.1,677.3,1514.4,675.6z"/>
	</g>
	<g>
		<path style="fill:#C8C2ED;" d="M1807,1099.1H177.8c-1.2,0-2.2-1-2.2-2.2c0-1.2,1-2.2,2.2-2.2H1807c1.2,0,2.2,1,2.2,2.2
			C1809.3,1098.1,1808.3,1099.1,1807,1099.1z"/>
	</g>
</g>
<g>
	<g>
		<g>
			<g>
				<g>
					<path style="fill:#C8C2ED;" d="M2108.6,1075.1c0,0,97.6-82.2,48.1-162c-16.9-27.3-70-32.8-76.6-59.5c-6.7-26.7,62.7-40.1,30.6-89.5
						c-13.5-20.7-38.6,1.4-51.7-13.1c-13.1-14.5,10.1-36.6-12.9-41.4c-23-4.8-71.5,28.8-8.3,106.2c17.1,20.9-65,60-62.9,111.1
						c2.1,51,112.6,93.8,108.4,141.4C2078.9,1116,2108.6,1075.1,2108.6,1075.1z"/>
					<g>
						<g>
							<path style="fill:#E4E0FF;" d="M2094.1,1071.5c0.1,0,0.3-0.1,0.3-0.2c0.1-0.2,9-19.8,8.3-56c-0.3-14.5-13.5-27.4-27.5-41.2
								c-21.6-21.1-46-45.1-29.8-81c13.9-30.9,9.8-69.9,3.9-97.3c-6.4-29.6-16.1-52.2-16.2-52.4c-0.1-0.2-0.3-0.3-0.5-0.2
								c-0.2,0.1-0.3,0.3-0.2,0.5c0.1,0.2,9.8,22.8,16.2,52.3c5.9,27.2,9.9,66.1-3.9,96.8c-16.4,36.4,8.3,60.5,30,81.8
								c13.9,13.6,27,26.5,27.3,40.7c0.7,36.1-8.1,55.5-8.2,55.7c-0.1,0.2,0,0.4,0.2,0.5C2094,1071.5,2094,1071.5,2094.1,1071.5z"/>
						</g>
						<g>
							<path style="fill:#E4E0FF;" d="M2054,833c0.1,0,0.2,0,0.3-0.1c0.8-1.1,19.1-26.2,20.3-37.7c0-0.2-0.1-0.4-0.3-0.4
								c-0.2,0-0.4,0.1-0.4,0.3c-1.2,11.4-20,37.1-20.2,37.4c-0.1,0.2-0.1,0.4,0.1,0.5C2053.9,832.9,2054,833,2054,833z"/>
						</g>
						<g>
							<path style="fill:#E4E0FF;" d="M2102.3,1015.6c0.1,0,0.2-0.1,0.3-0.2c0.2-0.4,23.5-37.3,14.6-71.1c0-0.2-0.2-0.3-0.4-0.2
								c-0.2,0-0.3,0.2-0.2,0.4c8.8,33.5-14.3,70.2-14.5,70.6c-0.1,0.2-0.1,0.4,0.1,0.5C2102.2,1015.6,2102.2,1015.6,2102.3,1015.6z
								"/>
						</g>
						<g>
							<path style="fill:#E4E0FF;" d="M2053.8,952.1c0.2,0,0.3-0.1,0.3-0.3c0.1-0.2-0.1-0.4-0.2-0.4c-0.3-0.1-34.5-9.6-45.1-23.9
								c-0.1-0.2-0.3-0.2-0.5-0.1c-0.2,0.1-0.2,0.3-0.1,0.5C2019,942.5,2053.4,952,2053.8,952.1
								C2053.8,952.1,2053.8,952.1,2053.8,952.1z"/>
						</g>
					</g>
				</g>
			</g>
			<g>
				<path style="fill:#FFCC46;" d="M2049.3,1098h95.9l11.2-31.9c1.2-3.5-1.4-7.3-5.1-7.3h-108.1c-3.8,0-6.4,3.7-5.1,7.3L2049.3,1098z"/>
				<path style="fill:#FFA42F;" d="M2043.2,1058.9h8.2c0,0.1,0,0.2,0.1,0.3l11.2,31.9h84.9l-2.5,7h-95.9l-11.2-31.9
					C2036.8,1062.6,2039.4,1058.9,2043.2,1058.9z"/>
			</g>
		</g>
		<g>
			<g>
				<g>
					<path style="fill:#E4E0FF;" d="M3207.5,1078.1c0,0,129.4-54.3,111.7-139.2c-7.5-35.9-34.8-45.3-27.8-67.5c7-22.2,52.4-25.9,49.4-69.5
						c-3-43.7-53.8-77.2-61.7-23.2c-4.2,28.8,2.1,46.2-14,55c-16,8.7-56.9-20.8-73.1,13.4C3175.8,881.2,3207.5,1078.1,3207.5,1078.1
						z"/>
					<g>
						<g>
							<path style="fill:#C8C2ED;" d="M3221.2,1038.6c0.2,0,0.3-0.2,0.3-0.4c-1.2-56.8,22.8-117.8,43.1-159c22-44.7,44.6-76.3,44.8-76.6
								c0.1-0.2,0.1-0.4-0.1-0.5c-0.2-0.1-0.4-0.1-0.5,0.1c-0.2,0.3-22.8,32-44.9,76.7c-20.4,41.3-44.4,102.5-43.2,159.4
								C3220.8,1038.5,3221,1038.6,3221.2,1038.6C3221.2,1038.6,3221.2,1038.6,3221.2,1038.6z"/>
						</g>
						<g>
							<path style="fill:#C8C2ED;" d="M3221.4,1024.2c0,0,0.1,0,0.1,0c0.6-0.3,55.7-29.3,74.1-54.2c0.1-0.2,0.1-0.4-0.1-0.5
								c-0.2-0.1-0.4-0.1-0.5,0.1c-18.3,24.8-73.3,53.7-73.8,54c-0.2,0.1-0.2,0.3-0.2,0.5
								C3221.1,1024.1,3221.3,1024.2,3221.4,1024.2z"/>
						</g>
						<g>
							<path style="fill:#C8C2ED;" d="M3259,890.5c0,0,0.1,0,0.1,0c0.2-0.1,0.3-0.3,0.2-0.5l-16-39.9c-0.1-0.2-0.3-0.3-0.5-0.2
								c-0.2,0.1-0.3,0.3-0.2,0.5l16,39.9C3258.7,890.4,3258.9,890.5,3259,890.5z"/>
						</g>
					</g>
				</g>
			</g>
			<g>
				<path style="fill:#FFCC46;" d="M3167.8,1097.5h89.8l10.5-29.8c1.2-3.3-1.3-6.8-4.8-6.8h-101.2c-3.5,0-6,3.5-4.8,6.8L3167.8,1097.5z"/>
				<path style="fill:#FFA42F;" d="M3162.1,1060.9h7.7c0,0.1,0,0.2,0.1,0.3l10.5,29.8h79.5l-2.3,6.5h-89.8l-10.5-29.8
					C3156.1,1064.4,3158.6,1060.9,3162.1,1060.9z"/>
			</g>
		</g>
	</g>
	<g>
		<g>
			<path style="fill:#FE9736;" d="M2468,755.6c-5.7,0-10.3-1.5-13.8-4.5c-6.8-5.9-6.5-15.3-6.4-15.7c0-1,0.8-1.7,1.8-1.7h19.6
				c1,0,1.8,0.8,1.8,1.8c0,1-0.8,1.8-1.8,1.8h-17.7c0.2,2.6,1.2,7.7,5.2,11.1c4,3.4,10,4.4,18,3c1-0.2,1.9,0.5,2.1,1.4
				c0.2,1-0.5,1.9-1.4,2.1C2472.6,755.3,2470.2,755.6,2468,755.6z"/>
		</g>
		<g>
			<path style="fill:#FFCC46;" d="M2462.9,730.2h59.7c0,0-2.4,36.8-29.8,37.2C2465.3,767.9,2462.9,730.2,2462.9,730.2z"/>
			<path style="fill:#FE9736;" d="M2496.3,760.7c-20.1,0.3-26.7-19.7-28.9-30.5h-4.5c0,0,2.4,37.7,29.8,37.2c13.8-0.2,21.3-9.7,25.3-19
				C2513.6,755.1,2506.8,760.6,2496.3,760.7z"/>
		</g>
	</g>
	<path style="fill:#FFD4CD;" d="M2302.2,767.4c-3.2,0-5.8,2.1-5.8,4.8c0,2.6,2.6,4.8,5.8,4.8H2423c-0.4-3.2-0.9-6.4-1.4-9.5H2302.2z"/>
	<g>
		<path style="fill:#EDC0B9;" d="M2302.2,772.2c-2.2,0-4-1-5-2.4c-0.5,0.7-0.8,1.5-0.8,2.4c0,2.6,2.6,4.8,5.8,4.8H2423
			c-0.2-1.6-0.4-3.2-0.7-4.8H2302.2z"/>
		<g>
			<g>
				<polygon style="fill:#FFD4CD;" points="2233,897.1 2182.5,1096.8 2201.5,1096.8 2270,897.1 				"/>
				<polygon style="fill:#EDC0B9;" points="2262.5,897.1 2194,1096.8 2201.5,1096.8 2270,897.1 				"/>
			</g>
			<g>
				<polygon style="fill:#FFD4CD;" points="2342.4,897.1 2391.6,1096.8 2374.2,1096.8 2304.5,897.1 				"/>
				<polygon style="fill:#EDC0B9;" points="2304.5,897.1 2374.2,1096.8 2381.3,1096.8 2311.7,897.1 				"/>
			</g>
			<g>
				<g>
					<path style="fill:#FFD4CD;" d="M2216.5,901.1H2361c2.6,0,4.7-2.1,4.7-4.7c0-2.6-2.1-4.7-4.7-4.7h-141.6l-110.1-214.5
						c-1.2-2.3-4-3.2-6.3-2c-2.3,1.2-3.2,4-2,6.3l111.4,217C2213.1,900.1,2214.8,901.1,2216.5,901.1z"/>
				</g>
				<path style="fill:#EDC0B9;" d="M2364.5,896h-144.4c-1.8,0-3.4-1-4.2-2.6l-111.4-217c-0.3-0.5-0.4-1.1-0.5-1.6c-0.4,0.1-0.7,0.2-1,0.4
					c-2.3,1.2-3.2,4-2,6.3l111.4,217c0.8,1.6,2.4,2.6,4.2,2.6H2361c2.6,0,4.7-2.1,4.7-4.7c0-0.2,0-0.3,0-0.5
					C2365.3,896,2364.9,896,2364.5,896z"/>
			</g>
		</g>
		<path style="fill:#ED7E94;" d="M2289.4,581.7l-3.1,2.9c3.1,5.4,7.9,9.6,13.4,12.8c7.8-7.7,16.8-12.2,16.8-12.2
			C2315.7,571.9,2289.4,581.7,2289.4,581.7z"/>
		<path style="fill:#ED7E94;" d="M2305,575.3c4.4-10,18.6-8,29.2-12.1l-3.2-9c0,0-40.4-2-46.7,4.4c-6.3,6.3,5.1,23.1,5.1,23.1
			s12.8,7.3,24.4,11C2306.9,588.6,2301.3,582.2,2305,575.3z"/>
		<path style="fill:#FF96A9;" d="M2339,576.7l-4.8-13.4c-10.7,4.1-24.9,2.1-29.2,12.1c-3.7,6.8,1.9,13.3,8.8,17.4c1.8,0.6,3.6,1.1,5.3,1.4
			c5.4,1.1,9.9,1,12-1.9c2.3-3.3,3-8.8,3-14.7L2339,576.7z"/>
		<path style="fill:#322666;" d="M2308.2,565.6c0,0,23.5,3.5,69.4-29c0,0-60.4-8.2-108.6,21.6c0,0,4.3,16.5,20.4,23.5l7.8-9.8
			c0,0-8.6-5.9-3.1-11.4C2299.6,555,2308.2,565.6,2308.2,565.6z"/>
		<path style="fill:#7860DC;" d="M2195.7,808.4c0,0-47.1,99.6,181.9,84.7c0,0,4.2,111.3,95,196.8c0,0-29.9-253.3-39.3-268.2
			c-9.4-14.9-65.8-36.1-101.1-34.5C2296.9,788.8,2205.9,779.4,2195.7,808.4z"/>
		<path style="fill:#8B77E8;" d="M2236.6,793.3c0-4.5,118.6-11,242.4-0.1c0,0-48.1,105.6-177.5,252.3c0,0,35.4-183,72.6-227.7L2236.6,793.3z"
			/>
		<path style="fill:#FEF2FE;" d="M2260.6,670.4c-3.5,26.8-9.1,56.1-18.1,79.4c-22.5,58,26.4,26.5,26.4,26.5s1.7-51.4,17.9-108.2
			C2277.9,669.5,2269,672.1,2260.6,670.4z"/>
		<path style="fill:#FF96A9;" d="M2376.9,816.4c15.7,2.1,27.6-8.5,34.8-21.6c0.8-21-21.8-40.6-45.8-38.4l-21.2-0.2
			c-7.8,8.6-12.6,20.4-12.5,31.7c4.6-0.1,9.3-0.2,13.9-0.2C2348.2,802.8,2361.8,815,2376.9,816.4z"/>
		<path style="fill:#ED7E94;" d="M2376.9,816.4c-15-1.4-28.6-13.6-30.8-28.6c-4.6,0-9.3,0.1-13.9,0.2c0,2.4,0.3,4.8,0.7,7.1h8.4
			c0,0,18.3,52.3,54.4,26.1c10.9-7.9,15.7-17.3,16-26.4C2404.5,808,2392.6,818.5,2376.9,816.4z"/>
		<path style="fill:#FEF2FE;" d="M2344.6,756.2l-12.4-0.1c-7.5,8.7-11.2,20.6-10.8,32.2c3.6-0.1,7.1-0.3,10.7-0.4
			C2332.1,776.6,2336.9,764.9,2344.6,756.2z"/>
		<path style="fill:#F6DEF8;" d="M2322.2,795.1h10.7c-0.5-2.3-0.7-4.7-0.7-7.1c-3.6,0.1-7.1,0.2-10.7,0.4
			C2321.6,790.6,2321.8,792.9,2322.2,795.1z"/>
		<path style="fill:#7860DC;" d="M2391.9,734.8c-2.9,2.1-8.6-2.1-12.9-4.3c-8.6-5-15-11.5-22.9-17.2c-17.7-12.4-32.4-26.2-45.9-41.5
			c13.5,20.1,41.2,56.1,78.1,76.8c0,0,43.3-33.2,69.5-64.1c-1-3.5-2.1-6.9-3.6-10.2C2437.5,697.2,2412.5,714.7,2391.9,734.8z"/>
		<path style="fill:#8B77E8;" d="M2438.1,653.6c-18.5,18.2-50.3,43.2-50.3,43.2s-64.8-77-103-102c0,0-16.6-2.1-41.2,2.8
			c-13.4,3.9-26.3,9.1-37.2,19.1c-2.2,10.7-3.9,21.4-5.1,32.2c6.9,1.2,13.6,2.3,19.4,5.7c2.9,1.2,5.8,2.8,8.7,4.1c0,0,0-0.1,0-0.1
			l71.5-1.5c0,0,3.2,5.8,9.2,14.7c13.5,15.3,28.2,29.1,45.9,41.5c7.9,5.7,14.3,12.2,22.9,17.2c4.3,2.1,10,6.4,12.9,4.3
			c20.6-20.1,45.6-37.5,62.4-60.5C2450.7,666,2445.6,658.6,2438.1,653.6z"/>
		<path style="fill:#7860DC;" d="M2243.6,597.6c-11.5,2.3-24.7,6.1-38.8,12.5c0,0-6.7,13.8-11,37.3c2.5,0.6,5,1.1,7.5,1.5
			c1.2-10.8,2.9-21.6,5.1-32.2C2217.3,606.7,2230.2,601.4,2243.6,597.6z"/>
		<path style="fill:#FEF2FE;" d="M2287.1,595.5c0,0-12.7-1.9-21.3-0.9c0,0-0.9,35.9-6.1,75.9c8.4,1.7,17.3-0.9,26.1-2.3
			c6.5-23,11.2-45.8,11.2-64.5L2287.1,595.5z"/>
		<g>
			<polygon style="fill:#F6DEF8;" points="2280.9,623.2 2272.3,635.7 2263.6,615.2 2272.3,630.4 			"/>
			<polygon style="fill:#F6DEF8;" points="2280.9,623.2 2286.3,636.9 2295.4,620.1 2286.7,631.3 			"/>
		</g>
		<path style="fill:#DB4A87;" d="M2280,635.7l-31.2,98.7l5.9,30.4l2-2.8c2.6-20,7.7-40.5,13.5-61.6C2275.7,679.1,2277,657.2,2280,635.7z"/>
		<path style="fill:#E5649A;" d="M2270.2,700.4c-5.8,21.1-10.9,41.6-13.5,61.6l19.1-26.7l4.9-102.1l-0.8,2.4
			C2277,657.2,2275.7,679.1,2270.2,700.4z"/>
		<path style="fill:#8B77E8;" d="M2270.5,594.4c0,0,3.5,139.1-76.6,276.1c0,0-31.2,3.7-54.2-25.1c0,0,55.9-62.9,52.1-96.8
			c-13.9-124.2,52.4-151.1,52.4-151.1C2244.8,597.3,2258,594.7,2270.5,594.4z"/>
		<path style="fill:#7860DC;" d="M2232.5,792c40.5-106.7,38-197.6,38-197.6c-4.5,0.1-9.2,0.5-13.2,1l-11.3,33.4l11,11.2l-24,7.3
			c0,0,6.2,111.8,0,141.5C2232.8,789.9,2232.6,791,2232.5,792z"/>
		<path style="fill:#F6DEF8;" d="M2457.9,684.5c2.7-3.2,5.3-6.5,7.6-9.6c-1.4-3.6-2.9-7-4.8-10.2c-1.9,3.3-4.1,6.5-6.3,9.7
			C2455.7,677.6,2456.9,681,2457.9,684.5z"/>
		<path style="fill:#FEF2FE;" d="M2443.6,648c-1.6,1.8-3.5,3.6-5.5,5.6c7.5,5,12.6,12.4,16.2,20.7c2.3-3.1,4.4-6.3,6.3-9.7
			C2456.6,657.6,2451.1,651.6,2443.6,648z"/>
		<path style="fill:#7860DC;" d="M2308.2,613.2l2.8,28.1l-13.3,9.8l18.8,10.2c0,0-9.9,84.8-57,115.7c0,0,35.8-136.4,35.8-174.7
			C2300,606.1,2304.4,609.8,2308.2,613.2z"/>
		<path style="fill:#7860DC;" d="M2220.8,785.6c-20.3-43-24.6-90.2-19.4-136.7c-2.5-0.5-5-0.9-7.5-1.5c-6.1,33.4-7.3,86.4,22.5,147.8h105.8
			c-0.4-2.2-0.6-4.5-0.7-6.8C2288,789.7,2254.1,792.5,2220.8,785.6z"/>
		<path style="fill:#8B77E8;" d="M2332.3,756.1l-78.8-0.7c0,0-29.1-61.6-24-96.7c-2.9-1.3-5.8-3-8.7-4.1c-5.8-3.4-12.6-4.5-19.4-5.7
			c-5.2,46.5-0.9,93.8,19.4,136.7c33.4,6.9,67.2,4.1,100.7,2.7C2321.1,776.7,2324.7,764.8,2332.3,756.1z"/>
		<path style="fill:#FF96A9;" d="M2286.3,584.6l-15.8,9.8l10.7,25.7l14-17.8c0,0,0.3-0.9,4.4-5C2294.2,594.1,2289.4,590,2286.3,584.6z"/>
		<path style="fill:#ED7E94;" d="M2497.9,630.2c-2.9,14.3-17.9,21.5-31.5,22.9c-1.7,4-3.6,7.8-5.7,11.5c1.9,3.2,3.5,6.7,4.8,10.2
			c3-4.2,5.6-8.2,7.6-12c0,0,32.8-13.6,34.3-26.2c0,0,7-8.3,39.9-7.3c5.9,0.2,9.2-0.5,10.2-1.8
			C2537.5,623.1,2516.8,622.8,2497.9,630.2z"/>
		<path style="fill:#FF96A9;" d="M2483.5,620.5c0,0-5.8-20.4-30.3-14.1c-24.6,6.3,10.6,12.5,10.6,12.5s-13.7,8.4-12.7,17.8
			c0.2,2.1-2.7,6.2-7.5,11.3c7.5,3.6,12.9,9.6,17,16.6c2.1-3.7,4.1-7.5,5.7-11.5c13.6-1.4,28.6-8.6,31.5-22.9
			c18.9-7.4,39.6-7.1,59.6-2.6C2562.2,622.1,2521.6,606.4,2483.5,620.5z"/>
		<polygon style="fill:#322666;" points="2458.6,1070.5 2432.3,1096.8 2571.3,1096.8 		"/>
		<polygon style="fill:#322666;" points="2308.4,1013.2 2271.8,1003.2 2319.9,1096.8 2358.6,1096.8 2332.2,1086 		"/>
		<g>
			<path style="fill:#7860DC;" d="M2210.8,810c-0.3,0-0.7-0.1-1-0.3l-19.1-13.1c-0.8-0.6-1-1.7-0.5-2.5c0.6-0.8,1.7-1,2.5-0.5l19.1,13.1
				c0.8,0.6,1,1.7,0.5,2.5C2211.9,809.7,2211.3,810,2210.8,810z"/>
		</g>
		<circle style="fill:#FEF2FE;" cx="2326.5" cy="791.5" r="2"/>
		<g>
			<circle style="fill:#684FCF;" cx="2311.7" cy="790.4" r="2.7"/>
			<circle style="fill:#684FCF;" cx="2302.6" cy="790.4" r="2.7"/>
			<circle style="fill:#684FCF;" cx="2293.7" cy="790.8" r="2.7"/>
		</g>
		<g>
			<path style="fill:#8B77E8;" d="M2307.6,669.6c-0.1,0-0.2,0-0.3-0.1l-7.7-4.3c-0.3-0.2-0.5-0.6-0.3-1c0.2-0.3,0.6-0.5,1-0.3l7.7,4.3
				c0.3,0.2,0.5,0.6,0.3,1C2308.1,669.5,2307.8,669.6,2307.6,669.6z"/>
		</g>
		<polygon style="fill:#DB4A87;" points="2280.9,623.2 2276.1,630.4 2280,637.6 2284.2,631.5 		"/>
	</g>
	<g>
		<path style="fill:#ED7E94;" d="M3132.3,581.3c0,0-16.1-9.7-23.6,3.2c0,0,4.8,4.7,10,11.5c5.6-3.3,11.5-6.4,16.9-10.1
			C3133.6,583,3132.3,581.3,3132.3,581.3z"/>
		<path style="fill:#FF96A9;" d="M3116.9,566c-7.5-7.5-19.3-7.9-29.3-11.7l-6.6,20.3h5.3c-0.1,6.8,0.5,13.1,3,16c2.2,2.5,7.3,2.5,13.2,1.3
			c3-0.6,6.2-1.5,9.4-2.5C3118.3,582.3,3123.2,573.4,3116.9,566z"/>
		<path style="fill:#ED7E94;" d="M3134,549c-9.7-6.1-44.8,0-44.8,0l-1.7,5.3c10,3.8,21.9,4.2,29.3,11.7c6.3,7.4,1.4,16.3-5,23.3
			c10.4-3.4,20.4-8.1,20.4-8.1S3143.7,555.1,3134,549z"/>
		<path style="fill:#FF96A9;" d="M3150.5,608.8c-4.7-8.2-11.1-17.6-15-23c-5.4,3.8-11.3,6.9-16.9,10.1c6.2,8,13,19.1,13.6,28.9
			C3133.3,643.2,3157.7,621.4,3150.5,608.8z"/>
		<path style="fill:#322666;" d="M3118.3,558.7c0,0-35.4-1.8-64.1-23.3c0,0,28.6-14.3,102,5c0,0-3.2,30.1-24,40.8l-5.7-17.9
			c0,0,7.5-6.8,0.4-11.1C3119.7,548,3118.3,558.7,3118.3,558.7z"/>
		<path style="fill:#FF96A9;" d="M3000.1,633.5c0,0,0,6.2,0.1,15.9c10-0.8,19.9-4,29.2-8.5c-1.1-6.3-1.8-11.4-1.7-14.2
			c0.4-12.5,14.7-27.6,5.4-36.2c-9.3-8.6-6.8-15.4-19-14.3c-12.2,1.1-29,34.7-24.7,47.6C2993.7,636.8,3000.1,633.5,3000.1,633.5z"/>
		<path style="fill:#F6DEF8;" d="M3029.4,640.9c-9.3,4.5-19.2,7.7-29.2,8.5c0,2.8,0.1,6,0.2,9.4c10.4-0.7,21-4.3,30.6-9.4
			C3030.5,646.4,3029.9,643.6,3029.4,640.9z"/>
		<path style="fill:#322666;" d="M3042.8,700.1c0,0-7.3-28.7-11.7-50.8c-9.7,5.1-20.2,8.7-30.6,9.4c0.8,30.9,3.4,80.9,12.6,95.4
			c13.6,21.5,99.1-62.7,99.1-62.7l8-50.1C3120.1,641.4,3051.3,698.3,3042.8,700.1z"/>
		<path style="fill:#322666;" d="M2911.4,841.9c0,0-99.5,141.8-148.2,239.9c0,0,142.5-80.9,171.8-169.7
			C2964.3,823.3,2911.4,841.9,2911.4,841.9z"/>
		<path style="fill:#3F327A;" d="M2945.4,869.4c-2.9-9.3-5.7-17.9-10-25.8c26.5,10,50.8,22.2,79.5,27.9c25.8,5,50.8,3.6,75.9,6.4
			c-15.8-12.9-26.5-30.8-33.7-50.1c16-2.8,30.4-13.7,40.4-27.1c-27.9-0.6-126.7,0.4-226.2,40.4c0,0,15,113.1,113.1,240.6
			c0,0,3.7-61.3-4.7-122.8c-6.7-14.3-15.4-27.1-22.1-41.5C2950.4,902.3,2949.7,885.9,2945.4,869.4z"/>
		<path style="fill:#322666;" d="M3105.2,801.1c0,0-2.7-0.2-7.8-0.3c-10,13.4-24.3,24.3-40.4,27.1c7.2,19.3,17.9,37.2,33.7,50.1
			c-25.1-2.9-50.1-1.4-75.9-6.4c-28.6-5.7-53-17.9-79.5-27.9c4.3,7.9,7.2,16.5,10,25.8c4.3,16.5,5,32.9,12.2,48
			c6.7,14.5,15.4,27.3,22.1,41.5c-3.9-28.6-10.4-57.3-21.1-79.8c0,0,49.3,21.5,179.3,13.6C3137.9,892.7,3160.2,791.1,3105.2,801.1z"
			/>
		<path style="fill:#322666;" d="M3151.4,606.2c-10.9-4-35.8-4.4-31.3,79c1.7,31.7-2.9,57.3-10.1,77.7
			C3145.2,719.3,3161.6,661.5,3151.4,606.2z"/>
		<path style="fill:#3F327A;" d="M3156.9,607.5c0,0-2.7-2-5.6-3.1c10.3,55.3-6.1,114.9-41.3,158.4c-17.1,48-49,66.9-49,66.9
			c35.1,62.3,76.9,63,76.9,63C3264.2,709.4,3156.9,607.5,3156.9,607.5z"/>
		<path style="fill:#ED7E94;" d="M2891.7,760.5c-1.9,4.1-2.9,6.9-2.9,6.9h79.1c-0.4-2.3-0.6-4.7-0.7-7.1c-16.8,0.1-33.7,0-50.5,0.3
			C2908.3,760.6,2899.9,760,2891.7,760.5z"/>
		<path style="fill:#FF96A9;" d="M2970.5,740.4c-3.5,0-6.8-0.2-9.8-0.5c0,0-25.8-12.9-44.4-6.1c-12.6,4.6-20.7,18.3-24.7,26.8
			c8.2-0.6,16.7,0,25.1,0c16.8-0.2,33.7-0.2,50.5-0.3C2967.1,753.6,2968.2,746.7,2970.5,740.4z"/>
		<path style="fill:#EAC7ED;" d="M2967.9,767.4h12.8c-0.2-2.4-0.3-4.8-0.2-7.2c-4.4,0.1-8.8,0.1-13.2,0.1
			C2967.3,762.7,2967.5,765.1,2967.9,767.4z"/>
		<path style="fill:#F6DEF8;" d="M2970.5,740.4c-2.3,6.3-3.4,13.2-3.3,19.9c4.4,0,8.8-0.1,13.2-0.1c0.2-6.7,1.2-13.6,2.2-20.1
			C2978.4,740.3,2974.3,740.4,2970.5,740.4z"/>
		<path style="fill:#322666;" d="M2980.5,760.2c-0.1,2.4,0,4.8,0.2,7.2h102.5c0,0,16.4-15.2,32.4-36.6c-11,10.9-23.1,20.1-39.2,22.5
			C3044.2,758.5,3012.3,759.8,2980.5,760.2z"/>
		<path style="fill:#3F327A;" d="M3137.9,603.5c-25.7,4.5-30.7,104.9-73.3,124.9c0,0-46.9,9.9-81.9,11.7c-1,6.5-2,13.3-2.2,20.1
			c31.8-0.4,63.7-1.7,95.9-6.8c16.1-2.5,28.2-11.7,39.2-22.5c8.3-11.1,16.5-23.7,22.3-36.8C3154.8,655.7,3176.9,596.7,3137.9,603.5z
			"/>
		<g>
			<path style="fill:#FFCC46;" d="M3023.8,568.2l-21.3,51.7c-0.4,1,0,2.1,1,2.5l19.2,8.8c0.9,0.4,1.9,0.1,2.5-0.7l31.3-47.4
				c0.7-1,0.3-2.4-0.8-2.9l-29.2-13.2C3025.4,566.7,3024.2,567.2,3023.8,568.2z"/>
			<path style="fill:#FE9736;" d="M3055.6,580.3l-2.7-1.2l-29.6,44.9c-0.5,0.8-1.6,1.1-2.5,0.7l-17.1-7.9l-1.3,3.1c-0.4,1,0,2.1,1,2.5
				l19.2,8.8c0.9,0.4,1.9,0.1,2.5-0.7l31.3-47.4C3057.1,582.2,3056.7,580.8,3055.6,580.3z"/>
		</g>
		<polygon style="fill:#322666;" points="2984.9,1067.4 3012.3,1096.8 2888.8,1096.8 		"/>
		<polygon style="fill:#322666;" points="2779.3,1071.9 2801.1,1096.8 2670.8,1096.8 		"/>
		<g>
			<g>
				<polygon style="fill:#FFD4CD;" points="3128.4,899.2 3178.4,1096.8 3159.6,1096.8 3091.8,899.2 				"/>
				<polygon style="fill:#EDC0B9;" points="3091.8,899.2 3159.6,1096.8 3166.8,1096.8 3099,899.2 				"/>
			</g>
			<g>
				<polygon style="fill:#FFD4CD;" points="3020.2,899.2 2971.5,1096.8 2988.7,1096.8 3057.7,899.2 				"/>
				<polygon style="fill:#EDC0B9;" points="3050.5,899.2 2981.6,1096.8 2988.7,1096.8 3057.7,899.2 				"/>
			</g>
			<g>
				<g>
					<path style="fill:#FFD4CD;" d="M3144.8,903.1h-143c-2.6,0-4.7-2.1-4.7-4.7c0-2.6,2.1-4.7,4.7-4.7h140.1l109-212.3c1.2-2.3,4-3.2,6.3-2
						c2.3,1.2,3.2,4,2,6.3l-110.3,214.8C3148.1,902.1,3146.5,903.1,3144.8,903.1z"/>
				</g>
				<path style="fill:#EDC0B9;" d="M3257.2,679.5c-0.1-0.1-0.3-0.1-0.4-0.2c0.1,0.8-0.1,1.7-0.5,2.5L3146,896.6c-0.8,1.6-2.4,2.5-4.1,2.5
					h-143c-0.6,0-1.2-0.1-1.7-0.3c0.2,2.4,2.2,4.3,4.6,4.3h143c1.7,0,3.3-1,4.1-2.5l110.3-214.8
					C3260.4,683.5,3259.5,680.7,3257.2,679.5z"/>
			</g>
		</g>
		<circle style="fill:#322666;" cx="2973.6" cy="762.1" r="2.3"/>
		<g>
			<circle style="fill:#322666;" cx="2988.6" cy="762.8" r="3"/>
			<circle style="fill:#322666;" cx="3005.6" cy="762.6" r="3"/>
			<circle style="fill:#322666;" cx="2997.2" cy="762.6" r="3"/>
		</g>
		<g>
			<path style="fill:#322666;" d="M3154.4,834.2c-0.3,0-0.7-0.1-1-0.3l-36.1-23.9c-0.8-0.5-1-1.7-0.5-2.5c0.5-0.8,1.7-1.1,2.5-0.5l36.1,23.9
				c0.8,0.5,1,1.7,0.5,2.5C3155.5,833.9,3155,834.2,3154.4,834.2z"/>
		</g>
		<path style="fill:#FF96A9;" d="M3021,577.2c-0.4-0.4-0.7-0.5-0.7-0.5c-7.9,1.8-23.6,36.9-20.4,43.8C3014.8,611.9,3024,594.4,3021,577.2z"/>
		<path style="fill:#ED7E94;" d="M3021,577.2c2.9,17.2-6.2,34.8-21.1,43.3c0.4,0.8,1,1.2,1.9,1.2c8.8-0.4,15.9-12.8,21.3-26.4
			C3027.4,584.1,3022.9,578.8,3021,577.2z"/>
		<path style="fill:#ED7E94;" d="M3027.7,626.6c8.5,1.4,13.9,0.2,17.9-3.9l-5.2-24c0,0-11.8,4.3-5.2,16.1L3027.7,626.6z"/>
	</g>
	<g>
		<g>
			<polygon style="fill:#FFD4CD;" points="2441.7,777 2340.3,1096.8 2362.6,1096.8 2476.8,777 			"/>
			<polygon style="fill:#EDC0B9;" points="2468.7,777 2354.5,1096.8 2362.6,1096.8 2476.8,777 			"/>
		</g>
		<g>
			<g>
				<polygon style="fill:#FFD4CD;" points="2928,777 3029.4,1096.8 3007.1,1096.8 2892.9,777 				"/>
				<polygon style="fill:#EDC0B9;" points="2892.9,777 3007.1,1096.8 3014.7,1096.8 2900.5,777 				"/>
			</g>
			<g>
				<path style="fill:#FFD4CD;" d="M3055.2,767.4h-633.6c0.5,3.2,1,6.4,1.4,9.5h632.2c3.2,0,5.8-2.1,5.8-4.8
					C3061,769.6,3058.4,767.4,3055.2,767.4z"/>
				<path style="fill:#EDC0B9;" d="M3060.2,769.8c-1,1.4-2.9,2.4-5,2.4h-632.9c0.2,1.6,0.5,3.2,0.7,4.8h632.2c3.2,0,5.8-2.1,5.8-4.8
					C3061,771.3,3060.7,770.5,3060.2,769.8z"/>
			</g>
		</g>
	</g>
	<g>
		<path style="fill:#C8C2ED;" d="M3311.6,1099.1H2021.5c-0.6,0-1.1-0.4-1.1-0.9s0.5-0.9,1.1-0.9h1290.2c0.6,0,1.1,0.4,1.1,0.9
			S3312.3,1099.1,3311.6,1099.1z"/>
	</g>
	<g>
		<g>
			<g>
				<path style="fill:#FE9736;" d="M2528.3,565.6h-30.2c-1,0-1.7-0.8-1.7-1.7c0-1,0.8-1.7,1.7-1.7h30.2c1,0,1.7,0.8,1.7,1.7
					C2530,564.8,2529.2,565.6,2528.3,565.6z"/>
			</g>
			<g>
				<path style="fill:#FE9736;" d="M2525.9,570.4h-25.4c-1,0-1.7-0.8-1.7-1.7c0-1,0.8-1.7,1.7-1.7h25.4c1,0,1.7,0.8,1.7,1.7
					C2527.6,569.7,2526.8,570.4,2525.9,570.4z"/>
			</g>
			<g>
				<path style="fill:#FE9736;" d="M2522.5,575.3h-18.6c-1,0-1.7-0.8-1.7-1.7c0-1,0.8-1.7,1.7-1.7h18.6c1,0,1.7,0.8,1.7,1.7
					C2524.2,574.5,2523.5,575.3,2522.5,575.3z"/>
			</g>
			<path style="fill:#FFCC46;" d="M2513.1,473C2513.1,473,2513.1,473,2513.1,473C2513.1,473,2513.1,473,2513.1,473
				c-20.6,0.2-36.9,15.4-37.1,34.6c-0.2,15.7,6.6,22.8,13.8,30.3c1.2,1.3,2.4,2.5,3.6,3.9c7.8,8.6,6.6,17.3,6.6,17.3
				c-0.1,0.7,0.4,1.4,1.1,1.5c0.1,0,0.1,0,0.2,0h23.4c0.1,0,0.1,0,0.2,0c0.7-0.1,1.2-0.8,1.1-1.5c0-0.1-1.2-8.7,6.6-17.3
				c1.2-1.3,2.4-2.6,3.6-3.9c7.2-7.5,14-14.6,13.8-30.3C2550,488.5,2533.7,473.3,2513.1,473z"/>
			<path style="fill:#FE9736;" d="M2506.1,576.5l0,1c-0.1,4.1,3.2,7.5,7.3,7.6c4.1,0.1,7.5-3.2,7.6-7.3l0-1L2506.1,576.5z"/>
		</g>
		<g>
			<g>
				<path style="fill:#FFCC46;" d="M2467.6,507h-33.8c-0.4,0-0.8-0.3-0.8-0.8c0-0.4,0.3-0.8,0.8-0.8h33.8c0.4,0,0.8,0.3,0.8,0.8
					C2468.4,506.7,2468,507,2467.6,507z"/>
			</g>
			<g>
				<path style="fill:#FFCC46;" d="M2453.9,556.6c-0.2,0-0.5-0.1-0.6-0.3c-0.3-0.3-0.2-0.8,0.2-1.1l26.5-19.7c0.3-0.3,0.8-0.2,1.1,0.2
					c0.3,0.3,0.2,0.8-0.2,1.1l-26.5,19.7C2454.2,556.5,2454.1,556.6,2453.9,556.6z"/>
			</g>
			<g>
				<path style="fill:#FFCC46;" d="M2480.4,473.5c-0.2,0-0.4-0.1-0.5-0.2l-26.5-24.4c-0.3-0.3-0.3-0.8,0-1.1c0.3-0.3,0.8-0.3,1.1,0l26.5,24.4
					c0.3,0.3,0.3,0.8,0,1.1C2480.8,473.4,2480.6,473.5,2480.4,473.5z"/>
			</g>
			<g>
				<path style="fill:#FFCC46;" d="M2594.4,511.2h-33.8c-0.4,0-0.8-0.3-0.8-0.8s0.3-0.8,0.8-0.8h33.8c0.4,0,0.8,0.3,0.8,0.8
					S2594.9,511.2,2594.4,511.2z"/>
			</g>
			<g>
				<path style="fill:#FFCC46;" d="M2574.3,560.8c-0.2,0-0.3,0-0.5-0.2l-26.5-19.7c-0.3-0.3-0.4-0.7-0.2-1.1s0.7-0.4,1.1-0.2l26.5,19.7
					c0.3,0.3,0.4,0.7,0.2,1.1C2574.8,560.6,2574.5,560.8,2574.3,560.8z"/>
			</g>
			<g>
				<path style="fill:#FFCC46;" d="M2547.9,477.7c-0.2,0-0.4-0.1-0.6-0.2c-0.3-0.3-0.3-0.8,0-1.1l26.5-24.4c0.3-0.3,0.8-0.3,1.1,0
					c0.3,0.3,0.3,0.8,0,1.1l-26.5,24.4C2548.2,477.6,2548,477.7,2547.9,477.7z"/>
			</g>
			<g>
				<path style="fill:#FFCC46;" d="M2514.2,466.9c-0.4,0-0.8-0.3-0.8-0.8v-35.5c0-0.4,0.3-0.8,0.8-0.8c0.4,0,0.8,0.3,0.8,0.8v35.5
					C2514.9,466.6,2514.6,466.9,2514.2,466.9z"/>
			</g>
		</g>
	</g>
	<g>
		<ellipse style="fill:#E4E0FF;" cx="3072.4" cy="487.6" rx="13" ry="7.7"/>
		<ellipse style="fill:#E4E0FF;" cx="3017.6" cy="412.6" rx="124.1" ry="40.7"/>
	</g>
	<g>
		<path style="fill:#8B77E8;" d="M2874,767.2h-209.8v-1c0-5.7,4.6-10.3,10.3-10.3h189.3c5.7,0,10.3,4.6,10.3,10.3V767.2z"/>
		<rect x="2664.1" y="762.8" style="fill:#7860DC;" width="209.8" height="4.4"/>
		<polygon style="fill:#8B77E8;" points="2669.6,756 2617.4,653.4 2763.5,653.4 2814,756 		"/>
		<polygon style="fill:#7860DC;" points="2763.5,653.4 2761.1,653.4 2810.1,752.8 2668,752.8 2669.6,756 2814,756 		"/>
		
			<ellipse transform="matrix(0.8877 -0.4604 0.4604 0.8877 -21.6351 1330.9675)" style="fill:#7860DC;" cx="2717.8" cy="709.8" rx="12.9" ry="16"/>
	</g>
</g>
<g>
	<g>
		<path style="fill:#F2F0FF;" d="M534,2346.8c0,0-27.5-158.6,93.7-154.1c0,0-9.4-45.5,35-37.4c0,0-16-107.2,75.4-62.8c0,0,7.9-83.2,82-54.5
			c0,0,85.3-72.3,161.8,3.3l19.7-74.5l21,74.5c0,0,25.3-22.7,57.5-11.3c37.9,13.5,42.3,76.5,42.3,76.5s32.2-9.1,49.1,5.9
			c15.7,13.9,10.4,27.8,10.4,27.8s79-73.8,128.9,7.8c24.5,40-5,87.9-5,87.9s54.4-51.2,136.1-2.2c81.7,48.9,78.4,113,78.4,113H534z"
			/>
		<path style="fill:#E4E0FF;" d="M666.4,2343.9c-5.5-16.1,0.5-34.5,15.3-46.1c14.7-11.7,37.5-16.1,57.2-11.2c-2.5-19.3,6.9-39.4,24.6-52.5
			c17.7-13,43.3-18.7,66.7-14.8c-2.2-9.7,4.9-20.3,16.2-24c11.3-3.7,25.5-0.2,32.3,8c22.2-20.7,64.8-24,91.5-7.1
			c17.5-20.8,52.1-30.8,81.8-23.7c29.7,7.1,52.1,30.8,52.9,56c15-8.3,35.4-9.5,51.7-3.1c16.3,6.4,27.9,20.1,29.3,34.8
			c6.3-6,18.4-7.5,26.6-3.2c8.2,4.3,11.6,13.8,7.5,21c26.2-10.5,59.4-8,82.8,6.1c23.4,14.1,35.9,39.3,31,62.7L666.4,2343.9z"/>
	</g>
	<g>
		<g>
			<g>
				<path style="fill:#FE9736;" d="M1065,1870.1H940c-3.9,0-7.1-3.2-7.1-7.1s3.2-7.1,7.1-7.1h125c3.9,0,7.1,3.2,7.1,7.1
					S1069,1870.1,1065,1870.1z"/>
			</g>
			<path style="fill:#E67A17;" d="M1067.3,1856.1c0.4,0.9,0.7,1.9,0.7,3c0,3.9-3.2,7.1-7.1,7.1h-125c-0.8,0-1.5-0.1-2.2-0.4
				c1.1,2.5,3.6,4.2,6.5,4.2h125c3.9,0,7.1-3.2,7.1-7.1C1072.2,1859.8,1070.1,1857.1,1067.3,1856.1z"/>
		</g>
		<g>
			<g>
				<path style="fill:#FE9736;" d="M1055,1890.1H950c-3.9,0-7.1-3.2-7.1-7.1c0-3.9,3.2-7.1,7.1-7.1h105c3.9,0,7.1,3.2,7.1,7.1
					C1062.2,1886.9,1059,1890.1,1055,1890.1z"/>
			</g>
			<path style="fill:#E67A17;" d="M1058.5,1876.7c0.5,0.9,0.7,2,0.7,3.1c0,3.9-3.2,7.1-7.1,7.1h-105c-1.3,0-2.4-0.3-3.5-0.9
				c1.2,2.4,3.6,4,6.4,4h105c3.9,0,7.1-3.2,7.1-7.1C1062.2,1880.3,1060.7,1877.9,1058.5,1876.7z"/>
		</g>
		<g>
			<g>
				<path style="fill:#FE9736;" d="M1041.1,1910.1H964c-3.9,0-7.1-3.2-7.1-7.1c0-3.9,3.2-7.1,7.1-7.1h77.1c3.9,0,7.1,3.2,7.1,7.1
					C1048.2,1906.9,1045,1910.1,1041.1,1910.1z"/>
			</g>
			<path style="fill:#E67A17;" d="M1041.1,1895.8h-0.2c0.4,0.9,0.7,1.9,0.7,3c0,3.9-3.2,7.1-7.1,7.1h-77c1.1,2.5,3.6,4.2,6.5,4.2h77.1
				c3.9,0,7.1-3.2,7.1-7.1C1048.2,1899,1045,1895.8,1041.1,1895.8z"/>
		</g>
		<path style="fill:#FF5B41;" d="M1031.7,1383.9c-9.6-7.4-19.5-13.5-29.6-18.1c-11.3,5.1-22.1,11.7-32.4,19.5
			C989.5,1392,1011.7,1390.6,1031.7,1383.9z"/>
		<path style="fill:#FFCC46;" d="M1031.7,1383.9c-20,6.8-42.2,8.2-62,1.4c-73.8,56.2-120.1,175.5-121,245.1c-0.8,65,27.3,94.3,57,125.4
			c5,5.2,10.1,10.5,15.1,16.1c32.1,35.5,27.5,71.4,27.4,71.7c-0.4,3,1.7,5.9,4.7,6.3c0.3,0,0.5,0.1,0.8,0.1h96.7
			c0.3,0,0.5,0,0.8-0.1c3.1-0.4,5.2-3.3,4.7-6.3c-0.1-0.4-4.8-35.9,27.5-71.7c5-5.5,10.1-10.9,15.1-16.1
			c29.8-31.1,57.9-60.4,57-125.4C1154.7,1560.5,1102.4,1438.3,1031.7,1383.9z"/>
		<path style="fill:#E8472E;" d="M1012.1,1370.9c5.4,4.3,10.8,9.1,16,14.2c1.2-0.4,2.4-0.7,3.6-1.1
			C1025.3,1378.9,1018.8,1374.6,1012.1,1370.9z"/>
		<path style="fill:#FFA42F;" d="M1031.7,1383.9c-1.2,0.4-2.4,0.8-3.6,1.1c61.2,59.7,104.7,166.9,105.5,230.5c0.8,65-27.3,94.3-57,125.4
			c-5,5.2-10.1,10.5-15.1,16.1c-32.3,35.8-27.5,71.4-27.5,71.7c0.4,3-1.7,5.9-4.7,6.3c-0.3,0-0.5,0.1-0.8,0.1h-80.1
			c0.2,5.2-0.2,8.4-0.2,8.5c-0.4,3,1.7,5.9,4.7,6.3c0.3,0,0.5,0.1,0.8,0.1h96.7c0.3,0,0.5,0,0.8-0.1c3.1-0.4,5.2-3.3,4.7-6.3
			c-0.1-0.4-4.8-35.9,27.5-71.7c5-5.5,10.1-10.9,15.1-16.1c29.8-31.1,57.9-60.4,57-125.4C1154.7,1560.5,1102.4,1438.3,1031.7,1383.9
			z"/>
		<g>
			<path style="fill:#FE9736;" d="M972.9,1915.8l0,4.3c0,16.9,13.8,30.7,30.7,30.7c16.9,0,30.7-13.8,30.7-30.7l0-4.3L972.9,1915.8z"/>
			<path style="fill:#E67A17;" d="M1029.5,1915.9v0.4c0,16.9-13.8,30.7-30.7,30.7c-6.2,0-12-1.9-16.8-5.1c5.6,5.5,13.2,9,21.7,9
				c16.9,0,30.7-13.8,30.7-30.7l0-4.3L1029.5,1915.9z"/>
		</g>
		<path style="fill:#FFDD85;" d="M983.8,1407.3c0,0-104.8,71.1-105.1,219.5C878.7,1626.8,918.7,1482.1,983.8,1407.3z"/>
		<g>
			<g>
				<path style="fill:#FFCC46;" d="M885.7,1980.4c-1.4,0-2.6-1.2-2.6-2.6V1758c0-1.4,1.2-2.6,2.6-2.6c1.4,0,2.6,1.2,2.6,2.6v219.8
					C888.3,1979.2,887.2,1980.4,885.7,1980.4z"/>
			</g>
			<g>
				<path style="fill:#FFCC46;" d="M931.2,2122.5C931.2,2122.5,931.2,2122.5,931.2,2122.5c-1.5,0-2.6-1.2-2.6-2.6l1.6-150.4
					c0-1.4,1.2-2.6,2.6-2.6c1.4,0,2.6,1.2,2.6,2.6l-1.6,150.4C933.8,2121.3,932.7,2122.5,931.2,2122.5z"/>
			</g>
			<g>
				<path style="fill:#FFCC46;" d="M1002.2,2053.1c-1.4,0-2.6-1.2-2.6-2.6v-81c0-1.4,1.2-2.6,2.6-2.6c1.4,0,2.6,1.2,2.6,2.6v81
					C1004.8,2051.9,1003.6,2053.1,1002.2,2053.1z"/>
			</g>
			<g>
				<path style="fill:#FFCC46;" d="M1088.4,2053.1c-1.4,0-2.6-1.2-2.6-2.6v-242.1c0-1.4,1.2-2.6,2.6-2.6c1.4,0,2.6,1.2,2.6,2.6v242.1
					C1091,2051.9,1089.8,2053.1,1088.4,2053.1z"/>
			</g>
			<g>
				<path style="fill:#FFCC46;" d="M1142.4,1870.5c-1.4,0-2.6-1.2-2.6-2.6V1719c0-1.4,1.2-2.6,2.6-2.6c1.4,0,2.6,1.2,2.6,2.6v148.8
					C1145,1869.3,1143.8,1870.5,1142.4,1870.5z"/>
			</g>
		</g>
	</g>
	<g>
		<path style="fill:#E4E0FF;" d="M1655,2347.9H266.6c-1.1,0-2-0.8-2-1.7c0-1,0.9-1.7,2-1.7H1655c1.1,0,2,0.8,2,1.7
			C1657,2347.1,1656.1,2347.9,1655,2347.9z"/>
	</g>
	<g>
		<g>
			<path style="fill:#FFDD85;" d="M181,1874.5l53.5,2.8l0.6-0.5c13-11.7,14-31.7,2.4-44.6l0,0l-52.4-2.8c-4-0.2-6.3-4.8-4-8.1
				c11.5-16.2,30.7-26.3,52-25.2c20.6,1.1,38.2,12.7,48,29.2l425.3,22.5c11.5-15.4,30.3-25.1,50.8-24c21.3,1.1,39.4,13.2,49.1,30.5
				c2,3.5-0.8,7.8-4.8,7.6l-52.4-2.8v0c-13,11.7-14,31.7-2.4,44.6l0.5,0.6l53.5,2.8c3.9,0.2,6.2,4.5,4.1,7.9
				c-11.1,17.8-31.3,29.1-53.8,28c-20.7-1.1-38.4-12.6-48.2-29.2l-425.2-22.5c-11.5,15.5-30.3,25.1-51.1,24
				c-22.4-1.2-41.3-14.6-50.5-33.5C174.4,1878.3,177.1,1874.3,181,1874.5z"/>
			<g>
				<g>
					<path style="fill:#FFA42F;" d="M237.4,1823.3c6.5,7.2,9,16.5,7.8,25.4c-0.9-6-3.4-11.7-7.8-16.6l-52.4-2.8c-4-0.2-6.3-4.8-4-8.1
						c0.4-0.6,0.8-1.1,1.2-1.7c0.8,0.5,1.7,0.9,2.7,0.9L237.4,1823.3z"/>
				</g>
				<g>
					<path style="fill:#FFA42F;" d="M177.4,1875.7c9.6,17.5,27.8,29.7,49.1,30.8c20.7,1.1,39.5-8.5,51.1-24l425.2,22.5
						c9.8,16.6,27.5,28.2,48.2,29.2c21.6,1.1,41.1-9.4,52.5-26c2,1.5,2.8,4.4,1.3,6.9c-11.1,17.8-31.3,29.1-53.8,28
						c-20.7-1.1-38.4-12.6-48.2-29.2l-425.2-22.5c-11.5,15.5-30.3,25.1-51.1,24c-22.4-1.2-41.3-14.6-50.5-33.5
						C175,1879.6,175.7,1877.1,177.4,1875.7z"/>
				</g>
				<g>
					<path style="fill:#FFA42F;" d="M801.6,1862l-52.4-2.8l0,0c-5.8,5.2-9.2,12.1-10.2,19.3c-1.5-10.1,2-20.7,10.1-28.1l0,0l52.4,2.8
						c1.3,0.1,2.5-0.4,3.5-1.1c0.5,0.8,0.9,1.5,1.4,2.3C808.3,1857.9,805.6,1862.2,801.6,1862z"/>
				</g>
			</g>
			<path style="fill:#FFA42F;" d="M683.4,1876.6c-0.1,1-0.2,1.9-0.5,2.8c-1.5-5-6-8.8-11.5-9.1l-358.9-18.4c-6-0.3-11.3,3.6-12.9,9.2
				c-0.4-1.3-0.6-2.8-0.5-4.2l0,0c0.4-7,6.3-12.4,13.3-12l358.9,18.4C678.4,1863.6,683.8,1869.6,683.4,1876.6L683.4,1876.6z"/>
		</g>
		<path style="fill:#3F327A;" d="M372.3,1929.3c-6.8-10.9-11.9-22.5-17.6-34l26.5,1.5l8.1,11.2c24.1-3.1,54.6-13,86.7-24.4
			c0,0-12.9,21.5-15.6,34.9C432.1,1926.4,402.2,1933.8,372.3,1929.3z"/>
		<path style="fill:#322666;" d="M372.3,1929.3c29.9,4.5,59.8-2.9,88.1-10.8c-0.7,3.7-0.7,6.9,0.6,8.7c-28.7,8.8-61.6,14.9-97.2,19.1
			l-20.4-51.6l11.1,0.5C360.4,1906.8,365.5,1918.4,372.3,1929.3z"/>
		<path style="fill:#ED7E94;" d="M508.1,1848.3c8.5-12.1-18.3,2.3-18.3,2.3l-0.1,1.9c4.5,3.4,9.8,5.6,15.3,7
			C504.8,1855.9,505.5,1852,508.1,1848.3z"/>
		<path style="fill:#ED7E94;" d="M503.3,1836.7c4.9-6.9,15.5-6.6,23.8-9.9l-3.3-9.9c0,0-32.1-6.5-41.8,5.8c-9.7,12.3,7.7,28,7.7,28
			s9.3,0.5,18.5,0.9C502.5,1847.8,498.9,1842.6,503.3,1836.7z"/>
		<path style="fill:#FF96A9;" d="M530.3,1836.2l-3.1-9.5c-8.4,3.4-19,3.1-23.8,9.9c-4.4,5.9-0.8,11.1,5,14.9c8.9,0.4,17.9,0.7,18.8,0.4
			c1.7-0.6-1.4-13.9-1.4-13.9L530.3,1836.2z"/>
		<path style="fill:#322666;" d="M497.1,1831.5c0,0,33.2,2.3,63.2-30.5c0,0-65.5,1.4-95.1,20c0,0,4.5,21.4,24.6,29.6l2.3-15.5
			c0,0-10.5-3.2-4.1-9.3C494.3,1819.7,497.1,1831.5,497.1,1831.5z"/>
		<path style="fill:#ED7E94;" d="M615.2,2037.7c-5.5,4.5-11.8,8.6-19.1,6.8c-10.5-3.2-14.6-15.9-8.2-25.5c4.3-6.1,9.2-11.3,14.6-16
			c-2.7-0.9-5.4-1.4-8.2-1.5c-10.5,9.2-19.4,20.9-17.2,33.3c5,27.7,40,15,41.8-0.9c0,0,0,0,0,0
			C617.8,2035.3,616.4,2036.6,615.2,2037.7z"/>
		<path style="fill:#FF96A9;" d="M613,2018.9c0,0,3-0.9,7.6-2.8c-4.5-5.9-11-10.7-18.2-13c-5.4,4.7-10.3,9.9-14.6,16
			c-6.4,9.6-2.3,22.3,8.2,25.5c7.3,1.8,13.6-2.3,19.1-6.8c1.2-1.1,2.6-2.4,3.8-3.8C620.8,2018,613,2018.9,613,2018.9z"/>
		<path style="fill:#3F327A;" d="M487.8,1878.7l23-3.3l49.4,8.5c35,15,102.3,101,102.3,101c-9.5,13.6-24.1,22.8-35,28.1
			c-4.8-6.7-11.1-12.2-18.5-15.1c7.9-5.8,16.4-10.6,25.2-15.2c-11.3-5.8-22-12-31.9-19.5l-19.8-18.5c-0.8-1-1.6-1.9-2.5-2.9
			c-1.4-1.4,0,0.5,0,0.5s-1.4-1.8,0-0.5c0.8,1,1.6,2,2.5,2.9l-9.6-9l-106.7-9.1c-3.1-4.2-6.5-8.1-10.3-11.6c-1.6,2.2-1.3,1.8-2.8,4
			c-5.8-6.9-13.8-10.9-19.8-17.5L487.8,1878.7z"/>
		<path style="fill:#322666;" d="M602.4,1963.2l20.6,19.3c0,0-10.6,5.1-21.7,13.3c2.7,0.3,5.2,1,7.7,2c7.9-5.8,16.4-10.6,25.2-15.2
			C623,1976.9,612.3,1970.7,602.4,1963.2z"/>
		<path style="fill:#F6DEF8;" d="M601.4,1995.8c-2.4,1.8-4.8,3.7-7.1,5.7c10.1,0.5,20.2,6.4,26.4,14.5c2-0.8,4.4-1.9,6.9-3.1
			C621.2,2004,612.1,1997.2,601.4,1995.8z"/>
		<path style="fill:#322666;" d="M570.2,2116.8c7-5.4,13.6-11.2,19.6-17.6c-9.4-33.8-15.1-57.5-15.8-60.1c-0.1,0.3-0.1,0.5-0.2,0.8
			c0.1-0.3,0.1-0.5,0.2-0.8c0-0.2-0.1-0.2-0.1-0.2l-3.7,2.1C572.4,2066.3,571.8,2091.6,570.2,2116.8z"/>
		<path style="fill:#3F327A;" d="M589.8,2099.3c-6,6.4-12.6,12.2-19.6,17.6c1.7-25.3,2.2-50.6,0.1-75.8l-50.7,28.9
			c22.5,173.8,158.3,262.7,158.3,262.7C641.1,2271.1,608.3,2165.7,589.8,2099.3z"/>
		<path style="fill:#322666;" d="M549.7,2112.1c19.7-19.1,23.7-53.9,24.3-72.8c0-0.1,0-0.1,0-0.2c0-0.2-0.1-0.2-0.1-0.2l-54.4,31
			c22.5,173.8,158.3,262.7,158.3,262.7C578.9,2238,549.7,2112.1,549.7,2112.1z"/>
		<path style="fill:#322666;" d="M538.8,2017.4c-12.7,4.3-29.4,18-51,49.1c-7.8,11.2-15.1,23.6-22,36.6c5.9,3.4,12,6.6,18.2,9.3
			c4.7-7.3,9.6-14.4,14.7-21.5c-5.1,7.1-10,14.2-14.7,21.5c12.5,5.4,25.7,9,39.2,9C534.9,2087.8,538.8,2052.7,538.8,2017.4z"/>
		<path style="fill:#322666;" d="M427.3,2228.7c14.4-41.3,33.2-80.1,56.7-116.3c-6.2-2.7-12.3-5.9-18.2-9.3c-46,87.8-70.2,207.5-74.5,229.9
			c0.6-1.8,1.2-3.7,1.9-5.5C403.7,2293.8,415.5,2261.9,427.3,2228.7z"/>
		<path style="fill:#3F327A;" d="M573.9,2038.9c0,0-9.1-30.4-35.1-21.5c0,35.3-3.9,70.4-15.5,104c-13.6,0-26.7-3.6-39.2-9
			c-23.5,36.3-42.3,75-56.7,116.3c-11.8,33.2-23.7,65-34.1,98.7c-0.7,1.8-1.3,3.7-1.9,5.5c-0.5,2.4-0.7,3.7-0.7,3.7
			c88.7-76.4,149.4-241.5,149.4-241.5C576.2,2082.9,573.9,2038.9,573.9,2038.9z"/>
		<path style="fill:#FEF2FE;" d="M573.7,2034.5c-1.4-21.7-9.6-117.4-43.4-155.8l-19.4-3.3l-23,3.3l-22.6,9.4c0,0,68.7,88,60.4,146.4
			C540,2042.9,558.9,2042.5,573.7,2034.5z"/>
		<path style="fill:#E5649A;" d="M569.3,1993.6c-12.1-40.6-53.4-94.6-53.4-94.6c0,0.2,0.1,0.3,0.1,0.5c22,41.3,34.5,87.3,40.7,133.7
			c0,0,0,0,0,0C569.5,2017.8,569.3,1993.6,569.3,1993.6z"/>
		<path style="fill:#DB4A87;" d="M519.6,1995.8c-1.1,16.3,35.9,36.7,37,37.4c-6.2-46.4-18.7-92.4-40.7-133.7
			C531.2,1977.2,520.7,1979.4,519.6,1995.8z"/>
		<polygon style="fill:#F6DEF8;" points="520.4,1878.7 523.4,1903 511.9,1892.9 511.9,1908 487.2,1888.9 510.4,1903.5 510.9,1890.8 
			521.2,1898.2 		"/>
		<path style="fill:#322666;" d="M525.6,2034.5c-0.2,1.5-0.5,3-0.8,4.5c0,0,26.4,23.7,49.1,0c0,0-0.1-1.6-0.3-4.4
			C558.9,2042.5,540,2042.9,525.6,2034.5z"/>
		<path style="fill:#322666;" d="M473.5,1940.3l-19.2-20.1c3.2-0.9,6.4-1.7,9.5-2.6C466.5,1925.3,469.5,1933.1,473.5,1940.3z"/>
		<path style="fill:#3F327A;" d="M432.6,1900.8l53.1-21.3c85.1,113.5,36.4,236.7,36.4,236.7c-49.1-7.7-64.1-39.6-64.1-39.6
			s36.8-17.7,46.7-57.3c6.4-25.6-13.5-57-28.3-76.1l-2.8-3c-4-7.2-7-15-9.6-22.8c-3.2,0.9-6.3,1.8-9.5,2.6l-1.2-1.3L432.6,1900.8z"
			/>
		<path style="fill:#3F327A;" d="M516.1,1876.2c0,0,53.7,55.8,60.1,228.6c0,0,16.6-9.1,20.9-31.8c0,0-21-32.3-19.6-48
			c1.4-15.7,14.6-57.1-4.5-89.4l-12.7-51.9L516.1,1876.2z"/>
		<polygon style="fill:#322666;" points="403.5,2324.8 418.4,2344.6 317.8,2344.6 		"/>
		<polygon style="fill:#322666;" points="667.1,2324.8 647.6,2344.6 750.9,2344.6 		"/>
		<path style="fill:#FFFFFF;" d="M516.1,1843.5h9c0,0-1.4,5-4.5,5S516.1,1843.5,516.1,1843.5z"/>
		<path style="fill:#FF96A9;" d="M489.6,1852.5l-1.8,26.2l23,12.1v-15.5c0,0-5.5-7.3-5.9-15.8C499.4,1858.1,494.2,1855.9,489.6,1852.5z"/>
		<path style="fill:#322666;" d="M476,1883.6l6.3,20.8l12.6,3l-15.9,25.5c0,0,46.7,49.9,56.8,102.9c0.8-44.4-9.1-101.4-50.2-156.3L476,1883.6
			z"/>
		<path style="fill:#322666;" d="M570.3,2033.3c7.3-33.3-5.3-123.1-5.3-123.1l-23.7-8.5l3.9-7.3l-19.7-16.6l-9.4-1.6
			C516.1,1876.2,554.6,1916.2,570.3,2033.3z"/>
		<circle style="fill:#322666;" cx="574" cy="2034.5" r="2.6"/>
		<circle style="fill:#322666;" cx="576.6" cy="2048" r="2.6"/>
		<g>
			<path style="fill:#322666;" d="M516.1,2067.6c-0.3,0-0.6-0.1-0.8-0.2l-22.5-13.8c-0.7-0.5-1-1.4-0.5-2.2c0.5-0.7,1.4-1,2.2-0.5l22.5,13.8
				c0.7,0.5,1,1.4,0.5,2.2C517.2,2067.4,516.7,2067.6,516.1,2067.6z"/>
		</g>
		<g>
			<path style="fill:#3F327A;" d="M488.5,1931.3c0,0,0.1-0.1,0.1-0.1l5.9-6c0.2-0.2,0.2-0.5,0-0.6c-0.2-0.2-0.5-0.2-0.6,0l-5.9,6
				c-0.2,0.2-0.2,0.5,0,0.6C488.2,1931.4,488.4,1931.4,488.5,1931.3z"/>
		</g>
		<g>
			<path style="fill:#322666;" d="M520.8,2030.9c0,0,0.1,0.1,0.1,0.1l8,2.6c0.2,0.1,0.5-0.1,0.6-0.3c0.1-0.2-0.1-0.5-0.3-0.6l-8-2.6
				c-0.2-0.1-0.5,0.1-0.6,0.3C520.6,2030.6,520.7,2030.8,520.8,2030.9z"/>
		</g>
		<g>
			<path style="fill:#322666;" d="M519.1,2044c0,0,0.1,0.1,0.1,0.1l8,2.6c0.2,0.1,0.5-0.1,0.6-0.3c0.1-0.2-0.1-0.5-0.3-0.6l-8-2.6
				c-0.2-0.1-0.5,0.1-0.6,0.3C518.9,2043.7,519,2043.9,519.1,2044z"/>
		</g>
		<circle style="fill:#FEF2FE;" cx="622.4" cy="2011.7" r="1.7"/>
		<circle style="fill:#322666;" cx="629.1" cy="2005.8" r="2.4"/>
		<circle style="fill:#322666;" cx="640.6" cy="1999.8" r="2.4"/>
		<circle style="fill:#322666;" cx="635" cy="2003.4" r="2.4"/>
		<polygon style="fill:#DB4A87;" points="511.9,1892.9 511.9,1901.1 517.5,1905 518.4,1898.6 		"/>
		<path style="fill:#FF96A9;" d="M362.9,1832.4c-2.9,5.3-5.3,14.1-13.5,12.3c-9.4-2.2-17.1-8.1-22.6-15.5c-1.1-15.3,33.8-21.3,40.5-10.9
			c0,0,20.9,30.3,19.2,40C374.9,1857.4,368.9,1841.1,362.9,1832.4z"/>
		<path style="fill:#ED7E94;" d="M349.4,1844.7c8.2,1.8,10.6-7,13.5-12.3c6,8.7,12,25,23.6,25.9c-0.1,0.7-0.4,1.4-0.8,1.8
			c-5.8,6.8-23.4-20.9-23.4-20.9s-7.1,23.2-29.7,0.5c-3.8-3.9-5.6-7.4-5.8-10.5C332.4,1836.7,340,1842.5,349.4,1844.7z"/>
	</g>
	<g>
		<path style="fill:#ED7E94;" d="M1379.1,1832.5c-2.2-4.4,2.8-8.3,1.7-12.7c0-0.1-0.1-0.2-0.2-0.3c3-0.1,5,2,3.2,4.8c-4.4,6.9,0.3,17.7,3,25.1
			c1.4,3.6-1.4,8.7-4.6,13C1384.6,1852.6,1383.2,1841.9,1379.1,1832.5z"/>
		<path style="fill:#FF96A9;" d="M1380.6,1819.5c0.1,0.1,0.1,0.2,0.2,0.3c1.1,4.4-3.9,8.3-1.7,12.7c4.1,9.4,5.5,20.1,3.1,29.8
			c-3.3,4.4-7,7.8-7,7.8s-3-7.7-4.4-31.5C1370,1824.5,1376.3,1819.6,1380.6,1819.5z"/>
		<path style="fill:#ED7E94;" d="M1428.7,1906.7l0.6-0.6c0,0,27.3-13.8,17.1,16.1c-0.3,0.9-0.7,1.8-1,2.7
			C1441.1,1917.9,1435.4,1911.5,1428.7,1906.7z"/>
		<path style="fill:#FF96A9;" d="M1387.4,1963.6c-20.5-24.9-25.4-57.5-27.7-88.5c10-4.2,15.5-14.9,15.5-24.9c0-0.5,0-1.1,0-1.6
			c0,0.5,0,1.1,0,1.6c-0.2,5.4-3.7,9.8-7.2,13.3c-2.8,2.8-7.2,5-10,2.8c-6.4-4.1-8.2-10.7-7.5-17.6c3.7-8.4,12.3-14.4,21.5-12.6
			c12.9,2.4,7.6,20.8,3.2,34.1c-4.4,13.2,18.8,69.8,18.8,69.8l34.6-33.2c4.9,3.5,9.2,7.8,12.9,12.7
			C1429,1939.5,1409.2,1954.6,1387.4,1963.6z"/>
		<path style="fill:#FF96A9;" d="M1375.2,1848.6c0,0.5,0.1,1.1,0,1.6C1375.3,1849.6,1375.3,1849.1,1375.2,1848.6z"/>
		<path style="fill:#ED7E94;" d="M1350.6,1848.7c-0.7,6.9,1.2,13.5,7.5,17.6c2.8,2.2,7.2,0,10-2.8c3.5-3.5,7-8,7.2-13.3
			c-0.1,10.1-5.5,20.7-15.5,24.9c2.2,31,7.2,63.6,27.7,88.5c21.8-9,41.6-24.1,54.1-44.3c1.4,1.8,2.6,3.7,3.8,5.6
			c-12,28.4-56.4,46.4-56.4,46.4c-32.2-25.4-33.6-89-33.6-89s-5.5-9.5-6.6-22.9C1348.4,1855.7,1349.1,1852,1350.6,1848.7z"/>
		<path style="fill:#ED7E94;" d="M1519.2,1851.8l-26.9,1.5c0,0,3.1,4.5,3.1,11.4c7.6-1.3,15.2-3.2,22.1-6.4L1519.2,1851.8z"/>
		<path style="fill:#FF96A9;" d="M1495.4,1864.8c0,4.9-1.4,11-6.5,17.7c-12.4,16.1,23.2-2.5,23.2-2.5l5.5-21.7
			C1510.6,1861.5,1503,1863.5,1495.4,1864.8z"/>
		<path style="fill:#FF96A9;" d="M1508.5,1846.7c-1.6-8.1-13.2-6.3-20.8-10.7c-3.5,5.1-8.4,13.5-8.2,18.9c0.1,3,5.9,4.2,13.2,4.5
			C1501.9,1858.5,1510.3,1855.4,1508.5,1846.7z"/>
		<path style="fill:#ED7E94;" d="M1536.8,1831.4c-11.1-8-45.8,0-45.8,0s-1.4,1.8-3.3,4.6c7.5,4.4,19.1,2.6,20.8,10.7
			c1.8,8.7-6.6,11.7-15.8,12.7c12.8,0.5,30.5-1.7,30.5-1.7S1547.9,1839.5,1536.8,1831.4z"/>
		<path style="fill:#3F327A;" d="M1522.9,1838.8c0,0-23.2,5.9-38.7-7.4c-15.5-13.3-16.4-33.4,2.8-40.2c19.2-6.8,32.2,14.2,35.9,26.9
			c0,0,13-3.1,23.2,10.2c10.2,13.3,0,27.5,0,27.5s24.8,5.6,24.1,32.5c-0.6,26.9-26.9,38.1-60,41.1c-33.1,3.1-2.4-52.8-2.4-52.8
			s4.4-28.3,13.6-31.1c0,0,11.7-1.9,8.3-7.7C1526.3,1832,1522.9,1838.8,1522.9,1838.8z"/>
		<path style="fill:#FF96A9;" d="M1502.9,1889.9c8.5-1.3,16.2-4.7,23.1-9.4l-25.5-6.1l-24.1,5.7c3.7,5,8.9,8.1,14.7,9.7
			C1495.1,1890.4,1499.1,1890.4,1502.9,1889.9z"/>
		<path style="fill:#ED7E94;" d="M1476.5,1880.1l-1.6,0.4c3.7,5.6,9.7,8.4,16.3,9.3C1485.4,1888.2,1480.2,1885.1,1476.5,1880.1z"/>
		<path style="fill:#DB4A87;" d="M1531.2,1905.2c-1,2.8-1.9,5.6-2.8,8.4c4.9,0.2,8,0.4,8,0.4s8.3,8.8,18.9,19c0.3-2,0.8-3.9,1.4-5.8
			c-1.7-1.3-3.4-2.6-5.1-3.9C1543.8,1917.7,1538.7,1910.8,1531.2,1905.2z"/>
		<path style="fill:#E5649A;" d="M1570.7,1908.1c-9.6-9.8-19.2-19.3-23.7-22.5l-20.9-5c-7,4.7-14.6,8.1-23.1,9.4c-10.5,1.3-22.1-0.5-28-9.4
			l-20.1,4.8c0,0-11.9,8.9-25.6,20.8c7,4.1,12.6,9.7,17.1,16.1c8.6-7.6,14.4-17.3,24.1-23.5c2.6,4.7,4.1,9.7,5.5,14.8
			c14.7-1.3,39.8-0.4,52.5,0.1c0.9-2.8,1.8-5.6,2.8-8.4c7.4,5.6,12.5,12.5,20.4,18.1c1.8,1.3,3.5,2.6,5.1,3.9
			C1559.3,1919.5,1564.1,1912.7,1570.7,1908.1z"/>
		<path style="fill:#DB4A87;" d="M1446.4,1922.2c1.1,1.6,2.2,3.2,3.1,4.9c6.8-4.9,12.9-9.3,15.5-11.3c1.5-1.2,5.5-1.9,10.9-2.4
			c-1.3-5.1-2.8-10.1-5.5-14.8C1460.8,1904.9,1455,1914.6,1446.4,1922.2z"/>
		<path style="fill:#ED7E94;" d="M1571.1,1908.5c-0.1-0.1-0.3-0.3-0.4-0.4c-6.6,4.6-11.4,11.5-13.9,19.2c0.8,0.6,1.6,1.2,2.3,1.9
			C1561.7,1921.6,1565.5,1914.1,1571.1,1908.5z"/>
		<path style="fill:#FF96A9;" d="M1596.2,1935.1c0,0-12.4-13.5-25.1-26.6c-5.6,5.6-9.5,13.1-12,20.6c6.9,5.6,13.2,11.3,20.8,16.5
			c24.3,15.8,47.3,30.7,73,40.4l2.4-13.2L1596.2,1935.1z"/>
		<path style="fill:#ED7E94;" d="M1580,1945.6c-8.4-5.7-15.3-12.1-23.2-18.4c-0.6,1.9-1.1,3.8-1.4,5.8c11.3,10.9,25.2,23.3,34,27.8l61.9,34.3
			l1.6-9.1C1627.3,1976.3,1604.2,1961.4,1580,1945.6z"/>
		<path style="fill:#E5649A;" d="M1400.7,2304.3c-1,12.9-1.9,26.3-2.6,40.2c0,0,6.8-15,17.2-38.5C1410.3,2306.3,1405.4,2305.9,1400.7,2304.3z
			"/>
		<path style="fill:#FF96A9;" d="M1427.1,2123.7c-10.5,45.8-20.7,105.8-26.5,180.6c4.7,1.6,9.7,2.1,14.6,1.6c18.6-42.1,48.7-111.7,72.2-171.8
			C1466.8,2135.4,1445.3,2133.5,1427.1,2123.7z"/>
		<path style="fill:#E5649A;" d="M1521.4,2024.1c-2.2-43.2-58.2-14.2-58.2-14.2s-18.5,36.9-36,113.7c18.2,9.8,39.6,11.7,60.3,10.4
			C1507.2,2083.4,1522.2,2039.3,1521.4,2024.1z"/>
		<path style="fill:#E5649A;" d="M1513.8,2305.4c5.8,23.8,9.9,39.1,9.9,39.1c3-12.4,5.5-25.2,7.4-38.3
			C1525.3,2307.4,1519.4,2307.4,1513.8,2305.4z"/>
		<path style="fill:#ED7E94;" d="M1411.4,2306.1c1.3,0,2.6,0,3.8-0.1c18.6-42.1,48.7-111.7,72.2-171.8c-20.7,1.3-42.1-0.7-60.3-10.4
			c0,0.2-0.1,0.4-0.1,0.6c8.2,6.7,21.4,13.9,42.4,18.6L1411.4,2306.1z"/>
		<path style="fill:#FF96A9;" d="M1527.5,2142.4c-0.3-5.6-0.7-11.2-1.1-16.8c-12.1,4.7-24.5,7.6-37.5,8.4c-2.7,0.2-5.3,0.3-8,0.4
			c7.1,59.5,22.5,128.8,32.8,171c4.4,1.5,8.9,1.9,13.3,1.4C1530.6,2252,1530.9,2197.3,1527.5,2142.4z"/>
		<path style="fill:#ED7E94;" d="M1536.2,2121.5c-3.2,1.5-6.4,2.9-9.7,4.1c0.4,5.6,0.7,11.2,1.1,16.8c3.4,55,3.1,109.6-0.4,164.4
			c1.3-0.1,2.7-0.4,4-0.7C1540.8,2242.1,1539.4,2171.7,1536.2,2121.5z"/>
		<path style="fill:#E5649A;" d="M1527.5,2004.5c-3.5-4.5-7.7-7.7-12-10.5c-5.5-1.1-48.7-8.7-52.3,15.9c-3.8,26.3,16.4,39.2,16.4,39.2
			c-3.9,20.8-2.6,51.5,1.5,85.3c2.7-0.1,5.3-0.2,8-0.4c13-0.8,25.4-3.7,37.5-8.4c-1.7-25.4-3.7-50.5-6.4-75.6
			C1535,2039.8,1538.2,2019.4,1527.5,2004.5z"/>
		<path style="fill:#DB4A87;" d="M1529.8,2053.3c0,0,16.3-11.6,13.7-34.8c-2.1-18.9-27.4-24.3-27.4-24.3s-0.2,0-0.6-0.1
			c4.4,2.8,8.6,6,12,10.5c10.7,14.9,7.4,35.3-7.4,45.5c2.7,25.1,4.7,50.2,6.4,75.6c3.3-1.3,6.5-2.6,9.7-4.1
			C1533.6,2080.8,1529.8,2053.3,1529.8,2053.3z"/>
		<path style="fill:#DB4A87;" d="M1480.1,2010.2c-2.8,1.2-5.8,2.2-8.9,2.9c11.6,3.4,32.9,5.5,44.8-18.9c0,0-0.1-0.9-0.2-2.6
			C1507.4,2002.8,1493.9,2010.1,1480.1,2010.2z"/>
		<path style="fill:#DB4A87;" d="M1536.5,1914c0.7-1.2,1-2.3,1.2-3.3c-2-1.9-4.1-3.8-6.4-5.6c-7.9,23.2-13.5,46.4-20.9,70.1
			c-4.5,15.5-15.8,28.7-30.2,34.9c13.7-0.1,27.2-7.4,35.7-18.6C1515.2,1982.6,1515.1,1951.9,1536.5,1914z"/>
		<path style="fill:#DB4A87;" d="M1478.3,1934.9c-8.4,4.2-18.6,6-27.4,2.3c-7.2-2.8-13.7-9.7-15.1-17.8c-0.5,0.5-0.9,1.1-1.2,1.7
			c-4.3,8.7,8.7,21.7,20.1,23.8c0,0-1.4,2.4-2.2,7.8C1462.5,1948.9,1471.5,1943.1,1478.3,1934.9z"/>
		<path style="fill:#DB4A87;" d="M1497.4,1909.9c6,0.9,12.1,0.9,17.6,4.6c6.5,4.6,8.4,13.5,3.2,19c-10.2,11.1-26-0.9-35.7-7.9
			c1.9,7.9,8.8,13.9,15.8,16.7c6.7,2.9,14.4,3.3,21.4,1.2c2.9-10.3,5.9-20.6,9.1-30.9C1519.6,1907,1507.1,1905.4,1497.4,1909.9z"/>
		<path style="fill:#DB4A87;" d="M1461.4,2005.4c0.6,1.5,1.1,3,1.7,4.6c0,0,3.2,1.7,8.1,3.1c3.1-0.7,6-1.6,8.9-2.9
			C1473.8,2010.2,1467.4,2008.7,1461.4,2005.4z"/>
		<path style="fill:#E5649A;" d="M1469.1,1898.3l-5,12.1c0,0-21.7,1.9-28.2,9.1c1.4,8.1,7.9,15,15.1,17.8c8.8,3.7,19,1.9,27.4-2.3
			c-6.8,8.2-15.8,14-25.7,17.9c-1.3,8.8-1.2,25.4,8.8,52.6c6,3.4,12.4,4.9,18.7,4.8c14.4-6.2,25.8-19.4,30.2-34.9
			c3.3-10.7,6.3-21.2,9.3-31.8c-7,2.2-14.6,1.7-21.4-1.2c-7-2.8-13.9-8.8-15.8-16.7c9.7,7,25.5,19,35.7,7.9c5.1-5.6,3.2-14.4-3.2-19
			c-5.6-3.7-11.6-3.7-17.6-4.6c9.7-4.4,22.2-2.9,31.4,2.8c0.8-2.5,1.6-5,2.4-7.4c2.3,1.7,4.4,3.6,6.4,5.6
			C1540.1,1893.3,1469.1,1898.3,1469.1,1898.3z"/>
		<path style="fill:#FFFFFF;" d="M1482.7,1849.3l8,1c0,0-2.4,3.9-4.9,3.9C1483.2,1854.3,1482.7,1849.3,1482.7,1849.3z"/>
		<g>
			<path style="fill:#FFDD85;" d="M1541.7,2338.3l13.1-48.7l-0.4-0.6c-8.2-14.3-26.4-19.2-40.7-10.9l0,0l-12.9,47.8c-1,3.7-5.6,4.9-8.2,2.1
				c-12.7-13.7-18.2-33.5-13-52.9c5.1-18.7,19.2-32.7,36.4-38.5l104.3-387.6c-11.9-13.7-17.1-32.8-12.1-51.6
				c5.2-19.4,19.9-33.7,37.8-39.3c3.6-1.1,7.1,2.2,6.1,5.9l-12.9,47.8l0,0c8.2,14.3,26.4,19.2,40.7,10.9l0.6-0.4l13.1-48.7
				c1-3.6,5.4-4.8,8.1-2.2c14.2,13.8,20.7,34.6,15.2,55c-5.1,18.9-19.2,32.9-36.4,38.7l-104.3,387.5c12,13.7,17.2,32.9,12.1,51.8
				c-5.5,20.4-21.6,35.2-40.8,40C1544,2345.2,1540.8,2341.9,1541.7,2338.3z"/>
			<g>
				<g>
					<path style="fill:#FFA42F;" d="M1505.7,2276.3c7.9-4.5,17-5.1,24.9-2.2c-5.7-0.4-11.5,0.9-16.8,3.9l-12.9,47.8c-1,3.7-5.6,4.9-8.2,2.1
						c-0.4-0.5-0.9-1-1.3-1.5c0.6-0.6,1.1-1.4,1.4-2.3L1505.7,2276.3z"/>
				</g>
				<g>
					<path style="fill:#FFA42F;" d="M1542.1,2341.9c18-5.4,32.8-19.8,38.1-39.2c5.1-18.9-0.1-38.1-12.1-51.8l104.3-387.5
						c17.2-5.8,31.4-19.8,36.4-38.7c5.3-19.7-0.5-39.7-13.7-53.5c1.8-1.6,4.7-1.7,6.6,0.1c14.2,13.8,20.7,34.6,15.2,55
						c-5.1,18.9-19.2,32.9-36.4,38.7l-104.3,387.5c12,13.7,17.2,32.9,12.1,51.8c-5.5,20.4-21.6,35.2-40.8,40
						C1545.3,2344.9,1543.1,2343.7,1542.1,2341.9z"/>
				</g>
				<g>
					<path style="fill:#FFA42F;" d="M1652.2,1763.9l-12.9,47.8l0,0c3.7,6.4,9.3,10.9,15.7,13.2c-9.6-0.6-18.7-5.9-23.9-14.9l0,0l12.9-47.8
						c0.3-1.2,0.2-2.4-0.3-3.4c0.8-0.3,1.6-0.6,2.4-0.8C1649.7,1756.9,1653.2,1760.3,1652.2,1763.9z"/>
				</g>
			</g>
			<path style="fill:#FFA42F;" d="M1642.5,1875.7c0.9,0.2,1.7,0.6,2.5,1c-4.9,0.4-9.3,3.8-10.7,8.9l-87.5,327.1c-1.5,5.5,1.1,11.1,6,13.7
				c-1.3,0.1-2.7,0-4-0.4l0,0c-6.4-1.7-10.2-8.3-8.5-14.7l87.5-327.1C1629.5,1877.8,1636.1,1874,1642.5,1875.7L1642.5,1875.7z"/>
		</g>
		<path style="fill:#FF96A9;" d="M1645.6,2004.9c7.4-3.2,11.6-11.1,12.5-18.1c1.7-14.3-8.8-30.1-22.6-35.4c-3.9,6.3,10.5,24.9,10.5,24.9
			s-24.1,2.1-16,21.3c1.7,4,3.9,6.6,6.4,8.3C1639.4,2006.3,1642.5,2006,1645.6,2004.9z"/>
		<path style="fill:#ED7E94;" d="M1636.5,1950.4c-0.4,0.3-0.7,0.6-1,1.1c13.7,5.3,24.2,21.1,22.6,35.4c-0.9,7-5.1,14.9-12.5,18.1
			c-3.1,1.1-6.2,1.4-9.2,1.1c9.6,6.4,23.6-2.7,28-12.5C1669.9,1981.2,1643.2,1945.5,1636.5,1950.4z"/>
	</g>
	<path style="fill:#E4E0FF;" d="M382.9,1500.8h228.8l-90.8-17.2c0,0,11.8-26.6-17.2-24c0,0,3.6-30.6-23.6-24c0,0-1.8-30.6-36.3-27.9
		c-34.5,2.7-19.1,39.3-19.1,39.3s-36.3-25.1-55.4,0C350.3,1472.2,382.9,1500.8,382.9,1500.8z"/>
	<path style="fill:#E4E0FF;" d="M1728.5,1562.5h-374l135.2-21.1c0,0,0.8-40.7,45.2-24.1c0,0,3.6-30.9,38-32.4s32.1,27.9,32.1,27.9
		s43.7-28.6,69.3-0.8c25.6,27.9-15.1,35.4-15.1,35.4L1728.5,1562.5z"/>
</g>
<g>
	<g>
		<g>
			<path style="fill:#C8C2ED;" d="M3196.2,2345.7c0,0,152-69.6,65.5-197.3c-86.5-127.8,80.5-123.4,79.3-205.5
				c-1.2-82.1-109.4-171.1-127.4,66.3c0,0-48-57.5-63.7-18.5c-15.7,39,25.2,64.3,25.2,64.3s-131.4-41.8-144.6,37.1
				c-13.2,78.9,19.2,122,19.2,122s-17.7-53.4-75.8-35.6c-58.1,17.8-10.3,167.2-10.3,167.2H3196.2z"/>
			<g>
				<g>
					<path style="fill:#E4E0FF;" d="M3095,2304.7c-0.2,0-0.4-0.1-0.5-0.2c-0.2-0.3-0.1-0.6,0.1-0.8c49.1-36.4,193.5-388.4,195-392
						c0.1-0.3,0.5-0.5,0.8-0.3c0.3,0.1,0.5,0.5,0.3,0.8c-1.5,3.6-146,355.9-195.4,392.5C3095.2,2304.7,3095.1,2304.7,3095,2304.7z"
						/>
				</g>
				<g>
					<path style="fill:#E4E0FF;" d="M3184.6,2233.9c-21.4,0-38.9-4.2-39.3-4.2c-0.3-0.1-0.5-0.4-0.4-0.7s0.4-0.5,0.7-0.4
						c0.7,0.2,69.4,16.5,100.7-16.1c0.2-0.2,0.6-0.2,0.9,0c0.2,0.2,0.2,0.6,0,0.9C3231.3,2229.8,3206,2233.9,3184.6,2233.9z"/>
				</g>
				<g>
					<path style="fill:#E4E0FF;" d="M3215.1,2086.3c-0.2,0-0.3-0.1-0.4-0.2c-0.4-0.4-40.8-43.9-45.5-71.9c-0.1-0.3,0.2-0.6,0.5-0.7
						c0.3-0.1,0.6,0.2,0.7,0.5c4.7,27.6,44.8,70.8,45.2,71.3c0.2,0.2,0.2,0.6,0,0.9C3215.3,2086.2,3215.2,2086.3,3215.1,2086.3z"/>
				</g>
				<g>
					<path style="fill:#E4E0FF;" d="M3109.3,2289.1c-0.2,0-0.4-0.1-0.5-0.2c-0.4-0.5-38.8-53.1-91.1-75.5c-0.3-0.1-0.4-0.5-0.3-0.8
						c0.1-0.3,0.5-0.4,0.8-0.3c52.7,22.6,91.3,75.4,91.6,75.9c0.2,0.3,0.1,0.6-0.1,0.8C3109.6,2289.1,3109.5,2289.1,3109.3,2289.1z"
						/>
				</g>
			</g>
		</g>
		<g>
			<path style="fill:#E4E0FF;" d="M2663.3,2345.7c0,0-17.6-62,12.1-123c10.6-21.8,87.5,0,87.5,0s-91.4-103.3-10.3-148.5
				c81.2-45.1,78.8,29.5,52.3,90.1c0,0,48.7-23.6,72.4,3.5c23.7,27.1-25.8,68.9-25.8,68.9s95.2-80,157.7-6.8
				c62.5,73.2,41.3,115.9,41.3,115.9H2663.3z"/>
			<g>
				<g>
					<path style="fill:#C8C2ED;" d="M2897.8,2325.3c-0.1,0-0.1,0-0.2,0c-33.5-12.7-61-32.5-81.7-58.7c-16.5-20.9-28.8-46-36.4-74.6
						c-12.9-48.6-7.9-90.9-7.8-91.3c0-0.3,0.3-0.6,0.7-0.5c0.3,0,0.6,0.3,0.5,0.7c-0.1,0.4-5.1,42.5,7.8,90.9
						c11.9,44.6,41.9,103.7,117.4,132.4c0.3,0.1,0.5,0.5,0.3,0.8C2898.2,2325.2,2898,2325.3,2897.8,2325.3z"/>
				</g>
				<g>
					<path style="fill:#C8C2ED;" d="M2857.7,2310.2c-26,0-107.9-3.3-152.7-43.4c-0.2-0.2-0.3-0.6,0-0.9c0.2-0.2,0.6-0.3,0.9,0
						c53.1,47.5,158.9,43,160,43c0.3,0,0.6,0.2,0.6,0.6c0,0.3-0.2,0.6-0.6,0.6C2865.7,2310.1,2862.8,2310.2,2857.7,2310.2z"/>
				</g>
				<g>
					<path style="fill:#C8C2ED;" d="M2793.7,2230.1c-0.2,0-0.4-0.1-0.5-0.4c-0.1-0.3,0-0.7,0.3-0.8c0.4-0.2,44.2-20.1,56-48.2
						c0.1-0.3,0.5-0.5,0.8-0.3c0.3,0.1,0.5,0.5,0.3,0.8c-12,28.6-56.2,48.7-56.6,48.9C2793.8,2230.1,2793.7,2230.1,2793.7,2230.1z"
						/>
				</g>
			</g>
		</g>
		<g>
			<path style="fill:#E4E0FF;" d="M2099.3,2345.7c0,0-159.8-41.1-115.6-135.2c18.6-39.5,62.2-31.8,62.2-31.8s-175.6-150.9-8.3-219.3
				c61.7-25.2,48.8,117.8,48.8,117.8s32.5-52,57.1-29.1c24.6,22.9,6.6,99.3,6.6,99.3s62.2-61.4,123.6-7
				c61.4,54.4,124.1,204.9,124.1,204.9L2099.3,2345.7z"/>
			<g>
				<g>
					<path style="fill:#C8C2ED;" d="M2219.7,2326.4c-0.1,0-0.2,0-0.3-0.1c-78-50.7-126.2-133.7-152.9-194.4c-28.9-65.7-39.5-120.2-39.6-120.7
						c-0.1-0.3,0.2-0.6,0.5-0.7c0.3-0.1,0.6,0.2,0.7,0.5c0.1,0.5,10.7,54.9,39.5,120.5c26.6,60.5,74.7,143.3,152.4,193.8
						c0.3,0.2,0.4,0.6,0.2,0.8C2220,2326.3,2219.9,2326.4,2219.7,2326.4z"/>
				</g>
				<g>
					<path style="fill:#C8C2ED;" d="M2178.6,2299.4c-19.1,0-85.9-2.6-135.4-36.9c-0.3-0.2-0.3-0.6-0.2-0.8c0.2-0.3,0.6-0.3,0.8-0.2
						c57.8,40,139.2,36.7,140,36.6c0.3,0,0.6,0.2,0.6,0.6c0,0.3-0.2,0.6-0.6,0.6C2183.8,2299.3,2181.9,2299.4,2178.6,2299.4z"/>
				</g>
				<g>
					<path style="fill:#C8C2ED;" d="M2053.7,2099.6c-0.1,0-0.2,0-0.2,0c-0.3-0.1-0.4-0.5-0.3-0.8c0.2-0.4,17.8-42.8,10.7-80.2
						c-0.1-0.3,0.2-0.6,0.5-0.7c0.3-0.1,0.6,0.2,0.7,0.5c7.2,37.8-10.6,80.5-10.8,80.9C2054.1,2099.4,2053.9,2099.6,2053.7,2099.6z"
						/>
				</g>
				<g>
					<path style="fill:#C8C2ED;" d="M2155.2,2266.9c-0.1,0-0.2,0-0.2,0c-0.3-0.1-0.5-0.5-0.3-0.8c0.1-0.3,10.6-25.9,4.5-56.7
						c-0.1-0.3,0.1-0.6,0.5-0.7c0.3-0.1,0.6,0.1,0.7,0.5c6.2,31.1-4.4,57.1-4.6,57.4C2155.7,2266.8,2155.5,2266.9,2155.2,2266.9z"/>
				</g>
			</g>
		</g>
		<g>
			<path style="fill:#C8C2ED;" d="M2391.4,2345.3c0,0-126-152.1-77.9-198.2c48.1-46,84.7,26.7,84.7,26.7s-34.2-227.5,100.3-224.6
				c134.6,2.8-12.8,165.1-12.8,165.1s49-47.1,69.4-22c20.4,25-8.5,76.4-45.2,78.7c0,0,171.8-34.5,184.4,35
				c12.6,69.5-28.3,139.1-28.3,139.1L2391.4,2345.3z"/>
			<g>
				<g>
					<path style="fill:#E4E0FF;" d="M2505.4,2333.2c-0.2,0-0.3-0.1-0.4-0.2c-25.7-26.6-42.8-60.3-50.7-100.3c-6.3-32-6.9-68-1.6-107.1
						c9-66.5,32-119.4,32.2-120c0.1-0.3,0.5-0.4,0.8-0.3c0.3,0.1,0.4,0.5,0.3,0.8c-0.2,0.5-23.2,53.4-32.1,119.7
						c-8.2,61.1-5.9,146.6,52,206.4c0.2,0.2,0.2,0.6,0,0.9C2505.7,2333.1,2505.5,2333.2,2505.4,2333.2z"/>
				</g>
				<g>
					<path style="fill:#E4E0FF;" d="M2456.8,2283.5c-7.5,0-17.4-0.6-28.3-3c-21.5-4.7-51.5-17.3-71.8-50.7c-0.2-0.3-0.1-0.7,0.2-0.8
						c0.3-0.2,0.7-0.1,0.8,0.2c20.1,33.1,49.7,45.5,71,50.1c23.1,5,41.7,2.2,41.9,2.1c0.3-0.1,0.6,0.2,0.7,0.5
						c0.1,0.3-0.2,0.6-0.5,0.7C2470.7,2282.7,2465.3,2283.5,2456.8,2283.5z"/>
				</g>
				<g>
					<path style="fill:#E4E0FF;" d="M2449.6,2181.5c-0.1,0-0.2,0-0.3-0.1c-0.3-0.2-0.4-0.5-0.2-0.8c0.2-0.3,21.9-34.7,72.1-57
						c0.3-0.1,0.7,0,0.8,0.3c0.1,0.3,0,0.7-0.3,0.8c-49.9,22.2-71.3,56.2-71.6,56.5C2450,2181.4,2449.8,2181.5,2449.6,2181.5z"/>
				</g>
			</g>
		</g>
	</g>
	<g>
		<path style="fill:#ED7E94;" d="M2227.7,1773.2l-1.7,2.7c5.8,4.4,12.6,7.9,19.8,9.7l8-12.4H2227.7z"/>
		<path style="fill:#ED7E94;" d="M2250,1774.1c-5-8.5-2.8-17.1,5.7-21.3c6.4-2.9,12.4-5.9,17.5-10.4l-1.9-5.7c-71-2.4-43.6,36.5-43.6,36.5
			s13.2,2.7,25.1,4.3C2251.8,1776.5,2250.8,1775.4,2250,1774.1z"/>
		<path style="fill:#FF96A9;" d="M2277.9,1757.1l-4.8-14.7c-5.1,4.5-11,7.5-17.5,10.4c-8.5,4.3-10.7,12.8-5.7,21.3c0.8,1.3,1.8,2.4,2.8,3.4
			c8.8,1.2,16.9,1.8,18.5,0.4c3.8-3.3,0-18.5,0-18.5L2277.9,1757.1z"/>
		<path style="fill:#322666;" d="M2243.8,1756.6c0,0,51.6-22.7,63.9-52.1c0,0-86.2,22.3-104.7,49.7c0,0,7.6,17.1,24.6,18.9l7.1-9.5
			c0,0-6.6-6.6-2.4-12.3C2236.7,1745.7,2243.8,1756.6,2243.8,1756.6z"/>
		<path style="fill:#F6DEF8;" d="M2317.5,1971.7c-24.3-24.3-41.9-53.7-56.6-84.6c10.4,42.9,49.3,93.6,49.3,93.6
			c53.5,2.4,150.1-40.5,150.1-40.5l-4.9-3C2412.4,1957.9,2364.9,1972.9,2317.5,1971.7z"/>
		<path style="fill:#FEF2FE;" d="M2455.4,1937.1l-14.5-9l-112.3,15.6l-50.7-113.2l-110.4,10.4l88.2,35.2c-5.3-11.6-10.2-23.4-15-35.2
			c4.8,11.7,9.7,23.5,15,35.2l3.2,1.3c0.4,3.1,1.1,6.4,1.9,9.6c14.7,30.9,32.3,60.3,56.6,84.6
			C2364.9,1972.9,2412.4,1957.9,2455.4,1937.1z"/>
		<path style="fill:#3F327A;" d="M2284.6,2316.2c6.4,6.6,10.2,10,10.2,10c-18-84.3-70.5-233.1-95.9-303.2
			C2186.7,2127.8,2230.9,2227.2,2284.6,2316.2z"/>
		<path style="fill:#322666;" d="M2198.8,2023c-8.6-23.8-14.2-38.5-14.2-38.5s-88.8-55.4-42.8,94.5c37.4,121.8,115,208.9,142.7,237.3
			C2230.9,2227.2,2186.7,2127.8,2198.8,2023z"/>
		<path style="fill:#3F327A;" d="M2102.9,1975.2c0,0-25.6,157,47.6,351c0,0,39.1-164.1,34.1-341.7C2184.6,1984.4,2132.8,1956.7,2102.9,1975.2z
			"/>
		<path style="fill:#F6DEF8;" d="M2167.2,1980.9c-23.1-41-20.3-95.2-1.9-139c-39.5,17.9-56.2,96.7-60.9,124
			C2123.3,1977.3,2145.3,1981.8,2167.2,1980.9z"/>
		<path style="fill:#322666;" d="M2104.4,1965.9c-1,5.9-1.5,9.3-1.5,9.3s38.8,26.4,70.3,15.3c-2.2-3.1-4.2-6.3-6.1-9.6
			C2145.3,1981.8,2123.3,1977.3,2104.4,1965.9z"/>
		<path style="fill:#322666;" d="M2173.2,1990.5c3.9-1.4,7.8-3.4,11.4-6c2.8-2,5.6-4.5,8.4-7.3c-8.5,2-17.2,3.3-25.9,3.7
			C2169,1984.1,2171.1,1987.4,2173.2,1990.5z"/>
		<path style="fill:#FEF2FE;" d="M2259,1877.4l-91.4-36.5c-0.8,0.3-1.5,0.6-2.3,0.9c-18.4,43.7-21.3,97.9,1.9,139c8.7-0.4,17.4-1.7,25.9-3.7
			C2224,1946.9,2259,1877.4,2259,1877.4z"/>
		<path style="fill:#DB4A87;" d="M2221.4,1837.6c-4.7,7-48.5,74.3-51.6,126.4l33.7,30.2l0.5-0.5C2195.5,1941.3,2201.3,1886.8,2221.4,1837.6z"
			/>
		<path style="fill:#E5649A;" d="M2221.8,1837c0,0-0.1,0.2-0.4,0.6c-20.1,49.2-25.9,103.6-17.3,156.1l26.3-24.4
			C2230.4,1969.4,2208.8,1901.8,2221.8,1837z"/>
		<polygon style="fill:#322666;" points="2146.5,2315.3 2117.8,2343 2237.1,2343 		"/>
		<polygon style="fill:#322666;" points="2283.7,2315.3 2259,2343 2386.9,2343 		"/>
		<g>
			<path style="fill:#FEF2FE;" d="M2562,1634.3l-204.3,180.6c-5.7-18-8-37.3-6.3-57.2c6.9-82.1,79.1-143.1,161.2-136.3
				C2530.2,1622.9,2546.8,1627.3,2562,1634.3z"/>
			<path style="fill:#FEF2FE;" d="M2648.8,1782.6c-6.9,82.1-79.1,143.1-161.2,136.3c-19.2-1.6-37.3-6.8-53.6-14.9c-8.1-4-15.8-8.7-23-14.1
				c-6.3-4.7-12.1-9.8-17.5-15.3l223.4-197.4c4.8,6.1,9.2,12.5,13.1,19.3c4.4,7.8,8.2,16,11.2,24.5l0,0
				C2647.8,1740.2,2650.6,1761,2648.8,1782.6z"/>
			<g>
				<path style="fill:#F6DEF8;" d="M2616.8,1677.1l-223.4,197.4c-16.3-16.7-28.7-37.1-35.8-59.7l204.3-180.6
					C2583.6,1644.1,2602.3,1658.9,2616.8,1677.1z"/>
				<path style="fill:#F6DEF8;" d="M2641.1,1721L2641.1,1721L2434,1904c-8.1-4-15.8-8.7-23-14.1l218.9-193.5
					C2634.3,1704.2,2638.1,1712.4,2641.1,1721z"/>
			</g>
			<polygon style="fill:#7860DC;" points="2304.8,1931.2 2387.3,1858.8 2376.6,1843 2286.9,1914.5 			"/>
			<polygon style="fill:#634AC9;" points="2304.8,1931.2 2306,1930.1 2295.2,1920.1 2382,1851 2376.6,1843 2286.9,1914.5 			"/>
			<path style="fill:#7860DC;" d="M2095.8,2050.7l163-138.5c13-11,32.5-9.5,43.6,3.5h0c11,13,9.5,32.5-3.5,43.6l-163,138.5
				c-13,11-32.5,9.5-43.6-3.5l0,0C2081.2,2081.2,2082.8,2061.7,2095.8,2050.7z"/>
			<path style="fill:#634AC9;" d="M2089.7,2091.2c-5.5-6.4-4.7-16.1,1.8-21.6l186.7-158.6c6.4-5.5,16.1-4.7,21.6,1.8l-7.6-8.9
				c-5.5-6.4-15.1-7.2-21.6-1.8l-186.7,158.6c-6.4,5.5-7.2,15.1-1.8,21.6l20.2,23.8l0,0L2089.7,2091.2z"/>
			<g>
				<path style="fill:#7860DC;" d="M2438.3,1622.2c81.6-34.5,176.1,3.7,210.6,85.3c34.5,81.6-3.7,176.1-85.3,210.6
					c-81.6,34.5-176.1-3.7-210.6-85.3C2318.5,1751.2,2356.7,1656.7,2438.3,1622.2z M2550.8,1887.7c64.8-27.5,95.2-102.5,67.8-167.4
					c-27.5-64.8-102.5-95.2-167.4-67.8c-64.8,27.5-95.3,102.5-67.8,167.4C2410.8,1884.7,2485.9,1915.2,2550.8,1887.7z"/>
			</g>
			<g>
				<path style="fill:#634AC9;" d="M2560.5,1657.2c25.2,13.2,46.1,34.9,58.1,63.1c27.5,64.8-3,139.9-67.8,167.4c-27.9,11.8-57.7,12.9-84.8,5.2
					c32.7,17.2,72.7,20.2,109.3,4.7c64.8-27.5,95.3-102.5,67.8-167.4C2627.5,1693.2,2596.4,1667.5,2560.5,1657.2z"/>
				<path style="fill:#634AC9;" d="M2453.7,1923.6c-33-16.5-60.6-44.4-76.1-81c-34.5-81.6,3.7-176.1,85.3-210.6c36.2-15.3,75-16.3,109.9-5.5
					c-40.6-20.3-89.5-23.4-134.5-4.3c-81.6,34.5-119.8,129-85.3,210.6C2372.2,1878.1,2410,1910.1,2453.7,1923.6z"/>
			</g>
		</g>
		<path style="fill:#FF96A9;" d="M2475.9,1926.9c9.2-3.1,18.5-10.4,21.2-20.7c-5.7-2-16.9,8-22.9,13.9c-3.3-2.3-8.2-4.5-15.6-6.7
			c-18.3-5.5-40.2,0.3-44.2,8.9C2434.2,1930,2455.3,1934.6,2475.9,1926.9z"/>
		<path style="fill:#ED7E94;" d="M2499.1,1907.7c-0.5-0.7-1.2-1.2-2-1.5c-2.8,10.2-12,17.6-21.2,20.7c-20.7,7.7-41.7,3.1-61.4-4.6
			c-2.6,5.6,2.4,12.4,21.2,17.9c31,9.1,41.1,2.4,44.4-3.4C2480,1936.7,2505.3,1916.2,2499.1,1907.7z"/>
		<path style="fill:#F6DEF8;" d="M2127.6,1994.7c2.5,3.3,5.2,6.4,7.9,9.3c0.6-1.8,1.3-3.6,2.2-5.3c-2.5-3-5-6-7.4-9.1
			C2129.3,1991.2,2128.4,1992.9,2127.6,1994.7z"/>
		<path style="fill:#F6DEF8;" d="M2157.8,1978.8l-4.6-8.8c-9.4,4.3-17.7,11-23,19.7c2.4,3.1,4.9,6.1,7.4,9.1
			C2142,1989.8,2149.1,1982.6,2157.8,1978.8z"/>
		<path style="fill:#F6DEF8;" d="M2140.6,1816.1c1.8-2.6,3.5-5.1,5.1-7.6c-10.4,13.5-58.6,76.5-65.8,95.5c0,0,18.8,53.9,47.6,90.7
			c0.8-1.8,1.7-3.4,2.7-5.1c-20-25.9-35.4-55.5-43-86.9C2104.3,1873.6,2120,1844.5,2140.6,1816.1z"/>
		<path style="fill:#FEF2FE;" d="M2153.2,1969.9l-29.7-57l44-72l110.4-10.4c0,0-28.4-32.2-52.1-36.5c0,0-60.6,2.8-78.2,11.8
			c0,0-0.7,0.9-2,2.6c-1.6,2.5-3.3,5.1-5.1,7.6c-20.6,28.4-36.2,57.5-53.3,86.7c7.6,31.3,22.9,61,43,86.9
			C2135.5,1981,2143.8,1974.3,2153.2,1969.9z"/>
		<path style="fill:#FF96A9;" d="M2157.6,2033.5c15,18.8,37,16.5,56.9,8.4c5.3-3.1,9.4-6,11.3-8.2c6.6-7.6-22.7-4.3-22.7-4.3l-10.9-19.9
			c0,0,15.6-13.3,10.9-28.9c-4.7-15.6-11.8,11.4-20.4,15.6c-8.5,4.3-18-4.3-18-4.3l-6.9-13.2c-8.8,3.8-15.9,11-20.2,19.9
			c4.1,4.9,8.4,9.6,12.9,14.2C2154.1,2017.1,2152.7,2027.8,2157.6,2033.5z"/>
		<path style="fill:#ED7E94;" d="M2157.6,2033.5c-5-5.7-3.6-16.3-7.1-20.6c-4.4-4.6-8.7-9.3-12.9-14.2c-0.8,1.7-1.6,3.5-2.2,5.3
			c3.6,4,7.4,7.6,11.3,10.8c0,0,2.4,31.7,19.9,38.4c12.6,4.8,34.3-3.4,47.9-11.2C2194.6,2050,2172.7,2052.3,2157.6,2033.5z"/>
		<path style="fill:#FF96A9;" d="M2214.1,1794.8l8.4,27.2l23.3-36.4c-7.2-1.8-14-5.3-19.8-9.7L2214.1,1794.8z"/>
		<polygon style="fill:#F6DEF8;" points="2204.8,1800.2 2204.8,1846.1 2222.5,1824.6 2231.8,1845.2 2241.9,1802.6 2231.5,1837.4 2222.5,1822 
			2207.1,1839 		"/>
		<g>
			<path style="fill:#F6DEF8;" d="M2226.8,1881.4c-0.7,0-1.3-0.5-1.4-1.2c-0.1-0.8,0.4-1.5,1.2-1.6l25.8-3.6c0.8-0.1,1.5,0.4,1.6,1.2
				c0.1,0.8-0.4,1.5-1.2,1.6l-25.8,3.6C2226.9,1881.4,2226.9,1881.4,2226.8,1881.4z"/>
		</g>
		<polygon style="fill:#DB4A87;" points="2222.5,1824.6 2215.9,1832.6 2220.1,1841.9 2226.7,1834 		"/>
		<circle style="fill:#FEF2FE;" cx="2132" cy="1995.6" r="1.6"/>
	</g>
	<g>
		<path style="fill:#ED7E94;" d="M3055.3,1765.7l-18.5-9l-3.8,13.5c7.2-0.1,14.5-0.4,21.7-1.4L3055.3,1765.7z"/>
		<path style="fill:#FF96A9;" d="M3052.7,1752.4c4.3-7.1-3.6-11.4-8.5-14.9c-6-4.2-11.9-7.8-16.6-13.1l-8.7,16.2l6.4,2.4l-4,15.6
			c0,0,5.4,3,13.2,5.2C3041.6,1762.4,3048.1,1759.3,3052.7,1752.4z"/>
		<path style="fill:#ED7E94;" d="M3031.6,1716.9l-4.1,7.5c4.7,5.3,10.6,8.9,16.6,13.1c5,3.6,12.8,7.8,8.5,14.9c-4.5,6.8-11.1,10-18.3,11.4
			c6,1.7,13.5,2.9,20.9,1.9l25.1-28.4L3031.6,1716.9z"/>
		<path style="fill:#322666;" d="M3057.2,1739.7c0,0-41.2-13.7-58.3-54.9c0,0,58.7,18.5,92.4,54.9c0,0-12.3,22.3-36,26.1l5.7-17.5
			c0,0,11.8-3.3,7.1-9.9C3063.3,1731.6,3057.2,1739.7,3057.2,1739.7z"/>
		<path style="fill:#3F327A;" d="M2997.1,1965.8c-2.4,1.3-3.8,2.4-3.8,2.4l-86.6,356.9C2972.1,2218.2,3012.1,2091.1,2997.1,1965.8z"/>
		<path style="fill:#322666;" d="M2997.1,1965.8c15,125.3-25,252.4-90.4,359.3l-1,4.3c0,0,111.3-96.6,135.9-255.1
			C3062.7,1938.1,3011.8,1957.6,2997.1,1965.8z"/>
		<path style="fill:#3F327A;" d="M3066.7,1968.1c0,0,45,75.6,69.9,361.2c0,0-111.1-160.8-117.7-300c0,0-26.8-12.5-25.6-61.2
			C2994.4,1919.4,3066.7,1968.1,3066.7,1968.1z"/>
		<path style="fill:#F6DEF8;" d="M3027.8,1954.2c-11,7-23.2,10.1-35.5,10.5c0.6,2.2,1,3.4,1,3.4c44.5,28.1,73.4,0,73.4,0
			c-0.5-32,32.2-121.9,32.2-121.9v-10.6c-4.2,5.1-7.6,10.8-10.7,17C3070.4,1888.1,3064.8,1930.8,3027.8,1954.2z"/>
		<path style="fill:#FEF2FE;" d="M2990.9,1849.1l2.8-0.1c1-1.6,1.9-3.3,2.9-4.9c-1,1.6-1.9,3.3-2.9,4.9l92.4-1.8l-95.2-52.1
			c0,0-43.6,59.2-49.7,87.6l-0.1-0.1c0.1,0.6,0.2,1.1,0.4,1.7c5.1,3.9,10.4,7.6,16,10.9c-5.6-3.3-10.9-7-16-10.9
			c2.3,11.3,5.1,22.4,8.3,33.3c14.7-19,27-39.9,39.1-60.5C2989.6,1854.5,2990.3,1851.8,2990.9,1849.1z"/>
		<path style="fill:#F6DEF8;" d="M2988.8,1857.2c-12.1,20.6-24.4,41.5-39.1,60.5c0.9,3.3,1.9,6.6,2.9,9.8
			C2963.9,1913.4,2980.1,1889.1,2988.8,1857.2z"/>
		<path style="fill:#FEF2FE;" d="M3096.9,1798.5l-58.2-13.4l-47.8,9.9l95.2,52.1l47.4,55.9c-0.2,2.3-1.9,6.7-4.4,12.3
			c8.6,3,17.3,5.9,25.9,8.9c2.2-4.9,4.4-9.9,6.4-14.9C3146.5,1869.1,3125.6,1830.4,3096.9,1798.5z"/>
		<path style="fill:#F6DEF8;" d="M3170.9,1912.1c-19.9-54.5-72.5-113.2-72.5-113.2l-1.5-0.3c28.7,31.9,49.6,70.6,64.5,110.9
			c-2,5-4.2,9.9-6.4,14.9c2.8,1,5.7,2,8.5,3.1C3168.3,1918.1,3170.9,1912.1,3170.9,1912.1z"/>
		<path style="fill:#FEF2FE;" d="M2985.2,1834.1c-16.8,37,2.5,113.6,7.1,130.6c12.4-0.4,24.5-3.5,35.5-10.5c36.9-23.4,42.6-66.1,60.4-101.6
			c3.1-6.2,6.5-11.9,10.7-17v-9.3C3098.9,1826.3,3004.1,1792.3,2985.2,1834.1z"/>
		<polygon style="fill:#DB4A87;" points="3031.7,1811.6 3026.4,1818.2 3029.1,1826.2 3034.9,1818.9 		"/>
		<path style="fill:#E5649A;" d="M3030.7,1819.6l-0.1-0.7l-48.3,135.6l28.4,53.4l0.3-0.4C3000.2,1944.7,3018.2,1881.3,3030.7,1819.6z"/>
		<path style="fill:#DB4A87;" d="M3030.7,1819.6c-12.5,61.7-30.6,125.1-19.7,188l35.6-47.8L3030.7,1819.6z"/>
		<g>
			<g>
				
					<rect x="2952.7" y="1552.4" transform="matrix(0.6866 -0.727 0.727 0.6866 -424.9566 2764.8301)" style="fill:#FFDD85;" width="84" height="645.9"/>
				<polygon style="fill:#FFDD85;" points="2813.5,1596.9 2703.4,1713.5 2698.6,1598.2 				"/>
			</g>
			<polygon style="fill:#FFCC46;" points="3202.6,2113.1 3252.1,2060.7 3258.3,2066.6 3200.6,2127.6 2731,1684.2 2739.2,1675.5 			"/>
		</g>
		<path style="fill:#322666;" d="M3129.5,2318.7c0,0-23.8,25.3-22.8,24.9c1.1-0.4,117.6,0,117.6,0L3129.5,2318.7z"/>
		<polygon style="fill:#322666;" points="2916.8,2318.7 2939.7,2343.6 2822.8,2343.6 		"/>
		<path style="fill:#FF96A9;" d="M3033.1,1770.2l-4.8,17.1l4,21l19.2-20.3l3.2-19.3C3047.6,1769.8,3040.2,1770.1,3033.1,1770.2z"/>
		<path style="fill:#FF96A9;" d="M3096.7,2020.3c10.7-5.7,5.7-20.6,9.9-24.9c3-2.9,5.9-5.8,8.7-8.8c-4.2-6.1-10-11.1-16.7-14.4
			c-2,3.4-3.2,5.5-3.2,5.5c-6.6-5.4-15.2,0-15.2,0c-9.5-9.2-0.5-35.8-13.7-17.8c-13.3,18,9,30.8,9,30.8s-6.6,8.5-8.5,9.5
			c-1.9,0.9-15.2-9.5-17.5-0.5c-1.4,5.2,6.8,15.7,18,22.8C3076.7,2025.9,3086.8,2025.9,3096.7,2020.3z"/>
		<path style="fill:#ED7E94;" d="M3106.7,1995.4c-4.3,4.3,0.7,19.2-9.9,24.9c-9.9,5.6-20.1,5.6-29.2,2.2c8.3,5.3,18.4,8.5,27.5,6.1
			c21.3-5.7,17.1-30.3,17.1-30.3c2.2-2.1,4.3-4.2,6.3-6.4c-0.9-1.9-1.9-3.6-3.1-5.3C3112.6,1989.6,3109.7,1992.6,3106.7,1995.4z"/>
		<path style="fill:#F6DEF8;" d="M3102.9,1964.9c-1.6,2.8-3,5.3-4.2,7.3c6.6,3.3,12.5,8.3,16.7,14.4c2.2-2.4,4.4-4.9,6.4-7.4
			C3117.3,1972.3,3111.2,1966.9,3102.9,1964.9z"/>
		<path style="fill:#F6DEF8;" d="M3115.4,1986.6c1.2,1.7,2.2,3.5,3.1,5.3c2.2-2.4,4.4-4.7,6.5-7.2c-0.9-1.9-2-3.8-3.1-5.6
			C3119.7,1981.7,3117.6,1984.2,3115.4,1986.6z"/>
		<path style="fill:#FEF2FE;" d="M3129,1915.4c-6.4,14.2-18.4,35.8-26.2,49.5c8.3,2,14.5,7.4,18.9,14.3c13.8-16.7,24.3-35.5,33.2-54.9
			C3146.3,1921.3,3137.6,1918.4,3129,1915.4z"/>
		<path style="fill:#F6DEF8;" d="M3163.5,1927.4c-2.8-1.1-5.7-2.1-8.5-3.1c-8.8,19.4-19.4,38.1-33.2,54.9c1.2,1.8,2.2,3.6,3.1,5.6
			C3143,1964.1,3156,1941.8,3163.5,1927.4z"/>
		<path style="fill:#ED7E94;" d="M2899.2,1847.6c3,2.4,6,5,8.9,7.6c1.6-0.5,3.2-1.2,4.8-1.9l-7.8-8.1c0,0,7.6-36.5-12.8-50.2
			c0,0,3.8-19.9-5.7-21.3c-0.1,0-0.2,0-0.3,0c3.1,7.4,1.9,17.8,5.7,22.8C2902.1,1812.1,2902.8,1831.3,2899.2,1847.6z"/>
		<path style="fill:#FF96A9;" d="M2908.1,1855.2c-2.9-2.6-5.9-5.1-8.9-7.6c3.6-16.3,2.8-35.5-7.1-51.2c-3.8-4.9-2.6-15.3-5.7-22.8
			c-9.6-0.7-27.9,34-6.3,71.5c0,0,1.1,4.2,3.3,10.8C2891.2,1858.7,2900,1858,2908.1,1855.2z"/>
		<path style="fill:#F6DEF8;" d="M2921.8,1862.6l-8.9-9.3c-1.6,0.7-3.2,1.3-4.8,1.9c3.4,3,6.8,6.1,10.2,9.2
			C2919.5,1863.8,2920.7,1863.3,2921.8,1862.6z"/>
		<path style="fill:#F6DEF8;" d="M2918.3,1864.4c-3.4-3.1-6.8-6.2-10.2-9.2c-8.1,2.7-16.9,3.5-24.7,0.9c1.2,3.5,2.7,7.7,4.5,12.4
			C2898.2,1869.9,2909.1,1868.7,2918.3,1864.4z"/>
		<path style="fill:#F6DEF8;" d="M2941.1,1882.6l-19.3-20c-1.1,0.7-2.3,1.2-3.5,1.8c7.5,6.8,15.1,13.7,23.1,19.9
			C2941.3,1883.8,2941.2,1883.2,2941.1,1882.6z"/>
		<path style="fill:#FEF2FE;" d="M2938.3,1931.5c4-4.5,7.8-9.1,11.4-13.8c-3.2-10.9-6-22.1-8.3-33.3c-8.1-6.2-15.6-13.1-23.1-19.9
			c-9.2,4.3-20.1,5.5-30.4,4.1c2.9,7.5,6.7,16.1,11.4,24.8C2909.3,1908.9,2921.2,1923.2,2938.3,1931.5z"/>
		<path style="fill:#F6DEF8;" d="M2938.3,1931.5c-17.1-8.3-29-22.6-39-38.2c9.8,18.4,23.5,37.5,41.4,47.7c0,0,5-4.7,12-13.5
			c-1-3.3-2-6.5-2.9-9.8C2946.1,1922.4,2942.3,1927,2938.3,1931.5z"/>
		<polygon style="fill:#F6DEF8;" points="3031.7,1811.6 3040.3,1831.3 3060.3,1793.3 3040.4,1825.6 3032.3,1808.3 3020.2,1824.4 
			3020.2,1791.7 3017.5,1829.2 		"/>
		<g>
			<path style="fill:#F6DEF8;" d="M3076.1,1854.8h-32c-0.8,0-1.4-0.6-1.4-1.4c0-0.8,0.6-1.4,1.4-1.4h32c0.8,0,1.4,0.6,1.4,1.4
				C3077.6,1854.1,3076.9,1854.8,3076.1,1854.8z"/>
		</g>
		<circle style="fill:#E4E0FF;" cx="3120.5" cy="1985.3" r="2.1"/>
		<circle style="fill:#E4E0FF;" cx="2912.6" cy="1859.5" r="2.3"/>
	</g>
	<g>
		<path style="fill:#C8C2ED;" d="M3287.6,2347.9H2017.3c-1.4,0-2.5-1.1-2.5-2.5c0-1.4,1.1-2.5,2.5-2.5h1270.3c1.4,0,2.5,1.1,2.5,2.5
			C3290.1,2346.8,3289,2347.9,3287.6,2347.9z"/>
	</g>
</g>
</svg>
